  0
SECTION
  2
BLOCKS
  0
ENDSEC
  0
SECTION
  2
ENTITIES
  0
LINE
  8
0
 10
16.618
 20
16.1756
 11
16.3383
 21
16.4863
  0
LINE
  8
0
 10
16.3383
 20
16.4863
 11
16
 21
16.732
  0
LINE
  8
0
 10
16
 20
16.732
 11
15.618
 21
16.9021
  0
LINE
  8
0
 10
15.618
 20
16.9021
 11
15.209
 21
16.989
  0
LINE
  8
0
 10
15.209
 20
16.989
 11
-15.209
 21
16.989
  0
LINE
  8
0
 10
-15.209
 20
16.989
 11
-15.618
 21
16.9021
  0
LINE
  8
0
 10
-15.618
 20
16.9021
 11
-16
 21
16.732
  0
LINE
  8
0
 10
-16
 20
16.732
 11
-16.3383
 21
16.4863
  0
LINE
  8
0
 10
-16.3383
 20
16.4863
 11
-16.618
 21
16.1756
  0
LINE
  8
0
 10
-16.618
 20
16.1756
 11
-16.8271
 21
15.8135
  0
LINE
  8
0
 10
-16.8271
 20
15.8135
 11
-16.9563
 21
15.4158
  0
LINE
  8
0
 10
-16.9563
 20
15.4158
 11
-17
 21
15
  0
LINE
  8
0
 10
-17
 20
15
 11
-17
 21
-15
  0
LINE
  8
0
 10
-17
 20
-15
 11
-16.9563
 21
-15.4158
  0
LINE
  8
0
 10
-16.9563
 20
-15.4158
 11
-16.8271
 21
-15.8135
  0
LINE
  8
0
 10
-16.8271
 20
-15.8135
 11
-16.618
 21
-16.1756
  0
LINE
  8
0
 10
-16.618
 20
-16.1756
 11
-16.3383
 21
-16.4863
  0
LINE
  8
0
 10
-16.3383
 20
-16.4863
 11
-16
 21
-16.732
  0
LINE
  8
0
 10
-16
 20
-16.732
 11
-15.618
 21
-16.9021
  0
LINE
  8
0
 10
-15.618
 20
-16.9021
 11
-15.209
 21
-16.989
  0
LINE
  8
0
 10
-15.209
 20
-16.989
 11
15.209
 21
-16.989
  0
LINE
  8
0
 10
15.209
 20
-16.989
 11
15.618
 21
-16.9021
  0
LINE
  8
0
 10
15.618
 20
-16.9021
 11
16
 21
-16.732
  0
LINE
  8
0
 10
16
 20
-16.732
 11
16.3383
 21
-16.4863
  0
LINE
  8
0
 10
16.3383
 20
-16.4863
 11
16.618
 21
-16.1756
  0
LINE
  8
0
 10
16.618
 20
-16.1756
 11
16.8271
 21
-15.8135
  0
LINE
  8
0
 10
16.8271
 20
-15.8135
 11
16.9563
 21
-15.4158
  0
LINE
  8
0
 10
16.9563
 20
-15.4158
 11
17
 21
-15
  0
LINE
  8
0
 10
17
 20
-15
 11
17
 21
15
  0
LINE
  8
0
 10
17
 20
15
 11
16.9563
 21
15.4158
  0
LINE
  8
0
 10
16.9563
 20
15.4158
 11
16.8271
 21
15.8135
  0
LINE
  8
0
 10
16.8271
 20
15.8135
 11
16.618
 21
16.1756
  0
ENDSEC
  0
SECTION
  2
OBJECTS
  0
DICTIONARY
  0
ENDSEC
  0
EOF
