  0
SECTION
  2
BLOCKS
  0
ENDSEC
  0
SECTION
  2
ENTITIES
  0
LINE
  8
0
 10
15.618
 20
-16.9021
 11
16
 21
-16.732
  0
LINE
  8
0
 10
16
 20
-16.732
 11
16.3383
 21
-16.4863
  0
LINE
  8
0
 10
16.3383
 20
-16.4863
 11
16.618
 21
-16.1756
  0
LINE
  8
0
 10
16.618
 20
-16.1756
 11
16.8271
 21
-15.8135
  0
LINE
  8
0
 10
16.8271
 20
-15.8135
 11
16.9563
 21
-15.4158
  0
LINE
  8
0
 10
16.9563
 20
-15.4158
 11
17
 21
-15
  0
LINE
  8
0
 10
17
 20
-15
 11
17
 21
15
  0
LINE
  8
0
 10
17
 20
15
 11
16.9563
 21
15.4158
  0
LINE
  8
0
 10
16.9563
 20
15.4158
 11
16.8271
 21
15.8135
  0
LINE
  8
0
 10
16.8271
 20
15.8135
 11
16.618
 21
16.1756
  0
LINE
  8
0
 10
16.618
 20
16.1756
 11
16.3383
 21
16.4863
  0
LINE
  8
0
 10
16.3383
 20
16.4863
 11
16
 21
16.732
  0
LINE
  8
0
 10
16
 20
16.732
 11
15.618
 21
16.9021
  0
LINE
  8
0
 10
15.618
 20
16.9021
 11
15.209
 21
16.989
  0
LINE
  8
0
 10
15.209
 20
16.989
 11
-15.209
 21
16.989
  0
LINE
  8
0
 10
-15.209
 20
16.989
 11
-15.618
 21
16.9021
  0
LINE
  8
0
 10
-15.618
 20
16.9021
 11
-16
 21
16.732
  0
LINE
  8
0
 10
-16
 20
16.732
 11
-16.3383
 21
16.4863
  0
LINE
  8
0
 10
-16.3383
 20
16.4863
 11
-16.618
 21
16.1756
  0
LINE
  8
0
 10
-16.618
 20
16.1756
 11
-16.8271
 21
15.8135
  0
LINE
  8
0
 10
-16.8271
 20
15.8135
 11
-16.9563
 21
15.4158
  0
LINE
  8
0
 10
-16.9563
 20
15.4158
 11
-17
 21
15
  0
LINE
  8
0
 10
-17
 20
15
 11
-17
 21
-15
  0
LINE
  8
0
 10
-17
 20
-15
 11
-16.9563
 21
-15.4158
  0
LINE
  8
0
 10
-16.9563
 20
-15.4158
 11
-16.8271
 21
-15.8135
  0
LINE
  8
0
 10
-16.8271
 20
-15.8135
 11
-16.618
 21
-16.1756
  0
LINE
  8
0
 10
-16.618
 20
-16.1756
 11
-16.3383
 21
-16.4863
  0
LINE
  8
0
 10
-16.3383
 20
-16.4863
 11
-16
 21
-16.732
  0
LINE
  8
0
 10
-16
 20
-16.732
 11
-15.618
 21
-16.9021
  0
LINE
  8
0
 10
-15.618
 20
-16.9021
 11
-15.209
 21
-16.989
  0
LINE
  8
0
 10
-15.209
 20
-16.989
 11
15.209
 21
-16.989
  0
LINE
  8
0
 10
15.209
 20
-16.989
 11
15.618
 21
-16.9021
  0
LINE
  8
0
 10
14.8949
 20
14.0005
 11
14.6894
 21
14.0442
  0
LINE
  8
0
 10
14.6894
 20
14.0442
 11
14.4975
 21
14.1296
  0
LINE
  8
0
 10
14.4975
 20
14.1296
 11
14.3275
 21
14.2531
  0
LINE
  8
0
 10
14.3275
 20
14.2531
 11
14.1869
 21
14.4093
  0
LINE
  8
0
 10
14.1869
 20
14.4093
 11
14.0819
 21
14.5912
  0
LINE
  8
0
 10
14.0819
 20
14.5912
 11
14.017
 21
14.791
  0
LINE
  8
0
 10
14.017
 20
14.791
 11
13.995
 21
15
  0
LINE
  8
0
 10
13.995
 20
15
 11
14.017
 21
15.2089
  0
LINE
  8
0
 10
14.017
 20
15.2089
 11
14.0819
 21
15.4088
  0
LINE
  8
0
 10
14.0819
 20
15.4088
 11
14.1869
 21
15.5907
  0
LINE
  8
0
 10
14.1869
 20
15.5907
 11
14.3275
 21
15.7469
  0
LINE
  8
0
 10
14.3275
 20
15.7469
 11
14.4975
 21
15.8703
  0
LINE
  8
0
 10
14.4975
 20
15.8703
 11
14.6894
 21
15.9558
  0
LINE
  8
0
 10
14.6894
 20
15.9558
 11
14.8949
 21
15.9995
  0
LINE
  8
0
 10
14.8949
 20
15.9995
 11
15.105
 21
15.9995
  0
LINE
  8
0
 10
15.105
 20
15.9995
 11
15.3105
 21
15.9558
  0
LINE
  8
0
 10
15.3105
 20
15.9558
 11
15.5025
 21
15.8703
  0
LINE
  8
0
 10
15.5025
 20
15.8703
 11
15.6725
 21
15.7469
  0
LINE
  8
0
 10
15.6725
 20
15.7469
 11
15.813
 21
15.5907
  0
LINE
  8
0
 10
15.813
 20
15.5907
 11
15.9181
 21
15.4088
  0
LINE
  8
0
 10
15.9181
 20
15.4088
 11
15.983
 21
15.2089
  0
LINE
  8
0
 10
15.983
 20
15.2089
 11
16.005
 21
15
  0
LINE
  8
0
 10
16.005
 20
15
 11
15.983
 21
14.791
  0
LINE
  8
0
 10
15.983
 20
14.791
 11
15.9181
 21
14.5912
  0
LINE
  8
0
 10
15.9181
 20
14.5912
 11
15.813
 21
14.4093
  0
LINE
  8
0
 10
15.813
 20
14.4093
 11
15.6725
 21
14.2531
  0
LINE
  8
0
 10
15.6725
 20
14.2531
 11
15.5025
 21
14.1296
  0
LINE
  8
0
 10
15.5025
 20
14.1296
 11
15.3105
 21
14.0442
  0
LINE
  8
0
 10
15.3105
 20
14.0442
 11
15.105
 21
14.0005
  0
LINE
  8
0
 10
15.105
 20
14.0005
 11
14.8949
 21
14.0005
  0
LINE
  8
0
 10
-15.105
 20
-15.9995
 11
-15.3105
 21
-15.9558
  0
LINE
  8
0
 10
-15.3105
 20
-15.9558
 11
-15.5025
 21
-15.8703
  0
LINE
  8
0
 10
-15.5025
 20
-15.8703
 11
-15.6725
 21
-15.7469
  0
LINE
  8
0
 10
-15.6725
 20
-15.7469
 11
-15.813
 21
-15.5907
  0
LINE
  8
0
 10
-15.813
 20
-15.5907
 11
-15.9181
 21
-15.4088
  0
LINE
  8
0
 10
-15.9181
 20
-15.4088
 11
-15.983
 21
-15.2089
  0
LINE
  8
0
 10
-15.983
 20
-15.2089
 11
-16.005
 21
-15
  0
LINE
  8
0
 10
-16.005
 20
-15
 11
-15.983
 21
-14.791
  0
LINE
  8
0
 10
-15.983
 20
-14.791
 11
-15.9181
 21
-14.5912
  0
LINE
  8
0
 10
-15.9181
 20
-14.5912
 11
-15.813
 21
-14.4093
  0
LINE
  8
0
 10
-15.813
 20
-14.4093
 11
-15.6725
 21
-14.2531
  0
LINE
  8
0
 10
-15.6725
 20
-14.2531
 11
-15.5025
 21
-14.1296
  0
LINE
  8
0
 10
-15.5025
 20
-14.1296
 11
-15.3105
 21
-14.0442
  0
LINE
  8
0
 10
-15.3105
 20
-14.0442
 11
-15.105
 21
-14.0005
  0
LINE
  8
0
 10
-15.105
 20
-14.0005
 11
-14.8949
 21
-14.0005
  0
LINE
  8
0
 10
-14.8949
 20
-14.0005
 11
-14.6894
 21
-14.0442
  0
LINE
  8
0
 10
-14.6894
 20
-14.0442
 11
-14.4975
 21
-14.1296
  0
LINE
  8
0
 10
-14.4975
 20
-14.1296
 11
-14.3275
 21
-14.2531
  0
LINE
  8
0
 10
-14.3275
 20
-14.2531
 11
-14.1869
 21
-14.4093
  0
LINE
  8
0
 10
-14.1869
 20
-14.4093
 11
-14.0819
 21
-14.5912
  0
LINE
  8
0
 10
-14.0819
 20
-14.5912
 11
-14.017
 21
-14.791
  0
LINE
  8
0
 10
-14.017
 20
-14.791
 11
-13.995
 21
-15
  0
LINE
  8
0
 10
-13.995
 20
-15
 11
-14.017
 21
-15.2089
  0
LINE
  8
0
 10
-14.017
 20
-15.2089
 11
-14.0819
 21
-15.4088
  0
LINE
  8
0
 10
-14.0819
 20
-15.4088
 11
-14.1869
 21
-15.5907
  0
LINE
  8
0
 10
-14.1869
 20
-15.5907
 11
-14.3275
 21
-15.7469
  0
LINE
  8
0
 10
-14.3275
 20
-15.7469
 11
-14.4975
 21
-15.8703
  0
LINE
  8
0
 10
-14.4975
 20
-15.8703
 11
-14.6894
 21
-15.9558
  0
LINE
  8
0
 10
-14.6894
 20
-15.9558
 11
-14.8949
 21
-15.9995
  0
LINE
  8
0
 10
-14.8949
 20
-15.9995
 11
-15.105
 21
-15.9995
  0
ENDSEC
  0
SECTION
  2
OBJECTS
  0
DICTIONARY
  0
ENDSEC
  0
EOF
