G04 #@! TF.GenerationSoftware,KiCad,Pcbnew,(5.1.8)-1*
G04 #@! TF.CreationDate,2021-01-25T23:00:58-08:00*
G04 #@! TF.ProjectId,audioboard,61756469-6f62-46f6-9172-642e6b696361,rev?*
G04 #@! TF.SameCoordinates,Original*
G04 #@! TF.FileFunction,Profile,NP*
%FSLAX46Y46*%
G04 Gerber Fmt 4.6, Leading zero omitted, Abs format (unit mm)*
G04 Created by KiCad (PCBNEW (5.1.8)-1) date 2021-01-25 23:00:58*
%MOMM*%
%LPD*%
G01*
G04 APERTURE LIST*
G04 #@! TA.AperFunction,Profile*
%ADD10C,0.200000*%
G04 #@! TD*
G04 APERTURE END LIST*
D10*
X206979100Y-67826500D02*
X206769999Y-67464400D01*
X207108300Y-68224200D02*
X206979100Y-67826500D01*
X207152000Y-68640000D02*
X207108300Y-68224200D01*
X207152000Y-98640000D02*
X207152000Y-68640000D01*
X207108300Y-99055800D02*
X207152000Y-98640000D01*
X206979100Y-99453500D02*
X207108300Y-99055800D01*
X206769999Y-99815600D02*
X206979100Y-99453500D01*
X206490300Y-100126300D02*
X206769999Y-99815600D01*
X206152000Y-100372000D02*
X206490300Y-100126300D01*
X205770000Y-100542100D02*
X206152000Y-100372000D01*
X205361000Y-100629000D02*
X205770000Y-100542100D01*
X174943000Y-100629000D02*
X205361000Y-100629000D01*
X174534000Y-100542100D02*
X174943000Y-100629000D01*
X174152000Y-100372000D02*
X174534000Y-100542100D01*
X173813700Y-100126300D02*
X174152000Y-100372000D01*
X173534001Y-99815600D02*
X173813700Y-100126300D01*
X173324900Y-99453500D02*
X173534001Y-99815600D01*
X173195700Y-99055800D02*
X173324900Y-99453500D01*
X173152000Y-98640000D02*
X173195700Y-99055800D01*
X173152000Y-68640000D02*
X173152000Y-98640000D01*
X173195700Y-68224200D02*
X173152000Y-68640000D01*
X173324900Y-67826500D02*
X173195700Y-68224200D01*
X173534001Y-67464400D02*
X173324900Y-67826500D01*
X173813700Y-67153700D02*
X173534001Y-67464400D01*
X174152000Y-66908000D02*
X173813700Y-67153700D01*
X174534000Y-66737900D02*
X174152000Y-66908000D01*
X174943000Y-66651000D02*
X174534000Y-66737900D01*
X205361000Y-66651000D02*
X174943000Y-66651000D01*
X205770000Y-66737900D02*
X205361000Y-66651000D01*
X206152000Y-66908000D02*
X205770000Y-66737900D01*
X206490300Y-67153700D02*
X206152000Y-66908000D01*
X206769999Y-67464400D02*
X206490300Y-67153700D01*
M02*
