G04 #@! TF.GenerationSoftware,KiCad,Pcbnew,(5.1.8)-1*
G04 #@! TF.CreationDate,2021-01-25T23:00:58-08:00*
G04 #@! TF.ProjectId,audioboard,61756469-6f62-46f6-9172-642e6b696361,rev?*
G04 #@! TF.SameCoordinates,Original*
G04 #@! TF.FileFunction,Copper,L4,Bot*
G04 #@! TF.FilePolarity,Positive*
%FSLAX46Y46*%
G04 Gerber Fmt 4.6, Leading zero omitted, Abs format (unit mm)*
G04 Created by KiCad (PCBNEW (5.1.8)-1) date 2021-01-25 23:00:58*
%MOMM*%
%LPD*%
G01*
G04 APERTURE LIST*
G04 #@! TA.AperFunction,ComponentPad*
%ADD10O,1.100000X2.200000*%
G04 #@! TD*
G04 #@! TA.AperFunction,ComponentPad*
%ADD11C,3.000000*%
G04 #@! TD*
G04 #@! TA.AperFunction,ComponentPad*
%ADD12O,1.700000X1.700000*%
G04 #@! TD*
G04 #@! TA.AperFunction,ComponentPad*
%ADD13R,1.700000X1.700000*%
G04 #@! TD*
G04 #@! TA.AperFunction,SMDPad,CuDef*
%ADD14R,0.740000X2.400000*%
G04 #@! TD*
G04 #@! TA.AperFunction,SMDPad,CuDef*
%ADD15R,2.800000X2.200000*%
G04 #@! TD*
G04 #@! TA.AperFunction,SMDPad,CuDef*
%ADD16R,2.600000X2.800000*%
G04 #@! TD*
G04 #@! TA.AperFunction,SMDPad,CuDef*
%ADD17R,2.800000X2.000000*%
G04 #@! TD*
G04 #@! TA.AperFunction,ViaPad*
%ADD18C,0.800000*%
G04 #@! TD*
G04 #@! TA.AperFunction,ViaPad*
%ADD19C,0.600000*%
G04 #@! TD*
G04 #@! TA.AperFunction,Conductor*
%ADD20C,0.250000*%
G04 #@! TD*
G04 #@! TA.AperFunction,Conductor*
%ADD21C,0.500000*%
G04 #@! TD*
G04 APERTURE END LIST*
D10*
X195578000Y-94996000D03*
X204218000Y-94996000D03*
X195578000Y-98796000D03*
X204218000Y-98796000D03*
D11*
X175133000Y-98679000D03*
D12*
X205105000Y-91440000D03*
D13*
X205105000Y-88900000D03*
D14*
X205740000Y-84500000D03*
X205740000Y-80600000D03*
X204470000Y-84500000D03*
X204470000Y-80600000D03*
X203200000Y-84500000D03*
X203200000Y-80600000D03*
X187960000Y-94062000D03*
X187960000Y-97962000D03*
X189230000Y-94062000D03*
X189230000Y-97962000D03*
X190500000Y-94062000D03*
X190500000Y-97962000D03*
X191770000Y-94062000D03*
X191770000Y-97962000D03*
X193040000Y-94062000D03*
X193040000Y-97962000D03*
D15*
X182770000Y-71850000D03*
X175370000Y-73750000D03*
D16*
X182670000Y-81250000D03*
D17*
X182770000Y-69050000D03*
D12*
X175006000Y-89535000D03*
X175006000Y-86995000D03*
X175006000Y-84455000D03*
X175006000Y-81915000D03*
X175006000Y-79375000D03*
D13*
X175006000Y-76835000D03*
G04 #@! TA.AperFunction,SMDPad,CuDef*
G36*
G01*
X179010000Y-96700000D02*
X179010000Y-99600000D01*
G75*
G02*
X178760000Y-99850000I-250000J0D01*
G01*
X177760000Y-99850000D01*
G75*
G02*
X177510000Y-99600000I0J250000D01*
G01*
X177510000Y-96700000D01*
G75*
G02*
X177760000Y-96450000I250000J0D01*
G01*
X178760000Y-96450000D01*
G75*
G02*
X179010000Y-96700000I0J-250000D01*
G01*
G37*
G04 #@! TD.AperFunction*
G04 #@! TA.AperFunction,SMDPad,CuDef*
G36*
G01*
X185710000Y-96700000D02*
X185710000Y-99600000D01*
G75*
G02*
X185460000Y-99850000I-250000J0D01*
G01*
X184460000Y-99850000D01*
G75*
G02*
X184210000Y-99600000I0J250000D01*
G01*
X184210000Y-96700000D01*
G75*
G02*
X184460000Y-96450000I250000J0D01*
G01*
X185460000Y-96450000D01*
G75*
G02*
X185710000Y-96700000I0J-250000D01*
G01*
G37*
G04 #@! TD.AperFunction*
G04 #@! TA.AperFunction,SMDPad,CuDef*
G36*
G01*
X181110000Y-90900000D02*
X181110000Y-93900000D01*
G75*
G02*
X180860000Y-94150000I-250000J0D01*
G01*
X180360000Y-94150000D01*
G75*
G02*
X180110000Y-93900000I0J250000D01*
G01*
X180110000Y-90900000D01*
G75*
G02*
X180360000Y-90650000I250000J0D01*
G01*
X180860000Y-90650000D01*
G75*
G02*
X181110000Y-90900000I0J-250000D01*
G01*
G37*
G04 #@! TD.AperFunction*
G04 #@! TA.AperFunction,SMDPad,CuDef*
G36*
G01*
X183110000Y-90900000D02*
X183110000Y-93900000D01*
G75*
G02*
X182860000Y-94150000I-250000J0D01*
G01*
X182360000Y-94150000D01*
G75*
G02*
X182110000Y-93900000I0J250000D01*
G01*
X182110000Y-90900000D01*
G75*
G02*
X182360000Y-90650000I250000J0D01*
G01*
X182860000Y-90650000D01*
G75*
G02*
X183110000Y-90900000I0J-250000D01*
G01*
G37*
G04 #@! TD.AperFunction*
D18*
X183793139Y-90096210D03*
X175006000Y-92202000D03*
X188468000Y-71628000D03*
X179832000Y-87376000D03*
X200660000Y-76454000D03*
X203524230Y-76821540D03*
X194564000Y-74676000D03*
X179832000Y-70866000D03*
X184150000Y-74000001D03*
X204514347Y-86150347D03*
X199390000Y-87667000D03*
X189700999Y-83058000D03*
X200914000Y-87630000D03*
X188247692Y-84328000D03*
D19*
X182651674Y-77068442D03*
X179792528Y-81452585D03*
X188976000Y-77216000D03*
X198628000Y-80772000D03*
X190326121Y-96022433D03*
D18*
X201930000Y-96520000D03*
D19*
X187112169Y-97367831D03*
X196850000Y-91440000D03*
X194310000Y-89535000D03*
D18*
X195580000Y-77470000D03*
X201930000Y-81280000D03*
X187174691Y-80920096D03*
X195580000Y-91530000D03*
X187452000Y-69088000D03*
X185203000Y-81343308D03*
X186436000Y-69088000D03*
X188245399Y-81175094D03*
X199390000Y-90714990D03*
X179832000Y-68580000D03*
X182372000Y-73660000D03*
X201676000Y-86868000D03*
X186690000Y-99060000D03*
X203200000Y-89117000D03*
D19*
X194310000Y-77470000D03*
X205050981Y-76041757D03*
D18*
X187497653Y-91612653D03*
D19*
X191960846Y-82175000D03*
X188981500Y-90027716D03*
X191426153Y-84076760D03*
X189675754Y-90425226D03*
X192405000Y-91440000D03*
X192051153Y-83425000D03*
X192376154Y-81359640D03*
X195105163Y-92334347D03*
D18*
X191040021Y-88392000D03*
X201942651Y-83292657D03*
X201930000Y-82280003D03*
X190880010Y-78740000D03*
X197643359Y-87598641D03*
X201930000Y-78195000D03*
X188468000Y-70104000D03*
X201516979Y-85852000D03*
X201612500Y-91122500D03*
X179587347Y-90260000D03*
X185129000Y-84328000D03*
D19*
X179832000Y-82296000D03*
D18*
X189701000Y-78740000D03*
D19*
X194310000Y-76200000D03*
D20*
X180816000Y-71850000D02*
X179832000Y-70866000D01*
X182770000Y-71850000D02*
X180816000Y-71850000D01*
X180610000Y-91836810D02*
X180610000Y-92400000D01*
X182350600Y-90096210D02*
X180610000Y-91836810D01*
X183793139Y-90096210D02*
X182350600Y-90096210D01*
X204470000Y-86106000D02*
X204514347Y-86150347D01*
X204470000Y-84500000D02*
X204470000Y-86106000D01*
X191770000Y-97962000D02*
X190500000Y-97962000D01*
X190500000Y-97962000D02*
X189230000Y-97962000D01*
X189230000Y-97962000D02*
X187960000Y-97962000D01*
X187365831Y-97367831D02*
X187960000Y-97962000D01*
X187112169Y-97367831D02*
X187365831Y-97367831D01*
X190326121Y-97788121D02*
X190500000Y-97962000D01*
X190326121Y-96022433D02*
X190326121Y-97788121D01*
X195580000Y-77470000D02*
X203200000Y-77470000D01*
X203200000Y-77470000D02*
X203200000Y-80600000D01*
X202610000Y-80600000D02*
X201930000Y-81280000D01*
X203200000Y-80600000D02*
X202610000Y-80600000D01*
X186944000Y-81150787D02*
X187174691Y-80920096D01*
X192405000Y-90171410D02*
X192405000Y-90170000D01*
X195580000Y-91530000D02*
X195305010Y-91255010D01*
X186944000Y-86809588D02*
X186944000Y-81150787D01*
X193488599Y-91255009D02*
X192405000Y-90171410D01*
X192405000Y-90170000D02*
X190304412Y-90170000D01*
X195305010Y-91255010D02*
X193488599Y-91255009D01*
X190304412Y-90170000D02*
X186944000Y-86809588D01*
X184295001Y-79589999D02*
X184295001Y-80435309D01*
X184230001Y-79524999D02*
X184295001Y-79589999D01*
X183384691Y-79524999D02*
X184230001Y-79524999D01*
X181864000Y-78004308D02*
X183384691Y-79524999D01*
X183830684Y-73275001D02*
X181864000Y-75241685D01*
X184295001Y-80435309D02*
X185203000Y-81343308D01*
X184430001Y-73275001D02*
X183830684Y-73275001D01*
X184495001Y-73210001D02*
X184430001Y-73275001D01*
X181864000Y-75241685D02*
X181864000Y-78004308D01*
X184495001Y-72610684D02*
X184495001Y-73210001D01*
X187452000Y-69653685D02*
X184495001Y-72610684D01*
X187452000Y-69088000D02*
X187452000Y-69653685D01*
X182808000Y-69088000D02*
X182770000Y-69050000D01*
X186436000Y-69088000D02*
X182808000Y-69088000D01*
X194113002Y-90805000D02*
X193675000Y-90805000D01*
X193675000Y-90805000D02*
X199299990Y-90805000D01*
X199299990Y-90805000D02*
X199390000Y-90714990D01*
X190490811Y-89719989D02*
X187522692Y-86751870D01*
X192591400Y-89719989D02*
X190490811Y-89719989D01*
X193675000Y-90805000D02*
X193675000Y-90803589D01*
X193675000Y-90803589D02*
X192591400Y-89719989D01*
X187522692Y-81897801D02*
X188245399Y-81175094D01*
X187522692Y-86751870D02*
X187522692Y-81897801D01*
X179832000Y-69288000D02*
X175370000Y-73750000D01*
X179832000Y-68580000D02*
X179832000Y-69288000D01*
X180594000Y-79174000D02*
X182670000Y-81250000D01*
X180594000Y-75438000D02*
X180594000Y-79174000D01*
X182372000Y-73660000D02*
X180594000Y-75438000D01*
X203200000Y-85344000D02*
X203200000Y-84500000D01*
D21*
X192500001Y-99612001D02*
X193040000Y-99072002D01*
X187242001Y-99612001D02*
X192500001Y-99612001D01*
X193040000Y-99072002D02*
X193040000Y-97962000D01*
X186690000Y-99060000D02*
X187242001Y-99612001D01*
X203200000Y-90793002D02*
X203200000Y-89117000D01*
X196747012Y-97245990D02*
X203200000Y-90793002D01*
X193756010Y-97245990D02*
X196747012Y-97245990D01*
X193040000Y-97962000D02*
X193756010Y-97245990D01*
X203200000Y-85909685D02*
X203200000Y-84500000D01*
X202241685Y-86868000D02*
X203200000Y-85909685D01*
X201676000Y-86868000D02*
X202241685Y-86868000D01*
D20*
X204738223Y-75728999D02*
X205050981Y-76041757D01*
X196051001Y-75728999D02*
X204738223Y-75728999D01*
X194310000Y-77470000D02*
X196051001Y-75728999D01*
X185339001Y-89670999D02*
X182610000Y-92400000D01*
X185339001Y-88542997D02*
X185339001Y-89670999D01*
X186341999Y-87539999D02*
X185339001Y-88542997D01*
X187038001Y-87539999D02*
X186341999Y-87539999D01*
X187497653Y-87999651D02*
X187038001Y-87539999D01*
X187497653Y-91612653D02*
X187497653Y-87999651D01*
X188981500Y-93813500D02*
X188981500Y-90027716D01*
X189230000Y-94062000D02*
X188981500Y-93813500D01*
X190500000Y-91249472D02*
X189675754Y-90425226D01*
X190500000Y-94062000D02*
X190500000Y-91249472D01*
X191770000Y-92075000D02*
X192405000Y-91440000D01*
X191770000Y-94062000D02*
X191770000Y-92075000D01*
X193377510Y-94062000D02*
X193040000Y-94062000D01*
X195105163Y-92334347D02*
X193377510Y-94062000D01*
X203298000Y-88392000D02*
X191040021Y-88392000D01*
X205740000Y-85950000D02*
X203298000Y-88392000D01*
X205740000Y-84500000D02*
X205740000Y-85950000D01*
X205740000Y-82050000D02*
X205740000Y-80600000D01*
X204897342Y-82892658D02*
X205740000Y-82050000D01*
X202342650Y-82892658D02*
X204897342Y-82892658D01*
X201942651Y-83292657D02*
X202342650Y-82892658D01*
X204470000Y-81485002D02*
X204470000Y-80600000D01*
X203674999Y-82280003D02*
X204470000Y-81485002D01*
X201930000Y-82280003D02*
X203674999Y-82280003D01*
X197643359Y-87598641D02*
X197897359Y-87598641D01*
X192697662Y-87598641D02*
X197643359Y-87598641D01*
X192666303Y-87630000D02*
X192697662Y-87598641D01*
X191135000Y-87630000D02*
X192666303Y-87630000D01*
X190500000Y-86995000D02*
X191135000Y-87630000D01*
X190500000Y-79120010D02*
X190500000Y-86995000D01*
X190880010Y-78740000D02*
X190500000Y-79120010D01*
M02*
