%TF.GenerationSoftware,KiCad,Pcbnew,(5.1.8)-1*%
%TF.CreationDate,2021-03-06T05:42:10-08:00*%
%TF.ProjectId,audioboard,61756469-6f62-46f6-9172-642e6b696361,rev?*%
%TF.SameCoordinates,Original*%
%TF.FileFunction,Legend,Bot*%
%TF.FilePolarity,Positive*%
%FSLAX46Y46*%
G04 Gerber Fmt 4.6, Leading zero omitted, Abs format (unit mm)*
G04 Created by KiCad (PCBNEW (5.1.8)-1) date 2021-03-06 05:42:10*
%MOMM*%
%LPD*%
G01*
G04 APERTURE LIST*
%ADD10C,0.120000*%
%ADD11C,0.100000*%
%ADD12C,0.127000*%
%ADD13C,0.400000*%
%ADD14C,0.200000*%
%ADD15C,0.150000*%
%ADD16C,0.254000*%
%ADD17C,0.015000*%
G04 APERTURE END LIST*
D10*
%TO.C,J2*%
X112018000Y-74224000D02*
X112018000Y-74174000D01*
X112018000Y-74174000D02*
X110708000Y-74174000D01*
X110708000Y-74174000D02*
X110708000Y-79794000D01*
X110708000Y-79794000D02*
X115078000Y-79794000D01*
X115078000Y-79794000D02*
X115078000Y-74174000D01*
X115078000Y-74174000D02*
X113768000Y-74174000D01*
X113768000Y-74174000D02*
X113768000Y-74224000D01*
X111258000Y-77684000D02*
X114528000Y-77684000D01*
X111258000Y-76184000D02*
X114528000Y-76184000D01*
X111258000Y-79794000D02*
X111258000Y-74174000D01*
X114528000Y-79794000D02*
X114528000Y-74174000D01*
X112118000Y-77684000D02*
X112118000Y-79146500D01*
X112118000Y-79146500D02*
X112268000Y-79184000D01*
X112268000Y-79184000D02*
X112418000Y-79146500D01*
X112418000Y-79146500D02*
X112418000Y-77684000D01*
X113368000Y-77684000D02*
X113368000Y-79146500D01*
X113368000Y-79146500D02*
X113518000Y-79184000D01*
X113518000Y-79184000D02*
X113668000Y-79146500D01*
X113668000Y-79146500D02*
X113668000Y-77684000D01*
X112518000Y-74224000D02*
X112518000Y-74174000D01*
X112518000Y-74174000D02*
X113268000Y-74174000D01*
X113268000Y-74174000D02*
X113268000Y-74224000D01*
X112268000Y-73684000D02*
X111968000Y-73084000D01*
X111968000Y-73084000D02*
X112568000Y-73084000D01*
X112568000Y-73084000D02*
X112268000Y-73684000D01*
D11*
%TO.C,SW1*%
X64040000Y-85285000D02*
X67990000Y-85285000D01*
X64090000Y-82355000D02*
X68040000Y-82355000D01*
D10*
%TO.C,J6*%
X64783000Y-79943000D02*
X68313000Y-79943000D01*
X64783000Y-76013000D02*
X68313000Y-76013000D01*
X63458000Y-79878000D02*
X64783000Y-79878000D01*
X64783000Y-79943000D02*
X64783000Y-79878000D01*
X68313000Y-79943000D02*
X68313000Y-79878000D01*
X64783000Y-76078000D02*
X64783000Y-76013000D01*
X68313000Y-76078000D02*
X68313000Y-76013000D01*
%TO.C,J5*%
X66053000Y-71815000D02*
X69583000Y-71815000D01*
X66053000Y-65345000D02*
X69583000Y-65345000D01*
X64728000Y-71750000D02*
X66053000Y-71750000D01*
X66053000Y-71815000D02*
X66053000Y-71750000D01*
X69583000Y-71815000D02*
X69583000Y-71750000D01*
X66053000Y-65410000D02*
X66053000Y-65345000D01*
X69583000Y-65410000D02*
X69583000Y-65345000D01*
D12*
%TO.C,J4*%
X97522000Y-100632000D02*
X101222000Y-100632000D01*
X101222000Y-100632000D02*
X101222000Y-101132000D01*
X101222000Y-101132000D02*
X101222000Y-105582000D01*
X101222000Y-101132000D02*
X102722000Y-101132000D01*
X102722000Y-101132000D02*
X102722000Y-106132000D01*
X102722000Y-106132000D02*
X101922000Y-106132000D01*
X96522000Y-106632000D02*
X90322000Y-106632000D01*
X86672000Y-106632000D02*
X85722000Y-106632000D01*
X85722000Y-100632000D02*
X94522000Y-100632000D01*
D13*
X102672000Y-107382000D02*
G75*
G03*
X102672000Y-107382000I-200000J0D01*
G01*
D12*
X85722000Y-100632000D02*
X85722000Y-106632000D01*
D14*
%TO.C,J1*%
X92558000Y-76284000D02*
X92558000Y-75134000D01*
X92558000Y-75134000D02*
X101498000Y-75134000D01*
X101498000Y-75134000D02*
X101498000Y-76284000D01*
%TO.C,J2*%
D15*
X113221333Y-80336380D02*
X113221333Y-81050666D01*
X113268952Y-81193523D01*
X113364190Y-81288761D01*
X113507047Y-81336380D01*
X113602285Y-81336380D01*
X112792761Y-80431619D02*
X112745142Y-80384000D01*
X112649904Y-80336380D01*
X112411809Y-80336380D01*
X112316571Y-80384000D01*
X112268952Y-80431619D01*
X112221333Y-80526857D01*
X112221333Y-80622095D01*
X112268952Y-80764952D01*
X112840380Y-81336380D01*
X112221333Y-81336380D01*
%TO.C,SW1*%
D16*
X67733333Y-84334047D02*
X67551904Y-84394523D01*
X67249523Y-84394523D01*
X67128571Y-84334047D01*
X67068095Y-84273571D01*
X67007619Y-84152619D01*
X67007619Y-84031666D01*
X67068095Y-83910714D01*
X67128571Y-83850238D01*
X67249523Y-83789761D01*
X67491428Y-83729285D01*
X67612380Y-83668809D01*
X67672857Y-83608333D01*
X67733333Y-83487380D01*
X67733333Y-83366428D01*
X67672857Y-83245476D01*
X67612380Y-83185000D01*
X67491428Y-83124523D01*
X67189047Y-83124523D01*
X67007619Y-83185000D01*
X66584285Y-83124523D02*
X66281904Y-84394523D01*
X66040000Y-83487380D01*
X65798095Y-84394523D01*
X65495714Y-83124523D01*
X64346666Y-84394523D02*
X65072380Y-84394523D01*
X64709523Y-84394523D02*
X64709523Y-83124523D01*
X64830476Y-83305952D01*
X64951428Y-83426904D01*
X65072380Y-83487380D01*
%TO.C,J6*%
D15*
X66881333Y-80395380D02*
X66881333Y-81109666D01*
X66928952Y-81252523D01*
X67024190Y-81347761D01*
X67167047Y-81395380D01*
X67262285Y-81395380D01*
X65976571Y-80395380D02*
X66167047Y-80395380D01*
X66262285Y-80443000D01*
X66309904Y-80490619D01*
X66405142Y-80633476D01*
X66452761Y-80823952D01*
X66452761Y-81204904D01*
X66405142Y-81300142D01*
X66357523Y-81347761D01*
X66262285Y-81395380D01*
X66071809Y-81395380D01*
X65976571Y-81347761D01*
X65928952Y-81300142D01*
X65881333Y-81204904D01*
X65881333Y-80966809D01*
X65928952Y-80871571D01*
X65976571Y-80823952D01*
X66071809Y-80776333D01*
X66262285Y-80776333D01*
X66357523Y-80823952D01*
X66405142Y-80871571D01*
X66452761Y-80966809D01*
%TO.C,J5*%
X68151333Y-72267380D02*
X68151333Y-72981666D01*
X68198952Y-73124523D01*
X68294190Y-73219761D01*
X68437047Y-73267380D01*
X68532285Y-73267380D01*
X67198952Y-72267380D02*
X67675142Y-72267380D01*
X67722761Y-72743571D01*
X67675142Y-72695952D01*
X67579904Y-72648333D01*
X67341809Y-72648333D01*
X67246571Y-72695952D01*
X67198952Y-72743571D01*
X67151333Y-72838809D01*
X67151333Y-73076904D01*
X67198952Y-73172142D01*
X67246571Y-73219761D01*
X67341809Y-73267380D01*
X67579904Y-73267380D01*
X67675142Y-73219761D01*
X67722761Y-73172142D01*
%TO.C,J4*%
D17*
X98402888Y-96667531D02*
X98402888Y-97385096D01*
X98450726Y-97528609D01*
X98546401Y-97624285D01*
X98689914Y-97672122D01*
X98785590Y-97672122D01*
X97493973Y-97002395D02*
X97493973Y-97672122D01*
X97733161Y-96619694D02*
X97972349Y-97337259D01*
X97350460Y-97337259D01*
%TO.C,J1*%
X97236333Y-83121380D02*
X97236333Y-83835666D01*
X97283952Y-83978523D01*
X97379190Y-84073761D01*
X97522047Y-84121380D01*
X97617285Y-84121380D01*
X96236333Y-84121380D02*
X96807761Y-84121380D01*
X96522047Y-84121380D02*
X96522047Y-83121380D01*
X96617285Y-83264238D01*
X96712523Y-83359476D01*
X96807761Y-83407095D01*
%TD*%
M02*
