%TF.GenerationSoftware,KiCad,Pcbnew,(5.1.8)-1*%
%TF.CreationDate,2021-03-06T05:42:10-08:00*%
%TF.ProjectId,audioboard,61756469-6f62-46f6-9172-642e6b696361,rev?*%
%TF.SameCoordinates,Original*%
%TF.FileFunction,Copper,L4,Bot*%
%TF.FilePolarity,Positive*%
%FSLAX46Y46*%
G04 Gerber Fmt 4.6, Leading zero omitted, Abs format (unit mm)*
G04 Created by KiCad (PCBNEW (5.1.8)-1) date 2021-03-06 05:42:10*
%MOMM*%
%LPD*%
G01*
G04 APERTURE LIST*
%TA.AperFunction,ComponentPad*%
%ADD10O,0.900000X1.400000*%
%TD*%
%TA.AperFunction,SMDPad,CuDef*%
%ADD11R,1.050000X2.000000*%
%TD*%
%TA.AperFunction,SMDPad,CuDef*%
%ADD12R,2.400000X0.740000*%
%TD*%
%TA.AperFunction,SMDPad,CuDef*%
%ADD13R,2.200000X2.800000*%
%TD*%
%TA.AperFunction,SMDPad,CuDef*%
%ADD14R,2.800000X2.600000*%
%TD*%
%TA.AperFunction,SMDPad,CuDef*%
%ADD15R,2.000000X2.800000*%
%TD*%
%TA.AperFunction,ComponentPad*%
%ADD16O,1.700000X1.700000*%
%TD*%
%TA.AperFunction,ComponentPad*%
%ADD17R,1.700000X1.700000*%
%TD*%
%TA.AperFunction,SMDPad,CuDef*%
%ADD18R,0.800000X1.200000*%
%TD*%
%TA.AperFunction,SMDPad,CuDef*%
%ADD19R,0.760000X1.200000*%
%TD*%
%TA.AperFunction,SMDPad,CuDef*%
%ADD20R,0.700000X1.200000*%
%TD*%
%TA.AperFunction,ComponentPad*%
%ADD21O,1.100000X2.200000*%
%TD*%
%TA.AperFunction,ViaPad*%
%ADD22C,0.600000*%
%TD*%
%TA.AperFunction,ViaPad*%
%ADD23C,1.000000*%
%TD*%
%TA.AperFunction,Conductor*%
%ADD24C,0.200000*%
%TD*%
%TA.AperFunction,Conductor*%
%ADD25C,0.241300*%
%TD*%
%TA.AperFunction,Conductor*%
%ADD26C,0.500000*%
%TD*%
G04 APERTURE END LIST*
D10*
%TO.P,J2,2*%
%TO.N,GND*%
X113518000Y-75184000D03*
%TO.P,J2,1*%
%TO.N,VBAT*%
%TA.AperFunction,ComponentPad*%
G36*
G01*
X111818000Y-75659000D02*
X111818000Y-74709000D01*
G75*
G02*
X112043000Y-74484000I225000J0D01*
G01*
X112493000Y-74484000D01*
G75*
G02*
X112718000Y-74709000I0J-225000D01*
G01*
X112718000Y-75659000D01*
G75*
G02*
X112493000Y-75884000I-225000J0D01*
G01*
X112043000Y-75884000D01*
G75*
G02*
X111818000Y-75659000I0J225000D01*
G01*
G37*
%TD.AperFunction*%
%TD*%
D11*
%TO.P,SW1,1*%
%TO.N,Reset*%
X63815000Y-83820000D03*
%TO.P,SW1,2*%
%TO.N,GND*%
X68265000Y-83820000D03*
%TD*%
D12*
%TO.P,J6,6*%
%TO.N,IO0*%
X68498000Y-76708000D03*
%TO.P,J6,5*%
%TO.N,RXD0*%
X64598000Y-76708000D03*
%TO.P,J6,4*%
%TO.N,GND*%
X68498000Y-77978000D03*
%TO.P,J6,3*%
%TO.N,TXD0*%
X64598000Y-77978000D03*
%TO.P,J6,2*%
%TO.N,Net-(J6-Pad2)*%
X68498000Y-79248000D03*
%TO.P,J6,1*%
%TO.N,Reset*%
X64598000Y-79248000D03*
%TD*%
%TO.P,J5,10*%
%TO.N,Net-(J5-Pad10)*%
X69768000Y-66040000D03*
%TO.P,J5,9*%
%TO.N,GND*%
X65868000Y-66040000D03*
%TO.P,J5,8*%
%TO.N,MTDI*%
X69768000Y-67310000D03*
%TO.P,J5,7*%
%TO.N,GND*%
X65868000Y-67310000D03*
%TO.P,J5,6*%
%TO.N,MTDO*%
X69768000Y-68580000D03*
%TO.P,J5,5*%
%TO.N,GND*%
X65868000Y-68580000D03*
%TO.P,J5,4*%
%TO.N,MTCK*%
X69768000Y-69850000D03*
%TO.P,J5,3*%
%TO.N,GND*%
X65868000Y-69850000D03*
%TO.P,J5,2*%
%TO.N,MTMS*%
X69768000Y-71120000D03*
%TO.P,J5,1*%
%TO.N,Net-(J5-Pad1)*%
X65868000Y-71120000D03*
%TD*%
D13*
%TO.P,J4,4*%
%TO.N,GNDA*%
X97822000Y-107332000D03*
%TO.P,J4,3*%
%TO.N,HP_R*%
X95922000Y-99932000D03*
D14*
%TO.P,J4,2*%
%TO.N,HP_L*%
X88422000Y-107232000D03*
D15*
%TO.P,J4,1*%
%TO.N,HP_MIC*%
X100622000Y-107332000D03*
%TD*%
D16*
%TO.P,J3,3*%
%TO.N,LINEIN_L*%
X83312000Y-107442000D03*
%TO.P,J3,2*%
%TO.N,LINEIN_R*%
X80772000Y-107442000D03*
D17*
%TO.P,J3,1*%
%TO.N,GNDA*%
X78232000Y-107442000D03*
%TD*%
D18*
%TO.P,J1,B12*%
%TO.N,GND*%
X94278000Y-81614000D03*
%TO.P,J1,A12*%
X99778000Y-81614000D03*
D19*
%TO.P,J1,B9*%
%TO.N,VBUS*%
X95508000Y-81614000D03*
%TO.P,J1,A9*%
X98548000Y-81614000D03*
D20*
%TO.P,J1,A5*%
%TO.N,Net-(J1-PadA5)*%
X96528000Y-81614000D03*
%TO.P,J1,B5*%
%TO.N,Net-(J1-PadB5)*%
X97528000Y-81614000D03*
D21*
%TO.P,J1,S1*%
%TO.N,GND*%
X92708000Y-81534000D03*
%TO.P,J1,S2*%
X101348000Y-81534000D03*
%TO.P,J1,S3*%
X92708000Y-77734000D03*
%TO.P,J1,S4*%
X101348000Y-77734000D03*
%TD*%
D22*
%TO.N,GND*%
X99822000Y-77216000D03*
X99822000Y-80264000D03*
X93726000Y-80264000D03*
X101346000Y-85344000D03*
X98552000Y-84420000D03*
X95758000Y-87884000D03*
X77216000Y-89916000D03*
X77216000Y-85344000D03*
X77470000Y-96266000D03*
%TO.N,+3V3*%
X77862685Y-83997724D03*
D23*
X98552000Y-91694000D03*
D22*
%TO.N,GNDA*%
X79672265Y-99738265D03*
X86106000Y-104394000D03*
D23*
%TO.N,VBUS*%
X94742000Y-80264000D03*
D22*
X98552000Y-80264000D03*
D23*
X100477002Y-84074000D03*
D22*
%TO.N,HP_R*%
X94234000Y-101854000D03*
%TO.N,HP_L*%
X79756000Y-102362000D03*
%TO.N,Net-(J1-PadA5)*%
X96520000Y-80264000D03*
%TO.N,Net-(J1-PadB5)*%
X97536000Y-80264000D03*
%TD*%
D24*
%TO.N,GND*%
X99778000Y-80308000D02*
X99822000Y-80264000D01*
X99778000Y-81614000D02*
X99778000Y-80308000D01*
X93726000Y-81062000D02*
X93726000Y-80264000D01*
X94278000Y-81614000D02*
X93726000Y-81062000D01*
D25*
%TO.N,GNDA*%
X86868000Y-105156000D02*
X86106000Y-104394000D01*
X95646000Y-105156000D02*
X86868000Y-105156000D01*
X97822000Y-107332000D02*
X95646000Y-105156000D01*
D26*
%TO.N,VBUS*%
X98548000Y-82354002D02*
X98548000Y-81614000D01*
X97844002Y-83058000D02*
X98548000Y-82354002D01*
X96211998Y-83058000D02*
X97844002Y-83058000D01*
X95508000Y-82354002D02*
X96211998Y-83058000D01*
X95508000Y-81614000D02*
X95508000Y-82354002D01*
X98548000Y-81614000D02*
X98548000Y-82038000D01*
X95508000Y-81030000D02*
X94742000Y-80264000D01*
X95508000Y-81614000D02*
X95508000Y-81030000D01*
X98548000Y-80268000D02*
X98552000Y-80264000D01*
X98548000Y-81614000D02*
X98548000Y-80268000D01*
X98548000Y-82144998D02*
X100477002Y-84074000D01*
X98548000Y-81614000D02*
X98548000Y-82144998D01*
D25*
%TO.N,HP_R*%
X95922000Y-100166000D02*
X95922000Y-99932000D01*
X94234000Y-101854000D02*
X95922000Y-100166000D01*
%TO.N,HP_L*%
X87461349Y-106271349D02*
X88422000Y-107232000D01*
X82238785Y-106271349D02*
X87461349Y-106271349D01*
X79756000Y-103788564D02*
X82238785Y-106271349D01*
X79756000Y-102362000D02*
X79756000Y-103788564D01*
D24*
%TO.N,Net-(J1-PadA5)*%
X96528000Y-80272000D02*
X96520000Y-80264000D01*
X96528000Y-81614000D02*
X96528000Y-80272000D01*
%TO.N,Net-(J1-PadB5)*%
X97528000Y-80272000D02*
X97536000Y-80264000D01*
X97528000Y-81614000D02*
X97528000Y-80272000D01*
%TD*%
M02*
