%TF.GenerationSoftware,KiCad,Pcbnew,(5.1.8)-1*%
%TF.CreationDate,2021-03-06T05:42:10-08:00*%
%TF.ProjectId,audioboard,61756469-6f62-46f6-9172-642e6b696361,rev?*%
%TF.SameCoordinates,Original*%
%TF.FileFunction,Paste,Top*%
%TF.FilePolarity,Positive*%
%FSLAX46Y46*%
G04 Gerber Fmt 4.6, Leading zero omitted, Abs format (unit mm)*
G04 Created by KiCad (PCBNEW (5.1.8)-1) date 2021-03-06 05:42:10*
%MOMM*%
%LPD*%
G01*
G04 APERTURE LIST*
%ADD10R,1.500000X2.000000*%
%ADD11R,3.800000X2.000000*%
%ADD12C,0.100000*%
%ADD13R,0.900000X0.800000*%
%ADD14R,0.550000X1.050000*%
%ADD15R,1.200000X1.500000*%
%ADD16R,1.200000X0.900000*%
G04 APERTURE END LIST*
%TO.C,R16*%
G36*
G01*
X97975000Y-86120000D02*
X97605000Y-86120000D01*
G75*
G02*
X97470000Y-85985000I0J135000D01*
G01*
X97470000Y-85715000D01*
G75*
G02*
X97605000Y-85580000I135000J0D01*
G01*
X97975000Y-85580000D01*
G75*
G02*
X98110000Y-85715000I0J-135000D01*
G01*
X98110000Y-85985000D01*
G75*
G02*
X97975000Y-86120000I-135000J0D01*
G01*
G37*
G36*
G01*
X97975000Y-87140000D02*
X97605000Y-87140000D01*
G75*
G02*
X97470000Y-87005000I0J135000D01*
G01*
X97470000Y-86735000D01*
G75*
G02*
X97605000Y-86600000I135000J0D01*
G01*
X97975000Y-86600000D01*
G75*
G02*
X98110000Y-86735000I0J-135000D01*
G01*
X98110000Y-87005000D01*
G75*
G02*
X97975000Y-87140000I-135000J0D01*
G01*
G37*
%TD*%
%TO.C,R4*%
G36*
G01*
X96197000Y-81548000D02*
X95827000Y-81548000D01*
G75*
G02*
X95692000Y-81413000I0J135000D01*
G01*
X95692000Y-81143000D01*
G75*
G02*
X95827000Y-81008000I135000J0D01*
G01*
X96197000Y-81008000D01*
G75*
G02*
X96332000Y-81143000I0J-135000D01*
G01*
X96332000Y-81413000D01*
G75*
G02*
X96197000Y-81548000I-135000J0D01*
G01*
G37*
G36*
G01*
X96197000Y-82568000D02*
X95827000Y-82568000D01*
G75*
G02*
X95692000Y-82433000I0J135000D01*
G01*
X95692000Y-82163000D01*
G75*
G02*
X95827000Y-82028000I135000J0D01*
G01*
X96197000Y-82028000D01*
G75*
G02*
X96332000Y-82163000I0J-135000D01*
G01*
X96332000Y-82433000D01*
G75*
G02*
X96197000Y-82568000I-135000J0D01*
G01*
G37*
%TD*%
D10*
%TO.C,U3*%
X100852000Y-89814000D03*
X96252000Y-89814000D03*
X98552000Y-89814000D03*
D11*
X98552000Y-96114000D03*
%TD*%
%TO.C,U2*%
G36*
G01*
X83785000Y-89641000D02*
X83785000Y-89071000D01*
G75*
G02*
X84035000Y-88821000I250000J0D01*
G01*
X84605000Y-88821000D01*
G75*
G02*
X84855000Y-89071000I0J-250000D01*
G01*
X84855000Y-89641000D01*
G75*
G02*
X84605000Y-89891000I-250000J0D01*
G01*
X84035000Y-89891000D01*
G75*
G02*
X83785000Y-89641000I0J250000D01*
G01*
G37*
G36*
G01*
X83785000Y-88321000D02*
X83785000Y-87751000D01*
G75*
G02*
X84035000Y-87501000I250000J0D01*
G01*
X84605000Y-87501000D01*
G75*
G02*
X84855000Y-87751000I0J-250000D01*
G01*
X84855000Y-88321000D01*
G75*
G02*
X84605000Y-88571000I-250000J0D01*
G01*
X84035000Y-88571000D01*
G75*
G02*
X83785000Y-88321000I0J250000D01*
G01*
G37*
G36*
G01*
X83785000Y-87001000D02*
X83785000Y-86431000D01*
G75*
G02*
X84035000Y-86181000I250000J0D01*
G01*
X84605000Y-86181000D01*
G75*
G02*
X84855000Y-86431000I0J-250000D01*
G01*
X84855000Y-87001000D01*
G75*
G02*
X84605000Y-87251000I-250000J0D01*
G01*
X84035000Y-87251000D01*
G75*
G02*
X83785000Y-87001000I0J250000D01*
G01*
G37*
G36*
G01*
X83785000Y-85681000D02*
X83785000Y-85111000D01*
G75*
G02*
X84035000Y-84861000I250000J0D01*
G01*
X84605000Y-84861000D01*
G75*
G02*
X84855000Y-85111000I0J-250000D01*
G01*
X84855000Y-85681000D01*
G75*
G02*
X84605000Y-85931000I-250000J0D01*
G01*
X84035000Y-85931000D01*
G75*
G02*
X83785000Y-85681000I0J250000D01*
G01*
G37*
G36*
G01*
X82465000Y-89641000D02*
X82465000Y-89071000D01*
G75*
G02*
X82715000Y-88821000I250000J0D01*
G01*
X83285000Y-88821000D01*
G75*
G02*
X83535000Y-89071000I0J-250000D01*
G01*
X83535000Y-89641000D01*
G75*
G02*
X83285000Y-89891000I-250000J0D01*
G01*
X82715000Y-89891000D01*
G75*
G02*
X82465000Y-89641000I0J250000D01*
G01*
G37*
G36*
G01*
X82465000Y-88321000D02*
X82465000Y-87751000D01*
G75*
G02*
X82715000Y-87501000I250000J0D01*
G01*
X83285000Y-87501000D01*
G75*
G02*
X83535000Y-87751000I0J-250000D01*
G01*
X83535000Y-88321000D01*
G75*
G02*
X83285000Y-88571000I-250000J0D01*
G01*
X82715000Y-88571000D01*
G75*
G02*
X82465000Y-88321000I0J250000D01*
G01*
G37*
G36*
G01*
X82465000Y-87001000D02*
X82465000Y-86431000D01*
G75*
G02*
X82715000Y-86181000I250000J0D01*
G01*
X83285000Y-86181000D01*
G75*
G02*
X83535000Y-86431000I0J-250000D01*
G01*
X83535000Y-87001000D01*
G75*
G02*
X83285000Y-87251000I-250000J0D01*
G01*
X82715000Y-87251000D01*
G75*
G02*
X82465000Y-87001000I0J250000D01*
G01*
G37*
G36*
G01*
X82465000Y-85681000D02*
X82465000Y-85111000D01*
G75*
G02*
X82715000Y-84861000I250000J0D01*
G01*
X83285000Y-84861000D01*
G75*
G02*
X83535000Y-85111000I0J-250000D01*
G01*
X83535000Y-85681000D01*
G75*
G02*
X83285000Y-85931000I-250000J0D01*
G01*
X82715000Y-85931000D01*
G75*
G02*
X82465000Y-85681000I0J250000D01*
G01*
G37*
G36*
G01*
X81145000Y-89641000D02*
X81145000Y-89071000D01*
G75*
G02*
X81395000Y-88821000I250000J0D01*
G01*
X81965000Y-88821000D01*
G75*
G02*
X82215000Y-89071000I0J-250000D01*
G01*
X82215000Y-89641000D01*
G75*
G02*
X81965000Y-89891000I-250000J0D01*
G01*
X81395000Y-89891000D01*
G75*
G02*
X81145000Y-89641000I0J250000D01*
G01*
G37*
G36*
G01*
X81145000Y-88321000D02*
X81145000Y-87751000D01*
G75*
G02*
X81395000Y-87501000I250000J0D01*
G01*
X81965000Y-87501000D01*
G75*
G02*
X82215000Y-87751000I0J-250000D01*
G01*
X82215000Y-88321000D01*
G75*
G02*
X81965000Y-88571000I-250000J0D01*
G01*
X81395000Y-88571000D01*
G75*
G02*
X81145000Y-88321000I0J250000D01*
G01*
G37*
G36*
G01*
X81145000Y-87001000D02*
X81145000Y-86431000D01*
G75*
G02*
X81395000Y-86181000I250000J0D01*
G01*
X81965000Y-86181000D01*
G75*
G02*
X82215000Y-86431000I0J-250000D01*
G01*
X82215000Y-87001000D01*
G75*
G02*
X81965000Y-87251000I-250000J0D01*
G01*
X81395000Y-87251000D01*
G75*
G02*
X81145000Y-87001000I0J250000D01*
G01*
G37*
G36*
G01*
X81145000Y-85681000D02*
X81145000Y-85111000D01*
G75*
G02*
X81395000Y-84861000I250000J0D01*
G01*
X81965000Y-84861000D01*
G75*
G02*
X82215000Y-85111000I0J-250000D01*
G01*
X82215000Y-85681000D01*
G75*
G02*
X81965000Y-85931000I-250000J0D01*
G01*
X81395000Y-85931000D01*
G75*
G02*
X81145000Y-85681000I0J250000D01*
G01*
G37*
G36*
G01*
X79825000Y-89641000D02*
X79825000Y-89071000D01*
G75*
G02*
X80075000Y-88821000I250000J0D01*
G01*
X80645000Y-88821000D01*
G75*
G02*
X80895000Y-89071000I0J-250000D01*
G01*
X80895000Y-89641000D01*
G75*
G02*
X80645000Y-89891000I-250000J0D01*
G01*
X80075000Y-89891000D01*
G75*
G02*
X79825000Y-89641000I0J250000D01*
G01*
G37*
G36*
G01*
X79825000Y-88321000D02*
X79825000Y-87751000D01*
G75*
G02*
X80075000Y-87501000I250000J0D01*
G01*
X80645000Y-87501000D01*
G75*
G02*
X80895000Y-87751000I0J-250000D01*
G01*
X80895000Y-88321000D01*
G75*
G02*
X80645000Y-88571000I-250000J0D01*
G01*
X80075000Y-88571000D01*
G75*
G02*
X79825000Y-88321000I0J250000D01*
G01*
G37*
G36*
G01*
X79825000Y-87001000D02*
X79825000Y-86431000D01*
G75*
G02*
X80075000Y-86181000I250000J0D01*
G01*
X80645000Y-86181000D01*
G75*
G02*
X80895000Y-86431000I0J-250000D01*
G01*
X80895000Y-87001000D01*
G75*
G02*
X80645000Y-87251000I-250000J0D01*
G01*
X80075000Y-87251000D01*
G75*
G02*
X79825000Y-87001000I0J250000D01*
G01*
G37*
G36*
G01*
X79825000Y-85681000D02*
X79825000Y-85111000D01*
G75*
G02*
X80075000Y-84861000I250000J0D01*
G01*
X80645000Y-84861000D01*
G75*
G02*
X80895000Y-85111000I0J-250000D01*
G01*
X80895000Y-85681000D01*
G75*
G02*
X80645000Y-85931000I-250000J0D01*
G01*
X80075000Y-85931000D01*
G75*
G02*
X79825000Y-85681000I0J250000D01*
G01*
G37*
G36*
G01*
X79465000Y-84263500D02*
X79465000Y-83588500D01*
G75*
G02*
X79527500Y-83526000I62500J0D01*
G01*
X79652500Y-83526000D01*
G75*
G02*
X79715000Y-83588500I0J-62500D01*
G01*
X79715000Y-84263500D01*
G75*
G02*
X79652500Y-84326000I-62500J0D01*
G01*
X79527500Y-84326000D01*
G75*
G02*
X79465000Y-84263500I0J62500D01*
G01*
G37*
G36*
G01*
X79965000Y-84263500D02*
X79965000Y-83588500D01*
G75*
G02*
X80027500Y-83526000I62500J0D01*
G01*
X80152500Y-83526000D01*
G75*
G02*
X80215000Y-83588500I0J-62500D01*
G01*
X80215000Y-84263500D01*
G75*
G02*
X80152500Y-84326000I-62500J0D01*
G01*
X80027500Y-84326000D01*
G75*
G02*
X79965000Y-84263500I0J62500D01*
G01*
G37*
G36*
G01*
X80465000Y-84263500D02*
X80465000Y-83588500D01*
G75*
G02*
X80527500Y-83526000I62500J0D01*
G01*
X80652500Y-83526000D01*
G75*
G02*
X80715000Y-83588500I0J-62500D01*
G01*
X80715000Y-84263500D01*
G75*
G02*
X80652500Y-84326000I-62500J0D01*
G01*
X80527500Y-84326000D01*
G75*
G02*
X80465000Y-84263500I0J62500D01*
G01*
G37*
G36*
G01*
X80965000Y-84263500D02*
X80965000Y-83588500D01*
G75*
G02*
X81027500Y-83526000I62500J0D01*
G01*
X81152500Y-83526000D01*
G75*
G02*
X81215000Y-83588500I0J-62500D01*
G01*
X81215000Y-84263500D01*
G75*
G02*
X81152500Y-84326000I-62500J0D01*
G01*
X81027500Y-84326000D01*
G75*
G02*
X80965000Y-84263500I0J62500D01*
G01*
G37*
G36*
G01*
X81465000Y-84263500D02*
X81465000Y-83588500D01*
G75*
G02*
X81527500Y-83526000I62500J0D01*
G01*
X81652500Y-83526000D01*
G75*
G02*
X81715000Y-83588500I0J-62500D01*
G01*
X81715000Y-84263500D01*
G75*
G02*
X81652500Y-84326000I-62500J0D01*
G01*
X81527500Y-84326000D01*
G75*
G02*
X81465000Y-84263500I0J62500D01*
G01*
G37*
G36*
G01*
X81965000Y-84263500D02*
X81965000Y-83588500D01*
G75*
G02*
X82027500Y-83526000I62500J0D01*
G01*
X82152500Y-83526000D01*
G75*
G02*
X82215000Y-83588500I0J-62500D01*
G01*
X82215000Y-84263500D01*
G75*
G02*
X82152500Y-84326000I-62500J0D01*
G01*
X82027500Y-84326000D01*
G75*
G02*
X81965000Y-84263500I0J62500D01*
G01*
G37*
G36*
G01*
X82465000Y-84263500D02*
X82465000Y-83588500D01*
G75*
G02*
X82527500Y-83526000I62500J0D01*
G01*
X82652500Y-83526000D01*
G75*
G02*
X82715000Y-83588500I0J-62500D01*
G01*
X82715000Y-84263500D01*
G75*
G02*
X82652500Y-84326000I-62500J0D01*
G01*
X82527500Y-84326000D01*
G75*
G02*
X82465000Y-84263500I0J62500D01*
G01*
G37*
G36*
G01*
X82965000Y-84263500D02*
X82965000Y-83588500D01*
G75*
G02*
X83027500Y-83526000I62500J0D01*
G01*
X83152500Y-83526000D01*
G75*
G02*
X83215000Y-83588500I0J-62500D01*
G01*
X83215000Y-84263500D01*
G75*
G02*
X83152500Y-84326000I-62500J0D01*
G01*
X83027500Y-84326000D01*
G75*
G02*
X82965000Y-84263500I0J62500D01*
G01*
G37*
G36*
G01*
X83465000Y-84263500D02*
X83465000Y-83588500D01*
G75*
G02*
X83527500Y-83526000I62500J0D01*
G01*
X83652500Y-83526000D01*
G75*
G02*
X83715000Y-83588500I0J-62500D01*
G01*
X83715000Y-84263500D01*
G75*
G02*
X83652500Y-84326000I-62500J0D01*
G01*
X83527500Y-84326000D01*
G75*
G02*
X83465000Y-84263500I0J62500D01*
G01*
G37*
G36*
G01*
X83965000Y-84263500D02*
X83965000Y-83588500D01*
G75*
G02*
X84027500Y-83526000I62500J0D01*
G01*
X84152500Y-83526000D01*
G75*
G02*
X84215000Y-83588500I0J-62500D01*
G01*
X84215000Y-84263500D01*
G75*
G02*
X84152500Y-84326000I-62500J0D01*
G01*
X84027500Y-84326000D01*
G75*
G02*
X83965000Y-84263500I0J62500D01*
G01*
G37*
G36*
G01*
X84465000Y-84263500D02*
X84465000Y-83588500D01*
G75*
G02*
X84527500Y-83526000I62500J0D01*
G01*
X84652500Y-83526000D01*
G75*
G02*
X84715000Y-83588500I0J-62500D01*
G01*
X84715000Y-84263500D01*
G75*
G02*
X84652500Y-84326000I-62500J0D01*
G01*
X84527500Y-84326000D01*
G75*
G02*
X84465000Y-84263500I0J62500D01*
G01*
G37*
G36*
G01*
X84965000Y-84263500D02*
X84965000Y-83588500D01*
G75*
G02*
X85027500Y-83526000I62500J0D01*
G01*
X85152500Y-83526000D01*
G75*
G02*
X85215000Y-83588500I0J-62500D01*
G01*
X85215000Y-84263500D01*
G75*
G02*
X85152500Y-84326000I-62500J0D01*
G01*
X85027500Y-84326000D01*
G75*
G02*
X84965000Y-84263500I0J62500D01*
G01*
G37*
G36*
G01*
X85390000Y-84688500D02*
X85390000Y-84563500D01*
G75*
G02*
X85452500Y-84501000I62500J0D01*
G01*
X86127500Y-84501000D01*
G75*
G02*
X86190000Y-84563500I0J-62500D01*
G01*
X86190000Y-84688500D01*
G75*
G02*
X86127500Y-84751000I-62500J0D01*
G01*
X85452500Y-84751000D01*
G75*
G02*
X85390000Y-84688500I0J62500D01*
G01*
G37*
G36*
G01*
X85390000Y-85188500D02*
X85390000Y-85063500D01*
G75*
G02*
X85452500Y-85001000I62500J0D01*
G01*
X86127500Y-85001000D01*
G75*
G02*
X86190000Y-85063500I0J-62500D01*
G01*
X86190000Y-85188500D01*
G75*
G02*
X86127500Y-85251000I-62500J0D01*
G01*
X85452500Y-85251000D01*
G75*
G02*
X85390000Y-85188500I0J62500D01*
G01*
G37*
G36*
G01*
X85390000Y-85688500D02*
X85390000Y-85563500D01*
G75*
G02*
X85452500Y-85501000I62500J0D01*
G01*
X86127500Y-85501000D01*
G75*
G02*
X86190000Y-85563500I0J-62500D01*
G01*
X86190000Y-85688500D01*
G75*
G02*
X86127500Y-85751000I-62500J0D01*
G01*
X85452500Y-85751000D01*
G75*
G02*
X85390000Y-85688500I0J62500D01*
G01*
G37*
G36*
G01*
X85390000Y-86188500D02*
X85390000Y-86063500D01*
G75*
G02*
X85452500Y-86001000I62500J0D01*
G01*
X86127500Y-86001000D01*
G75*
G02*
X86190000Y-86063500I0J-62500D01*
G01*
X86190000Y-86188500D01*
G75*
G02*
X86127500Y-86251000I-62500J0D01*
G01*
X85452500Y-86251000D01*
G75*
G02*
X85390000Y-86188500I0J62500D01*
G01*
G37*
G36*
G01*
X85390000Y-86688500D02*
X85390000Y-86563500D01*
G75*
G02*
X85452500Y-86501000I62500J0D01*
G01*
X86127500Y-86501000D01*
G75*
G02*
X86190000Y-86563500I0J-62500D01*
G01*
X86190000Y-86688500D01*
G75*
G02*
X86127500Y-86751000I-62500J0D01*
G01*
X85452500Y-86751000D01*
G75*
G02*
X85390000Y-86688500I0J62500D01*
G01*
G37*
G36*
G01*
X85390000Y-87188500D02*
X85390000Y-87063500D01*
G75*
G02*
X85452500Y-87001000I62500J0D01*
G01*
X86127500Y-87001000D01*
G75*
G02*
X86190000Y-87063500I0J-62500D01*
G01*
X86190000Y-87188500D01*
G75*
G02*
X86127500Y-87251000I-62500J0D01*
G01*
X85452500Y-87251000D01*
G75*
G02*
X85390000Y-87188500I0J62500D01*
G01*
G37*
G36*
G01*
X85390000Y-87688500D02*
X85390000Y-87563500D01*
G75*
G02*
X85452500Y-87501000I62500J0D01*
G01*
X86127500Y-87501000D01*
G75*
G02*
X86190000Y-87563500I0J-62500D01*
G01*
X86190000Y-87688500D01*
G75*
G02*
X86127500Y-87751000I-62500J0D01*
G01*
X85452500Y-87751000D01*
G75*
G02*
X85390000Y-87688500I0J62500D01*
G01*
G37*
G36*
G01*
X85390000Y-88188500D02*
X85390000Y-88063500D01*
G75*
G02*
X85452500Y-88001000I62500J0D01*
G01*
X86127500Y-88001000D01*
G75*
G02*
X86190000Y-88063500I0J-62500D01*
G01*
X86190000Y-88188500D01*
G75*
G02*
X86127500Y-88251000I-62500J0D01*
G01*
X85452500Y-88251000D01*
G75*
G02*
X85390000Y-88188500I0J62500D01*
G01*
G37*
G36*
G01*
X85390000Y-88688500D02*
X85390000Y-88563500D01*
G75*
G02*
X85452500Y-88501000I62500J0D01*
G01*
X86127500Y-88501000D01*
G75*
G02*
X86190000Y-88563500I0J-62500D01*
G01*
X86190000Y-88688500D01*
G75*
G02*
X86127500Y-88751000I-62500J0D01*
G01*
X85452500Y-88751000D01*
G75*
G02*
X85390000Y-88688500I0J62500D01*
G01*
G37*
G36*
G01*
X85390000Y-89188500D02*
X85390000Y-89063500D01*
G75*
G02*
X85452500Y-89001000I62500J0D01*
G01*
X86127500Y-89001000D01*
G75*
G02*
X86190000Y-89063500I0J-62500D01*
G01*
X86190000Y-89188500D01*
G75*
G02*
X86127500Y-89251000I-62500J0D01*
G01*
X85452500Y-89251000D01*
G75*
G02*
X85390000Y-89188500I0J62500D01*
G01*
G37*
G36*
G01*
X85390000Y-89688500D02*
X85390000Y-89563500D01*
G75*
G02*
X85452500Y-89501000I62500J0D01*
G01*
X86127500Y-89501000D01*
G75*
G02*
X86190000Y-89563500I0J-62500D01*
G01*
X86190000Y-89688500D01*
G75*
G02*
X86127500Y-89751000I-62500J0D01*
G01*
X85452500Y-89751000D01*
G75*
G02*
X85390000Y-89688500I0J62500D01*
G01*
G37*
G36*
G01*
X85390000Y-90188500D02*
X85390000Y-90063500D01*
G75*
G02*
X85452500Y-90001000I62500J0D01*
G01*
X86127500Y-90001000D01*
G75*
G02*
X86190000Y-90063500I0J-62500D01*
G01*
X86190000Y-90188500D01*
G75*
G02*
X86127500Y-90251000I-62500J0D01*
G01*
X85452500Y-90251000D01*
G75*
G02*
X85390000Y-90188500I0J62500D01*
G01*
G37*
G36*
G01*
X84965000Y-91163500D02*
X84965000Y-90488500D01*
G75*
G02*
X85027500Y-90426000I62500J0D01*
G01*
X85152500Y-90426000D01*
G75*
G02*
X85215000Y-90488500I0J-62500D01*
G01*
X85215000Y-91163500D01*
G75*
G02*
X85152500Y-91226000I-62500J0D01*
G01*
X85027500Y-91226000D01*
G75*
G02*
X84965000Y-91163500I0J62500D01*
G01*
G37*
G36*
G01*
X84465000Y-91163500D02*
X84465000Y-90488500D01*
G75*
G02*
X84527500Y-90426000I62500J0D01*
G01*
X84652500Y-90426000D01*
G75*
G02*
X84715000Y-90488500I0J-62500D01*
G01*
X84715000Y-91163500D01*
G75*
G02*
X84652500Y-91226000I-62500J0D01*
G01*
X84527500Y-91226000D01*
G75*
G02*
X84465000Y-91163500I0J62500D01*
G01*
G37*
G36*
G01*
X83965000Y-91163500D02*
X83965000Y-90488500D01*
G75*
G02*
X84027500Y-90426000I62500J0D01*
G01*
X84152500Y-90426000D01*
G75*
G02*
X84215000Y-90488500I0J-62500D01*
G01*
X84215000Y-91163500D01*
G75*
G02*
X84152500Y-91226000I-62500J0D01*
G01*
X84027500Y-91226000D01*
G75*
G02*
X83965000Y-91163500I0J62500D01*
G01*
G37*
G36*
G01*
X83465000Y-91163500D02*
X83465000Y-90488500D01*
G75*
G02*
X83527500Y-90426000I62500J0D01*
G01*
X83652500Y-90426000D01*
G75*
G02*
X83715000Y-90488500I0J-62500D01*
G01*
X83715000Y-91163500D01*
G75*
G02*
X83652500Y-91226000I-62500J0D01*
G01*
X83527500Y-91226000D01*
G75*
G02*
X83465000Y-91163500I0J62500D01*
G01*
G37*
G36*
G01*
X82965000Y-91163500D02*
X82965000Y-90488500D01*
G75*
G02*
X83027500Y-90426000I62500J0D01*
G01*
X83152500Y-90426000D01*
G75*
G02*
X83215000Y-90488500I0J-62500D01*
G01*
X83215000Y-91163500D01*
G75*
G02*
X83152500Y-91226000I-62500J0D01*
G01*
X83027500Y-91226000D01*
G75*
G02*
X82965000Y-91163500I0J62500D01*
G01*
G37*
G36*
G01*
X82465000Y-91163500D02*
X82465000Y-90488500D01*
G75*
G02*
X82527500Y-90426000I62500J0D01*
G01*
X82652500Y-90426000D01*
G75*
G02*
X82715000Y-90488500I0J-62500D01*
G01*
X82715000Y-91163500D01*
G75*
G02*
X82652500Y-91226000I-62500J0D01*
G01*
X82527500Y-91226000D01*
G75*
G02*
X82465000Y-91163500I0J62500D01*
G01*
G37*
G36*
G01*
X81965000Y-91163500D02*
X81965000Y-90488500D01*
G75*
G02*
X82027500Y-90426000I62500J0D01*
G01*
X82152500Y-90426000D01*
G75*
G02*
X82215000Y-90488500I0J-62500D01*
G01*
X82215000Y-91163500D01*
G75*
G02*
X82152500Y-91226000I-62500J0D01*
G01*
X82027500Y-91226000D01*
G75*
G02*
X81965000Y-91163500I0J62500D01*
G01*
G37*
G36*
G01*
X81465000Y-91163500D02*
X81465000Y-90488500D01*
G75*
G02*
X81527500Y-90426000I62500J0D01*
G01*
X81652500Y-90426000D01*
G75*
G02*
X81715000Y-90488500I0J-62500D01*
G01*
X81715000Y-91163500D01*
G75*
G02*
X81652500Y-91226000I-62500J0D01*
G01*
X81527500Y-91226000D01*
G75*
G02*
X81465000Y-91163500I0J62500D01*
G01*
G37*
G36*
G01*
X80965000Y-91163500D02*
X80965000Y-90488500D01*
G75*
G02*
X81027500Y-90426000I62500J0D01*
G01*
X81152500Y-90426000D01*
G75*
G02*
X81215000Y-90488500I0J-62500D01*
G01*
X81215000Y-91163500D01*
G75*
G02*
X81152500Y-91226000I-62500J0D01*
G01*
X81027500Y-91226000D01*
G75*
G02*
X80965000Y-91163500I0J62500D01*
G01*
G37*
G36*
G01*
X80465000Y-91163500D02*
X80465000Y-90488500D01*
G75*
G02*
X80527500Y-90426000I62500J0D01*
G01*
X80652500Y-90426000D01*
G75*
G02*
X80715000Y-90488500I0J-62500D01*
G01*
X80715000Y-91163500D01*
G75*
G02*
X80652500Y-91226000I-62500J0D01*
G01*
X80527500Y-91226000D01*
G75*
G02*
X80465000Y-91163500I0J62500D01*
G01*
G37*
G36*
G01*
X79965000Y-91163500D02*
X79965000Y-90488500D01*
G75*
G02*
X80027500Y-90426000I62500J0D01*
G01*
X80152500Y-90426000D01*
G75*
G02*
X80215000Y-90488500I0J-62500D01*
G01*
X80215000Y-91163500D01*
G75*
G02*
X80152500Y-91226000I-62500J0D01*
G01*
X80027500Y-91226000D01*
G75*
G02*
X79965000Y-91163500I0J62500D01*
G01*
G37*
G36*
G01*
X79465000Y-91163500D02*
X79465000Y-90488500D01*
G75*
G02*
X79527500Y-90426000I62500J0D01*
G01*
X79652500Y-90426000D01*
G75*
G02*
X79715000Y-90488500I0J-62500D01*
G01*
X79715000Y-91163500D01*
G75*
G02*
X79652500Y-91226000I-62500J0D01*
G01*
X79527500Y-91226000D01*
G75*
G02*
X79465000Y-91163500I0J62500D01*
G01*
G37*
G36*
G01*
X78490000Y-90188500D02*
X78490000Y-90063500D01*
G75*
G02*
X78552500Y-90001000I62500J0D01*
G01*
X79227500Y-90001000D01*
G75*
G02*
X79290000Y-90063500I0J-62500D01*
G01*
X79290000Y-90188500D01*
G75*
G02*
X79227500Y-90251000I-62500J0D01*
G01*
X78552500Y-90251000D01*
G75*
G02*
X78490000Y-90188500I0J62500D01*
G01*
G37*
G36*
G01*
X78490000Y-89688500D02*
X78490000Y-89563500D01*
G75*
G02*
X78552500Y-89501000I62500J0D01*
G01*
X79227500Y-89501000D01*
G75*
G02*
X79290000Y-89563500I0J-62500D01*
G01*
X79290000Y-89688500D01*
G75*
G02*
X79227500Y-89751000I-62500J0D01*
G01*
X78552500Y-89751000D01*
G75*
G02*
X78490000Y-89688500I0J62500D01*
G01*
G37*
G36*
G01*
X78490000Y-89188500D02*
X78490000Y-89063500D01*
G75*
G02*
X78552500Y-89001000I62500J0D01*
G01*
X79227500Y-89001000D01*
G75*
G02*
X79290000Y-89063500I0J-62500D01*
G01*
X79290000Y-89188500D01*
G75*
G02*
X79227500Y-89251000I-62500J0D01*
G01*
X78552500Y-89251000D01*
G75*
G02*
X78490000Y-89188500I0J62500D01*
G01*
G37*
G36*
G01*
X78490000Y-88688500D02*
X78490000Y-88563500D01*
G75*
G02*
X78552500Y-88501000I62500J0D01*
G01*
X79227500Y-88501000D01*
G75*
G02*
X79290000Y-88563500I0J-62500D01*
G01*
X79290000Y-88688500D01*
G75*
G02*
X79227500Y-88751000I-62500J0D01*
G01*
X78552500Y-88751000D01*
G75*
G02*
X78490000Y-88688500I0J62500D01*
G01*
G37*
G36*
G01*
X78490000Y-88188500D02*
X78490000Y-88063500D01*
G75*
G02*
X78552500Y-88001000I62500J0D01*
G01*
X79227500Y-88001000D01*
G75*
G02*
X79290000Y-88063500I0J-62500D01*
G01*
X79290000Y-88188500D01*
G75*
G02*
X79227500Y-88251000I-62500J0D01*
G01*
X78552500Y-88251000D01*
G75*
G02*
X78490000Y-88188500I0J62500D01*
G01*
G37*
G36*
G01*
X78490000Y-87688500D02*
X78490000Y-87563500D01*
G75*
G02*
X78552500Y-87501000I62500J0D01*
G01*
X79227500Y-87501000D01*
G75*
G02*
X79290000Y-87563500I0J-62500D01*
G01*
X79290000Y-87688500D01*
G75*
G02*
X79227500Y-87751000I-62500J0D01*
G01*
X78552500Y-87751000D01*
G75*
G02*
X78490000Y-87688500I0J62500D01*
G01*
G37*
G36*
G01*
X78490000Y-87188500D02*
X78490000Y-87063500D01*
G75*
G02*
X78552500Y-87001000I62500J0D01*
G01*
X79227500Y-87001000D01*
G75*
G02*
X79290000Y-87063500I0J-62500D01*
G01*
X79290000Y-87188500D01*
G75*
G02*
X79227500Y-87251000I-62500J0D01*
G01*
X78552500Y-87251000D01*
G75*
G02*
X78490000Y-87188500I0J62500D01*
G01*
G37*
G36*
G01*
X78490000Y-86688500D02*
X78490000Y-86563500D01*
G75*
G02*
X78552500Y-86501000I62500J0D01*
G01*
X79227500Y-86501000D01*
G75*
G02*
X79290000Y-86563500I0J-62500D01*
G01*
X79290000Y-86688500D01*
G75*
G02*
X79227500Y-86751000I-62500J0D01*
G01*
X78552500Y-86751000D01*
G75*
G02*
X78490000Y-86688500I0J62500D01*
G01*
G37*
G36*
G01*
X78490000Y-86188500D02*
X78490000Y-86063500D01*
G75*
G02*
X78552500Y-86001000I62500J0D01*
G01*
X79227500Y-86001000D01*
G75*
G02*
X79290000Y-86063500I0J-62500D01*
G01*
X79290000Y-86188500D01*
G75*
G02*
X79227500Y-86251000I-62500J0D01*
G01*
X78552500Y-86251000D01*
G75*
G02*
X78490000Y-86188500I0J62500D01*
G01*
G37*
G36*
G01*
X78490000Y-85688500D02*
X78490000Y-85563500D01*
G75*
G02*
X78552500Y-85501000I62500J0D01*
G01*
X79227500Y-85501000D01*
G75*
G02*
X79290000Y-85563500I0J-62500D01*
G01*
X79290000Y-85688500D01*
G75*
G02*
X79227500Y-85751000I-62500J0D01*
G01*
X78552500Y-85751000D01*
G75*
G02*
X78490000Y-85688500I0J62500D01*
G01*
G37*
G36*
G01*
X78490000Y-85188500D02*
X78490000Y-85063500D01*
G75*
G02*
X78552500Y-85001000I62500J0D01*
G01*
X79227500Y-85001000D01*
G75*
G02*
X79290000Y-85063500I0J-62500D01*
G01*
X79290000Y-85188500D01*
G75*
G02*
X79227500Y-85251000I-62500J0D01*
G01*
X78552500Y-85251000D01*
G75*
G02*
X78490000Y-85188500I0J62500D01*
G01*
G37*
G36*
G01*
X78490000Y-84688500D02*
X78490000Y-84563500D01*
G75*
G02*
X78552500Y-84501000I62500J0D01*
G01*
X79227500Y-84501000D01*
G75*
G02*
X79290000Y-84563500I0J-62500D01*
G01*
X79290000Y-84688500D01*
G75*
G02*
X79227500Y-84751000I-62500J0D01*
G01*
X78552500Y-84751000D01*
G75*
G02*
X78490000Y-84688500I0J62500D01*
G01*
G37*
%TD*%
%TO.C,U1*%
G36*
G01*
X81707500Y-98413000D02*
X82192500Y-98413000D01*
G75*
G02*
X82435000Y-98655500I0J-242500D01*
G01*
X82435000Y-99140500D01*
G75*
G02*
X82192500Y-99383000I-242500J0D01*
G01*
X81707500Y-99383000D01*
G75*
G02*
X81465000Y-99140500I0J242500D01*
G01*
X81465000Y-98655500D01*
G75*
G02*
X81707500Y-98413000I242500J0D01*
G01*
G37*
G36*
G01*
X82907500Y-98413000D02*
X83392500Y-98413000D01*
G75*
G02*
X83635000Y-98655500I0J-242500D01*
G01*
X83635000Y-99140500D01*
G75*
G02*
X83392500Y-99383000I-242500J0D01*
G01*
X82907500Y-99383000D01*
G75*
G02*
X82665000Y-99140500I0J242500D01*
G01*
X82665000Y-98655500D01*
G75*
G02*
X82907500Y-98413000I242500J0D01*
G01*
G37*
G36*
G01*
X81707500Y-97213000D02*
X82192500Y-97213000D01*
G75*
G02*
X82435000Y-97455500I0J-242500D01*
G01*
X82435000Y-97940500D01*
G75*
G02*
X82192500Y-98183000I-242500J0D01*
G01*
X81707500Y-98183000D01*
G75*
G02*
X81465000Y-97940500I0J242500D01*
G01*
X81465000Y-97455500D01*
G75*
G02*
X81707500Y-97213000I242500J0D01*
G01*
G37*
G36*
G01*
X82907500Y-97213000D02*
X83392500Y-97213000D01*
G75*
G02*
X83635000Y-97455500I0J-242500D01*
G01*
X83635000Y-97940500D01*
G75*
G02*
X83392500Y-98183000I-242500J0D01*
G01*
X82907500Y-98183000D01*
G75*
G02*
X82665000Y-97940500I0J242500D01*
G01*
X82665000Y-97455500D01*
G75*
G02*
X82907500Y-97213000I242500J0D01*
G01*
G37*
D12*
G36*
X84898799Y-97022693D02*
G01*
X84895242Y-97034418D01*
X84889467Y-97045223D01*
X84881694Y-97054694D01*
X84872223Y-97062467D01*
X84861418Y-97068242D01*
X84849693Y-97071799D01*
X84837500Y-97073000D01*
X84162500Y-97073000D01*
X84150307Y-97071799D01*
X84138582Y-97068242D01*
X84127777Y-97062467D01*
X84118306Y-97054694D01*
X84110533Y-97045223D01*
X84104758Y-97034418D01*
X84101201Y-97022693D01*
X84100000Y-97010500D01*
X84100000Y-96948888D01*
X84101201Y-96936695D01*
X84104758Y-96924970D01*
X84110533Y-96914165D01*
X84118306Y-96904694D01*
X84181694Y-96841306D01*
X84191165Y-96833533D01*
X84201970Y-96827758D01*
X84213695Y-96824201D01*
X84225888Y-96823000D01*
X84837500Y-96823000D01*
X84849693Y-96824201D01*
X84861418Y-96827758D01*
X84872223Y-96833533D01*
X84881694Y-96841306D01*
X84889467Y-96850777D01*
X84895242Y-96861582D01*
X84898799Y-96873307D01*
X84900000Y-96885500D01*
X84900000Y-97010500D01*
X84898799Y-97022693D01*
G37*
G36*
G01*
X84162500Y-97273000D02*
X84837500Y-97273000D01*
G75*
G02*
X84900000Y-97335500I0J-62500D01*
G01*
X84900000Y-97460500D01*
G75*
G02*
X84837500Y-97523000I-62500J0D01*
G01*
X84162500Y-97523000D01*
G75*
G02*
X84100000Y-97460500I0J62500D01*
G01*
X84100000Y-97335500D01*
G75*
G02*
X84162500Y-97273000I62500J0D01*
G01*
G37*
G36*
G01*
X84162500Y-97723000D02*
X84837500Y-97723000D01*
G75*
G02*
X84900000Y-97785500I0J-62500D01*
G01*
X84900000Y-97910500D01*
G75*
G02*
X84837500Y-97973000I-62500J0D01*
G01*
X84162500Y-97973000D01*
G75*
G02*
X84100000Y-97910500I0J62500D01*
G01*
X84100000Y-97785500D01*
G75*
G02*
X84162500Y-97723000I62500J0D01*
G01*
G37*
G36*
G01*
X84162500Y-98173000D02*
X84837500Y-98173000D01*
G75*
G02*
X84900000Y-98235500I0J-62500D01*
G01*
X84900000Y-98360500D01*
G75*
G02*
X84837500Y-98423000I-62500J0D01*
G01*
X84162500Y-98423000D01*
G75*
G02*
X84100000Y-98360500I0J62500D01*
G01*
X84100000Y-98235500D01*
G75*
G02*
X84162500Y-98173000I62500J0D01*
G01*
G37*
G36*
G01*
X84162500Y-98623000D02*
X84837500Y-98623000D01*
G75*
G02*
X84900000Y-98685500I0J-62500D01*
G01*
X84900000Y-98810500D01*
G75*
G02*
X84837500Y-98873000I-62500J0D01*
G01*
X84162500Y-98873000D01*
G75*
G02*
X84100000Y-98810500I0J62500D01*
G01*
X84100000Y-98685500D01*
G75*
G02*
X84162500Y-98623000I62500J0D01*
G01*
G37*
G36*
G01*
X84162500Y-99073000D02*
X84837500Y-99073000D01*
G75*
G02*
X84900000Y-99135500I0J-62500D01*
G01*
X84900000Y-99260500D01*
G75*
G02*
X84837500Y-99323000I-62500J0D01*
G01*
X84162500Y-99323000D01*
G75*
G02*
X84100000Y-99260500I0J62500D01*
G01*
X84100000Y-99135500D01*
G75*
G02*
X84162500Y-99073000I62500J0D01*
G01*
G37*
G36*
X84898799Y-99722693D02*
G01*
X84895242Y-99734418D01*
X84889467Y-99745223D01*
X84881694Y-99754694D01*
X84872223Y-99762467D01*
X84861418Y-99768242D01*
X84849693Y-99771799D01*
X84837500Y-99773000D01*
X84225888Y-99773000D01*
X84213695Y-99771799D01*
X84201970Y-99768242D01*
X84191165Y-99762467D01*
X84181694Y-99754694D01*
X84118306Y-99691306D01*
X84110533Y-99681835D01*
X84104758Y-99671030D01*
X84101201Y-99659305D01*
X84100000Y-99647112D01*
X84100000Y-99585500D01*
X84101201Y-99573307D01*
X84104758Y-99561582D01*
X84110533Y-99550777D01*
X84118306Y-99541306D01*
X84127777Y-99533533D01*
X84138582Y-99527758D01*
X84150307Y-99524201D01*
X84162500Y-99523000D01*
X84837500Y-99523000D01*
X84849693Y-99524201D01*
X84861418Y-99527758D01*
X84872223Y-99533533D01*
X84881694Y-99541306D01*
X84889467Y-99550777D01*
X84895242Y-99561582D01*
X84898799Y-99573307D01*
X84900000Y-99585500D01*
X84900000Y-99710500D01*
X84898799Y-99722693D01*
G37*
G36*
X84023799Y-100597693D02*
G01*
X84020242Y-100609418D01*
X84014467Y-100620223D01*
X84006694Y-100629694D01*
X83997223Y-100637467D01*
X83986418Y-100643242D01*
X83974693Y-100646799D01*
X83962500Y-100648000D01*
X83837500Y-100648000D01*
X83825307Y-100646799D01*
X83813582Y-100643242D01*
X83802777Y-100637467D01*
X83793306Y-100629694D01*
X83785533Y-100620223D01*
X83779758Y-100609418D01*
X83776201Y-100597693D01*
X83775000Y-100585500D01*
X83775000Y-99910500D01*
X83776201Y-99898307D01*
X83779758Y-99886582D01*
X83785533Y-99875777D01*
X83793306Y-99866306D01*
X83802777Y-99858533D01*
X83813582Y-99852758D01*
X83825307Y-99849201D01*
X83837500Y-99848000D01*
X83899112Y-99848000D01*
X83911305Y-99849201D01*
X83923030Y-99852758D01*
X83933835Y-99858533D01*
X83943306Y-99866306D01*
X84006694Y-99929694D01*
X84014467Y-99939165D01*
X84020242Y-99949970D01*
X84023799Y-99961695D01*
X84025000Y-99973888D01*
X84025000Y-100585500D01*
X84023799Y-100597693D01*
G37*
G36*
G01*
X83387500Y-99848000D02*
X83512500Y-99848000D01*
G75*
G02*
X83575000Y-99910500I0J-62500D01*
G01*
X83575000Y-100585500D01*
G75*
G02*
X83512500Y-100648000I-62500J0D01*
G01*
X83387500Y-100648000D01*
G75*
G02*
X83325000Y-100585500I0J62500D01*
G01*
X83325000Y-99910500D01*
G75*
G02*
X83387500Y-99848000I62500J0D01*
G01*
G37*
G36*
G01*
X82937500Y-99848000D02*
X83062500Y-99848000D01*
G75*
G02*
X83125000Y-99910500I0J-62500D01*
G01*
X83125000Y-100585500D01*
G75*
G02*
X83062500Y-100648000I-62500J0D01*
G01*
X82937500Y-100648000D01*
G75*
G02*
X82875000Y-100585500I0J62500D01*
G01*
X82875000Y-99910500D01*
G75*
G02*
X82937500Y-99848000I62500J0D01*
G01*
G37*
G36*
G01*
X82487500Y-99848000D02*
X82612500Y-99848000D01*
G75*
G02*
X82675000Y-99910500I0J-62500D01*
G01*
X82675000Y-100585500D01*
G75*
G02*
X82612500Y-100648000I-62500J0D01*
G01*
X82487500Y-100648000D01*
G75*
G02*
X82425000Y-100585500I0J62500D01*
G01*
X82425000Y-99910500D01*
G75*
G02*
X82487500Y-99848000I62500J0D01*
G01*
G37*
G36*
G01*
X82037500Y-99848000D02*
X82162500Y-99848000D01*
G75*
G02*
X82225000Y-99910500I0J-62500D01*
G01*
X82225000Y-100585500D01*
G75*
G02*
X82162500Y-100648000I-62500J0D01*
G01*
X82037500Y-100648000D01*
G75*
G02*
X81975000Y-100585500I0J62500D01*
G01*
X81975000Y-99910500D01*
G75*
G02*
X82037500Y-99848000I62500J0D01*
G01*
G37*
G36*
G01*
X81587500Y-99848000D02*
X81712500Y-99848000D01*
G75*
G02*
X81775000Y-99910500I0J-62500D01*
G01*
X81775000Y-100585500D01*
G75*
G02*
X81712500Y-100648000I-62500J0D01*
G01*
X81587500Y-100648000D01*
G75*
G02*
X81525000Y-100585500I0J62500D01*
G01*
X81525000Y-99910500D01*
G75*
G02*
X81587500Y-99848000I62500J0D01*
G01*
G37*
G36*
X81323799Y-100597693D02*
G01*
X81320242Y-100609418D01*
X81314467Y-100620223D01*
X81306694Y-100629694D01*
X81297223Y-100637467D01*
X81286418Y-100643242D01*
X81274693Y-100646799D01*
X81262500Y-100648000D01*
X81137500Y-100648000D01*
X81125307Y-100646799D01*
X81113582Y-100643242D01*
X81102777Y-100637467D01*
X81093306Y-100629694D01*
X81085533Y-100620223D01*
X81079758Y-100609418D01*
X81076201Y-100597693D01*
X81075000Y-100585500D01*
X81075000Y-99973888D01*
X81076201Y-99961695D01*
X81079758Y-99949970D01*
X81085533Y-99939165D01*
X81093306Y-99929694D01*
X81156694Y-99866306D01*
X81166165Y-99858533D01*
X81176970Y-99852758D01*
X81188695Y-99849201D01*
X81200888Y-99848000D01*
X81262500Y-99848000D01*
X81274693Y-99849201D01*
X81286418Y-99852758D01*
X81297223Y-99858533D01*
X81306694Y-99866306D01*
X81314467Y-99875777D01*
X81320242Y-99886582D01*
X81323799Y-99898307D01*
X81325000Y-99910500D01*
X81325000Y-100585500D01*
X81323799Y-100597693D01*
G37*
G36*
X80998799Y-99659305D02*
G01*
X80995242Y-99671030D01*
X80989467Y-99681835D01*
X80981694Y-99691306D01*
X80918306Y-99754694D01*
X80908835Y-99762467D01*
X80898030Y-99768242D01*
X80886305Y-99771799D01*
X80874112Y-99773000D01*
X80262500Y-99773000D01*
X80250307Y-99771799D01*
X80238582Y-99768242D01*
X80227777Y-99762467D01*
X80218306Y-99754694D01*
X80210533Y-99745223D01*
X80204758Y-99734418D01*
X80201201Y-99722693D01*
X80200000Y-99710500D01*
X80200000Y-99585500D01*
X80201201Y-99573307D01*
X80204758Y-99561582D01*
X80210533Y-99550777D01*
X80218306Y-99541306D01*
X80227777Y-99533533D01*
X80238582Y-99527758D01*
X80250307Y-99524201D01*
X80262500Y-99523000D01*
X80937500Y-99523000D01*
X80949693Y-99524201D01*
X80961418Y-99527758D01*
X80972223Y-99533533D01*
X80981694Y-99541306D01*
X80989467Y-99550777D01*
X80995242Y-99561582D01*
X80998799Y-99573307D01*
X81000000Y-99585500D01*
X81000000Y-99647112D01*
X80998799Y-99659305D01*
G37*
G36*
G01*
X80262500Y-99073000D02*
X80937500Y-99073000D01*
G75*
G02*
X81000000Y-99135500I0J-62500D01*
G01*
X81000000Y-99260500D01*
G75*
G02*
X80937500Y-99323000I-62500J0D01*
G01*
X80262500Y-99323000D01*
G75*
G02*
X80200000Y-99260500I0J62500D01*
G01*
X80200000Y-99135500D01*
G75*
G02*
X80262500Y-99073000I62500J0D01*
G01*
G37*
G36*
G01*
X80262500Y-98623000D02*
X80937500Y-98623000D01*
G75*
G02*
X81000000Y-98685500I0J-62500D01*
G01*
X81000000Y-98810500D01*
G75*
G02*
X80937500Y-98873000I-62500J0D01*
G01*
X80262500Y-98873000D01*
G75*
G02*
X80200000Y-98810500I0J62500D01*
G01*
X80200000Y-98685500D01*
G75*
G02*
X80262500Y-98623000I62500J0D01*
G01*
G37*
G36*
G01*
X80262500Y-98173000D02*
X80937500Y-98173000D01*
G75*
G02*
X81000000Y-98235500I0J-62500D01*
G01*
X81000000Y-98360500D01*
G75*
G02*
X80937500Y-98423000I-62500J0D01*
G01*
X80262500Y-98423000D01*
G75*
G02*
X80200000Y-98360500I0J62500D01*
G01*
X80200000Y-98235500D01*
G75*
G02*
X80262500Y-98173000I62500J0D01*
G01*
G37*
G36*
G01*
X80262500Y-97723000D02*
X80937500Y-97723000D01*
G75*
G02*
X81000000Y-97785500I0J-62500D01*
G01*
X81000000Y-97910500D01*
G75*
G02*
X80937500Y-97973000I-62500J0D01*
G01*
X80262500Y-97973000D01*
G75*
G02*
X80200000Y-97910500I0J62500D01*
G01*
X80200000Y-97785500D01*
G75*
G02*
X80262500Y-97723000I62500J0D01*
G01*
G37*
G36*
G01*
X80262500Y-97273000D02*
X80937500Y-97273000D01*
G75*
G02*
X81000000Y-97335500I0J-62500D01*
G01*
X81000000Y-97460500D01*
G75*
G02*
X80937500Y-97523000I-62500J0D01*
G01*
X80262500Y-97523000D01*
G75*
G02*
X80200000Y-97460500I0J62500D01*
G01*
X80200000Y-97335500D01*
G75*
G02*
X80262500Y-97273000I62500J0D01*
G01*
G37*
G36*
X80998799Y-97022693D02*
G01*
X80995242Y-97034418D01*
X80989467Y-97045223D01*
X80981694Y-97054694D01*
X80972223Y-97062467D01*
X80961418Y-97068242D01*
X80949693Y-97071799D01*
X80937500Y-97073000D01*
X80262500Y-97073000D01*
X80250307Y-97071799D01*
X80238582Y-97068242D01*
X80227777Y-97062467D01*
X80218306Y-97054694D01*
X80210533Y-97045223D01*
X80204758Y-97034418D01*
X80201201Y-97022693D01*
X80200000Y-97010500D01*
X80200000Y-96885500D01*
X80201201Y-96873307D01*
X80204758Y-96861582D01*
X80210533Y-96850777D01*
X80218306Y-96841306D01*
X80227777Y-96833533D01*
X80238582Y-96827758D01*
X80250307Y-96824201D01*
X80262500Y-96823000D01*
X80874112Y-96823000D01*
X80886305Y-96824201D01*
X80898030Y-96827758D01*
X80908835Y-96833533D01*
X80918306Y-96841306D01*
X80981694Y-96904694D01*
X80989467Y-96914165D01*
X80995242Y-96924970D01*
X80998799Y-96936695D01*
X81000000Y-96948888D01*
X81000000Y-97010500D01*
X80998799Y-97022693D01*
G37*
G36*
X81323799Y-96697693D02*
G01*
X81320242Y-96709418D01*
X81314467Y-96720223D01*
X81306694Y-96729694D01*
X81297223Y-96737467D01*
X81286418Y-96743242D01*
X81274693Y-96746799D01*
X81262500Y-96748000D01*
X81200888Y-96748000D01*
X81188695Y-96746799D01*
X81176970Y-96743242D01*
X81166165Y-96737467D01*
X81156694Y-96729694D01*
X81093306Y-96666306D01*
X81085533Y-96656835D01*
X81079758Y-96646030D01*
X81076201Y-96634305D01*
X81075000Y-96622112D01*
X81075000Y-96010500D01*
X81076201Y-95998307D01*
X81079758Y-95986582D01*
X81085533Y-95975777D01*
X81093306Y-95966306D01*
X81102777Y-95958533D01*
X81113582Y-95952758D01*
X81125307Y-95949201D01*
X81137500Y-95948000D01*
X81262500Y-95948000D01*
X81274693Y-95949201D01*
X81286418Y-95952758D01*
X81297223Y-95958533D01*
X81306694Y-95966306D01*
X81314467Y-95975777D01*
X81320242Y-95986582D01*
X81323799Y-95998307D01*
X81325000Y-96010500D01*
X81325000Y-96685500D01*
X81323799Y-96697693D01*
G37*
G36*
G01*
X81587500Y-95948000D02*
X81712500Y-95948000D01*
G75*
G02*
X81775000Y-96010500I0J-62500D01*
G01*
X81775000Y-96685500D01*
G75*
G02*
X81712500Y-96748000I-62500J0D01*
G01*
X81587500Y-96748000D01*
G75*
G02*
X81525000Y-96685500I0J62500D01*
G01*
X81525000Y-96010500D01*
G75*
G02*
X81587500Y-95948000I62500J0D01*
G01*
G37*
G36*
G01*
X82037500Y-95948000D02*
X82162500Y-95948000D01*
G75*
G02*
X82225000Y-96010500I0J-62500D01*
G01*
X82225000Y-96685500D01*
G75*
G02*
X82162500Y-96748000I-62500J0D01*
G01*
X82037500Y-96748000D01*
G75*
G02*
X81975000Y-96685500I0J62500D01*
G01*
X81975000Y-96010500D01*
G75*
G02*
X82037500Y-95948000I62500J0D01*
G01*
G37*
G36*
G01*
X82487500Y-95948000D02*
X82612500Y-95948000D01*
G75*
G02*
X82675000Y-96010500I0J-62500D01*
G01*
X82675000Y-96685500D01*
G75*
G02*
X82612500Y-96748000I-62500J0D01*
G01*
X82487500Y-96748000D01*
G75*
G02*
X82425000Y-96685500I0J62500D01*
G01*
X82425000Y-96010500D01*
G75*
G02*
X82487500Y-95948000I62500J0D01*
G01*
G37*
G36*
G01*
X82937500Y-95948000D02*
X83062500Y-95948000D01*
G75*
G02*
X83125000Y-96010500I0J-62500D01*
G01*
X83125000Y-96685500D01*
G75*
G02*
X83062500Y-96748000I-62500J0D01*
G01*
X82937500Y-96748000D01*
G75*
G02*
X82875000Y-96685500I0J62500D01*
G01*
X82875000Y-96010500D01*
G75*
G02*
X82937500Y-95948000I62500J0D01*
G01*
G37*
G36*
G01*
X83387500Y-95948000D02*
X83512500Y-95948000D01*
G75*
G02*
X83575000Y-96010500I0J-62500D01*
G01*
X83575000Y-96685500D01*
G75*
G02*
X83512500Y-96748000I-62500J0D01*
G01*
X83387500Y-96748000D01*
G75*
G02*
X83325000Y-96685500I0J62500D01*
G01*
X83325000Y-96010500D01*
G75*
G02*
X83387500Y-95948000I62500J0D01*
G01*
G37*
G36*
X84023799Y-96634305D02*
G01*
X84020242Y-96646030D01*
X84014467Y-96656835D01*
X84006694Y-96666306D01*
X83943306Y-96729694D01*
X83933835Y-96737467D01*
X83923030Y-96743242D01*
X83911305Y-96746799D01*
X83899112Y-96748000D01*
X83837500Y-96748000D01*
X83825307Y-96746799D01*
X83813582Y-96743242D01*
X83802777Y-96737467D01*
X83793306Y-96729694D01*
X83785533Y-96720223D01*
X83779758Y-96709418D01*
X83776201Y-96697693D01*
X83775000Y-96685500D01*
X83775000Y-96010500D01*
X83776201Y-95998307D01*
X83779758Y-95986582D01*
X83785533Y-95975777D01*
X83793306Y-95966306D01*
X83802777Y-95958533D01*
X83813582Y-95952758D01*
X83825307Y-95949201D01*
X83837500Y-95948000D01*
X83962500Y-95948000D01*
X83974693Y-95949201D01*
X83986418Y-95952758D01*
X83997223Y-95958533D01*
X84006694Y-95966306D01*
X84014467Y-95975777D01*
X84020242Y-95986582D01*
X84023799Y-95998307D01*
X84025000Y-96010500D01*
X84025000Y-96622112D01*
X84023799Y-96634305D01*
G37*
%TD*%
%TO.C,R22*%
G36*
G01*
X89731000Y-84439000D02*
X90101000Y-84439000D01*
G75*
G02*
X90236000Y-84574000I0J-135000D01*
G01*
X90236000Y-84844000D01*
G75*
G02*
X90101000Y-84979000I-135000J0D01*
G01*
X89731000Y-84979000D01*
G75*
G02*
X89596000Y-84844000I0J135000D01*
G01*
X89596000Y-84574000D01*
G75*
G02*
X89731000Y-84439000I135000J0D01*
G01*
G37*
G36*
G01*
X89731000Y-83419000D02*
X90101000Y-83419000D01*
G75*
G02*
X90236000Y-83554000I0J-135000D01*
G01*
X90236000Y-83824000D01*
G75*
G02*
X90101000Y-83959000I-135000J0D01*
G01*
X89731000Y-83959000D01*
G75*
G02*
X89596000Y-83824000I0J135000D01*
G01*
X89596000Y-83554000D01*
G75*
G02*
X89731000Y-83419000I135000J0D01*
G01*
G37*
%TD*%
%TO.C,R21*%
G36*
G01*
X86175000Y-93966000D02*
X86545000Y-93966000D01*
G75*
G02*
X86680000Y-94101000I0J-135000D01*
G01*
X86680000Y-94371000D01*
G75*
G02*
X86545000Y-94506000I-135000J0D01*
G01*
X86175000Y-94506000D01*
G75*
G02*
X86040000Y-94371000I0J135000D01*
G01*
X86040000Y-94101000D01*
G75*
G02*
X86175000Y-93966000I135000J0D01*
G01*
G37*
G36*
G01*
X86175000Y-92946000D02*
X86545000Y-92946000D01*
G75*
G02*
X86680000Y-93081000I0J-135000D01*
G01*
X86680000Y-93351000D01*
G75*
G02*
X86545000Y-93486000I-135000J0D01*
G01*
X86175000Y-93486000D01*
G75*
G02*
X86040000Y-93351000I0J135000D01*
G01*
X86040000Y-93081000D01*
G75*
G02*
X86175000Y-92946000I135000J0D01*
G01*
G37*
%TD*%
%TO.C,R20*%
G36*
G01*
X87445000Y-91680000D02*
X87815000Y-91680000D01*
G75*
G02*
X87950000Y-91815000I0J-135000D01*
G01*
X87950000Y-92085000D01*
G75*
G02*
X87815000Y-92220000I-135000J0D01*
G01*
X87445000Y-92220000D01*
G75*
G02*
X87310000Y-92085000I0J135000D01*
G01*
X87310000Y-91815000D01*
G75*
G02*
X87445000Y-91680000I135000J0D01*
G01*
G37*
G36*
G01*
X87445000Y-90660000D02*
X87815000Y-90660000D01*
G75*
G02*
X87950000Y-90795000I0J-135000D01*
G01*
X87950000Y-91065000D01*
G75*
G02*
X87815000Y-91200000I-135000J0D01*
G01*
X87445000Y-91200000D01*
G75*
G02*
X87310000Y-91065000I0J135000D01*
G01*
X87310000Y-90795000D01*
G75*
G02*
X87445000Y-90660000I135000J0D01*
G01*
G37*
%TD*%
%TO.C,R19*%
G36*
G01*
X94927000Y-81548000D02*
X94557000Y-81548000D01*
G75*
G02*
X94422000Y-81413000I0J135000D01*
G01*
X94422000Y-81143000D01*
G75*
G02*
X94557000Y-81008000I135000J0D01*
G01*
X94927000Y-81008000D01*
G75*
G02*
X95062000Y-81143000I0J-135000D01*
G01*
X95062000Y-81413000D01*
G75*
G02*
X94927000Y-81548000I-135000J0D01*
G01*
G37*
G36*
G01*
X94927000Y-82568000D02*
X94557000Y-82568000D01*
G75*
G02*
X94422000Y-82433000I0J135000D01*
G01*
X94422000Y-82163000D01*
G75*
G02*
X94557000Y-82028000I135000J0D01*
G01*
X94927000Y-82028000D01*
G75*
G02*
X95062000Y-82163000I0J-135000D01*
G01*
X95062000Y-82433000D01*
G75*
G02*
X94927000Y-82568000I-135000J0D01*
G01*
G37*
%TD*%
%TO.C,R18*%
G36*
G01*
X90355000Y-88914000D02*
X89985000Y-88914000D01*
G75*
G02*
X89850000Y-88779000I0J135000D01*
G01*
X89850000Y-88509000D01*
G75*
G02*
X89985000Y-88374000I135000J0D01*
G01*
X90355000Y-88374000D01*
G75*
G02*
X90490000Y-88509000I0J-135000D01*
G01*
X90490000Y-88779000D01*
G75*
G02*
X90355000Y-88914000I-135000J0D01*
G01*
G37*
G36*
G01*
X90355000Y-89934000D02*
X89985000Y-89934000D01*
G75*
G02*
X89850000Y-89799000I0J135000D01*
G01*
X89850000Y-89529000D01*
G75*
G02*
X89985000Y-89394000I135000J0D01*
G01*
X90355000Y-89394000D01*
G75*
G02*
X90490000Y-89529000I0J-135000D01*
G01*
X90490000Y-89799000D01*
G75*
G02*
X90355000Y-89934000I-135000J0D01*
G01*
G37*
%TD*%
%TO.C,R17*%
G36*
G01*
X88715000Y-89394000D02*
X89085000Y-89394000D01*
G75*
G02*
X89220000Y-89529000I0J-135000D01*
G01*
X89220000Y-89799000D01*
G75*
G02*
X89085000Y-89934000I-135000J0D01*
G01*
X88715000Y-89934000D01*
G75*
G02*
X88580000Y-89799000I0J135000D01*
G01*
X88580000Y-89529000D01*
G75*
G02*
X88715000Y-89394000I135000J0D01*
G01*
G37*
G36*
G01*
X88715000Y-88374000D02*
X89085000Y-88374000D01*
G75*
G02*
X89220000Y-88509000I0J-135000D01*
G01*
X89220000Y-88779000D01*
G75*
G02*
X89085000Y-88914000I-135000J0D01*
G01*
X88715000Y-88914000D01*
G75*
G02*
X88580000Y-88779000I0J135000D01*
G01*
X88580000Y-88509000D01*
G75*
G02*
X88715000Y-88374000I135000J0D01*
G01*
G37*
%TD*%
%TO.C,R15*%
G36*
G01*
X89985000Y-91680000D02*
X90355000Y-91680000D01*
G75*
G02*
X90490000Y-91815000I0J-135000D01*
G01*
X90490000Y-92085000D01*
G75*
G02*
X90355000Y-92220000I-135000J0D01*
G01*
X89985000Y-92220000D01*
G75*
G02*
X89850000Y-92085000I0J135000D01*
G01*
X89850000Y-91815000D01*
G75*
G02*
X89985000Y-91680000I135000J0D01*
G01*
G37*
G36*
G01*
X89985000Y-90660000D02*
X90355000Y-90660000D01*
G75*
G02*
X90490000Y-90795000I0J-135000D01*
G01*
X90490000Y-91065000D01*
G75*
G02*
X90355000Y-91200000I-135000J0D01*
G01*
X89985000Y-91200000D01*
G75*
G02*
X89850000Y-91065000I0J135000D01*
G01*
X89850000Y-90795000D01*
G75*
G02*
X89985000Y-90660000I135000J0D01*
G01*
G37*
%TD*%
%TO.C,R14*%
G36*
G01*
X88715000Y-91680000D02*
X89085000Y-91680000D01*
G75*
G02*
X89220000Y-91815000I0J-135000D01*
G01*
X89220000Y-92085000D01*
G75*
G02*
X89085000Y-92220000I-135000J0D01*
G01*
X88715000Y-92220000D01*
G75*
G02*
X88580000Y-92085000I0J135000D01*
G01*
X88580000Y-91815000D01*
G75*
G02*
X88715000Y-91680000I135000J0D01*
G01*
G37*
G36*
G01*
X88715000Y-90660000D02*
X89085000Y-90660000D01*
G75*
G02*
X89220000Y-90795000I0J-135000D01*
G01*
X89220000Y-91065000D01*
G75*
G02*
X89085000Y-91200000I-135000J0D01*
G01*
X88715000Y-91200000D01*
G75*
G02*
X88580000Y-91065000I0J135000D01*
G01*
X88580000Y-90795000D01*
G75*
G02*
X88715000Y-90660000I135000J0D01*
G01*
G37*
%TD*%
%TO.C,R13*%
G36*
G01*
X87108000Y-96959000D02*
X87108000Y-96589000D01*
G75*
G02*
X87243000Y-96454000I135000J0D01*
G01*
X87513000Y-96454000D01*
G75*
G02*
X87648000Y-96589000I0J-135000D01*
G01*
X87648000Y-96959000D01*
G75*
G02*
X87513000Y-97094000I-135000J0D01*
G01*
X87243000Y-97094000D01*
G75*
G02*
X87108000Y-96959000I0J135000D01*
G01*
G37*
G36*
G01*
X86088000Y-96959000D02*
X86088000Y-96589000D01*
G75*
G02*
X86223000Y-96454000I135000J0D01*
G01*
X86493000Y-96454000D01*
G75*
G02*
X86628000Y-96589000I0J-135000D01*
G01*
X86628000Y-96959000D01*
G75*
G02*
X86493000Y-97094000I-135000J0D01*
G01*
X86223000Y-97094000D01*
G75*
G02*
X86088000Y-96959000I0J135000D01*
G01*
G37*
%TD*%
%TO.C,R12*%
G36*
G01*
X86628000Y-97859000D02*
X86628000Y-98229000D01*
G75*
G02*
X86493000Y-98364000I-135000J0D01*
G01*
X86223000Y-98364000D01*
G75*
G02*
X86088000Y-98229000I0J135000D01*
G01*
X86088000Y-97859000D01*
G75*
G02*
X86223000Y-97724000I135000J0D01*
G01*
X86493000Y-97724000D01*
G75*
G02*
X86628000Y-97859000I0J-135000D01*
G01*
G37*
G36*
G01*
X87648000Y-97859000D02*
X87648000Y-98229000D01*
G75*
G02*
X87513000Y-98364000I-135000J0D01*
G01*
X87243000Y-98364000D01*
G75*
G02*
X87108000Y-98229000I0J135000D01*
G01*
X87108000Y-97859000D01*
G75*
G02*
X87243000Y-97724000I135000J0D01*
G01*
X87513000Y-97724000D01*
G75*
G02*
X87648000Y-97859000I0J-135000D01*
G01*
G37*
%TD*%
%TO.C,R11*%
G36*
G01*
X78925000Y-93486000D02*
X78555000Y-93486000D01*
G75*
G02*
X78420000Y-93351000I0J135000D01*
G01*
X78420000Y-93081000D01*
G75*
G02*
X78555000Y-92946000I135000J0D01*
G01*
X78925000Y-92946000D01*
G75*
G02*
X79060000Y-93081000I0J-135000D01*
G01*
X79060000Y-93351000D01*
G75*
G02*
X78925000Y-93486000I-135000J0D01*
G01*
G37*
G36*
G01*
X78925000Y-94506000D02*
X78555000Y-94506000D01*
G75*
G02*
X78420000Y-94371000I0J135000D01*
G01*
X78420000Y-94101000D01*
G75*
G02*
X78555000Y-93966000I135000J0D01*
G01*
X78925000Y-93966000D01*
G75*
G02*
X79060000Y-94101000I0J-135000D01*
G01*
X79060000Y-94371000D01*
G75*
G02*
X78925000Y-94506000I-135000J0D01*
G01*
G37*
%TD*%
%TO.C,R10*%
G36*
G01*
X81465000Y-93486000D02*
X81095000Y-93486000D01*
G75*
G02*
X80960000Y-93351000I0J135000D01*
G01*
X80960000Y-93081000D01*
G75*
G02*
X81095000Y-92946000I135000J0D01*
G01*
X81465000Y-92946000D01*
G75*
G02*
X81600000Y-93081000I0J-135000D01*
G01*
X81600000Y-93351000D01*
G75*
G02*
X81465000Y-93486000I-135000J0D01*
G01*
G37*
G36*
G01*
X81465000Y-94506000D02*
X81095000Y-94506000D01*
G75*
G02*
X80960000Y-94371000I0J135000D01*
G01*
X80960000Y-94101000D01*
G75*
G02*
X81095000Y-93966000I135000J0D01*
G01*
X81465000Y-93966000D01*
G75*
G02*
X81600000Y-94101000I0J-135000D01*
G01*
X81600000Y-94371000D01*
G75*
G02*
X81465000Y-94506000I-135000J0D01*
G01*
G37*
%TD*%
%TO.C,R9*%
G36*
G01*
X80195000Y-93486000D02*
X79825000Y-93486000D01*
G75*
G02*
X79690000Y-93351000I0J135000D01*
G01*
X79690000Y-93081000D01*
G75*
G02*
X79825000Y-92946000I135000J0D01*
G01*
X80195000Y-92946000D01*
G75*
G02*
X80330000Y-93081000I0J-135000D01*
G01*
X80330000Y-93351000D01*
G75*
G02*
X80195000Y-93486000I-135000J0D01*
G01*
G37*
G36*
G01*
X80195000Y-94506000D02*
X79825000Y-94506000D01*
G75*
G02*
X79690000Y-94371000I0J135000D01*
G01*
X79690000Y-94101000D01*
G75*
G02*
X79825000Y-93966000I135000J0D01*
G01*
X80195000Y-93966000D01*
G75*
G02*
X80330000Y-94101000I0J-135000D01*
G01*
X80330000Y-94371000D01*
G75*
G02*
X80195000Y-94506000I-135000J0D01*
G01*
G37*
%TD*%
%TO.C,R8*%
G36*
G01*
X82735000Y-93486000D02*
X82365000Y-93486000D01*
G75*
G02*
X82230000Y-93351000I0J135000D01*
G01*
X82230000Y-93081000D01*
G75*
G02*
X82365000Y-92946000I135000J0D01*
G01*
X82735000Y-92946000D01*
G75*
G02*
X82870000Y-93081000I0J-135000D01*
G01*
X82870000Y-93351000D01*
G75*
G02*
X82735000Y-93486000I-135000J0D01*
G01*
G37*
G36*
G01*
X82735000Y-94506000D02*
X82365000Y-94506000D01*
G75*
G02*
X82230000Y-94371000I0J135000D01*
G01*
X82230000Y-94101000D01*
G75*
G02*
X82365000Y-93966000I135000J0D01*
G01*
X82735000Y-93966000D01*
G75*
G02*
X82870000Y-94101000I0J-135000D01*
G01*
X82870000Y-94371000D01*
G75*
G02*
X82735000Y-94506000I-135000J0D01*
G01*
G37*
%TD*%
%TO.C,R7*%
G36*
G01*
X87815000Y-93486000D02*
X87445000Y-93486000D01*
G75*
G02*
X87310000Y-93351000I0J135000D01*
G01*
X87310000Y-93081000D01*
G75*
G02*
X87445000Y-92946000I135000J0D01*
G01*
X87815000Y-92946000D01*
G75*
G02*
X87950000Y-93081000I0J-135000D01*
G01*
X87950000Y-93351000D01*
G75*
G02*
X87815000Y-93486000I-135000J0D01*
G01*
G37*
G36*
G01*
X87815000Y-94506000D02*
X87445000Y-94506000D01*
G75*
G02*
X87310000Y-94371000I0J135000D01*
G01*
X87310000Y-94101000D01*
G75*
G02*
X87445000Y-93966000I135000J0D01*
G01*
X87815000Y-93966000D01*
G75*
G02*
X87950000Y-94101000I0J-135000D01*
G01*
X87950000Y-94371000D01*
G75*
G02*
X87815000Y-94506000I-135000J0D01*
G01*
G37*
%TD*%
%TO.C,R6*%
G36*
G01*
X99808000Y-103817000D02*
X99808000Y-103447000D01*
G75*
G02*
X99943000Y-103312000I135000J0D01*
G01*
X100213000Y-103312000D01*
G75*
G02*
X100348000Y-103447000I0J-135000D01*
G01*
X100348000Y-103817000D01*
G75*
G02*
X100213000Y-103952000I-135000J0D01*
G01*
X99943000Y-103952000D01*
G75*
G02*
X99808000Y-103817000I0J135000D01*
G01*
G37*
G36*
G01*
X98788000Y-103817000D02*
X98788000Y-103447000D01*
G75*
G02*
X98923000Y-103312000I135000J0D01*
G01*
X99193000Y-103312000D01*
G75*
G02*
X99328000Y-103447000I0J-135000D01*
G01*
X99328000Y-103817000D01*
G75*
G02*
X99193000Y-103952000I-135000J0D01*
G01*
X98923000Y-103952000D01*
G75*
G02*
X98788000Y-103817000I0J135000D01*
G01*
G37*
%TD*%
%TO.C,R5*%
G36*
G01*
X97975000Y-83959000D02*
X97605000Y-83959000D01*
G75*
G02*
X97470000Y-83824000I0J135000D01*
G01*
X97470000Y-83554000D01*
G75*
G02*
X97605000Y-83419000I135000J0D01*
G01*
X97975000Y-83419000D01*
G75*
G02*
X98110000Y-83554000I0J-135000D01*
G01*
X98110000Y-83824000D01*
G75*
G02*
X97975000Y-83959000I-135000J0D01*
G01*
G37*
G36*
G01*
X97975000Y-84979000D02*
X97605000Y-84979000D01*
G75*
G02*
X97470000Y-84844000I0J135000D01*
G01*
X97470000Y-84574000D01*
G75*
G02*
X97605000Y-84439000I135000J0D01*
G01*
X97975000Y-84439000D01*
G75*
G02*
X98110000Y-84574000I0J-135000D01*
G01*
X98110000Y-84844000D01*
G75*
G02*
X97975000Y-84979000I-135000J0D01*
G01*
G37*
%TD*%
%TO.C,R3*%
G36*
G01*
X98023000Y-78594000D02*
X98573000Y-78594000D01*
G75*
G02*
X98773000Y-78794000I0J-200000D01*
G01*
X98773000Y-79194000D01*
G75*
G02*
X98573000Y-79394000I-200000J0D01*
G01*
X98023000Y-79394000D01*
G75*
G02*
X97823000Y-79194000I0J200000D01*
G01*
X97823000Y-78794000D01*
G75*
G02*
X98023000Y-78594000I200000J0D01*
G01*
G37*
G36*
G01*
X98023000Y-76944000D02*
X98573000Y-76944000D01*
G75*
G02*
X98773000Y-77144000I0J-200000D01*
G01*
X98773000Y-77544000D01*
G75*
G02*
X98573000Y-77744000I-200000J0D01*
G01*
X98023000Y-77744000D01*
G75*
G02*
X97823000Y-77544000I0J200000D01*
G01*
X97823000Y-77144000D01*
G75*
G02*
X98023000Y-76944000I200000J0D01*
G01*
G37*
%TD*%
%TO.C,R2*%
G36*
G01*
X96245000Y-78594000D02*
X96795000Y-78594000D01*
G75*
G02*
X96995000Y-78794000I0J-200000D01*
G01*
X96995000Y-79194000D01*
G75*
G02*
X96795000Y-79394000I-200000J0D01*
G01*
X96245000Y-79394000D01*
G75*
G02*
X96045000Y-79194000I0J200000D01*
G01*
X96045000Y-78794000D01*
G75*
G02*
X96245000Y-78594000I200000J0D01*
G01*
G37*
G36*
G01*
X96245000Y-76944000D02*
X96795000Y-76944000D01*
G75*
G02*
X96995000Y-77144000I0J-200000D01*
G01*
X96995000Y-77544000D01*
G75*
G02*
X96795000Y-77744000I-200000J0D01*
G01*
X96245000Y-77744000D01*
G75*
G02*
X96045000Y-77544000I0J200000D01*
G01*
X96045000Y-77144000D01*
G75*
G02*
X96245000Y-76944000I200000J0D01*
G01*
G37*
%TD*%
%TO.C,R1*%
G36*
G01*
X63994000Y-88069000D02*
X63994000Y-87699000D01*
G75*
G02*
X64129000Y-87564000I135000J0D01*
G01*
X64399000Y-87564000D01*
G75*
G02*
X64534000Y-87699000I0J-135000D01*
G01*
X64534000Y-88069000D01*
G75*
G02*
X64399000Y-88204000I-135000J0D01*
G01*
X64129000Y-88204000D01*
G75*
G02*
X63994000Y-88069000I0J135000D01*
G01*
G37*
G36*
G01*
X62974000Y-88069000D02*
X62974000Y-87699000D01*
G75*
G02*
X63109000Y-87564000I135000J0D01*
G01*
X63379000Y-87564000D01*
G75*
G02*
X63514000Y-87699000I0J-135000D01*
G01*
X63514000Y-88069000D01*
G75*
G02*
X63379000Y-88204000I-135000J0D01*
G01*
X63109000Y-88204000D01*
G75*
G02*
X62974000Y-88069000I0J135000D01*
G01*
G37*
%TD*%
D13*
%TO.C,Q1*%
X96250000Y-85019000D03*
X94250000Y-85969000D03*
X94250000Y-84069000D03*
%TD*%
%TO.C,L2*%
G36*
G01*
X83756000Y-78150500D02*
X83756000Y-77805500D01*
G75*
G02*
X83903500Y-77658000I147500J0D01*
G01*
X84198500Y-77658000D01*
G75*
G02*
X84346000Y-77805500I0J-147500D01*
G01*
X84346000Y-78150500D01*
G75*
G02*
X84198500Y-78298000I-147500J0D01*
G01*
X83903500Y-78298000D01*
G75*
G02*
X83756000Y-78150500I0J147500D01*
G01*
G37*
G36*
G01*
X82786000Y-78150500D02*
X82786000Y-77805500D01*
G75*
G02*
X82933500Y-77658000I147500J0D01*
G01*
X83228500Y-77658000D01*
G75*
G02*
X83376000Y-77805500I0J-147500D01*
G01*
X83376000Y-78150500D01*
G75*
G02*
X83228500Y-78298000I-147500J0D01*
G01*
X82933500Y-78298000D01*
G75*
G02*
X82786000Y-78150500I0J147500D01*
G01*
G37*
%TD*%
%TO.C,L1*%
G36*
G01*
X80074000Y-79075500D02*
X80074000Y-79420500D01*
G75*
G02*
X79926500Y-79568000I-147500J0D01*
G01*
X79631500Y-79568000D01*
G75*
G02*
X79484000Y-79420500I0J147500D01*
G01*
X79484000Y-79075500D01*
G75*
G02*
X79631500Y-78928000I147500J0D01*
G01*
X79926500Y-78928000D01*
G75*
G02*
X80074000Y-79075500I0J-147500D01*
G01*
G37*
G36*
G01*
X81044000Y-79075500D02*
X81044000Y-79420500D01*
G75*
G02*
X80896500Y-79568000I-147500J0D01*
G01*
X80601500Y-79568000D01*
G75*
G02*
X80454000Y-79420500I0J147500D01*
G01*
X80454000Y-79075500D01*
G75*
G02*
X80601500Y-78928000I147500J0D01*
G01*
X80896500Y-78928000D01*
G75*
G02*
X81044000Y-79075500I0J-147500D01*
G01*
G37*
%TD*%
D14*
%TO.C,IC1*%
X99502000Y-84044000D03*
X101402000Y-84044000D03*
X101402000Y-86644000D03*
X100452000Y-86644000D03*
X99502000Y-86644000D03*
%TD*%
D15*
%TO.C,E1*%
X79248000Y-77470000D03*
X81448000Y-77470000D03*
X89948000Y-81200000D03*
X79248000Y-81200000D03*
%TD*%
%TO.C,D4*%
G36*
G01*
X88648250Y-84399000D02*
X88135750Y-84399000D01*
G75*
G02*
X87917000Y-84180250I0J218750D01*
G01*
X87917000Y-83742750D01*
G75*
G02*
X88135750Y-83524000I218750J0D01*
G01*
X88648250Y-83524000D01*
G75*
G02*
X88867000Y-83742750I0J-218750D01*
G01*
X88867000Y-84180250D01*
G75*
G02*
X88648250Y-84399000I-218750J0D01*
G01*
G37*
G36*
G01*
X88648250Y-85974000D02*
X88135750Y-85974000D01*
G75*
G02*
X87917000Y-85755250I0J218750D01*
G01*
X87917000Y-85317750D01*
G75*
G02*
X88135750Y-85099000I218750J0D01*
G01*
X88648250Y-85099000D01*
G75*
G02*
X88867000Y-85317750I0J-218750D01*
G01*
X88867000Y-85755250D01*
G75*
G02*
X88648250Y-85974000I-218750J0D01*
G01*
G37*
%TD*%
D16*
%TO.C,D2*%
X91948000Y-83948000D03*
X91948000Y-87248000D03*
%TD*%
%TO.C,D1*%
G36*
G01*
X94485750Y-78582000D02*
X94998250Y-78582000D01*
G75*
G02*
X95217000Y-78800750I0J-218750D01*
G01*
X95217000Y-79238250D01*
G75*
G02*
X94998250Y-79457000I-218750J0D01*
G01*
X94485750Y-79457000D01*
G75*
G02*
X94267000Y-79238250I0J218750D01*
G01*
X94267000Y-78800750D01*
G75*
G02*
X94485750Y-78582000I218750J0D01*
G01*
G37*
G36*
G01*
X94485750Y-77007000D02*
X94998250Y-77007000D01*
G75*
G02*
X95217000Y-77225750I0J-218750D01*
G01*
X95217000Y-77663250D01*
G75*
G02*
X94998250Y-77882000I-218750J0D01*
G01*
X94485750Y-77882000D01*
G75*
G02*
X94267000Y-77663250I0J218750D01*
G01*
X94267000Y-77225750D01*
G75*
G02*
X94485750Y-77007000I218750J0D01*
G01*
G37*
%TD*%
%TO.C,C29*%
G36*
G01*
X80402000Y-103012001D02*
X80402000Y-101711999D01*
G75*
G02*
X80651999Y-101462000I249999J0D01*
G01*
X81302001Y-101462000D01*
G75*
G02*
X81552000Y-101711999I0J-249999D01*
G01*
X81552000Y-103012001D01*
G75*
G02*
X81302001Y-103262000I-249999J0D01*
G01*
X80651999Y-103262000D01*
G75*
G02*
X80402000Y-103012001I0J249999D01*
G01*
G37*
G36*
G01*
X77452000Y-103012001D02*
X77452000Y-101711999D01*
G75*
G02*
X77701999Y-101462000I249999J0D01*
G01*
X78352001Y-101462000D01*
G75*
G02*
X78602000Y-101711999I0J-249999D01*
G01*
X78602000Y-103012001D01*
G75*
G02*
X78352001Y-103262000I-249999J0D01*
G01*
X77701999Y-103262000D01*
G75*
G02*
X77452000Y-103012001I0J249999D01*
G01*
G37*
%TD*%
%TO.C,C28*%
G36*
G01*
X80402000Y-105552001D02*
X80402000Y-104251999D01*
G75*
G02*
X80651999Y-104002000I249999J0D01*
G01*
X81302001Y-104002000D01*
G75*
G02*
X81552000Y-104251999I0J-249999D01*
G01*
X81552000Y-105552001D01*
G75*
G02*
X81302001Y-105802000I-249999J0D01*
G01*
X80651999Y-105802000D01*
G75*
G02*
X80402000Y-105552001I0J249999D01*
G01*
G37*
G36*
G01*
X77452000Y-105552001D02*
X77452000Y-104251999D01*
G75*
G02*
X77701999Y-104002000I249999J0D01*
G01*
X78352001Y-104002000D01*
G75*
G02*
X78602000Y-104251999I0J-249999D01*
G01*
X78602000Y-105552001D01*
G75*
G02*
X78352001Y-105802000I-249999J0D01*
G01*
X77701999Y-105802000D01*
G75*
G02*
X77452000Y-105552001I0J249999D01*
G01*
G37*
%TD*%
%TO.C,C27*%
G36*
G01*
X90000000Y-93926000D02*
X90340000Y-93926000D01*
G75*
G02*
X90480000Y-94066000I0J-140000D01*
G01*
X90480000Y-94346000D01*
G75*
G02*
X90340000Y-94486000I-140000J0D01*
G01*
X90000000Y-94486000D01*
G75*
G02*
X89860000Y-94346000I0J140000D01*
G01*
X89860000Y-94066000D01*
G75*
G02*
X90000000Y-93926000I140000J0D01*
G01*
G37*
G36*
G01*
X90000000Y-92966000D02*
X90340000Y-92966000D01*
G75*
G02*
X90480000Y-93106000I0J-140000D01*
G01*
X90480000Y-93386000D01*
G75*
G02*
X90340000Y-93526000I-140000J0D01*
G01*
X90000000Y-93526000D01*
G75*
G02*
X89860000Y-93386000I0J140000D01*
G01*
X89860000Y-93106000D01*
G75*
G02*
X90000000Y-92966000I140000J0D01*
G01*
G37*
%TD*%
%TO.C,C26*%
G36*
G01*
X86668000Y-99144000D02*
X86668000Y-99484000D01*
G75*
G02*
X86528000Y-99624000I-140000J0D01*
G01*
X86248000Y-99624000D01*
G75*
G02*
X86108000Y-99484000I0J140000D01*
G01*
X86108000Y-99144000D01*
G75*
G02*
X86248000Y-99004000I140000J0D01*
G01*
X86528000Y-99004000D01*
G75*
G02*
X86668000Y-99144000I0J-140000D01*
G01*
G37*
G36*
G01*
X87628000Y-99144000D02*
X87628000Y-99484000D01*
G75*
G02*
X87488000Y-99624000I-140000J0D01*
G01*
X87208000Y-99624000D01*
G75*
G02*
X87068000Y-99484000I0J140000D01*
G01*
X87068000Y-99144000D01*
G75*
G02*
X87208000Y-99004000I140000J0D01*
G01*
X87488000Y-99004000D01*
G75*
G02*
X87628000Y-99144000I0J-140000D01*
G01*
G37*
%TD*%
%TO.C,C25*%
G36*
G01*
X86668000Y-100414000D02*
X86668000Y-100754000D01*
G75*
G02*
X86528000Y-100894000I-140000J0D01*
G01*
X86248000Y-100894000D01*
G75*
G02*
X86108000Y-100754000I0J140000D01*
G01*
X86108000Y-100414000D01*
G75*
G02*
X86248000Y-100274000I140000J0D01*
G01*
X86528000Y-100274000D01*
G75*
G02*
X86668000Y-100414000I0J-140000D01*
G01*
G37*
G36*
G01*
X87628000Y-100414000D02*
X87628000Y-100754000D01*
G75*
G02*
X87488000Y-100894000I-140000J0D01*
G01*
X87208000Y-100894000D01*
G75*
G02*
X87068000Y-100754000I0J140000D01*
G01*
X87068000Y-100414000D01*
G75*
G02*
X87208000Y-100274000I140000J0D01*
G01*
X87488000Y-100274000D01*
G75*
G02*
X87628000Y-100414000I0J-140000D01*
G01*
G37*
%TD*%
%TO.C,C24*%
G36*
G01*
X99796000Y-102532000D02*
X99796000Y-102192000D01*
G75*
G02*
X99936000Y-102052000I140000J0D01*
G01*
X100216000Y-102052000D01*
G75*
G02*
X100356000Y-102192000I0J-140000D01*
G01*
X100356000Y-102532000D01*
G75*
G02*
X100216000Y-102672000I-140000J0D01*
G01*
X99936000Y-102672000D01*
G75*
G02*
X99796000Y-102532000I0J140000D01*
G01*
G37*
G36*
G01*
X98836000Y-102532000D02*
X98836000Y-102192000D01*
G75*
G02*
X98976000Y-102052000I140000J0D01*
G01*
X99256000Y-102052000D01*
G75*
G02*
X99396000Y-102192000I0J-140000D01*
G01*
X99396000Y-102532000D01*
G75*
G02*
X99256000Y-102672000I-140000J0D01*
G01*
X98976000Y-102672000D01*
G75*
G02*
X98836000Y-102532000I0J140000D01*
G01*
G37*
%TD*%
%TO.C,C22*%
G36*
G01*
X88730000Y-93926000D02*
X89070000Y-93926000D01*
G75*
G02*
X89210000Y-94066000I0J-140000D01*
G01*
X89210000Y-94346000D01*
G75*
G02*
X89070000Y-94486000I-140000J0D01*
G01*
X88730000Y-94486000D01*
G75*
G02*
X88590000Y-94346000I0J140000D01*
G01*
X88590000Y-94066000D01*
G75*
G02*
X88730000Y-93926000I140000J0D01*
G01*
G37*
G36*
G01*
X88730000Y-92966000D02*
X89070000Y-92966000D01*
G75*
G02*
X89210000Y-93106000I0J-140000D01*
G01*
X89210000Y-93386000D01*
G75*
G02*
X89070000Y-93526000I-140000J0D01*
G01*
X88730000Y-93526000D01*
G75*
G02*
X88590000Y-93386000I0J140000D01*
G01*
X88590000Y-93106000D01*
G75*
G02*
X88730000Y-92966000I140000J0D01*
G01*
G37*
%TD*%
%TO.C,C20*%
G36*
G01*
X82634000Y-104086000D02*
X82974000Y-104086000D01*
G75*
G02*
X83114000Y-104226000I0J-140000D01*
G01*
X83114000Y-104506000D01*
G75*
G02*
X82974000Y-104646000I-140000J0D01*
G01*
X82634000Y-104646000D01*
G75*
G02*
X82494000Y-104506000I0J140000D01*
G01*
X82494000Y-104226000D01*
G75*
G02*
X82634000Y-104086000I140000J0D01*
G01*
G37*
G36*
G01*
X82634000Y-103126000D02*
X82974000Y-103126000D01*
G75*
G02*
X83114000Y-103266000I0J-140000D01*
G01*
X83114000Y-103546000D01*
G75*
G02*
X82974000Y-103686000I-140000J0D01*
G01*
X82634000Y-103686000D01*
G75*
G02*
X82494000Y-103546000I0J140000D01*
G01*
X82494000Y-103266000D01*
G75*
G02*
X82634000Y-103126000I140000J0D01*
G01*
G37*
%TD*%
%TO.C,C18*%
G36*
G01*
X84782000Y-104564000D02*
X84782000Y-104224000D01*
G75*
G02*
X84922000Y-104084000I140000J0D01*
G01*
X85202000Y-104084000D01*
G75*
G02*
X85342000Y-104224000I0J-140000D01*
G01*
X85342000Y-104564000D01*
G75*
G02*
X85202000Y-104704000I-140000J0D01*
G01*
X84922000Y-104704000D01*
G75*
G02*
X84782000Y-104564000I0J140000D01*
G01*
G37*
G36*
G01*
X83822000Y-104564000D02*
X83822000Y-104224000D01*
G75*
G02*
X83962000Y-104084000I140000J0D01*
G01*
X84242000Y-104084000D01*
G75*
G02*
X84382000Y-104224000I0J-140000D01*
G01*
X84382000Y-104564000D01*
G75*
G02*
X84242000Y-104704000I-140000J0D01*
G01*
X83962000Y-104704000D01*
G75*
G02*
X83822000Y-104564000I0J140000D01*
G01*
G37*
%TD*%
%TO.C,C17*%
G36*
G01*
X87068000Y-102024000D02*
X87068000Y-101684000D01*
G75*
G02*
X87208000Y-101544000I140000J0D01*
G01*
X87488000Y-101544000D01*
G75*
G02*
X87628000Y-101684000I0J-140000D01*
G01*
X87628000Y-102024000D01*
G75*
G02*
X87488000Y-102164000I-140000J0D01*
G01*
X87208000Y-102164000D01*
G75*
G02*
X87068000Y-102024000I0J140000D01*
G01*
G37*
G36*
G01*
X86108000Y-102024000D02*
X86108000Y-101684000D01*
G75*
G02*
X86248000Y-101544000I140000J0D01*
G01*
X86528000Y-101544000D01*
G75*
G02*
X86668000Y-101684000I0J-140000D01*
G01*
X86668000Y-102024000D01*
G75*
G02*
X86528000Y-102164000I-140000J0D01*
G01*
X86248000Y-102164000D01*
G75*
G02*
X86108000Y-102024000I0J140000D01*
G01*
G37*
%TD*%
%TO.C,C16*%
G36*
G01*
X84754000Y-103294000D02*
X84754000Y-102954000D01*
G75*
G02*
X84894000Y-102814000I140000J0D01*
G01*
X85174000Y-102814000D01*
G75*
G02*
X85314000Y-102954000I0J-140000D01*
G01*
X85314000Y-103294000D01*
G75*
G02*
X85174000Y-103434000I-140000J0D01*
G01*
X84894000Y-103434000D01*
G75*
G02*
X84754000Y-103294000I0J140000D01*
G01*
G37*
G36*
G01*
X83794000Y-103294000D02*
X83794000Y-102954000D01*
G75*
G02*
X83934000Y-102814000I140000J0D01*
G01*
X84214000Y-102814000D01*
G75*
G02*
X84354000Y-102954000I0J-140000D01*
G01*
X84354000Y-103294000D01*
G75*
G02*
X84214000Y-103434000I-140000J0D01*
G01*
X83934000Y-103434000D01*
G75*
G02*
X83794000Y-103294000I0J140000D01*
G01*
G37*
%TD*%
%TO.C,C15*%
G36*
G01*
X77640000Y-97082000D02*
X77300000Y-97082000D01*
G75*
G02*
X77160000Y-96942000I0J140000D01*
G01*
X77160000Y-96662000D01*
G75*
G02*
X77300000Y-96522000I140000J0D01*
G01*
X77640000Y-96522000D01*
G75*
G02*
X77780000Y-96662000I0J-140000D01*
G01*
X77780000Y-96942000D01*
G75*
G02*
X77640000Y-97082000I-140000J0D01*
G01*
G37*
G36*
G01*
X77640000Y-98042000D02*
X77300000Y-98042000D01*
G75*
G02*
X77160000Y-97902000I0J140000D01*
G01*
X77160000Y-97622000D01*
G75*
G02*
X77300000Y-97482000I140000J0D01*
G01*
X77640000Y-97482000D01*
G75*
G02*
X77780000Y-97622000I0J-140000D01*
G01*
X77780000Y-97902000D01*
G75*
G02*
X77640000Y-98042000I-140000J0D01*
G01*
G37*
%TD*%
%TO.C,C13*%
G36*
G01*
X85260000Y-93526000D02*
X84920000Y-93526000D01*
G75*
G02*
X84780000Y-93386000I0J140000D01*
G01*
X84780000Y-93106000D01*
G75*
G02*
X84920000Y-92966000I140000J0D01*
G01*
X85260000Y-92966000D01*
G75*
G02*
X85400000Y-93106000I0J-140000D01*
G01*
X85400000Y-93386000D01*
G75*
G02*
X85260000Y-93526000I-140000J0D01*
G01*
G37*
G36*
G01*
X85260000Y-94486000D02*
X84920000Y-94486000D01*
G75*
G02*
X84780000Y-94346000I0J140000D01*
G01*
X84780000Y-94066000D01*
G75*
G02*
X84920000Y-93926000I140000J0D01*
G01*
X85260000Y-93926000D01*
G75*
G02*
X85400000Y-94066000I0J-140000D01*
G01*
X85400000Y-94346000D01*
G75*
G02*
X85260000Y-94486000I-140000J0D01*
G01*
G37*
%TD*%
%TO.C,C12*%
G36*
G01*
X99992000Y-78512000D02*
X99652000Y-78512000D01*
G75*
G02*
X99512000Y-78372000I0J140000D01*
G01*
X99512000Y-78092000D01*
G75*
G02*
X99652000Y-77952000I140000J0D01*
G01*
X99992000Y-77952000D01*
G75*
G02*
X100132000Y-78092000I0J-140000D01*
G01*
X100132000Y-78372000D01*
G75*
G02*
X99992000Y-78512000I-140000J0D01*
G01*
G37*
G36*
G01*
X99992000Y-79472000D02*
X99652000Y-79472000D01*
G75*
G02*
X99512000Y-79332000I0J140000D01*
G01*
X99512000Y-79052000D01*
G75*
G02*
X99652000Y-78912000I140000J0D01*
G01*
X99992000Y-78912000D01*
G75*
G02*
X100132000Y-79052000I0J-140000D01*
G01*
X100132000Y-79332000D01*
G75*
G02*
X99992000Y-79472000I-140000J0D01*
G01*
G37*
%TD*%
%TO.C,C11*%
G36*
G01*
X77386000Y-86160000D02*
X77046000Y-86160000D01*
G75*
G02*
X76906000Y-86020000I0J140000D01*
G01*
X76906000Y-85740000D01*
G75*
G02*
X77046000Y-85600000I140000J0D01*
G01*
X77386000Y-85600000D01*
G75*
G02*
X77526000Y-85740000I0J-140000D01*
G01*
X77526000Y-86020000D01*
G75*
G02*
X77386000Y-86160000I-140000J0D01*
G01*
G37*
G36*
G01*
X77386000Y-87120000D02*
X77046000Y-87120000D01*
G75*
G02*
X76906000Y-86980000I0J140000D01*
G01*
X76906000Y-86700000D01*
G75*
G02*
X77046000Y-86560000I140000J0D01*
G01*
X77386000Y-86560000D01*
G75*
G02*
X77526000Y-86700000I0J-140000D01*
G01*
X77526000Y-86980000D01*
G75*
G02*
X77386000Y-87120000I-140000J0D01*
G01*
G37*
%TD*%
%TO.C,C10*%
G36*
G01*
X92794000Y-92402000D02*
X93134000Y-92402000D01*
G75*
G02*
X93274000Y-92542000I0J-140000D01*
G01*
X93274000Y-92822000D01*
G75*
G02*
X93134000Y-92962000I-140000J0D01*
G01*
X92794000Y-92962000D01*
G75*
G02*
X92654000Y-92822000I0J140000D01*
G01*
X92654000Y-92542000D01*
G75*
G02*
X92794000Y-92402000I140000J0D01*
G01*
G37*
G36*
G01*
X92794000Y-91442000D02*
X93134000Y-91442000D01*
G75*
G02*
X93274000Y-91582000I0J-140000D01*
G01*
X93274000Y-91862000D01*
G75*
G02*
X93134000Y-92002000I-140000J0D01*
G01*
X92794000Y-92002000D01*
G75*
G02*
X92654000Y-91862000I0J140000D01*
G01*
X92654000Y-91582000D01*
G75*
G02*
X92794000Y-91442000I140000J0D01*
G01*
G37*
%TD*%
%TO.C,C9*%
G36*
G01*
X77046000Y-88846000D02*
X77386000Y-88846000D01*
G75*
G02*
X77526000Y-88986000I0J-140000D01*
G01*
X77526000Y-89266000D01*
G75*
G02*
X77386000Y-89406000I-140000J0D01*
G01*
X77046000Y-89406000D01*
G75*
G02*
X76906000Y-89266000I0J140000D01*
G01*
X76906000Y-88986000D01*
G75*
G02*
X77046000Y-88846000I140000J0D01*
G01*
G37*
G36*
G01*
X77046000Y-87886000D02*
X77386000Y-87886000D01*
G75*
G02*
X77526000Y-88026000I0J-140000D01*
G01*
X77526000Y-88306000D01*
G75*
G02*
X77386000Y-88446000I-140000J0D01*
G01*
X77046000Y-88446000D01*
G75*
G02*
X76906000Y-88306000I0J140000D01*
G01*
X76906000Y-88026000D01*
G75*
G02*
X77046000Y-87886000I140000J0D01*
G01*
G37*
%TD*%
%TO.C,C8*%
G36*
G01*
X87068000Y-103294000D02*
X87068000Y-102954000D01*
G75*
G02*
X87208000Y-102814000I140000J0D01*
G01*
X87488000Y-102814000D01*
G75*
G02*
X87628000Y-102954000I0J-140000D01*
G01*
X87628000Y-103294000D01*
G75*
G02*
X87488000Y-103434000I-140000J0D01*
G01*
X87208000Y-103434000D01*
G75*
G02*
X87068000Y-103294000I0J140000D01*
G01*
G37*
G36*
G01*
X86108000Y-103294000D02*
X86108000Y-102954000D01*
G75*
G02*
X86248000Y-102814000I140000J0D01*
G01*
X86528000Y-102814000D01*
G75*
G02*
X86668000Y-102954000I0J-140000D01*
G01*
X86668000Y-103294000D01*
G75*
G02*
X86528000Y-103434000I-140000J0D01*
G01*
X86248000Y-103434000D01*
G75*
G02*
X86108000Y-103294000I0J140000D01*
G01*
G37*
%TD*%
%TO.C,C7*%
G36*
G01*
X84782000Y-102024000D02*
X84782000Y-101684000D01*
G75*
G02*
X84922000Y-101544000I140000J0D01*
G01*
X85202000Y-101544000D01*
G75*
G02*
X85342000Y-101684000I0J-140000D01*
G01*
X85342000Y-102024000D01*
G75*
G02*
X85202000Y-102164000I-140000J0D01*
G01*
X84922000Y-102164000D01*
G75*
G02*
X84782000Y-102024000I0J140000D01*
G01*
G37*
G36*
G01*
X83822000Y-102024000D02*
X83822000Y-101684000D01*
G75*
G02*
X83962000Y-101544000I140000J0D01*
G01*
X84242000Y-101544000D01*
G75*
G02*
X84382000Y-101684000I0J-140000D01*
G01*
X84382000Y-102024000D01*
G75*
G02*
X84242000Y-102164000I-140000J0D01*
G01*
X83962000Y-102164000D01*
G75*
G02*
X83822000Y-102024000I0J140000D01*
G01*
G37*
%TD*%
%TO.C,C6*%
G36*
G01*
X78910000Y-97082000D02*
X78570000Y-97082000D01*
G75*
G02*
X78430000Y-96942000I0J140000D01*
G01*
X78430000Y-96662000D01*
G75*
G02*
X78570000Y-96522000I140000J0D01*
G01*
X78910000Y-96522000D01*
G75*
G02*
X79050000Y-96662000I0J-140000D01*
G01*
X79050000Y-96942000D01*
G75*
G02*
X78910000Y-97082000I-140000J0D01*
G01*
G37*
G36*
G01*
X78910000Y-98042000D02*
X78570000Y-98042000D01*
G75*
G02*
X78430000Y-97902000I0J140000D01*
G01*
X78430000Y-97622000D01*
G75*
G02*
X78570000Y-97482000I140000J0D01*
G01*
X78910000Y-97482000D01*
G75*
G02*
X79050000Y-97622000I0J-140000D01*
G01*
X79050000Y-97902000D01*
G75*
G02*
X78910000Y-98042000I-140000J0D01*
G01*
G37*
%TD*%
%TO.C,C5*%
G36*
G01*
X83990000Y-93526000D02*
X83650000Y-93526000D01*
G75*
G02*
X83510000Y-93386000I0J140000D01*
G01*
X83510000Y-93106000D01*
G75*
G02*
X83650000Y-92966000I140000J0D01*
G01*
X83990000Y-92966000D01*
G75*
G02*
X84130000Y-93106000I0J-140000D01*
G01*
X84130000Y-93386000D01*
G75*
G02*
X83990000Y-93526000I-140000J0D01*
G01*
G37*
G36*
G01*
X83990000Y-94486000D02*
X83650000Y-94486000D01*
G75*
G02*
X83510000Y-94346000I0J140000D01*
G01*
X83510000Y-94066000D01*
G75*
G02*
X83650000Y-93926000I140000J0D01*
G01*
X83990000Y-93926000D01*
G75*
G02*
X84130000Y-94066000I0J-140000D01*
G01*
X84130000Y-94346000D01*
G75*
G02*
X83990000Y-94486000I-140000J0D01*
G01*
G37*
%TD*%
%TO.C,C4*%
G36*
G01*
X94688000Y-87800000D02*
X94688000Y-87460000D01*
G75*
G02*
X94828000Y-87320000I140000J0D01*
G01*
X95108000Y-87320000D01*
G75*
G02*
X95248000Y-87460000I0J-140000D01*
G01*
X95248000Y-87800000D01*
G75*
G02*
X95108000Y-87940000I-140000J0D01*
G01*
X94828000Y-87940000D01*
G75*
G02*
X94688000Y-87800000I0J140000D01*
G01*
G37*
G36*
G01*
X93728000Y-87800000D02*
X93728000Y-87460000D01*
G75*
G02*
X93868000Y-87320000I140000J0D01*
G01*
X94148000Y-87320000D01*
G75*
G02*
X94288000Y-87460000I0J-140000D01*
G01*
X94288000Y-87800000D01*
G75*
G02*
X94148000Y-87940000I-140000J0D01*
G01*
X93868000Y-87940000D01*
G75*
G02*
X93728000Y-87800000I0J140000D01*
G01*
G37*
%TD*%
%TO.C,C3*%
G36*
G01*
X94064000Y-92402000D02*
X94404000Y-92402000D01*
G75*
G02*
X94544000Y-92542000I0J-140000D01*
G01*
X94544000Y-92822000D01*
G75*
G02*
X94404000Y-92962000I-140000J0D01*
G01*
X94064000Y-92962000D01*
G75*
G02*
X93924000Y-92822000I0J140000D01*
G01*
X93924000Y-92542000D01*
G75*
G02*
X94064000Y-92402000I140000J0D01*
G01*
G37*
G36*
G01*
X94064000Y-91442000D02*
X94404000Y-91442000D01*
G75*
G02*
X94544000Y-91582000I0J-140000D01*
G01*
X94544000Y-91862000D01*
G75*
G02*
X94404000Y-92002000I-140000J0D01*
G01*
X94064000Y-92002000D01*
G75*
G02*
X93924000Y-91862000I0J140000D01*
G01*
X93924000Y-91582000D01*
G75*
G02*
X94064000Y-91442000I140000J0D01*
G01*
G37*
%TD*%
%TO.C,C2*%
G36*
G01*
X82750000Y-79418000D02*
X82750000Y-79078000D01*
G75*
G02*
X82890000Y-78938000I140000J0D01*
G01*
X83170000Y-78938000D01*
G75*
G02*
X83310000Y-79078000I0J-140000D01*
G01*
X83310000Y-79418000D01*
G75*
G02*
X83170000Y-79558000I-140000J0D01*
G01*
X82890000Y-79558000D01*
G75*
G02*
X82750000Y-79418000I0J140000D01*
G01*
G37*
G36*
G01*
X81790000Y-79418000D02*
X81790000Y-79078000D01*
G75*
G02*
X81930000Y-78938000I140000J0D01*
G01*
X82210000Y-78938000D01*
G75*
G02*
X82350000Y-79078000I0J-140000D01*
G01*
X82350000Y-79418000D01*
G75*
G02*
X82210000Y-79558000I-140000J0D01*
G01*
X81930000Y-79558000D01*
G75*
G02*
X81790000Y-79418000I0J140000D01*
G01*
G37*
%TD*%
%TO.C,C1*%
G36*
G01*
X63954000Y-89578000D02*
X63954000Y-89238000D01*
G75*
G02*
X64094000Y-89098000I140000J0D01*
G01*
X64374000Y-89098000D01*
G75*
G02*
X64514000Y-89238000I0J-140000D01*
G01*
X64514000Y-89578000D01*
G75*
G02*
X64374000Y-89718000I-140000J0D01*
G01*
X64094000Y-89718000D01*
G75*
G02*
X63954000Y-89578000I0J140000D01*
G01*
G37*
G36*
G01*
X62994000Y-89578000D02*
X62994000Y-89238000D01*
G75*
G02*
X63134000Y-89098000I140000J0D01*
G01*
X63414000Y-89098000D01*
G75*
G02*
X63554000Y-89238000I0J-140000D01*
G01*
X63554000Y-89578000D01*
G75*
G02*
X63414000Y-89718000I-140000J0D01*
G01*
X63134000Y-89718000D01*
G75*
G02*
X62994000Y-89578000I0J140000D01*
G01*
G37*
%TD*%
M02*
