M48
; DRILL file {KiCad (5.1.8)-1} date 01/25/21 23:01:02
; FORMAT={-:-/ absolute / inch / decimal}
; #@! TF.CreationDate,2021-01-25T23:01:02-08:00
; #@! TF.GenerationSoftware,Kicad,Pcbnew,(5.1.8)-1
; #@! TF.FileFunction,Plated,1,4,PTH
FMAT,2
INCH
T1C0.0118
T2C0.0157
T3C0.0236
T4C0.0394
T5C0.0787
%
G90
G05
T1
X7.0784Y-3.2068
X7.08Y-3.24
X7.191Y-3.0342
X7.3666Y-3.8334
X7.44Y-3.04
X7.4402Y-3.5444
X7.4675Y-3.56
X7.4932Y-3.7804
X7.5365Y-3.3101
X7.5575Y-3.2352
X7.5611Y-3.2844
X7.5739Y-3.2031
X7.575Y-3.6
X7.65Y-3.0
X7.65Y-3.05
X7.65Y-3.525
X7.6813Y-3.6352
X7.75Y-3.6
X7.82Y-3.18
X8.0729Y-2.9938
T2
X6.89Y-3.63
X7.0704Y-3.5535
X7.08Y-2.7
X7.08Y-2.79
X7.08Y-3.44
X7.18Y-2.9
X7.236Y-3.5471
X7.25Y-2.9134
X7.2885Y-3.32
X7.2915Y-3.2025
X7.34Y-2.72
X7.35Y-3.9
X7.3691Y-3.1858
X7.38Y-2.72
X7.3818Y-3.6068
X7.4112Y-3.1959
X7.4113Y-3.32
X7.42Y-2.76
X7.42Y-2.82
X7.4685Y-3.27
X7.4685Y-3.1
X7.515Y-3.1
X7.5213Y-3.48
X7.66Y-2.94
X7.7Y-3.05
X7.7Y-3.6035
X7.7812Y-3.4488
X7.85Y-3.4515
X7.85Y-3.5715
X7.9Y-3.01
X7.91Y-3.45
X7.9337Y-3.38
X7.9375Y-3.5875
X7.94Y-3.42
X7.95Y-3.0785
X7.95Y-3.2
X7.95Y-3.2394
X7.95Y-3.8
X7.9505Y-3.2792
X8.0Y-3.5085
X8.0128Y-3.0245
X8.0517Y-3.3917
T4
X6.89Y-3.025
X6.89Y-3.125
X6.89Y-3.225
X6.89Y-3.325
X6.89Y-3.425
X6.89Y-3.525
X8.075Y-3.5
X8.075Y-3.6
T5
X6.895Y-3.885
T3
G00X7.6999Y-3.7282
M15
G01X7.6999Y-3.7518
M16
G05
G00X7.6999Y-3.8778
M15
G01X7.6999Y-3.9014
M16
G05
G00X8.0401Y-3.7282
M15
G01X8.0401Y-3.7518
M16
G05
G00X8.0401Y-3.8778
M15
G01X8.0401Y-3.9014
M16
G05
T0
M30
