M48
; DRILL file {KiCad (5.1.8)-1} date 03/06/21 05:42:18
; FORMAT={-:-/ absolute / inch / decimal}
; #@! TF.CreationDate,2021-03-06T05:42:18-08:00
; #@! TF.GenerationSoftware,Kicad,Pcbnew,(5.1.8)-1
; #@! TF.FileFunction,Plated,1,4,PTH
FMAT,2
INCH
T1C0.0157
T2C0.0236
T3C0.0394
%
G90
G05
T1
X3.04Y-3.36
X3.04Y-3.54
X3.05Y-3.79
X3.0655Y-3.307
X3.1367Y-3.9267
X3.14Y-4.03
X3.39Y-4.11
X3.69Y-3.16
X3.71Y-4.01
X3.77Y-3.46
X3.8Y-3.16
X3.84Y-3.16
X3.88Y-3.16
X3.88Y-3.3236
X3.93Y-3.04
X3.93Y-3.16
X3.99Y-3.36
T2
X3.73Y-3.16
X3.88Y-3.61
X3.9558Y-3.31
X4.42Y-2.96
X4.4692Y-2.96
T3
X3.08Y-4.23
X3.18Y-4.23
X3.28Y-4.23
T2
G00X3.6499Y-3.0486
M15
G01X3.6499Y-3.0722
M16
G05
G00X3.6499Y-3.1982
M15
G01X3.6499Y-3.2218
M16
G05
G00X3.9901Y-3.0486
M15
G01X3.9901Y-3.0722
M16
G05
G00X3.9901Y-3.1982
M15
G01X3.9901Y-3.2218
M16
G05
T0
M30
