%TF.GenerationSoftware,KiCad,Pcbnew,(5.1.8)-1*%
%TF.CreationDate,2021-03-06T05:42:10-08:00*%
%TF.ProjectId,audioboard,61756469-6f62-46f6-9172-642e6b696361,rev?*%
%TF.SameCoordinates,Original*%
%TF.FileFunction,Copper,L2,Inr*%
%TF.FilePolarity,Positive*%
%FSLAX46Y46*%
G04 Gerber Fmt 4.6, Leading zero omitted, Abs format (unit mm)*
G04 Created by KiCad (PCBNEW (5.1.8)-1) date 2021-03-06 05:42:10*
%MOMM*%
%LPD*%
G01*
G04 APERTURE LIST*
%TA.AperFunction,EtchedComponent*%
%ADD10C,0.100000*%
%TD*%
%TA.AperFunction,Conductor*%
%ADD11C,2.000000*%
%TD*%
%TA.AperFunction,ComponentPad*%
%ADD12O,0.900000X1.400000*%
%TD*%
%TA.AperFunction,ComponentPad*%
%ADD13O,1.700000X1.700000*%
%TD*%
%TA.AperFunction,ComponentPad*%
%ADD14R,1.700000X1.700000*%
%TD*%
%TA.AperFunction,ComponentPad*%
%ADD15O,1.100000X2.200000*%
%TD*%
%TA.AperFunction,ViaPad*%
%ADD16C,0.600000*%
%TD*%
%TA.AperFunction,ViaPad*%
%ADD17C,1.000000*%
%TD*%
%TA.AperFunction,Conductor*%
%ADD18C,0.254000*%
%TD*%
%TA.AperFunction,Conductor*%
%ADD19C,0.100000*%
%TD*%
G04 APERTURE END LIST*
D10*
%TO.C,*%
G36*
X88154000Y-100044000D02*
G01*
X88154000Y-96044000D01*
X90154000Y-96044000D01*
X90154000Y-100044000D01*
X88154000Y-100044000D01*
G37*
%TD*%
D11*
%TO.N,GND*%
%TO.C,*%
X89154000Y-96044000D03*
%TO.N,GNDA*%
X89154000Y-100044000D03*
%TD*%
D12*
%TO.N,GND*%
%TO.C,J2*%
X113518000Y-75184000D03*
%TO.N,VBAT*%
%TA.AperFunction,ComponentPad*%
G36*
G01*
X111818000Y-75659000D02*
X111818000Y-74709000D01*
G75*
G02*
X112043000Y-74484000I225000J0D01*
G01*
X112493000Y-74484000D01*
G75*
G02*
X112718000Y-74709000I0J-225000D01*
G01*
X112718000Y-75659000D01*
G75*
G02*
X112493000Y-75884000I-225000J0D01*
G01*
X112043000Y-75884000D01*
G75*
G02*
X111818000Y-75659000I0J225000D01*
G01*
G37*
%TD.AperFunction*%
%TD*%
D13*
%TO.N,LINEIN_L*%
%TO.C,J3*%
X83312000Y-107442000D03*
%TO.N,LINEIN_R*%
X80772000Y-107442000D03*
D14*
%TO.N,GNDA*%
X78232000Y-107442000D03*
%TD*%
D15*
%TO.N,GND*%
%TO.C,J1*%
X92708000Y-81534000D03*
X101348000Y-81534000D03*
X92708000Y-77734000D03*
X101348000Y-77734000D03*
%TD*%
D16*
%TO.N,GND*%
X99822000Y-77216000D03*
X99822000Y-80264000D03*
X93726000Y-80264000D03*
X101346000Y-85344000D03*
X98552000Y-84420000D03*
X95758000Y-87884000D03*
X77216000Y-89916000D03*
X77216000Y-85344000D03*
X77470000Y-96266000D03*
%TO.N,+3V3*%
X77862685Y-83997724D03*
D17*
X98552000Y-91694000D03*
D16*
%TO.N,GNDA*%
X79672265Y-99738265D03*
X86106000Y-104394000D03*
D17*
%TO.N,VBUS*%
X94742000Y-80264000D03*
D16*
X98552000Y-80264000D03*
D17*
X100477002Y-84074000D03*
D16*
%TO.N,HP_R*%
X94234000Y-101854000D03*
%TO.N,HP_L*%
X79756000Y-102362000D03*
%TO.N,Net-(J1-PadA5)*%
X96520000Y-80264000D03*
%TO.N,Net-(J1-PadB5)*%
X97536000Y-80264000D03*
%TD*%
D18*
%TO.N,GNDA*%
X87519000Y-100044000D02*
X87524834Y-100103505D01*
X87530248Y-100162987D01*
X87530875Y-100165118D01*
X87531093Y-100167339D01*
X87548388Y-100224621D01*
X87565238Y-100281875D01*
X87566269Y-100283847D01*
X87566913Y-100285980D01*
X87594988Y-100338781D01*
X87622655Y-100391703D01*
X87624049Y-100393437D01*
X87625095Y-100395404D01*
X87662883Y-100441737D01*
X87700310Y-100488286D01*
X87702015Y-100489717D01*
X87703423Y-100491443D01*
X87749473Y-100529539D01*
X87795246Y-100567947D01*
X87797198Y-100569020D01*
X87798913Y-100570439D01*
X87851461Y-100598851D01*
X87903847Y-100627651D01*
X87905971Y-100628325D01*
X87907928Y-100629383D01*
X87964950Y-100647034D01*
X88021976Y-100665124D01*
X88024192Y-100665373D01*
X88026316Y-100666030D01*
X88085743Y-100672276D01*
X88145134Y-100678938D01*
X88149404Y-100678968D01*
X88149567Y-100678985D01*
X88149730Y-100678970D01*
X88154000Y-100679000D01*
X89789000Y-100679000D01*
X89789000Y-102147000D01*
X89575740Y-102147000D01*
X89288842Y-102204068D01*
X89018589Y-102316010D01*
X88775368Y-102478525D01*
X88568525Y-102685368D01*
X88406010Y-102928589D01*
X88294068Y-103198842D01*
X88237000Y-103485740D01*
X88237000Y-103778260D01*
X88294068Y-104065158D01*
X88406010Y-104335411D01*
X88568525Y-104578632D01*
X88775368Y-104785475D01*
X89018589Y-104947990D01*
X89288842Y-105059932D01*
X89575740Y-105117000D01*
X89789000Y-105117000D01*
X89789000Y-108383200D01*
X84469105Y-108383200D01*
X84627990Y-108145411D01*
X84739932Y-107875158D01*
X84797000Y-107588260D01*
X84797000Y-107295740D01*
X84739932Y-107008842D01*
X84627990Y-106738589D01*
X84465475Y-106495368D01*
X84258632Y-106288525D01*
X84015411Y-106126010D01*
X83745158Y-106014068D01*
X83458260Y-105957000D01*
X83165740Y-105957000D01*
X82878842Y-106014068D01*
X82608589Y-106126010D01*
X82365368Y-106288525D01*
X82158525Y-106495368D01*
X82042000Y-106669760D01*
X81925475Y-106495368D01*
X81718632Y-106288525D01*
X81475411Y-106126010D01*
X81205158Y-106014068D01*
X80918260Y-105957000D01*
X80625740Y-105957000D01*
X80338842Y-106014068D01*
X80068589Y-106126010D01*
X79825368Y-106288525D01*
X79693513Y-106420380D01*
X79671502Y-106347820D01*
X79612537Y-106237506D01*
X79533185Y-106140815D01*
X79436494Y-106061463D01*
X79326180Y-106002498D01*
X79206482Y-105966188D01*
X79082000Y-105953928D01*
X78517750Y-105957000D01*
X78359000Y-106115750D01*
X78359000Y-107315000D01*
X78379000Y-107315000D01*
X78379000Y-107569000D01*
X78359000Y-107569000D01*
X78359000Y-107589000D01*
X78105000Y-107589000D01*
X78105000Y-107569000D01*
X78085000Y-107569000D01*
X78085000Y-107315000D01*
X78105000Y-107315000D01*
X78105000Y-106115750D01*
X77946250Y-105957000D01*
X77382000Y-105953928D01*
X77276500Y-105964318D01*
X77276500Y-102269911D01*
X78821000Y-102269911D01*
X78821000Y-102454089D01*
X78856932Y-102634729D01*
X78927414Y-102804889D01*
X79029738Y-102958028D01*
X79159972Y-103088262D01*
X79313111Y-103190586D01*
X79483271Y-103261068D01*
X79663911Y-103297000D01*
X79848089Y-103297000D01*
X80028729Y-103261068D01*
X80198889Y-103190586D01*
X80352028Y-103088262D01*
X80482262Y-102958028D01*
X80584586Y-102804889D01*
X80655068Y-102634729D01*
X80691000Y-102454089D01*
X80691000Y-102269911D01*
X80655068Y-102089271D01*
X80584586Y-101919111D01*
X80482262Y-101765972D01*
X80352028Y-101635738D01*
X80198889Y-101533414D01*
X80028729Y-101462932D01*
X79848089Y-101427000D01*
X79663911Y-101427000D01*
X79483271Y-101462932D01*
X79313111Y-101533414D01*
X79159972Y-101635738D01*
X79029738Y-101765972D01*
X78927414Y-101919111D01*
X78856932Y-102089271D01*
X78821000Y-102269911D01*
X77276500Y-102269911D01*
X77276500Y-98171000D01*
X87519000Y-98171000D01*
X87519000Y-100044000D01*
%TA.AperFunction,Conductor*%
D19*
G36*
X87519000Y-100044000D02*
G01*
X87524834Y-100103505D01*
X87530248Y-100162987D01*
X87530875Y-100165118D01*
X87531093Y-100167339D01*
X87548388Y-100224621D01*
X87565238Y-100281875D01*
X87566269Y-100283847D01*
X87566913Y-100285980D01*
X87594988Y-100338781D01*
X87622655Y-100391703D01*
X87624049Y-100393437D01*
X87625095Y-100395404D01*
X87662883Y-100441737D01*
X87700310Y-100488286D01*
X87702015Y-100489717D01*
X87703423Y-100491443D01*
X87749473Y-100529539D01*
X87795246Y-100567947D01*
X87797198Y-100569020D01*
X87798913Y-100570439D01*
X87851461Y-100598851D01*
X87903847Y-100627651D01*
X87905971Y-100628325D01*
X87907928Y-100629383D01*
X87964950Y-100647034D01*
X88021976Y-100665124D01*
X88024192Y-100665373D01*
X88026316Y-100666030D01*
X88085743Y-100672276D01*
X88145134Y-100678938D01*
X88149404Y-100678968D01*
X88149567Y-100678985D01*
X88149730Y-100678970D01*
X88154000Y-100679000D01*
X89789000Y-100679000D01*
X89789000Y-102147000D01*
X89575740Y-102147000D01*
X89288842Y-102204068D01*
X89018589Y-102316010D01*
X88775368Y-102478525D01*
X88568525Y-102685368D01*
X88406010Y-102928589D01*
X88294068Y-103198842D01*
X88237000Y-103485740D01*
X88237000Y-103778260D01*
X88294068Y-104065158D01*
X88406010Y-104335411D01*
X88568525Y-104578632D01*
X88775368Y-104785475D01*
X89018589Y-104947990D01*
X89288842Y-105059932D01*
X89575740Y-105117000D01*
X89789000Y-105117000D01*
X89789000Y-108383200D01*
X84469105Y-108383200D01*
X84627990Y-108145411D01*
X84739932Y-107875158D01*
X84797000Y-107588260D01*
X84797000Y-107295740D01*
X84739932Y-107008842D01*
X84627990Y-106738589D01*
X84465475Y-106495368D01*
X84258632Y-106288525D01*
X84015411Y-106126010D01*
X83745158Y-106014068D01*
X83458260Y-105957000D01*
X83165740Y-105957000D01*
X82878842Y-106014068D01*
X82608589Y-106126010D01*
X82365368Y-106288525D01*
X82158525Y-106495368D01*
X82042000Y-106669760D01*
X81925475Y-106495368D01*
X81718632Y-106288525D01*
X81475411Y-106126010D01*
X81205158Y-106014068D01*
X80918260Y-105957000D01*
X80625740Y-105957000D01*
X80338842Y-106014068D01*
X80068589Y-106126010D01*
X79825368Y-106288525D01*
X79693513Y-106420380D01*
X79671502Y-106347820D01*
X79612537Y-106237506D01*
X79533185Y-106140815D01*
X79436494Y-106061463D01*
X79326180Y-106002498D01*
X79206482Y-105966188D01*
X79082000Y-105953928D01*
X78517750Y-105957000D01*
X78359000Y-106115750D01*
X78359000Y-107315000D01*
X78379000Y-107315000D01*
X78379000Y-107569000D01*
X78359000Y-107569000D01*
X78359000Y-107589000D01*
X78105000Y-107589000D01*
X78105000Y-107569000D01*
X78085000Y-107569000D01*
X78085000Y-107315000D01*
X78105000Y-107315000D01*
X78105000Y-106115750D01*
X77946250Y-105957000D01*
X77382000Y-105953928D01*
X77276500Y-105964318D01*
X77276500Y-102269911D01*
X78821000Y-102269911D01*
X78821000Y-102454089D01*
X78856932Y-102634729D01*
X78927414Y-102804889D01*
X79029738Y-102958028D01*
X79159972Y-103088262D01*
X79313111Y-103190586D01*
X79483271Y-103261068D01*
X79663911Y-103297000D01*
X79848089Y-103297000D01*
X80028729Y-103261068D01*
X80198889Y-103190586D01*
X80352028Y-103088262D01*
X80482262Y-102958028D01*
X80584586Y-102804889D01*
X80655068Y-102634729D01*
X80691000Y-102454089D01*
X80691000Y-102269911D01*
X80655068Y-102089271D01*
X80584586Y-101919111D01*
X80482262Y-101765972D01*
X80352028Y-101635738D01*
X80198889Y-101533414D01*
X80028729Y-101462932D01*
X79848089Y-101427000D01*
X79663911Y-101427000D01*
X79483271Y-101462932D01*
X79313111Y-101533414D01*
X79159972Y-101635738D01*
X79029738Y-101765972D01*
X78927414Y-101919111D01*
X78856932Y-102089271D01*
X78821000Y-102269911D01*
X77276500Y-102269911D01*
X77276500Y-98171000D01*
X87519000Y-98171000D01*
X87519000Y-100044000D01*
G37*
%TD.AperFunction*%
%TD*%
D18*
%TO.N,GND*%
X91523000Y-77057000D02*
X91523000Y-77607000D01*
X92581000Y-77607000D01*
X92581000Y-77587000D01*
X92835000Y-77587000D01*
X92835000Y-77607000D01*
X93893000Y-77607000D01*
X93893000Y-77057000D01*
X93850638Y-76853200D01*
X100205362Y-76853200D01*
X100163000Y-77057000D01*
X100163000Y-77607000D01*
X101221000Y-77607000D01*
X101221000Y-77587000D01*
X101475000Y-77587000D01*
X101475000Y-77607000D01*
X101495000Y-77607000D01*
X101495000Y-77861000D01*
X101475000Y-77861000D01*
X101475000Y-79302361D01*
X101657744Y-79427803D01*
X101684147Y-79427399D01*
X101806501Y-79377946D01*
X101806501Y-79890054D01*
X101684147Y-79840601D01*
X101657744Y-79840197D01*
X101475000Y-79965639D01*
X101475000Y-81407000D01*
X101495000Y-81407000D01*
X101495000Y-81661000D01*
X101475000Y-81661000D01*
X101475000Y-83102361D01*
X101657744Y-83227803D01*
X101684147Y-83227399D01*
X101806501Y-83177946D01*
X101806500Y-97155000D01*
X90789000Y-97155000D01*
X90789000Y-96044000D01*
X90783166Y-95984495D01*
X90777752Y-95925013D01*
X90777125Y-95922882D01*
X90776907Y-95920661D01*
X90759612Y-95863379D01*
X90742762Y-95806125D01*
X90741731Y-95804153D01*
X90741087Y-95802020D01*
X90713012Y-95749219D01*
X90685345Y-95696297D01*
X90683951Y-95694563D01*
X90682905Y-95692596D01*
X90645117Y-95646263D01*
X90607690Y-95599714D01*
X90605985Y-95598283D01*
X90604577Y-95596557D01*
X90558527Y-95558461D01*
X90512754Y-95520053D01*
X90510802Y-95518980D01*
X90509087Y-95517561D01*
X90456539Y-95489149D01*
X90404153Y-95460349D01*
X90402029Y-95459675D01*
X90400072Y-95458617D01*
X90343050Y-95440966D01*
X90286024Y-95422876D01*
X90283808Y-95422627D01*
X90281684Y-95421970D01*
X90222257Y-95415724D01*
X90162866Y-95409062D01*
X90158596Y-95409032D01*
X90158433Y-95409015D01*
X90158270Y-95409030D01*
X90154000Y-95409000D01*
X88154000Y-95409000D01*
X88094495Y-95414834D01*
X88035013Y-95420248D01*
X88032882Y-95420875D01*
X88030661Y-95421093D01*
X87973379Y-95438388D01*
X87916125Y-95455238D01*
X87914153Y-95456269D01*
X87912020Y-95456913D01*
X87859219Y-95484988D01*
X87806297Y-95512655D01*
X87804563Y-95514049D01*
X87802596Y-95515095D01*
X87756263Y-95552883D01*
X87709714Y-95590310D01*
X87708283Y-95592015D01*
X87706557Y-95593423D01*
X87668461Y-95639473D01*
X87630053Y-95685246D01*
X87628980Y-95687198D01*
X87627561Y-95688913D01*
X87599149Y-95741461D01*
X87570349Y-95793847D01*
X87569675Y-95795971D01*
X87568617Y-95797928D01*
X87550966Y-95854950D01*
X87532876Y-95911976D01*
X87532627Y-95914192D01*
X87531970Y-95916316D01*
X87525724Y-95975743D01*
X87519062Y-96035134D01*
X87519032Y-96039404D01*
X87519015Y-96039567D01*
X87519030Y-96039730D01*
X87519000Y-96044000D01*
X87519000Y-97155000D01*
X77276500Y-97155000D01*
X77276500Y-91582212D01*
X97417000Y-91582212D01*
X97417000Y-91805788D01*
X97460617Y-92025067D01*
X97546176Y-92231624D01*
X97670388Y-92417520D01*
X97828480Y-92575612D01*
X98014376Y-92699824D01*
X98220933Y-92785383D01*
X98440212Y-92829000D01*
X98663788Y-92829000D01*
X98883067Y-92785383D01*
X99089624Y-92699824D01*
X99275520Y-92575612D01*
X99433612Y-92417520D01*
X99557824Y-92231624D01*
X99643383Y-92025067D01*
X99687000Y-91805788D01*
X99687000Y-91582212D01*
X99643383Y-91362933D01*
X99557824Y-91156376D01*
X99433612Y-90970480D01*
X99275520Y-90812388D01*
X99089624Y-90688176D01*
X98883067Y-90602617D01*
X98663788Y-90559000D01*
X98440212Y-90559000D01*
X98220933Y-90602617D01*
X98014376Y-90688176D01*
X97828480Y-90812388D01*
X97670388Y-90970480D01*
X97546176Y-91156376D01*
X97460617Y-91362933D01*
X97417000Y-91582212D01*
X77276500Y-91582212D01*
X77276500Y-84730563D01*
X77419796Y-84826310D01*
X77589956Y-84896792D01*
X77770596Y-84932724D01*
X77954774Y-84932724D01*
X78135414Y-84896792D01*
X78305574Y-84826310D01*
X78458713Y-84723986D01*
X78588947Y-84593752D01*
X78691271Y-84440613D01*
X78761753Y-84270453D01*
X78797685Y-84089813D01*
X78797685Y-83962212D01*
X99342002Y-83962212D01*
X99342002Y-84185788D01*
X99385619Y-84405067D01*
X99471178Y-84611624D01*
X99595390Y-84797520D01*
X99753482Y-84955612D01*
X99939378Y-85079824D01*
X100145935Y-85165383D01*
X100365214Y-85209000D01*
X100588790Y-85209000D01*
X100808069Y-85165383D01*
X101014626Y-85079824D01*
X101200522Y-84955612D01*
X101358614Y-84797520D01*
X101482826Y-84611624D01*
X101568385Y-84405067D01*
X101612002Y-84185788D01*
X101612002Y-83962212D01*
X101568385Y-83742933D01*
X101482826Y-83536376D01*
X101358614Y-83350480D01*
X101200522Y-83192388D01*
X101144440Y-83154915D01*
X101221000Y-83102361D01*
X101221000Y-81661000D01*
X100163000Y-81661000D01*
X100163000Y-82211000D01*
X100210546Y-82439742D01*
X100301804Y-82654813D01*
X100433266Y-82847948D01*
X100525896Y-82939000D01*
X100365214Y-82939000D01*
X100145935Y-82982617D01*
X99939378Y-83068176D01*
X99753482Y-83192388D01*
X99595390Y-83350480D01*
X99471178Y-83536376D01*
X99385619Y-83742933D01*
X99342002Y-83962212D01*
X78797685Y-83962212D01*
X78797685Y-83905635D01*
X78761753Y-83724995D01*
X78691271Y-83554835D01*
X78588947Y-83401696D01*
X78458713Y-83271462D01*
X78305574Y-83169138D01*
X78135414Y-83098656D01*
X77954774Y-83062724D01*
X77770596Y-83062724D01*
X77589956Y-83098656D01*
X77419796Y-83169138D01*
X77276500Y-83264885D01*
X77276500Y-79883000D01*
X77978000Y-79883000D01*
X77978000Y-82550000D01*
X77980440Y-82574776D01*
X77987667Y-82598601D01*
X77999403Y-82620557D01*
X78015197Y-82639803D01*
X78034443Y-82655597D01*
X78056399Y-82667333D01*
X78080224Y-82674560D01*
X78105000Y-82677000D01*
X80391000Y-82677000D01*
X80415776Y-82674560D01*
X80439601Y-82667333D01*
X80461557Y-82655597D01*
X80480803Y-82639803D01*
X80496597Y-82620557D01*
X80508333Y-82598601D01*
X80515560Y-82574776D01*
X80518000Y-82550000D01*
X80518000Y-79883000D01*
X80515560Y-79858224D01*
X80508333Y-79834399D01*
X80496597Y-79812443D01*
X80480803Y-79793197D01*
X80461557Y-79777403D01*
X80439601Y-79765667D01*
X80415776Y-79758440D01*
X80391000Y-79756000D01*
X88519000Y-79756000D01*
X88519000Y-82677000D01*
X88521440Y-82701776D01*
X88528667Y-82725601D01*
X88540403Y-82747557D01*
X88556197Y-82766803D01*
X88575443Y-82782597D01*
X88597399Y-82794333D01*
X88621224Y-82801560D01*
X88646000Y-82804000D01*
X91186000Y-82804000D01*
X91210776Y-82801560D01*
X91234601Y-82794333D01*
X91256557Y-82782597D01*
X91275803Y-82766803D01*
X91291597Y-82747557D01*
X91303333Y-82725601D01*
X91310560Y-82701776D01*
X91313000Y-82677000D01*
X91313000Y-81661000D01*
X91523000Y-81661000D01*
X91523000Y-82211000D01*
X91570546Y-82439742D01*
X91661804Y-82654813D01*
X91793266Y-82847948D01*
X91959881Y-83011725D01*
X92155246Y-83139850D01*
X92371853Y-83227399D01*
X92398256Y-83227803D01*
X92581000Y-83102361D01*
X92581000Y-81661000D01*
X92835000Y-81661000D01*
X92835000Y-83102361D01*
X93017744Y-83227803D01*
X93044147Y-83227399D01*
X93260754Y-83139850D01*
X93456119Y-83011725D01*
X93622734Y-82847948D01*
X93754196Y-82654813D01*
X93845454Y-82439742D01*
X93893000Y-82211000D01*
X93893000Y-81661000D01*
X92835000Y-81661000D01*
X92581000Y-81661000D01*
X91523000Y-81661000D01*
X91313000Y-81661000D01*
X91313000Y-80857000D01*
X91523000Y-80857000D01*
X91523000Y-81407000D01*
X92581000Y-81407000D01*
X92581000Y-79965639D01*
X92835000Y-79965639D01*
X92835000Y-81407000D01*
X93893000Y-81407000D01*
X93893000Y-81020132D01*
X94018480Y-81145612D01*
X94204376Y-81269824D01*
X94410933Y-81355383D01*
X94630212Y-81399000D01*
X94853788Y-81399000D01*
X95073067Y-81355383D01*
X95279624Y-81269824D01*
X95465520Y-81145612D01*
X95623612Y-80987520D01*
X95747824Y-80801624D01*
X95750461Y-80795259D01*
X95793738Y-80860028D01*
X95923972Y-80990262D01*
X96077111Y-81092586D01*
X96247271Y-81163068D01*
X96427911Y-81199000D01*
X96612089Y-81199000D01*
X96792729Y-81163068D01*
X96962889Y-81092586D01*
X97028000Y-81049080D01*
X97093111Y-81092586D01*
X97263271Y-81163068D01*
X97443911Y-81199000D01*
X97628089Y-81199000D01*
X97808729Y-81163068D01*
X97978889Y-81092586D01*
X98044000Y-81049080D01*
X98109111Y-81092586D01*
X98279271Y-81163068D01*
X98459911Y-81199000D01*
X98644089Y-81199000D01*
X98824729Y-81163068D01*
X98994889Y-81092586D01*
X99148028Y-80990262D01*
X99278262Y-80860028D01*
X99280285Y-80857000D01*
X100163000Y-80857000D01*
X100163000Y-81407000D01*
X101221000Y-81407000D01*
X101221000Y-79965639D01*
X101038256Y-79840197D01*
X101011853Y-79840601D01*
X100795246Y-79928150D01*
X100599881Y-80056275D01*
X100433266Y-80220052D01*
X100301804Y-80413187D01*
X100210546Y-80628258D01*
X100163000Y-80857000D01*
X99280285Y-80857000D01*
X99380586Y-80706889D01*
X99451068Y-80536729D01*
X99487000Y-80356089D01*
X99487000Y-80171911D01*
X99451068Y-79991271D01*
X99380586Y-79821111D01*
X99278262Y-79667972D01*
X99148028Y-79537738D01*
X98994889Y-79435414D01*
X98824729Y-79364932D01*
X98644089Y-79329000D01*
X98459911Y-79329000D01*
X98279271Y-79364932D01*
X98109111Y-79435414D01*
X98044000Y-79478920D01*
X97978889Y-79435414D01*
X97808729Y-79364932D01*
X97628089Y-79329000D01*
X97443911Y-79329000D01*
X97263271Y-79364932D01*
X97093111Y-79435414D01*
X97028000Y-79478920D01*
X96962889Y-79435414D01*
X96792729Y-79364932D01*
X96612089Y-79329000D01*
X96427911Y-79329000D01*
X96247271Y-79364932D01*
X96077111Y-79435414D01*
X95923972Y-79537738D01*
X95793738Y-79667972D01*
X95750461Y-79732741D01*
X95747824Y-79726376D01*
X95623612Y-79540480D01*
X95465520Y-79382388D01*
X95279624Y-79258176D01*
X95073067Y-79172617D01*
X94853788Y-79129000D01*
X94630212Y-79129000D01*
X94410933Y-79172617D01*
X94204376Y-79258176D01*
X94018480Y-79382388D01*
X93860388Y-79540480D01*
X93736176Y-79726376D01*
X93650617Y-79932933D01*
X93607000Y-80152212D01*
X93607000Y-80204586D01*
X93456119Y-80056275D01*
X93260754Y-79928150D01*
X93044147Y-79840601D01*
X93017744Y-79840197D01*
X92835000Y-79965639D01*
X92581000Y-79965639D01*
X92398256Y-79840197D01*
X92371853Y-79840601D01*
X92155246Y-79928150D01*
X91959881Y-80056275D01*
X91793266Y-80220052D01*
X91661804Y-80413187D01*
X91570546Y-80628258D01*
X91523000Y-80857000D01*
X91313000Y-80857000D01*
X91313000Y-79756000D01*
X91310560Y-79731224D01*
X91303333Y-79707399D01*
X91291597Y-79685443D01*
X91275803Y-79666197D01*
X91256557Y-79650403D01*
X91234601Y-79638667D01*
X91210776Y-79631440D01*
X91186000Y-79629000D01*
X88646000Y-79629000D01*
X88621224Y-79631440D01*
X88597399Y-79638667D01*
X88575443Y-79650403D01*
X88556197Y-79666197D01*
X88540403Y-79685443D01*
X88528667Y-79707399D01*
X88521440Y-79731224D01*
X88519000Y-79756000D01*
X80391000Y-79756000D01*
X78105000Y-79756000D01*
X78080224Y-79758440D01*
X78056399Y-79765667D01*
X78034443Y-79777403D01*
X78015197Y-79793197D01*
X77999403Y-79812443D01*
X77987667Y-79834399D01*
X77980440Y-79858224D01*
X77978000Y-79883000D01*
X77276500Y-79883000D01*
X77276500Y-77861000D01*
X91523000Y-77861000D01*
X91523000Y-78411000D01*
X91570546Y-78639742D01*
X91661804Y-78854813D01*
X91793266Y-79047948D01*
X91959881Y-79211725D01*
X92155246Y-79339850D01*
X92371853Y-79427399D01*
X92398256Y-79427803D01*
X92581000Y-79302361D01*
X92581000Y-77861000D01*
X92835000Y-77861000D01*
X92835000Y-79302361D01*
X93017744Y-79427803D01*
X93044147Y-79427399D01*
X93260754Y-79339850D01*
X93456119Y-79211725D01*
X93622734Y-79047948D01*
X93754196Y-78854813D01*
X93845454Y-78639742D01*
X93893000Y-78411000D01*
X93893000Y-77861000D01*
X100163000Y-77861000D01*
X100163000Y-78411000D01*
X100210546Y-78639742D01*
X100301804Y-78854813D01*
X100433266Y-79047948D01*
X100599881Y-79211725D01*
X100795246Y-79339850D01*
X101011853Y-79427399D01*
X101038256Y-79427803D01*
X101221000Y-79302361D01*
X101221000Y-77861000D01*
X100163000Y-77861000D01*
X93893000Y-77861000D01*
X92835000Y-77861000D01*
X92581000Y-77861000D01*
X91523000Y-77861000D01*
X77276500Y-77861000D01*
X77276500Y-77065442D01*
X77316843Y-76968003D01*
X77391303Y-76893543D01*
X77488741Y-76853200D01*
X91565362Y-76853200D01*
X91523000Y-77057000D01*
%TA.AperFunction,Conductor*%
D19*
G36*
X91523000Y-77057000D02*
G01*
X91523000Y-77607000D01*
X92581000Y-77607000D01*
X92581000Y-77587000D01*
X92835000Y-77587000D01*
X92835000Y-77607000D01*
X93893000Y-77607000D01*
X93893000Y-77057000D01*
X93850638Y-76853200D01*
X100205362Y-76853200D01*
X100163000Y-77057000D01*
X100163000Y-77607000D01*
X101221000Y-77607000D01*
X101221000Y-77587000D01*
X101475000Y-77587000D01*
X101475000Y-77607000D01*
X101495000Y-77607000D01*
X101495000Y-77861000D01*
X101475000Y-77861000D01*
X101475000Y-79302361D01*
X101657744Y-79427803D01*
X101684147Y-79427399D01*
X101806501Y-79377946D01*
X101806501Y-79890054D01*
X101684147Y-79840601D01*
X101657744Y-79840197D01*
X101475000Y-79965639D01*
X101475000Y-81407000D01*
X101495000Y-81407000D01*
X101495000Y-81661000D01*
X101475000Y-81661000D01*
X101475000Y-83102361D01*
X101657744Y-83227803D01*
X101684147Y-83227399D01*
X101806501Y-83177946D01*
X101806500Y-97155000D01*
X90789000Y-97155000D01*
X90789000Y-96044000D01*
X90783166Y-95984495D01*
X90777752Y-95925013D01*
X90777125Y-95922882D01*
X90776907Y-95920661D01*
X90759612Y-95863379D01*
X90742762Y-95806125D01*
X90741731Y-95804153D01*
X90741087Y-95802020D01*
X90713012Y-95749219D01*
X90685345Y-95696297D01*
X90683951Y-95694563D01*
X90682905Y-95692596D01*
X90645117Y-95646263D01*
X90607690Y-95599714D01*
X90605985Y-95598283D01*
X90604577Y-95596557D01*
X90558527Y-95558461D01*
X90512754Y-95520053D01*
X90510802Y-95518980D01*
X90509087Y-95517561D01*
X90456539Y-95489149D01*
X90404153Y-95460349D01*
X90402029Y-95459675D01*
X90400072Y-95458617D01*
X90343050Y-95440966D01*
X90286024Y-95422876D01*
X90283808Y-95422627D01*
X90281684Y-95421970D01*
X90222257Y-95415724D01*
X90162866Y-95409062D01*
X90158596Y-95409032D01*
X90158433Y-95409015D01*
X90158270Y-95409030D01*
X90154000Y-95409000D01*
X88154000Y-95409000D01*
X88094495Y-95414834D01*
X88035013Y-95420248D01*
X88032882Y-95420875D01*
X88030661Y-95421093D01*
X87973379Y-95438388D01*
X87916125Y-95455238D01*
X87914153Y-95456269D01*
X87912020Y-95456913D01*
X87859219Y-95484988D01*
X87806297Y-95512655D01*
X87804563Y-95514049D01*
X87802596Y-95515095D01*
X87756263Y-95552883D01*
X87709714Y-95590310D01*
X87708283Y-95592015D01*
X87706557Y-95593423D01*
X87668461Y-95639473D01*
X87630053Y-95685246D01*
X87628980Y-95687198D01*
X87627561Y-95688913D01*
X87599149Y-95741461D01*
X87570349Y-95793847D01*
X87569675Y-95795971D01*
X87568617Y-95797928D01*
X87550966Y-95854950D01*
X87532876Y-95911976D01*
X87532627Y-95914192D01*
X87531970Y-95916316D01*
X87525724Y-95975743D01*
X87519062Y-96035134D01*
X87519032Y-96039404D01*
X87519015Y-96039567D01*
X87519030Y-96039730D01*
X87519000Y-96044000D01*
X87519000Y-97155000D01*
X77276500Y-97155000D01*
X77276500Y-91582212D01*
X97417000Y-91582212D01*
X97417000Y-91805788D01*
X97460617Y-92025067D01*
X97546176Y-92231624D01*
X97670388Y-92417520D01*
X97828480Y-92575612D01*
X98014376Y-92699824D01*
X98220933Y-92785383D01*
X98440212Y-92829000D01*
X98663788Y-92829000D01*
X98883067Y-92785383D01*
X99089624Y-92699824D01*
X99275520Y-92575612D01*
X99433612Y-92417520D01*
X99557824Y-92231624D01*
X99643383Y-92025067D01*
X99687000Y-91805788D01*
X99687000Y-91582212D01*
X99643383Y-91362933D01*
X99557824Y-91156376D01*
X99433612Y-90970480D01*
X99275520Y-90812388D01*
X99089624Y-90688176D01*
X98883067Y-90602617D01*
X98663788Y-90559000D01*
X98440212Y-90559000D01*
X98220933Y-90602617D01*
X98014376Y-90688176D01*
X97828480Y-90812388D01*
X97670388Y-90970480D01*
X97546176Y-91156376D01*
X97460617Y-91362933D01*
X97417000Y-91582212D01*
X77276500Y-91582212D01*
X77276500Y-84730563D01*
X77419796Y-84826310D01*
X77589956Y-84896792D01*
X77770596Y-84932724D01*
X77954774Y-84932724D01*
X78135414Y-84896792D01*
X78305574Y-84826310D01*
X78458713Y-84723986D01*
X78588947Y-84593752D01*
X78691271Y-84440613D01*
X78761753Y-84270453D01*
X78797685Y-84089813D01*
X78797685Y-83962212D01*
X99342002Y-83962212D01*
X99342002Y-84185788D01*
X99385619Y-84405067D01*
X99471178Y-84611624D01*
X99595390Y-84797520D01*
X99753482Y-84955612D01*
X99939378Y-85079824D01*
X100145935Y-85165383D01*
X100365214Y-85209000D01*
X100588790Y-85209000D01*
X100808069Y-85165383D01*
X101014626Y-85079824D01*
X101200522Y-84955612D01*
X101358614Y-84797520D01*
X101482826Y-84611624D01*
X101568385Y-84405067D01*
X101612002Y-84185788D01*
X101612002Y-83962212D01*
X101568385Y-83742933D01*
X101482826Y-83536376D01*
X101358614Y-83350480D01*
X101200522Y-83192388D01*
X101144440Y-83154915D01*
X101221000Y-83102361D01*
X101221000Y-81661000D01*
X100163000Y-81661000D01*
X100163000Y-82211000D01*
X100210546Y-82439742D01*
X100301804Y-82654813D01*
X100433266Y-82847948D01*
X100525896Y-82939000D01*
X100365214Y-82939000D01*
X100145935Y-82982617D01*
X99939378Y-83068176D01*
X99753482Y-83192388D01*
X99595390Y-83350480D01*
X99471178Y-83536376D01*
X99385619Y-83742933D01*
X99342002Y-83962212D01*
X78797685Y-83962212D01*
X78797685Y-83905635D01*
X78761753Y-83724995D01*
X78691271Y-83554835D01*
X78588947Y-83401696D01*
X78458713Y-83271462D01*
X78305574Y-83169138D01*
X78135414Y-83098656D01*
X77954774Y-83062724D01*
X77770596Y-83062724D01*
X77589956Y-83098656D01*
X77419796Y-83169138D01*
X77276500Y-83264885D01*
X77276500Y-79883000D01*
X77978000Y-79883000D01*
X77978000Y-82550000D01*
X77980440Y-82574776D01*
X77987667Y-82598601D01*
X77999403Y-82620557D01*
X78015197Y-82639803D01*
X78034443Y-82655597D01*
X78056399Y-82667333D01*
X78080224Y-82674560D01*
X78105000Y-82677000D01*
X80391000Y-82677000D01*
X80415776Y-82674560D01*
X80439601Y-82667333D01*
X80461557Y-82655597D01*
X80480803Y-82639803D01*
X80496597Y-82620557D01*
X80508333Y-82598601D01*
X80515560Y-82574776D01*
X80518000Y-82550000D01*
X80518000Y-79883000D01*
X80515560Y-79858224D01*
X80508333Y-79834399D01*
X80496597Y-79812443D01*
X80480803Y-79793197D01*
X80461557Y-79777403D01*
X80439601Y-79765667D01*
X80415776Y-79758440D01*
X80391000Y-79756000D01*
X88519000Y-79756000D01*
X88519000Y-82677000D01*
X88521440Y-82701776D01*
X88528667Y-82725601D01*
X88540403Y-82747557D01*
X88556197Y-82766803D01*
X88575443Y-82782597D01*
X88597399Y-82794333D01*
X88621224Y-82801560D01*
X88646000Y-82804000D01*
X91186000Y-82804000D01*
X91210776Y-82801560D01*
X91234601Y-82794333D01*
X91256557Y-82782597D01*
X91275803Y-82766803D01*
X91291597Y-82747557D01*
X91303333Y-82725601D01*
X91310560Y-82701776D01*
X91313000Y-82677000D01*
X91313000Y-81661000D01*
X91523000Y-81661000D01*
X91523000Y-82211000D01*
X91570546Y-82439742D01*
X91661804Y-82654813D01*
X91793266Y-82847948D01*
X91959881Y-83011725D01*
X92155246Y-83139850D01*
X92371853Y-83227399D01*
X92398256Y-83227803D01*
X92581000Y-83102361D01*
X92581000Y-81661000D01*
X92835000Y-81661000D01*
X92835000Y-83102361D01*
X93017744Y-83227803D01*
X93044147Y-83227399D01*
X93260754Y-83139850D01*
X93456119Y-83011725D01*
X93622734Y-82847948D01*
X93754196Y-82654813D01*
X93845454Y-82439742D01*
X93893000Y-82211000D01*
X93893000Y-81661000D01*
X92835000Y-81661000D01*
X92581000Y-81661000D01*
X91523000Y-81661000D01*
X91313000Y-81661000D01*
X91313000Y-80857000D01*
X91523000Y-80857000D01*
X91523000Y-81407000D01*
X92581000Y-81407000D01*
X92581000Y-79965639D01*
X92835000Y-79965639D01*
X92835000Y-81407000D01*
X93893000Y-81407000D01*
X93893000Y-81020132D01*
X94018480Y-81145612D01*
X94204376Y-81269824D01*
X94410933Y-81355383D01*
X94630212Y-81399000D01*
X94853788Y-81399000D01*
X95073067Y-81355383D01*
X95279624Y-81269824D01*
X95465520Y-81145612D01*
X95623612Y-80987520D01*
X95747824Y-80801624D01*
X95750461Y-80795259D01*
X95793738Y-80860028D01*
X95923972Y-80990262D01*
X96077111Y-81092586D01*
X96247271Y-81163068D01*
X96427911Y-81199000D01*
X96612089Y-81199000D01*
X96792729Y-81163068D01*
X96962889Y-81092586D01*
X97028000Y-81049080D01*
X97093111Y-81092586D01*
X97263271Y-81163068D01*
X97443911Y-81199000D01*
X97628089Y-81199000D01*
X97808729Y-81163068D01*
X97978889Y-81092586D01*
X98044000Y-81049080D01*
X98109111Y-81092586D01*
X98279271Y-81163068D01*
X98459911Y-81199000D01*
X98644089Y-81199000D01*
X98824729Y-81163068D01*
X98994889Y-81092586D01*
X99148028Y-80990262D01*
X99278262Y-80860028D01*
X99280285Y-80857000D01*
X100163000Y-80857000D01*
X100163000Y-81407000D01*
X101221000Y-81407000D01*
X101221000Y-79965639D01*
X101038256Y-79840197D01*
X101011853Y-79840601D01*
X100795246Y-79928150D01*
X100599881Y-80056275D01*
X100433266Y-80220052D01*
X100301804Y-80413187D01*
X100210546Y-80628258D01*
X100163000Y-80857000D01*
X99280285Y-80857000D01*
X99380586Y-80706889D01*
X99451068Y-80536729D01*
X99487000Y-80356089D01*
X99487000Y-80171911D01*
X99451068Y-79991271D01*
X99380586Y-79821111D01*
X99278262Y-79667972D01*
X99148028Y-79537738D01*
X98994889Y-79435414D01*
X98824729Y-79364932D01*
X98644089Y-79329000D01*
X98459911Y-79329000D01*
X98279271Y-79364932D01*
X98109111Y-79435414D01*
X98044000Y-79478920D01*
X97978889Y-79435414D01*
X97808729Y-79364932D01*
X97628089Y-79329000D01*
X97443911Y-79329000D01*
X97263271Y-79364932D01*
X97093111Y-79435414D01*
X97028000Y-79478920D01*
X96962889Y-79435414D01*
X96792729Y-79364932D01*
X96612089Y-79329000D01*
X96427911Y-79329000D01*
X96247271Y-79364932D01*
X96077111Y-79435414D01*
X95923972Y-79537738D01*
X95793738Y-79667972D01*
X95750461Y-79732741D01*
X95747824Y-79726376D01*
X95623612Y-79540480D01*
X95465520Y-79382388D01*
X95279624Y-79258176D01*
X95073067Y-79172617D01*
X94853788Y-79129000D01*
X94630212Y-79129000D01*
X94410933Y-79172617D01*
X94204376Y-79258176D01*
X94018480Y-79382388D01*
X93860388Y-79540480D01*
X93736176Y-79726376D01*
X93650617Y-79932933D01*
X93607000Y-80152212D01*
X93607000Y-80204586D01*
X93456119Y-80056275D01*
X93260754Y-79928150D01*
X93044147Y-79840601D01*
X93017744Y-79840197D01*
X92835000Y-79965639D01*
X92581000Y-79965639D01*
X92398256Y-79840197D01*
X92371853Y-79840601D01*
X92155246Y-79928150D01*
X91959881Y-80056275D01*
X91793266Y-80220052D01*
X91661804Y-80413187D01*
X91570546Y-80628258D01*
X91523000Y-80857000D01*
X91313000Y-80857000D01*
X91313000Y-79756000D01*
X91310560Y-79731224D01*
X91303333Y-79707399D01*
X91291597Y-79685443D01*
X91275803Y-79666197D01*
X91256557Y-79650403D01*
X91234601Y-79638667D01*
X91210776Y-79631440D01*
X91186000Y-79629000D01*
X88646000Y-79629000D01*
X88621224Y-79631440D01*
X88597399Y-79638667D01*
X88575443Y-79650403D01*
X88556197Y-79666197D01*
X88540403Y-79685443D01*
X88528667Y-79707399D01*
X88521440Y-79731224D01*
X88519000Y-79756000D01*
X80391000Y-79756000D01*
X78105000Y-79756000D01*
X78080224Y-79758440D01*
X78056399Y-79765667D01*
X78034443Y-79777403D01*
X78015197Y-79793197D01*
X77999403Y-79812443D01*
X77987667Y-79834399D01*
X77980440Y-79858224D01*
X77978000Y-79883000D01*
X77276500Y-79883000D01*
X77276500Y-77861000D01*
X91523000Y-77861000D01*
X91523000Y-78411000D01*
X91570546Y-78639742D01*
X91661804Y-78854813D01*
X91793266Y-79047948D01*
X91959881Y-79211725D01*
X92155246Y-79339850D01*
X92371853Y-79427399D01*
X92398256Y-79427803D01*
X92581000Y-79302361D01*
X92581000Y-77861000D01*
X92835000Y-77861000D01*
X92835000Y-79302361D01*
X93017744Y-79427803D01*
X93044147Y-79427399D01*
X93260754Y-79339850D01*
X93456119Y-79211725D01*
X93622734Y-79047948D01*
X93754196Y-78854813D01*
X93845454Y-78639742D01*
X93893000Y-78411000D01*
X93893000Y-77861000D01*
X100163000Y-77861000D01*
X100163000Y-78411000D01*
X100210546Y-78639742D01*
X100301804Y-78854813D01*
X100433266Y-79047948D01*
X100599881Y-79211725D01*
X100795246Y-79339850D01*
X101011853Y-79427399D01*
X101038256Y-79427803D01*
X101221000Y-79302361D01*
X101221000Y-77861000D01*
X100163000Y-77861000D01*
X93893000Y-77861000D01*
X92835000Y-77861000D01*
X92581000Y-77861000D01*
X91523000Y-77861000D01*
X77276500Y-77861000D01*
X77276500Y-77065442D01*
X77316843Y-76968003D01*
X77391303Y-76893543D01*
X77488741Y-76853200D01*
X91565362Y-76853200D01*
X91523000Y-77057000D01*
G37*
%TD.AperFunction*%
%TD*%
M02*
