%TF.GenerationSoftware,KiCad,Pcbnew,(5.1.8)-1*%
%TF.CreationDate,2021-03-06T05:42:10-08:00*%
%TF.ProjectId,audioboard,61756469-6f62-46f6-9172-642e6b696361,rev?*%
%TF.SameCoordinates,Original*%
%TF.FileFunction,Copper,L1,Top*%
%TF.FilePolarity,Positive*%
%FSLAX46Y46*%
G04 Gerber Fmt 4.6, Leading zero omitted, Abs format (unit mm)*
G04 Created by KiCad (PCBNEW (5.1.8)-1) date 2021-03-06 05:42:10*
%MOMM*%
%LPD*%
G01*
G04 APERTURE LIST*
%TA.AperFunction,EtchedComponent*%
%ADD10C,0.100000*%
%TD*%
%TA.AperFunction,ComponentPad*%
%ADD11O,0.900000X1.400000*%
%TD*%
%TA.AperFunction,SMDPad,CuDef*%
%ADD12C,0.500000*%
%TD*%
%TA.AperFunction,SMDPad,CuDef*%
%ADD13R,1.500000X2.000000*%
%TD*%
%TA.AperFunction,SMDPad,CuDef*%
%ADD14R,3.800000X2.000000*%
%TD*%
%TA.AperFunction,SMDPad,CuDef*%
%ADD15R,5.300000X5.300000*%
%TD*%
%TA.AperFunction,SMDPad,CuDef*%
%ADD16R,2.400000X2.400000*%
%TD*%
%TA.AperFunction,SMDPad,CuDef*%
%ADD17C,0.100000*%
%TD*%
%TA.AperFunction,SMDPad,CuDef*%
%ADD18R,0.900000X0.800000*%
%TD*%
%TA.AperFunction,ComponentPad*%
%ADD19O,1.700000X1.700000*%
%TD*%
%TA.AperFunction,ComponentPad*%
%ADD20R,1.700000X1.700000*%
%TD*%
%TA.AperFunction,ComponentPad*%
%ADD21O,1.100000X2.200000*%
%TD*%
%TA.AperFunction,SMDPad,CuDef*%
%ADD22R,0.550000X1.050000*%
%TD*%
%TA.AperFunction,SMDPad,CuDef*%
%ADD23R,1.200000X1.500000*%
%TD*%
%TA.AperFunction,SMDPad,CuDef*%
%ADD24R,1.200000X0.900000*%
%TD*%
%TA.AperFunction,ViaPad*%
%ADD25C,0.600000*%
%TD*%
%TA.AperFunction,ViaPad*%
%ADD26C,1.000000*%
%TD*%
%TA.AperFunction,Conductor*%
%ADD27C,0.200000*%
%TD*%
%TA.AperFunction,Conductor*%
%ADD28C,0.293370*%
%TD*%
%TA.AperFunction,Conductor*%
%ADD29C,0.500000*%
%TD*%
%TA.AperFunction,Conductor*%
%ADD30C,0.241300*%
%TD*%
G04 APERTURE END LIST*
D10*
%TO.C,NT2*%
G36*
X101604000Y-98290000D02*
G01*
X101604000Y-97290000D01*
X102104000Y-97290000D01*
X102104000Y-98290000D01*
X101604000Y-98290000D01*
G37*
%TD*%
D11*
%TO.P,J2,2*%
%TO.N,GND*%
X113518000Y-75184000D03*
%TO.P,J2,1*%
%TO.N,VBAT*%
%TA.AperFunction,ComponentPad*%
G36*
G01*
X111818000Y-75659000D02*
X111818000Y-74709000D01*
G75*
G02*
X112043000Y-74484000I225000J0D01*
G01*
X112493000Y-74484000D01*
G75*
G02*
X112718000Y-74709000I0J-225000D01*
G01*
X112718000Y-75659000D01*
G75*
G02*
X112493000Y-75884000I-225000J0D01*
G01*
X112043000Y-75884000D01*
G75*
G02*
X111818000Y-75659000I0J225000D01*
G01*
G37*
%TD.AperFunction*%
%TD*%
%TO.P,R16,2*%
%TO.N,VBUS*%
%TA.AperFunction,SMDPad,CuDef*%
G36*
G01*
X97975000Y-86120000D02*
X97605000Y-86120000D01*
G75*
G02*
X97470000Y-85985000I0J135000D01*
G01*
X97470000Y-85715000D01*
G75*
G02*
X97605000Y-85580000I135000J0D01*
G01*
X97975000Y-85580000D01*
G75*
G02*
X98110000Y-85715000I0J-135000D01*
G01*
X98110000Y-85985000D01*
G75*
G02*
X97975000Y-86120000I-135000J0D01*
G01*
G37*
%TD.AperFunction*%
%TO.P,R16,1*%
%TO.N,Net-(IC1-Pad1)*%
%TA.AperFunction,SMDPad,CuDef*%
G36*
G01*
X97975000Y-87140000D02*
X97605000Y-87140000D01*
G75*
G02*
X97470000Y-87005000I0J135000D01*
G01*
X97470000Y-86735000D01*
G75*
G02*
X97605000Y-86600000I135000J0D01*
G01*
X97975000Y-86600000D01*
G75*
G02*
X98110000Y-86735000I0J-135000D01*
G01*
X98110000Y-87005000D01*
G75*
G02*
X97975000Y-87140000I-135000J0D01*
G01*
G37*
%TD.AperFunction*%
%TD*%
%TO.P,R4,2*%
%TO.N,Net-(D1-Pad1)*%
%TA.AperFunction,SMDPad,CuDef*%
G36*
G01*
X96197000Y-81548000D02*
X95827000Y-81548000D01*
G75*
G02*
X95692000Y-81413000I0J135000D01*
G01*
X95692000Y-81143000D01*
G75*
G02*
X95827000Y-81008000I135000J0D01*
G01*
X96197000Y-81008000D01*
G75*
G02*
X96332000Y-81143000I0J-135000D01*
G01*
X96332000Y-81413000D01*
G75*
G02*
X96197000Y-81548000I-135000J0D01*
G01*
G37*
%TD.AperFunction*%
%TO.P,R4,1*%
%TO.N,Net-(IC1-Pad1)*%
%TA.AperFunction,SMDPad,CuDef*%
G36*
G01*
X96197000Y-82568000D02*
X95827000Y-82568000D01*
G75*
G02*
X95692000Y-82433000I0J135000D01*
G01*
X95692000Y-82163000D01*
G75*
G02*
X95827000Y-82028000I135000J0D01*
G01*
X96197000Y-82028000D01*
G75*
G02*
X96332000Y-82163000I0J-135000D01*
G01*
X96332000Y-82433000D01*
G75*
G02*
X96197000Y-82568000I-135000J0D01*
G01*
G37*
%TD.AperFunction*%
%TD*%
D12*
%TO.P,NT2,2*%
%TO.N,+3V3*%
X101854000Y-97290000D03*
%TO.P,NT2,1*%
%TO.N,+3.3VA*%
X101854000Y-98290000D03*
%TD*%
D13*
%TO.P,U3,1*%
%TO.N,GND*%
X100852000Y-89814000D03*
%TO.P,U3,3*%
%TO.N,Net-(C4-Pad1)*%
X96252000Y-89814000D03*
%TO.P,U3,2*%
%TO.N,+3V3*%
X98552000Y-89814000D03*
D14*
%TO.P,U3,4*%
%TO.N,N/C*%
X98552000Y-96114000D03*
%TD*%
D15*
%TO.P,U2,49*%
%TO.N,GND*%
X82340000Y-87376000D03*
%TO.P,U2,48*%
%TO.N,Net-(U2-Pad48)*%
%TA.AperFunction,SMDPad,CuDef*%
G36*
G01*
X79465000Y-84263500D02*
X79465000Y-83588500D01*
G75*
G02*
X79527500Y-83526000I62500J0D01*
G01*
X79652500Y-83526000D01*
G75*
G02*
X79715000Y-83588500I0J-62500D01*
G01*
X79715000Y-84263500D01*
G75*
G02*
X79652500Y-84326000I-62500J0D01*
G01*
X79527500Y-84326000D01*
G75*
G02*
X79465000Y-84263500I0J62500D01*
G01*
G37*
%TD.AperFunction*%
%TO.P,U2,47*%
%TO.N,Net-(U2-Pad47)*%
%TA.AperFunction,SMDPad,CuDef*%
G36*
G01*
X79965000Y-84263500D02*
X79965000Y-83588500D01*
G75*
G02*
X80027500Y-83526000I62500J0D01*
G01*
X80152500Y-83526000D01*
G75*
G02*
X80215000Y-83588500I0J-62500D01*
G01*
X80215000Y-84263500D01*
G75*
G02*
X80152500Y-84326000I-62500J0D01*
G01*
X80027500Y-84326000D01*
G75*
G02*
X79965000Y-84263500I0J62500D01*
G01*
G37*
%TD.AperFunction*%
%TO.P,U2,46*%
%TO.N,+3V3*%
%TA.AperFunction,SMDPad,CuDef*%
G36*
G01*
X80465000Y-84263500D02*
X80465000Y-83588500D01*
G75*
G02*
X80527500Y-83526000I62500J0D01*
G01*
X80652500Y-83526000D01*
G75*
G02*
X80715000Y-83588500I0J-62500D01*
G01*
X80715000Y-84263500D01*
G75*
G02*
X80652500Y-84326000I-62500J0D01*
G01*
X80527500Y-84326000D01*
G75*
G02*
X80465000Y-84263500I0J62500D01*
G01*
G37*
%TD.AperFunction*%
%TO.P,U2,45*%
%TO.N,Net-(U2-Pad45)*%
%TA.AperFunction,SMDPad,CuDef*%
G36*
G01*
X80965000Y-84263500D02*
X80965000Y-83588500D01*
G75*
G02*
X81027500Y-83526000I62500J0D01*
G01*
X81152500Y-83526000D01*
G75*
G02*
X81215000Y-83588500I0J-62500D01*
G01*
X81215000Y-84263500D01*
G75*
G02*
X81152500Y-84326000I-62500J0D01*
G01*
X81027500Y-84326000D01*
G75*
G02*
X80965000Y-84263500I0J62500D01*
G01*
G37*
%TD.AperFunction*%
%TO.P,U2,44*%
%TO.N,Net-(U2-Pad44)*%
%TA.AperFunction,SMDPad,CuDef*%
G36*
G01*
X81465000Y-84263500D02*
X81465000Y-83588500D01*
G75*
G02*
X81527500Y-83526000I62500J0D01*
G01*
X81652500Y-83526000D01*
G75*
G02*
X81715000Y-83588500I0J-62500D01*
G01*
X81715000Y-84263500D01*
G75*
G02*
X81652500Y-84326000I-62500J0D01*
G01*
X81527500Y-84326000D01*
G75*
G02*
X81465000Y-84263500I0J62500D01*
G01*
G37*
%TD.AperFunction*%
%TO.P,U2,43*%
%TO.N,+3V3*%
%TA.AperFunction,SMDPad,CuDef*%
G36*
G01*
X81965000Y-84263500D02*
X81965000Y-83588500D01*
G75*
G02*
X82027500Y-83526000I62500J0D01*
G01*
X82152500Y-83526000D01*
G75*
G02*
X82215000Y-83588500I0J-62500D01*
G01*
X82215000Y-84263500D01*
G75*
G02*
X82152500Y-84326000I-62500J0D01*
G01*
X82027500Y-84326000D01*
G75*
G02*
X81965000Y-84263500I0J62500D01*
G01*
G37*
%TD.AperFunction*%
%TO.P,U2,42*%
%TO.N,Net-(U2-Pad42)*%
%TA.AperFunction,SMDPad,CuDef*%
G36*
G01*
X82465000Y-84263500D02*
X82465000Y-83588500D01*
G75*
G02*
X82527500Y-83526000I62500J0D01*
G01*
X82652500Y-83526000D01*
G75*
G02*
X82715000Y-83588500I0J-62500D01*
G01*
X82715000Y-84263500D01*
G75*
G02*
X82652500Y-84326000I-62500J0D01*
G01*
X82527500Y-84326000D01*
G75*
G02*
X82465000Y-84263500I0J62500D01*
G01*
G37*
%TD.AperFunction*%
%TO.P,U2,41*%
%TO.N,TXD0*%
%TA.AperFunction,SMDPad,CuDef*%
G36*
G01*
X82965000Y-84263500D02*
X82965000Y-83588500D01*
G75*
G02*
X83027500Y-83526000I62500J0D01*
G01*
X83152500Y-83526000D01*
G75*
G02*
X83215000Y-83588500I0J-62500D01*
G01*
X83215000Y-84263500D01*
G75*
G02*
X83152500Y-84326000I-62500J0D01*
G01*
X83027500Y-84326000D01*
G75*
G02*
X82965000Y-84263500I0J62500D01*
G01*
G37*
%TD.AperFunction*%
%TO.P,U2,40*%
%TO.N,RXD0*%
%TA.AperFunction,SMDPad,CuDef*%
G36*
G01*
X83465000Y-84263500D02*
X83465000Y-83588500D01*
G75*
G02*
X83527500Y-83526000I62500J0D01*
G01*
X83652500Y-83526000D01*
G75*
G02*
X83715000Y-83588500I0J-62500D01*
G01*
X83715000Y-84263500D01*
G75*
G02*
X83652500Y-84326000I-62500J0D01*
G01*
X83527500Y-84326000D01*
G75*
G02*
X83465000Y-84263500I0J62500D01*
G01*
G37*
%TD.AperFunction*%
%TO.P,U2,39*%
%TO.N,Net-(U2-Pad39)*%
%TA.AperFunction,SMDPad,CuDef*%
G36*
G01*
X83965000Y-84263500D02*
X83965000Y-83588500D01*
G75*
G02*
X84027500Y-83526000I62500J0D01*
G01*
X84152500Y-83526000D01*
G75*
G02*
X84215000Y-83588500I0J-62500D01*
G01*
X84215000Y-84263500D01*
G75*
G02*
X84152500Y-84326000I-62500J0D01*
G01*
X84027500Y-84326000D01*
G75*
G02*
X83965000Y-84263500I0J62500D01*
G01*
G37*
%TD.AperFunction*%
%TO.P,U2,38*%
%TO.N,STATUS_LED*%
%TA.AperFunction,SMDPad,CuDef*%
G36*
G01*
X84465000Y-84263500D02*
X84465000Y-83588500D01*
G75*
G02*
X84527500Y-83526000I62500J0D01*
G01*
X84652500Y-83526000D01*
G75*
G02*
X84715000Y-83588500I0J-62500D01*
G01*
X84715000Y-84263500D01*
G75*
G02*
X84652500Y-84326000I-62500J0D01*
G01*
X84527500Y-84326000D01*
G75*
G02*
X84465000Y-84263500I0J62500D01*
G01*
G37*
%TD.AperFunction*%
%TO.P,U2,37*%
%TO.N,+3V3*%
%TA.AperFunction,SMDPad,CuDef*%
G36*
G01*
X84965000Y-84263500D02*
X84965000Y-83588500D01*
G75*
G02*
X85027500Y-83526000I62500J0D01*
G01*
X85152500Y-83526000D01*
G75*
G02*
X85215000Y-83588500I0J-62500D01*
G01*
X85215000Y-84263500D01*
G75*
G02*
X85152500Y-84326000I-62500J0D01*
G01*
X85027500Y-84326000D01*
G75*
G02*
X84965000Y-84263500I0J62500D01*
G01*
G37*
%TD.AperFunction*%
%TO.P,U2,36*%
%TO.N,SCLK*%
%TA.AperFunction,SMDPad,CuDef*%
G36*
G01*
X85390000Y-84688500D02*
X85390000Y-84563500D01*
G75*
G02*
X85452500Y-84501000I62500J0D01*
G01*
X86127500Y-84501000D01*
G75*
G02*
X86190000Y-84563500I0J-62500D01*
G01*
X86190000Y-84688500D01*
G75*
G02*
X86127500Y-84751000I-62500J0D01*
G01*
X85452500Y-84751000D01*
G75*
G02*
X85390000Y-84688500I0J62500D01*
G01*
G37*
%TD.AperFunction*%
%TO.P,U2,35*%
%TO.N,SDA*%
%TA.AperFunction,SMDPad,CuDef*%
G36*
G01*
X85390000Y-85188500D02*
X85390000Y-85063500D01*
G75*
G02*
X85452500Y-85001000I62500J0D01*
G01*
X86127500Y-85001000D01*
G75*
G02*
X86190000Y-85063500I0J-62500D01*
G01*
X86190000Y-85188500D01*
G75*
G02*
X86127500Y-85251000I-62500J0D01*
G01*
X85452500Y-85251000D01*
G75*
G02*
X85390000Y-85188500I0J62500D01*
G01*
G37*
%TD.AperFunction*%
%TO.P,U2,34*%
%TO.N,Net-(U2-Pad34)*%
%TA.AperFunction,SMDPad,CuDef*%
G36*
G01*
X85390000Y-85688500D02*
X85390000Y-85563500D01*
G75*
G02*
X85452500Y-85501000I62500J0D01*
G01*
X86127500Y-85501000D01*
G75*
G02*
X86190000Y-85563500I0J-62500D01*
G01*
X86190000Y-85688500D01*
G75*
G02*
X86127500Y-85751000I-62500J0D01*
G01*
X85452500Y-85751000D01*
G75*
G02*
X85390000Y-85688500I0J62500D01*
G01*
G37*
%TD.AperFunction*%
%TO.P,U2,33*%
%TO.N,Net-(U2-Pad33)*%
%TA.AperFunction,SMDPad,CuDef*%
G36*
G01*
X85390000Y-86188500D02*
X85390000Y-86063500D01*
G75*
G02*
X85452500Y-86001000I62500J0D01*
G01*
X86127500Y-86001000D01*
G75*
G02*
X86190000Y-86063500I0J-62500D01*
G01*
X86190000Y-86188500D01*
G75*
G02*
X86127500Y-86251000I-62500J0D01*
G01*
X85452500Y-86251000D01*
G75*
G02*
X85390000Y-86188500I0J62500D01*
G01*
G37*
%TD.AperFunction*%
%TO.P,U2,32*%
%TO.N,Net-(U2-Pad32)*%
%TA.AperFunction,SMDPad,CuDef*%
G36*
G01*
X85390000Y-86688500D02*
X85390000Y-86563500D01*
G75*
G02*
X85452500Y-86501000I62500J0D01*
G01*
X86127500Y-86501000D01*
G75*
G02*
X86190000Y-86563500I0J-62500D01*
G01*
X86190000Y-86688500D01*
G75*
G02*
X86127500Y-86751000I-62500J0D01*
G01*
X85452500Y-86751000D01*
G75*
G02*
X85390000Y-86688500I0J62500D01*
G01*
G37*
%TD.AperFunction*%
%TO.P,U2,31*%
%TO.N,Net-(U2-Pad31)*%
%TA.AperFunction,SMDPad,CuDef*%
G36*
G01*
X85390000Y-87188500D02*
X85390000Y-87063500D01*
G75*
G02*
X85452500Y-87001000I62500J0D01*
G01*
X86127500Y-87001000D01*
G75*
G02*
X86190000Y-87063500I0J-62500D01*
G01*
X86190000Y-87188500D01*
G75*
G02*
X86127500Y-87251000I-62500J0D01*
G01*
X85452500Y-87251000D01*
G75*
G02*
X85390000Y-87188500I0J62500D01*
G01*
G37*
%TD.AperFunction*%
%TO.P,U2,30*%
%TO.N,Net-(U2-Pad30)*%
%TA.AperFunction,SMDPad,CuDef*%
G36*
G01*
X85390000Y-87688500D02*
X85390000Y-87563500D01*
G75*
G02*
X85452500Y-87501000I62500J0D01*
G01*
X86127500Y-87501000D01*
G75*
G02*
X86190000Y-87563500I0J-62500D01*
G01*
X86190000Y-87688500D01*
G75*
G02*
X86127500Y-87751000I-62500J0D01*
G01*
X85452500Y-87751000D01*
G75*
G02*
X85390000Y-87688500I0J62500D01*
G01*
G37*
%TD.AperFunction*%
%TO.P,U2,29*%
%TO.N,Net-(U2-Pad29)*%
%TA.AperFunction,SMDPad,CuDef*%
G36*
G01*
X85390000Y-88188500D02*
X85390000Y-88063500D01*
G75*
G02*
X85452500Y-88001000I62500J0D01*
G01*
X86127500Y-88001000D01*
G75*
G02*
X86190000Y-88063500I0J-62500D01*
G01*
X86190000Y-88188500D01*
G75*
G02*
X86127500Y-88251000I-62500J0D01*
G01*
X85452500Y-88251000D01*
G75*
G02*
X85390000Y-88188500I0J62500D01*
G01*
G37*
%TD.AperFunction*%
%TO.P,U2,28*%
%TO.N,Net-(U2-Pad28)*%
%TA.AperFunction,SMDPad,CuDef*%
G36*
G01*
X85390000Y-88688500D02*
X85390000Y-88563500D01*
G75*
G02*
X85452500Y-88501000I62500J0D01*
G01*
X86127500Y-88501000D01*
G75*
G02*
X86190000Y-88563500I0J-62500D01*
G01*
X86190000Y-88688500D01*
G75*
G02*
X86127500Y-88751000I-62500J0D01*
G01*
X85452500Y-88751000D01*
G75*
G02*
X85390000Y-88688500I0J62500D01*
G01*
G37*
%TD.AperFunction*%
%TO.P,U2,27*%
%TO.N,Net-(U2-Pad27)*%
%TA.AperFunction,SMDPad,CuDef*%
G36*
G01*
X85390000Y-89188500D02*
X85390000Y-89063500D01*
G75*
G02*
X85452500Y-89001000I62500J0D01*
G01*
X86127500Y-89001000D01*
G75*
G02*
X86190000Y-89063500I0J-62500D01*
G01*
X86190000Y-89188500D01*
G75*
G02*
X86127500Y-89251000I-62500J0D01*
G01*
X85452500Y-89251000D01*
G75*
G02*
X85390000Y-89188500I0J62500D01*
G01*
G37*
%TD.AperFunction*%
%TO.P,U2,26*%
%TO.N,Net-(U2-Pad26)*%
%TA.AperFunction,SMDPad,CuDef*%
G36*
G01*
X85390000Y-89688500D02*
X85390000Y-89563500D01*
G75*
G02*
X85452500Y-89501000I62500J0D01*
G01*
X86127500Y-89501000D01*
G75*
G02*
X86190000Y-89563500I0J-62500D01*
G01*
X86190000Y-89688500D01*
G75*
G02*
X86127500Y-89751000I-62500J0D01*
G01*
X85452500Y-89751000D01*
G75*
G02*
X85390000Y-89688500I0J62500D01*
G01*
G37*
%TD.AperFunction*%
%TO.P,U2,25*%
%TO.N,Net-(U2-Pad25)*%
%TA.AperFunction,SMDPad,CuDef*%
G36*
G01*
X85390000Y-90188500D02*
X85390000Y-90063500D01*
G75*
G02*
X85452500Y-90001000I62500J0D01*
G01*
X86127500Y-90001000D01*
G75*
G02*
X86190000Y-90063500I0J-62500D01*
G01*
X86190000Y-90188500D01*
G75*
G02*
X86127500Y-90251000I-62500J0D01*
G01*
X85452500Y-90251000D01*
G75*
G02*
X85390000Y-90188500I0J62500D01*
G01*
G37*
%TD.AperFunction*%
%TO.P,U2,24*%
%TO.N,Net-(U2-Pad24)*%
%TA.AperFunction,SMDPad,CuDef*%
G36*
G01*
X84965000Y-91163500D02*
X84965000Y-90488500D01*
G75*
G02*
X85027500Y-90426000I62500J0D01*
G01*
X85152500Y-90426000D01*
G75*
G02*
X85215000Y-90488500I0J-62500D01*
G01*
X85215000Y-91163500D01*
G75*
G02*
X85152500Y-91226000I-62500J0D01*
G01*
X85027500Y-91226000D01*
G75*
G02*
X84965000Y-91163500I0J62500D01*
G01*
G37*
%TD.AperFunction*%
%TO.P,U2,23*%
%TO.N,MCLK*%
%TA.AperFunction,SMDPad,CuDef*%
G36*
G01*
X84465000Y-91163500D02*
X84465000Y-90488500D01*
G75*
G02*
X84527500Y-90426000I62500J0D01*
G01*
X84652500Y-90426000D01*
G75*
G02*
X84715000Y-90488500I0J-62500D01*
G01*
X84715000Y-91163500D01*
G75*
G02*
X84652500Y-91226000I-62500J0D01*
G01*
X84527500Y-91226000D01*
G75*
G02*
X84465000Y-91163500I0J62500D01*
G01*
G37*
%TD.AperFunction*%
%TO.P,U2,22*%
%TO.N,Net-(R21-Pad1)*%
%TA.AperFunction,SMDPad,CuDef*%
G36*
G01*
X83965000Y-91163500D02*
X83965000Y-90488500D01*
G75*
G02*
X84027500Y-90426000I62500J0D01*
G01*
X84152500Y-90426000D01*
G75*
G02*
X84215000Y-90488500I0J-62500D01*
G01*
X84215000Y-91163500D01*
G75*
G02*
X84152500Y-91226000I-62500J0D01*
G01*
X84027500Y-91226000D01*
G75*
G02*
X83965000Y-91163500I0J62500D01*
G01*
G37*
%TD.AperFunction*%
%TO.P,U2,21*%
%TO.N,MTDO*%
%TA.AperFunction,SMDPad,CuDef*%
G36*
G01*
X83465000Y-91163500D02*
X83465000Y-90488500D01*
G75*
G02*
X83527500Y-90426000I62500J0D01*
G01*
X83652500Y-90426000D01*
G75*
G02*
X83715000Y-90488500I0J-62500D01*
G01*
X83715000Y-91163500D01*
G75*
G02*
X83652500Y-91226000I-62500J0D01*
G01*
X83527500Y-91226000D01*
G75*
G02*
X83465000Y-91163500I0J62500D01*
G01*
G37*
%TD.AperFunction*%
%TO.P,U2,20*%
%TO.N,MTCK*%
%TA.AperFunction,SMDPad,CuDef*%
G36*
G01*
X82965000Y-91163500D02*
X82965000Y-90488500D01*
G75*
G02*
X83027500Y-90426000I62500J0D01*
G01*
X83152500Y-90426000D01*
G75*
G02*
X83215000Y-90488500I0J-62500D01*
G01*
X83215000Y-91163500D01*
G75*
G02*
X83152500Y-91226000I-62500J0D01*
G01*
X83027500Y-91226000D01*
G75*
G02*
X82965000Y-91163500I0J62500D01*
G01*
G37*
%TD.AperFunction*%
%TO.P,U2,19*%
%TO.N,+3V3*%
%TA.AperFunction,SMDPad,CuDef*%
G36*
G01*
X82465000Y-91163500D02*
X82465000Y-90488500D01*
G75*
G02*
X82527500Y-90426000I62500J0D01*
G01*
X82652500Y-90426000D01*
G75*
G02*
X82715000Y-90488500I0J-62500D01*
G01*
X82715000Y-91163500D01*
G75*
G02*
X82652500Y-91226000I-62500J0D01*
G01*
X82527500Y-91226000D01*
G75*
G02*
X82465000Y-91163500I0J62500D01*
G01*
G37*
%TD.AperFunction*%
%TO.P,U2,18*%
%TO.N,MTDI*%
%TA.AperFunction,SMDPad,CuDef*%
G36*
G01*
X81965000Y-91163500D02*
X81965000Y-90488500D01*
G75*
G02*
X82027500Y-90426000I62500J0D01*
G01*
X82152500Y-90426000D01*
G75*
G02*
X82215000Y-90488500I0J-62500D01*
G01*
X82215000Y-91163500D01*
G75*
G02*
X82152500Y-91226000I-62500J0D01*
G01*
X82027500Y-91226000D01*
G75*
G02*
X81965000Y-91163500I0J62500D01*
G01*
G37*
%TD.AperFunction*%
%TO.P,U2,17*%
%TO.N,MTMS*%
%TA.AperFunction,SMDPad,CuDef*%
G36*
G01*
X81465000Y-91163500D02*
X81465000Y-90488500D01*
G75*
G02*
X81527500Y-90426000I62500J0D01*
G01*
X81652500Y-90426000D01*
G75*
G02*
X81715000Y-90488500I0J-62500D01*
G01*
X81715000Y-91163500D01*
G75*
G02*
X81652500Y-91226000I-62500J0D01*
G01*
X81527500Y-91226000D01*
G75*
G02*
X81465000Y-91163500I0J62500D01*
G01*
G37*
%TD.AperFunction*%
%TO.P,U2,16*%
%TO.N,I2S_BCLK*%
%TA.AperFunction,SMDPad,CuDef*%
G36*
G01*
X80965000Y-91163500D02*
X80965000Y-90488500D01*
G75*
G02*
X81027500Y-90426000I62500J0D01*
G01*
X81152500Y-90426000D01*
G75*
G02*
X81215000Y-90488500I0J-62500D01*
G01*
X81215000Y-91163500D01*
G75*
G02*
X81152500Y-91226000I-62500J0D01*
G01*
X81027500Y-91226000D01*
G75*
G02*
X80965000Y-91163500I0J62500D01*
G01*
G37*
%TD.AperFunction*%
%TO.P,U2,15*%
%TO.N,I2S_DAC*%
%TA.AperFunction,SMDPad,CuDef*%
G36*
G01*
X80465000Y-91163500D02*
X80465000Y-90488500D01*
G75*
G02*
X80527500Y-90426000I62500J0D01*
G01*
X80652500Y-90426000D01*
G75*
G02*
X80715000Y-90488500I0J-62500D01*
G01*
X80715000Y-91163500D01*
G75*
G02*
X80652500Y-91226000I-62500J0D01*
G01*
X80527500Y-91226000D01*
G75*
G02*
X80465000Y-91163500I0J62500D01*
G01*
G37*
%TD.AperFunction*%
%TO.P,U2,14*%
%TO.N,I2S_LRCLK*%
%TA.AperFunction,SMDPad,CuDef*%
G36*
G01*
X79965000Y-91163500D02*
X79965000Y-90488500D01*
G75*
G02*
X80027500Y-90426000I62500J0D01*
G01*
X80152500Y-90426000D01*
G75*
G02*
X80215000Y-90488500I0J-62500D01*
G01*
X80215000Y-91163500D01*
G75*
G02*
X80152500Y-91226000I-62500J0D01*
G01*
X80027500Y-91226000D01*
G75*
G02*
X79965000Y-91163500I0J62500D01*
G01*
G37*
%TD.AperFunction*%
%TO.P,U2,13*%
%TO.N,Net-(U2-Pad13)*%
%TA.AperFunction,SMDPad,CuDef*%
G36*
G01*
X79465000Y-91163500D02*
X79465000Y-90488500D01*
G75*
G02*
X79527500Y-90426000I62500J0D01*
G01*
X79652500Y-90426000D01*
G75*
G02*
X79715000Y-90488500I0J-62500D01*
G01*
X79715000Y-91163500D01*
G75*
G02*
X79652500Y-91226000I-62500J0D01*
G01*
X79527500Y-91226000D01*
G75*
G02*
X79465000Y-91163500I0J62500D01*
G01*
G37*
%TD.AperFunction*%
%TO.P,U2,12*%
%TO.N,Net-(U2-Pad12)*%
%TA.AperFunction,SMDPad,CuDef*%
G36*
G01*
X78490000Y-90188500D02*
X78490000Y-90063500D01*
G75*
G02*
X78552500Y-90001000I62500J0D01*
G01*
X79227500Y-90001000D01*
G75*
G02*
X79290000Y-90063500I0J-62500D01*
G01*
X79290000Y-90188500D01*
G75*
G02*
X79227500Y-90251000I-62500J0D01*
G01*
X78552500Y-90251000D01*
G75*
G02*
X78490000Y-90188500I0J62500D01*
G01*
G37*
%TD.AperFunction*%
%TO.P,U2,11*%
%TO.N,I2S_ADC*%
%TA.AperFunction,SMDPad,CuDef*%
G36*
G01*
X78490000Y-89688500D02*
X78490000Y-89563500D01*
G75*
G02*
X78552500Y-89501000I62500J0D01*
G01*
X79227500Y-89501000D01*
G75*
G02*
X79290000Y-89563500I0J-62500D01*
G01*
X79290000Y-89688500D01*
G75*
G02*
X79227500Y-89751000I-62500J0D01*
G01*
X78552500Y-89751000D01*
G75*
G02*
X78490000Y-89688500I0J62500D01*
G01*
G37*
%TD.AperFunction*%
%TO.P,U2,10*%
%TO.N,Net-(U2-Pad10)*%
%TA.AperFunction,SMDPad,CuDef*%
G36*
G01*
X78490000Y-89188500D02*
X78490000Y-89063500D01*
G75*
G02*
X78552500Y-89001000I62500J0D01*
G01*
X79227500Y-89001000D01*
G75*
G02*
X79290000Y-89063500I0J-62500D01*
G01*
X79290000Y-89188500D01*
G75*
G02*
X79227500Y-89251000I-62500J0D01*
G01*
X78552500Y-89251000D01*
G75*
G02*
X78490000Y-89188500I0J62500D01*
G01*
G37*
%TD.AperFunction*%
%TO.P,U2,9*%
%TO.N,Reset*%
%TA.AperFunction,SMDPad,CuDef*%
G36*
G01*
X78490000Y-88688500D02*
X78490000Y-88563500D01*
G75*
G02*
X78552500Y-88501000I62500J0D01*
G01*
X79227500Y-88501000D01*
G75*
G02*
X79290000Y-88563500I0J-62500D01*
G01*
X79290000Y-88688500D01*
G75*
G02*
X79227500Y-88751000I-62500J0D01*
G01*
X78552500Y-88751000D01*
G75*
G02*
X78490000Y-88688500I0J62500D01*
G01*
G37*
%TD.AperFunction*%
%TO.P,U2,8*%
%TO.N,Net-(U2-Pad8)*%
%TA.AperFunction,SMDPad,CuDef*%
G36*
G01*
X78490000Y-88188500D02*
X78490000Y-88063500D01*
G75*
G02*
X78552500Y-88001000I62500J0D01*
G01*
X79227500Y-88001000D01*
G75*
G02*
X79290000Y-88063500I0J-62500D01*
G01*
X79290000Y-88188500D01*
G75*
G02*
X79227500Y-88251000I-62500J0D01*
G01*
X78552500Y-88251000D01*
G75*
G02*
X78490000Y-88188500I0J62500D01*
G01*
G37*
%TD.AperFunction*%
%TO.P,U2,7*%
%TO.N,Net-(U2-Pad7)*%
%TA.AperFunction,SMDPad,CuDef*%
G36*
G01*
X78490000Y-87688500D02*
X78490000Y-87563500D01*
G75*
G02*
X78552500Y-87501000I62500J0D01*
G01*
X79227500Y-87501000D01*
G75*
G02*
X79290000Y-87563500I0J-62500D01*
G01*
X79290000Y-87688500D01*
G75*
G02*
X79227500Y-87751000I-62500J0D01*
G01*
X78552500Y-87751000D01*
G75*
G02*
X78490000Y-87688500I0J62500D01*
G01*
G37*
%TD.AperFunction*%
%TO.P,U2,6*%
%TO.N,Net-(U2-Pad6)*%
%TA.AperFunction,SMDPad,CuDef*%
G36*
G01*
X78490000Y-87188500D02*
X78490000Y-87063500D01*
G75*
G02*
X78552500Y-87001000I62500J0D01*
G01*
X79227500Y-87001000D01*
G75*
G02*
X79290000Y-87063500I0J-62500D01*
G01*
X79290000Y-87188500D01*
G75*
G02*
X79227500Y-87251000I-62500J0D01*
G01*
X78552500Y-87251000D01*
G75*
G02*
X78490000Y-87188500I0J62500D01*
G01*
G37*
%TD.AperFunction*%
%TO.P,U2,5*%
%TO.N,Net-(U2-Pad5)*%
%TA.AperFunction,SMDPad,CuDef*%
G36*
G01*
X78490000Y-86688500D02*
X78490000Y-86563500D01*
G75*
G02*
X78552500Y-86501000I62500J0D01*
G01*
X79227500Y-86501000D01*
G75*
G02*
X79290000Y-86563500I0J-62500D01*
G01*
X79290000Y-86688500D01*
G75*
G02*
X79227500Y-86751000I-62500J0D01*
G01*
X78552500Y-86751000D01*
G75*
G02*
X78490000Y-86688500I0J62500D01*
G01*
G37*
%TD.AperFunction*%
%TO.P,U2,4*%
%TO.N,+3V3*%
%TA.AperFunction,SMDPad,CuDef*%
G36*
G01*
X78490000Y-86188500D02*
X78490000Y-86063500D01*
G75*
G02*
X78552500Y-86001000I62500J0D01*
G01*
X79227500Y-86001000D01*
G75*
G02*
X79290000Y-86063500I0J-62500D01*
G01*
X79290000Y-86188500D01*
G75*
G02*
X79227500Y-86251000I-62500J0D01*
G01*
X78552500Y-86251000D01*
G75*
G02*
X78490000Y-86188500I0J62500D01*
G01*
G37*
%TD.AperFunction*%
%TO.P,U2,3*%
%TA.AperFunction,SMDPad,CuDef*%
G36*
G01*
X78490000Y-85688500D02*
X78490000Y-85563500D01*
G75*
G02*
X78552500Y-85501000I62500J0D01*
G01*
X79227500Y-85501000D01*
G75*
G02*
X79290000Y-85563500I0J-62500D01*
G01*
X79290000Y-85688500D01*
G75*
G02*
X79227500Y-85751000I-62500J0D01*
G01*
X78552500Y-85751000D01*
G75*
G02*
X78490000Y-85688500I0J62500D01*
G01*
G37*
%TD.AperFunction*%
%TO.P,U2,2*%
%TO.N,Ant*%
%TA.AperFunction,SMDPad,CuDef*%
G36*
G01*
X78490000Y-85188500D02*
X78490000Y-85063500D01*
G75*
G02*
X78552500Y-85001000I62500J0D01*
G01*
X79227500Y-85001000D01*
G75*
G02*
X79290000Y-85063500I0J-62500D01*
G01*
X79290000Y-85188500D01*
G75*
G02*
X79227500Y-85251000I-62500J0D01*
G01*
X78552500Y-85251000D01*
G75*
G02*
X78490000Y-85188500I0J62500D01*
G01*
G37*
%TD.AperFunction*%
%TO.P,U2,1*%
%TO.N,+3V3*%
%TA.AperFunction,SMDPad,CuDef*%
G36*
G01*
X78490000Y-84688500D02*
X78490000Y-84563500D01*
G75*
G02*
X78552500Y-84501000I62500J0D01*
G01*
X79227500Y-84501000D01*
G75*
G02*
X79290000Y-84563500I0J-62500D01*
G01*
X79290000Y-84688500D01*
G75*
G02*
X79227500Y-84751000I-62500J0D01*
G01*
X78552500Y-84751000D01*
G75*
G02*
X78490000Y-84688500I0J62500D01*
G01*
G37*
%TD.AperFunction*%
%TD*%
D16*
%TO.P,U1,29*%
%TO.N,N/C*%
X82550000Y-98298000D03*
%TA.AperFunction,SMDPad,CuDef*%
D17*
%TO.P,U1,28*%
%TO.N,Net-(C27-Pad1)*%
G36*
X84898799Y-97022693D02*
G01*
X84895242Y-97034418D01*
X84889467Y-97045223D01*
X84881694Y-97054694D01*
X84872223Y-97062467D01*
X84861418Y-97068242D01*
X84849693Y-97071799D01*
X84837500Y-97073000D01*
X84162500Y-97073000D01*
X84150307Y-97071799D01*
X84138582Y-97068242D01*
X84127777Y-97062467D01*
X84118306Y-97054694D01*
X84110533Y-97045223D01*
X84104758Y-97034418D01*
X84101201Y-97022693D01*
X84100000Y-97010500D01*
X84100000Y-96948888D01*
X84101201Y-96936695D01*
X84104758Y-96924970D01*
X84110533Y-96914165D01*
X84118306Y-96904694D01*
X84181694Y-96841306D01*
X84191165Y-96833533D01*
X84201970Y-96827758D01*
X84213695Y-96824201D01*
X84225888Y-96823000D01*
X84837500Y-96823000D01*
X84849693Y-96824201D01*
X84861418Y-96827758D01*
X84872223Y-96833533D01*
X84881694Y-96841306D01*
X84889467Y-96850777D01*
X84895242Y-96861582D01*
X84898799Y-96873307D01*
X84900000Y-96885500D01*
X84900000Y-97010500D01*
X84898799Y-97022693D01*
G37*
%TD.AperFunction*%
%TO.P,U1,27*%
%TO.N,Net-(C22-Pad1)*%
%TA.AperFunction,SMDPad,CuDef*%
G36*
G01*
X84162500Y-97273000D02*
X84837500Y-97273000D01*
G75*
G02*
X84900000Y-97335500I0J-62500D01*
G01*
X84900000Y-97460500D01*
G75*
G02*
X84837500Y-97523000I-62500J0D01*
G01*
X84162500Y-97523000D01*
G75*
G02*
X84100000Y-97460500I0J62500D01*
G01*
X84100000Y-97335500D01*
G75*
G02*
X84162500Y-97273000I62500J0D01*
G01*
G37*
%TD.AperFunction*%
%TO.P,U1,26*%
%TO.N,MODE*%
%TA.AperFunction,SMDPad,CuDef*%
G36*
G01*
X84162500Y-97723000D02*
X84837500Y-97723000D01*
G75*
G02*
X84900000Y-97785500I0J-62500D01*
G01*
X84900000Y-97910500D01*
G75*
G02*
X84837500Y-97973000I-62500J0D01*
G01*
X84162500Y-97973000D01*
G75*
G02*
X84100000Y-97910500I0J62500D01*
G01*
X84100000Y-97785500D01*
G75*
G02*
X84162500Y-97723000I62500J0D01*
G01*
G37*
%TD.AperFunction*%
%TO.P,U1,25*%
%TO.N,Net-(U1-Pad25)*%
%TA.AperFunction,SMDPad,CuDef*%
G36*
G01*
X84162500Y-98173000D02*
X84837500Y-98173000D01*
G75*
G02*
X84900000Y-98235500I0J-62500D01*
G01*
X84900000Y-98360500D01*
G75*
G02*
X84837500Y-98423000I-62500J0D01*
G01*
X84162500Y-98423000D01*
G75*
G02*
X84100000Y-98360500I0J62500D01*
G01*
X84100000Y-98235500D01*
G75*
G02*
X84162500Y-98173000I62500J0D01*
G01*
G37*
%TD.AperFunction*%
%TO.P,U1,24*%
%TO.N,Net-(C24-Pad2)*%
%TA.AperFunction,SMDPad,CuDef*%
G36*
G01*
X84162500Y-98623000D02*
X84837500Y-98623000D01*
G75*
G02*
X84900000Y-98685500I0J-62500D01*
G01*
X84900000Y-98810500D01*
G75*
G02*
X84837500Y-98873000I-62500J0D01*
G01*
X84162500Y-98873000D01*
G75*
G02*
X84100000Y-98810500I0J62500D01*
G01*
X84100000Y-98685500D01*
G75*
G02*
X84162500Y-98623000I62500J0D01*
G01*
G37*
%TD.AperFunction*%
%TO.P,U1,23*%
%TA.AperFunction,SMDPad,CuDef*%
G36*
G01*
X84162500Y-99073000D02*
X84837500Y-99073000D01*
G75*
G02*
X84900000Y-99135500I0J-62500D01*
G01*
X84900000Y-99260500D01*
G75*
G02*
X84837500Y-99323000I-62500J0D01*
G01*
X84162500Y-99323000D01*
G75*
G02*
X84100000Y-99260500I0J62500D01*
G01*
X84100000Y-99135500D01*
G75*
G02*
X84162500Y-99073000I62500J0D01*
G01*
G37*
%TD.AperFunction*%
%TA.AperFunction,SMDPad,CuDef*%
%TO.P,U1,22*%
%TO.N,Net-(C26-Pad2)*%
G36*
X84898799Y-99722693D02*
G01*
X84895242Y-99734418D01*
X84889467Y-99745223D01*
X84881694Y-99754694D01*
X84872223Y-99762467D01*
X84861418Y-99768242D01*
X84849693Y-99771799D01*
X84837500Y-99773000D01*
X84225888Y-99773000D01*
X84213695Y-99771799D01*
X84201970Y-99768242D01*
X84191165Y-99762467D01*
X84181694Y-99754694D01*
X84118306Y-99691306D01*
X84110533Y-99681835D01*
X84104758Y-99671030D01*
X84101201Y-99659305D01*
X84100000Y-99647112D01*
X84100000Y-99585500D01*
X84101201Y-99573307D01*
X84104758Y-99561582D01*
X84110533Y-99550777D01*
X84118306Y-99541306D01*
X84127777Y-99533533D01*
X84138582Y-99527758D01*
X84150307Y-99524201D01*
X84162500Y-99523000D01*
X84837500Y-99523000D01*
X84849693Y-99524201D01*
X84861418Y-99527758D01*
X84872223Y-99533533D01*
X84881694Y-99541306D01*
X84889467Y-99550777D01*
X84895242Y-99561582D01*
X84898799Y-99573307D01*
X84900000Y-99585500D01*
X84900000Y-99710500D01*
X84898799Y-99722693D01*
G37*
%TD.AperFunction*%
%TA.AperFunction,SMDPad,CuDef*%
%TO.P,U1,21*%
%TO.N,Net-(C25-Pad2)*%
G36*
X84023799Y-100597693D02*
G01*
X84020242Y-100609418D01*
X84014467Y-100620223D01*
X84006694Y-100629694D01*
X83997223Y-100637467D01*
X83986418Y-100643242D01*
X83974693Y-100646799D01*
X83962500Y-100648000D01*
X83837500Y-100648000D01*
X83825307Y-100646799D01*
X83813582Y-100643242D01*
X83802777Y-100637467D01*
X83793306Y-100629694D01*
X83785533Y-100620223D01*
X83779758Y-100609418D01*
X83776201Y-100597693D01*
X83775000Y-100585500D01*
X83775000Y-99910500D01*
X83776201Y-99898307D01*
X83779758Y-99886582D01*
X83785533Y-99875777D01*
X83793306Y-99866306D01*
X83802777Y-99858533D01*
X83813582Y-99852758D01*
X83825307Y-99849201D01*
X83837500Y-99848000D01*
X83899112Y-99848000D01*
X83911305Y-99849201D01*
X83923030Y-99852758D01*
X83933835Y-99858533D01*
X83943306Y-99866306D01*
X84006694Y-99929694D01*
X84014467Y-99939165D01*
X84020242Y-99949970D01*
X84023799Y-99961695D01*
X84025000Y-99973888D01*
X84025000Y-100585500D01*
X84023799Y-100597693D01*
G37*
%TD.AperFunction*%
%TO.P,U1,20*%
%TO.N,VMID*%
%TA.AperFunction,SMDPad,CuDef*%
G36*
G01*
X83387500Y-99848000D02*
X83512500Y-99848000D01*
G75*
G02*
X83575000Y-99910500I0J-62500D01*
G01*
X83575000Y-100585500D01*
G75*
G02*
X83512500Y-100648000I-62500J0D01*
G01*
X83387500Y-100648000D01*
G75*
G02*
X83325000Y-100585500I0J62500D01*
G01*
X83325000Y-99910500D01*
G75*
G02*
X83387500Y-99848000I62500J0D01*
G01*
G37*
%TD.AperFunction*%
%TO.P,U1,19*%
%TO.N,ADCVREF*%
%TA.AperFunction,SMDPad,CuDef*%
G36*
G01*
X82937500Y-99848000D02*
X83062500Y-99848000D01*
G75*
G02*
X83125000Y-99910500I0J-62500D01*
G01*
X83125000Y-100585500D01*
G75*
G02*
X83062500Y-100648000I-62500J0D01*
G01*
X82937500Y-100648000D01*
G75*
G02*
X82875000Y-100585500I0J62500D01*
G01*
X82875000Y-99910500D01*
G75*
G02*
X82937500Y-99848000I62500J0D01*
G01*
G37*
%TD.AperFunction*%
%TO.P,U1,18*%
%TO.N,GNDA*%
%TA.AperFunction,SMDPad,CuDef*%
G36*
G01*
X82487500Y-99848000D02*
X82612500Y-99848000D01*
G75*
G02*
X82675000Y-99910500I0J-62500D01*
G01*
X82675000Y-100585500D01*
G75*
G02*
X82612500Y-100648000I-62500J0D01*
G01*
X82487500Y-100648000D01*
G75*
G02*
X82425000Y-100585500I0J62500D01*
G01*
X82425000Y-99910500D01*
G75*
G02*
X82487500Y-99848000I62500J0D01*
G01*
G37*
%TD.AperFunction*%
%TO.P,U1,17*%
%TO.N,+3.3VA*%
%TA.AperFunction,SMDPad,CuDef*%
G36*
G01*
X82037500Y-99848000D02*
X82162500Y-99848000D01*
G75*
G02*
X82225000Y-99910500I0J-62500D01*
G01*
X82225000Y-100585500D01*
G75*
G02*
X82162500Y-100648000I-62500J0D01*
G01*
X82037500Y-100648000D01*
G75*
G02*
X81975000Y-100585500I0J62500D01*
G01*
X81975000Y-99910500D01*
G75*
G02*
X82037500Y-99848000I62500J0D01*
G01*
G37*
%TD.AperFunction*%
%TO.P,U1,16*%
%TA.AperFunction,SMDPad,CuDef*%
G36*
G01*
X81587500Y-99848000D02*
X81712500Y-99848000D01*
G75*
G02*
X81775000Y-99910500I0J-62500D01*
G01*
X81775000Y-100585500D01*
G75*
G02*
X81712500Y-100648000I-62500J0D01*
G01*
X81587500Y-100648000D01*
G75*
G02*
X81525000Y-100585500I0J62500D01*
G01*
X81525000Y-99910500D01*
G75*
G02*
X81587500Y-99848000I62500J0D01*
G01*
G37*
%TD.AperFunction*%
%TA.AperFunction,SMDPad,CuDef*%
%TO.P,U1,15*%
%TO.N,Net-(U1-Pad15)*%
G36*
X81323799Y-100597693D02*
G01*
X81320242Y-100609418D01*
X81314467Y-100620223D01*
X81306694Y-100629694D01*
X81297223Y-100637467D01*
X81286418Y-100643242D01*
X81274693Y-100646799D01*
X81262500Y-100648000D01*
X81137500Y-100648000D01*
X81125307Y-100646799D01*
X81113582Y-100643242D01*
X81102777Y-100637467D01*
X81093306Y-100629694D01*
X81085533Y-100620223D01*
X81079758Y-100609418D01*
X81076201Y-100597693D01*
X81075000Y-100585500D01*
X81075000Y-99973888D01*
X81076201Y-99961695D01*
X81079758Y-99949970D01*
X81085533Y-99939165D01*
X81093306Y-99929694D01*
X81156694Y-99866306D01*
X81166165Y-99858533D01*
X81176970Y-99852758D01*
X81188695Y-99849201D01*
X81200888Y-99848000D01*
X81262500Y-99848000D01*
X81274693Y-99849201D01*
X81286418Y-99852758D01*
X81297223Y-99858533D01*
X81306694Y-99866306D01*
X81314467Y-99875777D01*
X81320242Y-99886582D01*
X81323799Y-99898307D01*
X81325000Y-99910500D01*
X81325000Y-100585500D01*
X81323799Y-100597693D01*
G37*
%TD.AperFunction*%
%TA.AperFunction,SMDPad,CuDef*%
%TO.P,U1,14*%
%TO.N,Net-(U1-Pad14)*%
G36*
X80998799Y-99659305D02*
G01*
X80995242Y-99671030D01*
X80989467Y-99681835D01*
X80981694Y-99691306D01*
X80918306Y-99754694D01*
X80908835Y-99762467D01*
X80898030Y-99768242D01*
X80886305Y-99771799D01*
X80874112Y-99773000D01*
X80262500Y-99773000D01*
X80250307Y-99771799D01*
X80238582Y-99768242D01*
X80227777Y-99762467D01*
X80218306Y-99754694D01*
X80210533Y-99745223D01*
X80204758Y-99734418D01*
X80201201Y-99722693D01*
X80200000Y-99710500D01*
X80200000Y-99585500D01*
X80201201Y-99573307D01*
X80204758Y-99561582D01*
X80210533Y-99550777D01*
X80218306Y-99541306D01*
X80227777Y-99533533D01*
X80238582Y-99527758D01*
X80250307Y-99524201D01*
X80262500Y-99523000D01*
X80937500Y-99523000D01*
X80949693Y-99524201D01*
X80961418Y-99527758D01*
X80972223Y-99533533D01*
X80981694Y-99541306D01*
X80989467Y-99550777D01*
X80995242Y-99561582D01*
X80998799Y-99573307D01*
X81000000Y-99585500D01*
X81000000Y-99647112D01*
X80998799Y-99659305D01*
G37*
%TD.AperFunction*%
%TO.P,U1,13*%
%TO.N,GNDA*%
%TA.AperFunction,SMDPad,CuDef*%
G36*
G01*
X80262500Y-99073000D02*
X80937500Y-99073000D01*
G75*
G02*
X81000000Y-99135500I0J-62500D01*
G01*
X81000000Y-99260500D01*
G75*
G02*
X80937500Y-99323000I-62500J0D01*
G01*
X80262500Y-99323000D01*
G75*
G02*
X80200000Y-99260500I0J62500D01*
G01*
X80200000Y-99135500D01*
G75*
G02*
X80262500Y-99073000I62500J0D01*
G01*
G37*
%TD.AperFunction*%
%TO.P,U1,12*%
%TO.N,Net-(C29-Pad1)*%
%TA.AperFunction,SMDPad,CuDef*%
G36*
G01*
X80262500Y-98623000D02*
X80937500Y-98623000D01*
G75*
G02*
X81000000Y-98685500I0J-62500D01*
G01*
X81000000Y-98810500D01*
G75*
G02*
X80937500Y-98873000I-62500J0D01*
G01*
X80262500Y-98873000D01*
G75*
G02*
X80200000Y-98810500I0J62500D01*
G01*
X80200000Y-98685500D01*
G75*
G02*
X80262500Y-98623000I62500J0D01*
G01*
G37*
%TD.AperFunction*%
%TO.P,U1,11*%
%TO.N,Net-(C28-Pad1)*%
%TA.AperFunction,SMDPad,CuDef*%
G36*
G01*
X80262500Y-98173000D02*
X80937500Y-98173000D01*
G75*
G02*
X81000000Y-98235500I0J-62500D01*
G01*
X81000000Y-98360500D01*
G75*
G02*
X80937500Y-98423000I-62500J0D01*
G01*
X80262500Y-98423000D01*
G75*
G02*
X80200000Y-98360500I0J62500D01*
G01*
X80200000Y-98235500D01*
G75*
G02*
X80262500Y-98173000I62500J0D01*
G01*
G37*
%TD.AperFunction*%
%TO.P,U1,10*%
%TO.N,VREF*%
%TA.AperFunction,SMDPad,CuDef*%
G36*
G01*
X80262500Y-97723000D02*
X80937500Y-97723000D01*
G75*
G02*
X81000000Y-97785500I0J-62500D01*
G01*
X81000000Y-97910500D01*
G75*
G02*
X80937500Y-97973000I-62500J0D01*
G01*
X80262500Y-97973000D01*
G75*
G02*
X80200000Y-97910500I0J62500D01*
G01*
X80200000Y-97785500D01*
G75*
G02*
X80262500Y-97723000I62500J0D01*
G01*
G37*
%TD.AperFunction*%
%TO.P,U1,9*%
%TO.N,Net-(U1-Pad9)*%
%TA.AperFunction,SMDPad,CuDef*%
G36*
G01*
X80262500Y-97273000D02*
X80937500Y-97273000D01*
G75*
G02*
X81000000Y-97335500I0J-62500D01*
G01*
X81000000Y-97460500D01*
G75*
G02*
X80937500Y-97523000I-62500J0D01*
G01*
X80262500Y-97523000D01*
G75*
G02*
X80200000Y-97460500I0J62500D01*
G01*
X80200000Y-97335500D01*
G75*
G02*
X80262500Y-97273000I62500J0D01*
G01*
G37*
%TD.AperFunction*%
%TA.AperFunction,SMDPad,CuDef*%
%TO.P,U1,8*%
%TO.N,Net-(R11-Pad1)*%
G36*
X80998799Y-97022693D02*
G01*
X80995242Y-97034418D01*
X80989467Y-97045223D01*
X80981694Y-97054694D01*
X80972223Y-97062467D01*
X80961418Y-97068242D01*
X80949693Y-97071799D01*
X80937500Y-97073000D01*
X80262500Y-97073000D01*
X80250307Y-97071799D01*
X80238582Y-97068242D01*
X80227777Y-97062467D01*
X80218306Y-97054694D01*
X80210533Y-97045223D01*
X80204758Y-97034418D01*
X80201201Y-97022693D01*
X80200000Y-97010500D01*
X80200000Y-96885500D01*
X80201201Y-96873307D01*
X80204758Y-96861582D01*
X80210533Y-96850777D01*
X80218306Y-96841306D01*
X80227777Y-96833533D01*
X80238582Y-96827758D01*
X80250307Y-96824201D01*
X80262500Y-96823000D01*
X80874112Y-96823000D01*
X80886305Y-96824201D01*
X80898030Y-96827758D01*
X80908835Y-96833533D01*
X80918306Y-96841306D01*
X80981694Y-96904694D01*
X80989467Y-96914165D01*
X80995242Y-96924970D01*
X80998799Y-96936695D01*
X81000000Y-96948888D01*
X81000000Y-97010500D01*
X80998799Y-97022693D01*
G37*
%TD.AperFunction*%
%TA.AperFunction,SMDPad,CuDef*%
%TO.P,U1,7*%
%TO.N,Net-(R9-Pad1)*%
G36*
X81323799Y-96697693D02*
G01*
X81320242Y-96709418D01*
X81314467Y-96720223D01*
X81306694Y-96729694D01*
X81297223Y-96737467D01*
X81286418Y-96743242D01*
X81274693Y-96746799D01*
X81262500Y-96748000D01*
X81200888Y-96748000D01*
X81188695Y-96746799D01*
X81176970Y-96743242D01*
X81166165Y-96737467D01*
X81156694Y-96729694D01*
X81093306Y-96666306D01*
X81085533Y-96656835D01*
X81079758Y-96646030D01*
X81076201Y-96634305D01*
X81075000Y-96622112D01*
X81075000Y-96010500D01*
X81076201Y-95998307D01*
X81079758Y-95986582D01*
X81085533Y-95975777D01*
X81093306Y-95966306D01*
X81102777Y-95958533D01*
X81113582Y-95952758D01*
X81125307Y-95949201D01*
X81137500Y-95948000D01*
X81262500Y-95948000D01*
X81274693Y-95949201D01*
X81286418Y-95952758D01*
X81297223Y-95958533D01*
X81306694Y-95966306D01*
X81314467Y-95975777D01*
X81320242Y-95986582D01*
X81323799Y-95998307D01*
X81325000Y-96010500D01*
X81325000Y-96685500D01*
X81323799Y-96697693D01*
G37*
%TD.AperFunction*%
%TO.P,U1,6*%
%TO.N,Net-(R10-Pad1)*%
%TA.AperFunction,SMDPad,CuDef*%
G36*
G01*
X81587500Y-95948000D02*
X81712500Y-95948000D01*
G75*
G02*
X81775000Y-96010500I0J-62500D01*
G01*
X81775000Y-96685500D01*
G75*
G02*
X81712500Y-96748000I-62500J0D01*
G01*
X81587500Y-96748000D01*
G75*
G02*
X81525000Y-96685500I0J62500D01*
G01*
X81525000Y-96010500D01*
G75*
G02*
X81587500Y-95948000I62500J0D01*
G01*
G37*
%TD.AperFunction*%
%TO.P,U1,5*%
%TO.N,Net-(R8-Pad1)*%
%TA.AperFunction,SMDPad,CuDef*%
G36*
G01*
X82037500Y-95948000D02*
X82162500Y-95948000D01*
G75*
G02*
X82225000Y-96010500I0J-62500D01*
G01*
X82225000Y-96685500D01*
G75*
G02*
X82162500Y-96748000I-62500J0D01*
G01*
X82037500Y-96748000D01*
G75*
G02*
X81975000Y-96685500I0J62500D01*
G01*
X81975000Y-96010500D01*
G75*
G02*
X82037500Y-95948000I62500J0D01*
G01*
G37*
%TD.AperFunction*%
%TO.P,U1,4*%
%TO.N,GND*%
%TA.AperFunction,SMDPad,CuDef*%
G36*
G01*
X82487500Y-95948000D02*
X82612500Y-95948000D01*
G75*
G02*
X82675000Y-96010500I0J-62500D01*
G01*
X82675000Y-96685500D01*
G75*
G02*
X82612500Y-96748000I-62500J0D01*
G01*
X82487500Y-96748000D01*
G75*
G02*
X82425000Y-96685500I0J62500D01*
G01*
X82425000Y-96010500D01*
G75*
G02*
X82487500Y-95948000I62500J0D01*
G01*
G37*
%TD.AperFunction*%
%TO.P,U1,3*%
%TO.N,+3V3*%
%TA.AperFunction,SMDPad,CuDef*%
G36*
G01*
X82937500Y-95948000D02*
X83062500Y-95948000D01*
G75*
G02*
X83125000Y-96010500I0J-62500D01*
G01*
X83125000Y-96685500D01*
G75*
G02*
X83062500Y-96748000I-62500J0D01*
G01*
X82937500Y-96748000D01*
G75*
G02*
X82875000Y-96685500I0J62500D01*
G01*
X82875000Y-96010500D01*
G75*
G02*
X82937500Y-95948000I62500J0D01*
G01*
G37*
%TD.AperFunction*%
%TO.P,U1,2*%
%TA.AperFunction,SMDPad,CuDef*%
G36*
G01*
X83387500Y-95948000D02*
X83512500Y-95948000D01*
G75*
G02*
X83575000Y-96010500I0J-62500D01*
G01*
X83575000Y-96685500D01*
G75*
G02*
X83512500Y-96748000I-62500J0D01*
G01*
X83387500Y-96748000D01*
G75*
G02*
X83325000Y-96685500I0J62500D01*
G01*
X83325000Y-96010500D01*
G75*
G02*
X83387500Y-95948000I62500J0D01*
G01*
G37*
%TD.AperFunction*%
%TA.AperFunction,SMDPad,CuDef*%
%TO.P,U1,1*%
%TO.N,Net-(R7-Pad1)*%
G36*
X84023799Y-96634305D02*
G01*
X84020242Y-96646030D01*
X84014467Y-96656835D01*
X84006694Y-96666306D01*
X83943306Y-96729694D01*
X83933835Y-96737467D01*
X83923030Y-96743242D01*
X83911305Y-96746799D01*
X83899112Y-96748000D01*
X83837500Y-96748000D01*
X83825307Y-96746799D01*
X83813582Y-96743242D01*
X83802777Y-96737467D01*
X83793306Y-96729694D01*
X83785533Y-96720223D01*
X83779758Y-96709418D01*
X83776201Y-96697693D01*
X83775000Y-96685500D01*
X83775000Y-96010500D01*
X83776201Y-95998307D01*
X83779758Y-95986582D01*
X83785533Y-95975777D01*
X83793306Y-95966306D01*
X83802777Y-95958533D01*
X83813582Y-95952758D01*
X83825307Y-95949201D01*
X83837500Y-95948000D01*
X83962500Y-95948000D01*
X83974693Y-95949201D01*
X83986418Y-95952758D01*
X83997223Y-95958533D01*
X84006694Y-95966306D01*
X84014467Y-95975777D01*
X84020242Y-95986582D01*
X84023799Y-95998307D01*
X84025000Y-96010500D01*
X84025000Y-96622112D01*
X84023799Y-96634305D01*
G37*
%TD.AperFunction*%
%TD*%
%TO.P,R22,2*%
%TO.N,Net-(D4-Pad1)*%
%TA.AperFunction,SMDPad,CuDef*%
G36*
G01*
X89731000Y-84439000D02*
X90101000Y-84439000D01*
G75*
G02*
X90236000Y-84574000I0J-135000D01*
G01*
X90236000Y-84844000D01*
G75*
G02*
X90101000Y-84979000I-135000J0D01*
G01*
X89731000Y-84979000D01*
G75*
G02*
X89596000Y-84844000I0J135000D01*
G01*
X89596000Y-84574000D01*
G75*
G02*
X89731000Y-84439000I135000J0D01*
G01*
G37*
%TD.AperFunction*%
%TO.P,R22,1*%
%TO.N,GND*%
%TA.AperFunction,SMDPad,CuDef*%
G36*
G01*
X89731000Y-83419000D02*
X90101000Y-83419000D01*
G75*
G02*
X90236000Y-83554000I0J-135000D01*
G01*
X90236000Y-83824000D01*
G75*
G02*
X90101000Y-83959000I-135000J0D01*
G01*
X89731000Y-83959000D01*
G75*
G02*
X89596000Y-83824000I0J135000D01*
G01*
X89596000Y-83554000D01*
G75*
G02*
X89731000Y-83419000I135000J0D01*
G01*
G37*
%TD.AperFunction*%
%TD*%
%TO.P,R21,2*%
%TO.N,GND*%
%TA.AperFunction,SMDPad,CuDef*%
G36*
G01*
X86175000Y-93966000D02*
X86545000Y-93966000D01*
G75*
G02*
X86680000Y-94101000I0J-135000D01*
G01*
X86680000Y-94371000D01*
G75*
G02*
X86545000Y-94506000I-135000J0D01*
G01*
X86175000Y-94506000D01*
G75*
G02*
X86040000Y-94371000I0J135000D01*
G01*
X86040000Y-94101000D01*
G75*
G02*
X86175000Y-93966000I135000J0D01*
G01*
G37*
%TD.AperFunction*%
%TO.P,R21,1*%
%TO.N,Net-(R21-Pad1)*%
%TA.AperFunction,SMDPad,CuDef*%
G36*
G01*
X86175000Y-92946000D02*
X86545000Y-92946000D01*
G75*
G02*
X86680000Y-93081000I0J-135000D01*
G01*
X86680000Y-93351000D01*
G75*
G02*
X86545000Y-93486000I-135000J0D01*
G01*
X86175000Y-93486000D01*
G75*
G02*
X86040000Y-93351000I0J135000D01*
G01*
X86040000Y-93081000D01*
G75*
G02*
X86175000Y-92946000I135000J0D01*
G01*
G37*
%TD.AperFunction*%
%TD*%
%TO.P,R20,2*%
%TO.N,MCLK*%
%TA.AperFunction,SMDPad,CuDef*%
G36*
G01*
X87445000Y-91680000D02*
X87815000Y-91680000D01*
G75*
G02*
X87950000Y-91815000I0J-135000D01*
G01*
X87950000Y-92085000D01*
G75*
G02*
X87815000Y-92220000I-135000J0D01*
G01*
X87445000Y-92220000D01*
G75*
G02*
X87310000Y-92085000I0J135000D01*
G01*
X87310000Y-91815000D01*
G75*
G02*
X87445000Y-91680000I135000J0D01*
G01*
G37*
%TD.AperFunction*%
%TO.P,R20,1*%
%TO.N,IO0*%
%TA.AperFunction,SMDPad,CuDef*%
G36*
G01*
X87445000Y-90660000D02*
X87815000Y-90660000D01*
G75*
G02*
X87950000Y-90795000I0J-135000D01*
G01*
X87950000Y-91065000D01*
G75*
G02*
X87815000Y-91200000I-135000J0D01*
G01*
X87445000Y-91200000D01*
G75*
G02*
X87310000Y-91065000I0J135000D01*
G01*
X87310000Y-90795000D01*
G75*
G02*
X87445000Y-90660000I135000J0D01*
G01*
G37*
%TD.AperFunction*%
%TD*%
%TO.P,R19,2*%
%TO.N,VBUS*%
%TA.AperFunction,SMDPad,CuDef*%
G36*
G01*
X94927000Y-81548000D02*
X94557000Y-81548000D01*
G75*
G02*
X94422000Y-81413000I0J135000D01*
G01*
X94422000Y-81143000D01*
G75*
G02*
X94557000Y-81008000I135000J0D01*
G01*
X94927000Y-81008000D01*
G75*
G02*
X95062000Y-81143000I0J-135000D01*
G01*
X95062000Y-81413000D01*
G75*
G02*
X94927000Y-81548000I-135000J0D01*
G01*
G37*
%TD.AperFunction*%
%TO.P,R19,1*%
%TO.N,Net-(Q1-Pad1)*%
%TA.AperFunction,SMDPad,CuDef*%
G36*
G01*
X94927000Y-82568000D02*
X94557000Y-82568000D01*
G75*
G02*
X94422000Y-82433000I0J135000D01*
G01*
X94422000Y-82163000D01*
G75*
G02*
X94557000Y-82028000I135000J0D01*
G01*
X94927000Y-82028000D01*
G75*
G02*
X95062000Y-82163000I0J-135000D01*
G01*
X95062000Y-82433000D01*
G75*
G02*
X94927000Y-82568000I-135000J0D01*
G01*
G37*
%TD.AperFunction*%
%TD*%
%TO.P,R18,2*%
%TO.N,+3V3*%
%TA.AperFunction,SMDPad,CuDef*%
G36*
G01*
X90355000Y-88914000D02*
X89985000Y-88914000D01*
G75*
G02*
X89850000Y-88779000I0J135000D01*
G01*
X89850000Y-88509000D01*
G75*
G02*
X89985000Y-88374000I135000J0D01*
G01*
X90355000Y-88374000D01*
G75*
G02*
X90490000Y-88509000I0J-135000D01*
G01*
X90490000Y-88779000D01*
G75*
G02*
X90355000Y-88914000I-135000J0D01*
G01*
G37*
%TD.AperFunction*%
%TO.P,R18,1*%
%TO.N,SCLK*%
%TA.AperFunction,SMDPad,CuDef*%
G36*
G01*
X90355000Y-89934000D02*
X89985000Y-89934000D01*
G75*
G02*
X89850000Y-89799000I0J135000D01*
G01*
X89850000Y-89529000D01*
G75*
G02*
X89985000Y-89394000I135000J0D01*
G01*
X90355000Y-89394000D01*
G75*
G02*
X90490000Y-89529000I0J-135000D01*
G01*
X90490000Y-89799000D01*
G75*
G02*
X90355000Y-89934000I-135000J0D01*
G01*
G37*
%TD.AperFunction*%
%TD*%
%TO.P,R17,2*%
%TO.N,SDA*%
%TA.AperFunction,SMDPad,CuDef*%
G36*
G01*
X88715000Y-89394000D02*
X89085000Y-89394000D01*
G75*
G02*
X89220000Y-89529000I0J-135000D01*
G01*
X89220000Y-89799000D01*
G75*
G02*
X89085000Y-89934000I-135000J0D01*
G01*
X88715000Y-89934000D01*
G75*
G02*
X88580000Y-89799000I0J135000D01*
G01*
X88580000Y-89529000D01*
G75*
G02*
X88715000Y-89394000I135000J0D01*
G01*
G37*
%TD.AperFunction*%
%TO.P,R17,1*%
%TO.N,+3V3*%
%TA.AperFunction,SMDPad,CuDef*%
G36*
G01*
X88715000Y-88374000D02*
X89085000Y-88374000D01*
G75*
G02*
X89220000Y-88509000I0J-135000D01*
G01*
X89220000Y-88779000D01*
G75*
G02*
X89085000Y-88914000I-135000J0D01*
G01*
X88715000Y-88914000D01*
G75*
G02*
X88580000Y-88779000I0J135000D01*
G01*
X88580000Y-88509000D01*
G75*
G02*
X88715000Y-88374000I135000J0D01*
G01*
G37*
%TD.AperFunction*%
%TD*%
%TO.P,R15,2*%
%TO.N,Net-(C27-Pad1)*%
%TA.AperFunction,SMDPad,CuDef*%
G36*
G01*
X89985000Y-91680000D02*
X90355000Y-91680000D01*
G75*
G02*
X90490000Y-91815000I0J-135000D01*
G01*
X90490000Y-92085000D01*
G75*
G02*
X90355000Y-92220000I-135000J0D01*
G01*
X89985000Y-92220000D01*
G75*
G02*
X89850000Y-92085000I0J135000D01*
G01*
X89850000Y-91815000D01*
G75*
G02*
X89985000Y-91680000I135000J0D01*
G01*
G37*
%TD.AperFunction*%
%TO.P,R15,1*%
%TO.N,SCLK*%
%TA.AperFunction,SMDPad,CuDef*%
G36*
G01*
X89985000Y-90660000D02*
X90355000Y-90660000D01*
G75*
G02*
X90490000Y-90795000I0J-135000D01*
G01*
X90490000Y-91065000D01*
G75*
G02*
X90355000Y-91200000I-135000J0D01*
G01*
X89985000Y-91200000D01*
G75*
G02*
X89850000Y-91065000I0J135000D01*
G01*
X89850000Y-90795000D01*
G75*
G02*
X89985000Y-90660000I135000J0D01*
G01*
G37*
%TD.AperFunction*%
%TD*%
%TO.P,R14,2*%
%TO.N,Net-(C22-Pad1)*%
%TA.AperFunction,SMDPad,CuDef*%
G36*
G01*
X88715000Y-91680000D02*
X89085000Y-91680000D01*
G75*
G02*
X89220000Y-91815000I0J-135000D01*
G01*
X89220000Y-92085000D01*
G75*
G02*
X89085000Y-92220000I-135000J0D01*
G01*
X88715000Y-92220000D01*
G75*
G02*
X88580000Y-92085000I0J135000D01*
G01*
X88580000Y-91815000D01*
G75*
G02*
X88715000Y-91680000I135000J0D01*
G01*
G37*
%TD.AperFunction*%
%TO.P,R14,1*%
%TO.N,SDA*%
%TA.AperFunction,SMDPad,CuDef*%
G36*
G01*
X88715000Y-90660000D02*
X89085000Y-90660000D01*
G75*
G02*
X89220000Y-90795000I0J-135000D01*
G01*
X89220000Y-91065000D01*
G75*
G02*
X89085000Y-91200000I-135000J0D01*
G01*
X88715000Y-91200000D01*
G75*
G02*
X88580000Y-91065000I0J135000D01*
G01*
X88580000Y-90795000D01*
G75*
G02*
X88715000Y-90660000I135000J0D01*
G01*
G37*
%TD.AperFunction*%
%TD*%
%TO.P,R13,2*%
%TO.N,GND*%
%TA.AperFunction,SMDPad,CuDef*%
G36*
G01*
X87108000Y-96959000D02*
X87108000Y-96589000D01*
G75*
G02*
X87243000Y-96454000I135000J0D01*
G01*
X87513000Y-96454000D01*
G75*
G02*
X87648000Y-96589000I0J-135000D01*
G01*
X87648000Y-96959000D01*
G75*
G02*
X87513000Y-97094000I-135000J0D01*
G01*
X87243000Y-97094000D01*
G75*
G02*
X87108000Y-96959000I0J135000D01*
G01*
G37*
%TD.AperFunction*%
%TO.P,R13,1*%
%TO.N,MODE*%
%TA.AperFunction,SMDPad,CuDef*%
G36*
G01*
X86088000Y-96959000D02*
X86088000Y-96589000D01*
G75*
G02*
X86223000Y-96454000I135000J0D01*
G01*
X86493000Y-96454000D01*
G75*
G02*
X86628000Y-96589000I0J-135000D01*
G01*
X86628000Y-96959000D01*
G75*
G02*
X86493000Y-97094000I-135000J0D01*
G01*
X86223000Y-97094000D01*
G75*
G02*
X86088000Y-96959000I0J135000D01*
G01*
G37*
%TD.AperFunction*%
%TD*%
%TO.P,R12,2*%
%TO.N,MODE*%
%TA.AperFunction,SMDPad,CuDef*%
G36*
G01*
X86628000Y-97859000D02*
X86628000Y-98229000D01*
G75*
G02*
X86493000Y-98364000I-135000J0D01*
G01*
X86223000Y-98364000D01*
G75*
G02*
X86088000Y-98229000I0J135000D01*
G01*
X86088000Y-97859000D01*
G75*
G02*
X86223000Y-97724000I135000J0D01*
G01*
X86493000Y-97724000D01*
G75*
G02*
X86628000Y-97859000I0J-135000D01*
G01*
G37*
%TD.AperFunction*%
%TO.P,R12,1*%
%TO.N,+3V3*%
%TA.AperFunction,SMDPad,CuDef*%
G36*
G01*
X87648000Y-97859000D02*
X87648000Y-98229000D01*
G75*
G02*
X87513000Y-98364000I-135000J0D01*
G01*
X87243000Y-98364000D01*
G75*
G02*
X87108000Y-98229000I0J135000D01*
G01*
X87108000Y-97859000D01*
G75*
G02*
X87243000Y-97724000I135000J0D01*
G01*
X87513000Y-97724000D01*
G75*
G02*
X87648000Y-97859000I0J-135000D01*
G01*
G37*
%TD.AperFunction*%
%TD*%
%TO.P,R11,2*%
%TO.N,I2S_ADC*%
%TA.AperFunction,SMDPad,CuDef*%
G36*
G01*
X78925000Y-93486000D02*
X78555000Y-93486000D01*
G75*
G02*
X78420000Y-93351000I0J135000D01*
G01*
X78420000Y-93081000D01*
G75*
G02*
X78555000Y-92946000I135000J0D01*
G01*
X78925000Y-92946000D01*
G75*
G02*
X79060000Y-93081000I0J-135000D01*
G01*
X79060000Y-93351000D01*
G75*
G02*
X78925000Y-93486000I-135000J0D01*
G01*
G37*
%TD.AperFunction*%
%TO.P,R11,1*%
%TO.N,Net-(R11-Pad1)*%
%TA.AperFunction,SMDPad,CuDef*%
G36*
G01*
X78925000Y-94506000D02*
X78555000Y-94506000D01*
G75*
G02*
X78420000Y-94371000I0J135000D01*
G01*
X78420000Y-94101000D01*
G75*
G02*
X78555000Y-93966000I135000J0D01*
G01*
X78925000Y-93966000D01*
G75*
G02*
X79060000Y-94101000I0J-135000D01*
G01*
X79060000Y-94371000D01*
G75*
G02*
X78925000Y-94506000I-135000J0D01*
G01*
G37*
%TD.AperFunction*%
%TD*%
%TO.P,R10,2*%
%TO.N,I2S_DAC*%
%TA.AperFunction,SMDPad,CuDef*%
G36*
G01*
X81465000Y-93486000D02*
X81095000Y-93486000D01*
G75*
G02*
X80960000Y-93351000I0J135000D01*
G01*
X80960000Y-93081000D01*
G75*
G02*
X81095000Y-92946000I135000J0D01*
G01*
X81465000Y-92946000D01*
G75*
G02*
X81600000Y-93081000I0J-135000D01*
G01*
X81600000Y-93351000D01*
G75*
G02*
X81465000Y-93486000I-135000J0D01*
G01*
G37*
%TD.AperFunction*%
%TO.P,R10,1*%
%TO.N,Net-(R10-Pad1)*%
%TA.AperFunction,SMDPad,CuDef*%
G36*
G01*
X81465000Y-94506000D02*
X81095000Y-94506000D01*
G75*
G02*
X80960000Y-94371000I0J135000D01*
G01*
X80960000Y-94101000D01*
G75*
G02*
X81095000Y-93966000I135000J0D01*
G01*
X81465000Y-93966000D01*
G75*
G02*
X81600000Y-94101000I0J-135000D01*
G01*
X81600000Y-94371000D01*
G75*
G02*
X81465000Y-94506000I-135000J0D01*
G01*
G37*
%TD.AperFunction*%
%TD*%
%TO.P,R9,2*%
%TO.N,I2S_LRCLK*%
%TA.AperFunction,SMDPad,CuDef*%
G36*
G01*
X80195000Y-93486000D02*
X79825000Y-93486000D01*
G75*
G02*
X79690000Y-93351000I0J135000D01*
G01*
X79690000Y-93081000D01*
G75*
G02*
X79825000Y-92946000I135000J0D01*
G01*
X80195000Y-92946000D01*
G75*
G02*
X80330000Y-93081000I0J-135000D01*
G01*
X80330000Y-93351000D01*
G75*
G02*
X80195000Y-93486000I-135000J0D01*
G01*
G37*
%TD.AperFunction*%
%TO.P,R9,1*%
%TO.N,Net-(R9-Pad1)*%
%TA.AperFunction,SMDPad,CuDef*%
G36*
G01*
X80195000Y-94506000D02*
X79825000Y-94506000D01*
G75*
G02*
X79690000Y-94371000I0J135000D01*
G01*
X79690000Y-94101000D01*
G75*
G02*
X79825000Y-93966000I135000J0D01*
G01*
X80195000Y-93966000D01*
G75*
G02*
X80330000Y-94101000I0J-135000D01*
G01*
X80330000Y-94371000D01*
G75*
G02*
X80195000Y-94506000I-135000J0D01*
G01*
G37*
%TD.AperFunction*%
%TD*%
%TO.P,R8,2*%
%TO.N,I2S_BCLK*%
%TA.AperFunction,SMDPad,CuDef*%
G36*
G01*
X82735000Y-93486000D02*
X82365000Y-93486000D01*
G75*
G02*
X82230000Y-93351000I0J135000D01*
G01*
X82230000Y-93081000D01*
G75*
G02*
X82365000Y-92946000I135000J0D01*
G01*
X82735000Y-92946000D01*
G75*
G02*
X82870000Y-93081000I0J-135000D01*
G01*
X82870000Y-93351000D01*
G75*
G02*
X82735000Y-93486000I-135000J0D01*
G01*
G37*
%TD.AperFunction*%
%TO.P,R8,1*%
%TO.N,Net-(R8-Pad1)*%
%TA.AperFunction,SMDPad,CuDef*%
G36*
G01*
X82735000Y-94506000D02*
X82365000Y-94506000D01*
G75*
G02*
X82230000Y-94371000I0J135000D01*
G01*
X82230000Y-94101000D01*
G75*
G02*
X82365000Y-93966000I135000J0D01*
G01*
X82735000Y-93966000D01*
G75*
G02*
X82870000Y-94101000I0J-135000D01*
G01*
X82870000Y-94371000D01*
G75*
G02*
X82735000Y-94506000I-135000J0D01*
G01*
G37*
%TD.AperFunction*%
%TD*%
%TO.P,R7,2*%
%TO.N,MCLK*%
%TA.AperFunction,SMDPad,CuDef*%
G36*
G01*
X87815000Y-93486000D02*
X87445000Y-93486000D01*
G75*
G02*
X87310000Y-93351000I0J135000D01*
G01*
X87310000Y-93081000D01*
G75*
G02*
X87445000Y-92946000I135000J0D01*
G01*
X87815000Y-92946000D01*
G75*
G02*
X87950000Y-93081000I0J-135000D01*
G01*
X87950000Y-93351000D01*
G75*
G02*
X87815000Y-93486000I-135000J0D01*
G01*
G37*
%TD.AperFunction*%
%TO.P,R7,1*%
%TO.N,Net-(R7-Pad1)*%
%TA.AperFunction,SMDPad,CuDef*%
G36*
G01*
X87815000Y-94506000D02*
X87445000Y-94506000D01*
G75*
G02*
X87310000Y-94371000I0J135000D01*
G01*
X87310000Y-94101000D01*
G75*
G02*
X87445000Y-93966000I135000J0D01*
G01*
X87815000Y-93966000D01*
G75*
G02*
X87950000Y-94101000I0J-135000D01*
G01*
X87950000Y-94371000D01*
G75*
G02*
X87815000Y-94506000I-135000J0D01*
G01*
G37*
%TD.AperFunction*%
%TD*%
%TO.P,R6,2*%
%TO.N,+3.3VA*%
%TA.AperFunction,SMDPad,CuDef*%
G36*
G01*
X99808000Y-103817000D02*
X99808000Y-103447000D01*
G75*
G02*
X99943000Y-103312000I135000J0D01*
G01*
X100213000Y-103312000D01*
G75*
G02*
X100348000Y-103447000I0J-135000D01*
G01*
X100348000Y-103817000D01*
G75*
G02*
X100213000Y-103952000I-135000J0D01*
G01*
X99943000Y-103952000D01*
G75*
G02*
X99808000Y-103817000I0J135000D01*
G01*
G37*
%TD.AperFunction*%
%TO.P,R6,1*%
%TO.N,HP_MIC*%
%TA.AperFunction,SMDPad,CuDef*%
G36*
G01*
X98788000Y-103817000D02*
X98788000Y-103447000D01*
G75*
G02*
X98923000Y-103312000I135000J0D01*
G01*
X99193000Y-103312000D01*
G75*
G02*
X99328000Y-103447000I0J-135000D01*
G01*
X99328000Y-103817000D01*
G75*
G02*
X99193000Y-103952000I-135000J0D01*
G01*
X98923000Y-103952000D01*
G75*
G02*
X98788000Y-103817000I0J135000D01*
G01*
G37*
%TD.AperFunction*%
%TD*%
%TO.P,R5,2*%
%TO.N,Net-(IC1-Pad5)*%
%TA.AperFunction,SMDPad,CuDef*%
G36*
G01*
X97975000Y-83959000D02*
X97605000Y-83959000D01*
G75*
G02*
X97470000Y-83824000I0J135000D01*
G01*
X97470000Y-83554000D01*
G75*
G02*
X97605000Y-83419000I135000J0D01*
G01*
X97975000Y-83419000D01*
G75*
G02*
X98110000Y-83554000I0J-135000D01*
G01*
X98110000Y-83824000D01*
G75*
G02*
X97975000Y-83959000I-135000J0D01*
G01*
G37*
%TD.AperFunction*%
%TO.P,R5,1*%
%TO.N,GND*%
%TA.AperFunction,SMDPad,CuDef*%
G36*
G01*
X97975000Y-84979000D02*
X97605000Y-84979000D01*
G75*
G02*
X97470000Y-84844000I0J135000D01*
G01*
X97470000Y-84574000D01*
G75*
G02*
X97605000Y-84439000I135000J0D01*
G01*
X97975000Y-84439000D01*
G75*
G02*
X98110000Y-84574000I0J-135000D01*
G01*
X98110000Y-84844000D01*
G75*
G02*
X97975000Y-84979000I-135000J0D01*
G01*
G37*
%TD.AperFunction*%
%TD*%
%TO.P,R3,2*%
%TO.N,Net-(J1-PadB5)*%
%TA.AperFunction,SMDPad,CuDef*%
G36*
G01*
X98023000Y-78594000D02*
X98573000Y-78594000D01*
G75*
G02*
X98773000Y-78794000I0J-200000D01*
G01*
X98773000Y-79194000D01*
G75*
G02*
X98573000Y-79394000I-200000J0D01*
G01*
X98023000Y-79394000D01*
G75*
G02*
X97823000Y-79194000I0J200000D01*
G01*
X97823000Y-78794000D01*
G75*
G02*
X98023000Y-78594000I200000J0D01*
G01*
G37*
%TD.AperFunction*%
%TO.P,R3,1*%
%TO.N,GND*%
%TA.AperFunction,SMDPad,CuDef*%
G36*
G01*
X98023000Y-76944000D02*
X98573000Y-76944000D01*
G75*
G02*
X98773000Y-77144000I0J-200000D01*
G01*
X98773000Y-77544000D01*
G75*
G02*
X98573000Y-77744000I-200000J0D01*
G01*
X98023000Y-77744000D01*
G75*
G02*
X97823000Y-77544000I0J200000D01*
G01*
X97823000Y-77144000D01*
G75*
G02*
X98023000Y-76944000I200000J0D01*
G01*
G37*
%TD.AperFunction*%
%TD*%
%TO.P,R2,2*%
%TO.N,Net-(J1-PadA5)*%
%TA.AperFunction,SMDPad,CuDef*%
G36*
G01*
X96245000Y-78594000D02*
X96795000Y-78594000D01*
G75*
G02*
X96995000Y-78794000I0J-200000D01*
G01*
X96995000Y-79194000D01*
G75*
G02*
X96795000Y-79394000I-200000J0D01*
G01*
X96245000Y-79394000D01*
G75*
G02*
X96045000Y-79194000I0J200000D01*
G01*
X96045000Y-78794000D01*
G75*
G02*
X96245000Y-78594000I200000J0D01*
G01*
G37*
%TD.AperFunction*%
%TO.P,R2,1*%
%TO.N,GND*%
%TA.AperFunction,SMDPad,CuDef*%
G36*
G01*
X96245000Y-76944000D02*
X96795000Y-76944000D01*
G75*
G02*
X96995000Y-77144000I0J-200000D01*
G01*
X96995000Y-77544000D01*
G75*
G02*
X96795000Y-77744000I-200000J0D01*
G01*
X96245000Y-77744000D01*
G75*
G02*
X96045000Y-77544000I0J200000D01*
G01*
X96045000Y-77144000D01*
G75*
G02*
X96245000Y-76944000I200000J0D01*
G01*
G37*
%TD.AperFunction*%
%TD*%
%TO.P,R1,2*%
%TO.N,+3V3*%
%TA.AperFunction,SMDPad,CuDef*%
G36*
G01*
X63994000Y-88069000D02*
X63994000Y-87699000D01*
G75*
G02*
X64129000Y-87564000I135000J0D01*
G01*
X64399000Y-87564000D01*
G75*
G02*
X64534000Y-87699000I0J-135000D01*
G01*
X64534000Y-88069000D01*
G75*
G02*
X64399000Y-88204000I-135000J0D01*
G01*
X64129000Y-88204000D01*
G75*
G02*
X63994000Y-88069000I0J135000D01*
G01*
G37*
%TD.AperFunction*%
%TO.P,R1,1*%
%TO.N,Reset*%
%TA.AperFunction,SMDPad,CuDef*%
G36*
G01*
X62974000Y-88069000D02*
X62974000Y-87699000D01*
G75*
G02*
X63109000Y-87564000I135000J0D01*
G01*
X63379000Y-87564000D01*
G75*
G02*
X63514000Y-87699000I0J-135000D01*
G01*
X63514000Y-88069000D01*
G75*
G02*
X63379000Y-88204000I-135000J0D01*
G01*
X63109000Y-88204000D01*
G75*
G02*
X62974000Y-88069000I0J135000D01*
G01*
G37*
%TD.AperFunction*%
%TD*%
D18*
%TO.P,Q1,3*%
%TO.N,VBAT*%
X96250000Y-85019000D03*
%TO.P,Q1,2*%
%TO.N,Net-(C4-Pad1)*%
X94250000Y-85969000D03*
%TO.P,Q1,1*%
%TO.N,Net-(Q1-Pad1)*%
X94250000Y-84069000D03*
%TD*%
%TO.P,L2,2*%
%TO.N,GND*%
%TA.AperFunction,SMDPad,CuDef*%
G36*
G01*
X83756000Y-78150500D02*
X83756000Y-77805500D01*
G75*
G02*
X83903500Y-77658000I147500J0D01*
G01*
X84198500Y-77658000D01*
G75*
G02*
X84346000Y-77805500I0J-147500D01*
G01*
X84346000Y-78150500D01*
G75*
G02*
X84198500Y-78298000I-147500J0D01*
G01*
X83903500Y-78298000D01*
G75*
G02*
X83756000Y-78150500I0J147500D01*
G01*
G37*
%TD.AperFunction*%
%TO.P,L2,1*%
%TO.N,Ant*%
%TA.AperFunction,SMDPad,CuDef*%
G36*
G01*
X82786000Y-78150500D02*
X82786000Y-77805500D01*
G75*
G02*
X82933500Y-77658000I147500J0D01*
G01*
X83228500Y-77658000D01*
G75*
G02*
X83376000Y-77805500I0J-147500D01*
G01*
X83376000Y-78150500D01*
G75*
G02*
X83228500Y-78298000I-147500J0D01*
G01*
X82933500Y-78298000D01*
G75*
G02*
X82786000Y-78150500I0J147500D01*
G01*
G37*
%TD.AperFunction*%
%TD*%
%TO.P,L1,2*%
%TO.N,GND*%
%TA.AperFunction,SMDPad,CuDef*%
G36*
G01*
X80074000Y-79075500D02*
X80074000Y-79420500D01*
G75*
G02*
X79926500Y-79568000I-147500J0D01*
G01*
X79631500Y-79568000D01*
G75*
G02*
X79484000Y-79420500I0J147500D01*
G01*
X79484000Y-79075500D01*
G75*
G02*
X79631500Y-78928000I147500J0D01*
G01*
X79926500Y-78928000D01*
G75*
G02*
X80074000Y-79075500I0J-147500D01*
G01*
G37*
%TD.AperFunction*%
%TO.P,L1,1*%
%TO.N,Net-(C2-Pad1)*%
%TA.AperFunction,SMDPad,CuDef*%
G36*
G01*
X81044000Y-79075500D02*
X81044000Y-79420500D01*
G75*
G02*
X80896500Y-79568000I-147500J0D01*
G01*
X80601500Y-79568000D01*
G75*
G02*
X80454000Y-79420500I0J147500D01*
G01*
X80454000Y-79075500D01*
G75*
G02*
X80601500Y-78928000I147500J0D01*
G01*
X80896500Y-78928000D01*
G75*
G02*
X81044000Y-79075500I0J-147500D01*
G01*
G37*
%TD.AperFunction*%
%TD*%
D19*
%TO.P,J3,3*%
%TO.N,LINEIN_L*%
X83312000Y-107442000D03*
%TO.P,J3,2*%
%TO.N,LINEIN_R*%
X80772000Y-107442000D03*
D20*
%TO.P,J3,1*%
%TO.N,GNDA*%
X78232000Y-107442000D03*
%TD*%
D21*
%TO.P,J1,S1*%
%TO.N,GND*%
X92708000Y-81534000D03*
%TO.P,J1,S2*%
X101348000Y-81534000D03*
%TO.P,J1,S3*%
X92708000Y-77734000D03*
%TO.P,J1,S4*%
X101348000Y-77734000D03*
%TD*%
D22*
%TO.P,IC1,5*%
%TO.N,Net-(IC1-Pad5)*%
X99502000Y-84044000D03*
%TO.P,IC1,4*%
%TO.N,VBUS*%
X101402000Y-84044000D03*
%TO.P,IC1,3*%
%TO.N,VBAT*%
X101402000Y-86644000D03*
%TO.P,IC1,2*%
%TO.N,GND*%
X100452000Y-86644000D03*
%TO.P,IC1,1*%
%TO.N,Net-(IC1-Pad1)*%
X99502000Y-86644000D03*
%TD*%
D23*
%TO.P,E1,1*%
%TO.N,GND*%
X79248000Y-77470000D03*
%TO.P,E1,2*%
%TO.N,Net-(C2-Pad1)*%
X81448000Y-77470000D03*
%TO.P,E1,4*%
%TO.N,N/C*%
X89948000Y-81200000D03*
%TO.P,E1,3*%
X79248000Y-81200000D03*
%TD*%
%TO.P,D4,2*%
%TO.N,STATUS_LED*%
%TA.AperFunction,SMDPad,CuDef*%
G36*
G01*
X88648250Y-84399000D02*
X88135750Y-84399000D01*
G75*
G02*
X87917000Y-84180250I0J218750D01*
G01*
X87917000Y-83742750D01*
G75*
G02*
X88135750Y-83524000I218750J0D01*
G01*
X88648250Y-83524000D01*
G75*
G02*
X88867000Y-83742750I0J-218750D01*
G01*
X88867000Y-84180250D01*
G75*
G02*
X88648250Y-84399000I-218750J0D01*
G01*
G37*
%TD.AperFunction*%
%TO.P,D4,1*%
%TO.N,Net-(D4-Pad1)*%
%TA.AperFunction,SMDPad,CuDef*%
G36*
G01*
X88648250Y-85974000D02*
X88135750Y-85974000D01*
G75*
G02*
X87917000Y-85755250I0J218750D01*
G01*
X87917000Y-85317750D01*
G75*
G02*
X88135750Y-85099000I218750J0D01*
G01*
X88648250Y-85099000D01*
G75*
G02*
X88867000Y-85317750I0J-218750D01*
G01*
X88867000Y-85755250D01*
G75*
G02*
X88648250Y-85974000I-218750J0D01*
G01*
G37*
%TD.AperFunction*%
%TD*%
D24*
%TO.P,D2,2*%
%TO.N,VBUS*%
X91948000Y-83948000D03*
%TO.P,D2,1*%
%TO.N,Net-(C4-Pad1)*%
X91948000Y-87248000D03*
%TD*%
%TO.P,D1,2*%
%TO.N,VBUS*%
%TA.AperFunction,SMDPad,CuDef*%
G36*
G01*
X94485750Y-78582000D02*
X94998250Y-78582000D01*
G75*
G02*
X95217000Y-78800750I0J-218750D01*
G01*
X95217000Y-79238250D01*
G75*
G02*
X94998250Y-79457000I-218750J0D01*
G01*
X94485750Y-79457000D01*
G75*
G02*
X94267000Y-79238250I0J218750D01*
G01*
X94267000Y-78800750D01*
G75*
G02*
X94485750Y-78582000I218750J0D01*
G01*
G37*
%TD.AperFunction*%
%TO.P,D1,1*%
%TO.N,Net-(D1-Pad1)*%
%TA.AperFunction,SMDPad,CuDef*%
G36*
G01*
X94485750Y-77007000D02*
X94998250Y-77007000D01*
G75*
G02*
X95217000Y-77225750I0J-218750D01*
G01*
X95217000Y-77663250D01*
G75*
G02*
X94998250Y-77882000I-218750J0D01*
G01*
X94485750Y-77882000D01*
G75*
G02*
X94267000Y-77663250I0J218750D01*
G01*
X94267000Y-77225750D01*
G75*
G02*
X94485750Y-77007000I218750J0D01*
G01*
G37*
%TD.AperFunction*%
%TD*%
%TO.P,C29,2*%
%TO.N,HP_L*%
%TA.AperFunction,SMDPad,CuDef*%
G36*
G01*
X80402000Y-103012001D02*
X80402000Y-101711999D01*
G75*
G02*
X80651999Y-101462000I249999J0D01*
G01*
X81302001Y-101462000D01*
G75*
G02*
X81552000Y-101711999I0J-249999D01*
G01*
X81552000Y-103012001D01*
G75*
G02*
X81302001Y-103262000I-249999J0D01*
G01*
X80651999Y-103262000D01*
G75*
G02*
X80402000Y-103012001I0J249999D01*
G01*
G37*
%TD.AperFunction*%
%TO.P,C29,1*%
%TO.N,Net-(C29-Pad1)*%
%TA.AperFunction,SMDPad,CuDef*%
G36*
G01*
X77452000Y-103012001D02*
X77452000Y-101711999D01*
G75*
G02*
X77701999Y-101462000I249999J0D01*
G01*
X78352001Y-101462000D01*
G75*
G02*
X78602000Y-101711999I0J-249999D01*
G01*
X78602000Y-103012001D01*
G75*
G02*
X78352001Y-103262000I-249999J0D01*
G01*
X77701999Y-103262000D01*
G75*
G02*
X77452000Y-103012001I0J249999D01*
G01*
G37*
%TD.AperFunction*%
%TD*%
%TO.P,C28,2*%
%TO.N,HP_R*%
%TA.AperFunction,SMDPad,CuDef*%
G36*
G01*
X80402000Y-105552001D02*
X80402000Y-104251999D01*
G75*
G02*
X80651999Y-104002000I249999J0D01*
G01*
X81302001Y-104002000D01*
G75*
G02*
X81552000Y-104251999I0J-249999D01*
G01*
X81552000Y-105552001D01*
G75*
G02*
X81302001Y-105802000I-249999J0D01*
G01*
X80651999Y-105802000D01*
G75*
G02*
X80402000Y-105552001I0J249999D01*
G01*
G37*
%TD.AperFunction*%
%TO.P,C28,1*%
%TO.N,Net-(C28-Pad1)*%
%TA.AperFunction,SMDPad,CuDef*%
G36*
G01*
X77452000Y-105552001D02*
X77452000Y-104251999D01*
G75*
G02*
X77701999Y-104002000I249999J0D01*
G01*
X78352001Y-104002000D01*
G75*
G02*
X78602000Y-104251999I0J-249999D01*
G01*
X78602000Y-105552001D01*
G75*
G02*
X78352001Y-105802000I-249999J0D01*
G01*
X77701999Y-105802000D01*
G75*
G02*
X77452000Y-105552001I0J249999D01*
G01*
G37*
%TD.AperFunction*%
%TD*%
%TO.P,C27,2*%
%TO.N,GND*%
%TA.AperFunction,SMDPad,CuDef*%
G36*
G01*
X90000000Y-93926000D02*
X90340000Y-93926000D01*
G75*
G02*
X90480000Y-94066000I0J-140000D01*
G01*
X90480000Y-94346000D01*
G75*
G02*
X90340000Y-94486000I-140000J0D01*
G01*
X90000000Y-94486000D01*
G75*
G02*
X89860000Y-94346000I0J140000D01*
G01*
X89860000Y-94066000D01*
G75*
G02*
X90000000Y-93926000I140000J0D01*
G01*
G37*
%TD.AperFunction*%
%TO.P,C27,1*%
%TO.N,Net-(C27-Pad1)*%
%TA.AperFunction,SMDPad,CuDef*%
G36*
G01*
X90000000Y-92966000D02*
X90340000Y-92966000D01*
G75*
G02*
X90480000Y-93106000I0J-140000D01*
G01*
X90480000Y-93386000D01*
G75*
G02*
X90340000Y-93526000I-140000J0D01*
G01*
X90000000Y-93526000D01*
G75*
G02*
X89860000Y-93386000I0J140000D01*
G01*
X89860000Y-93106000D01*
G75*
G02*
X90000000Y-92966000I140000J0D01*
G01*
G37*
%TD.AperFunction*%
%TD*%
%TO.P,C26,2*%
%TO.N,Net-(C26-Pad2)*%
%TA.AperFunction,SMDPad,CuDef*%
G36*
G01*
X86668000Y-99144000D02*
X86668000Y-99484000D01*
G75*
G02*
X86528000Y-99624000I-140000J0D01*
G01*
X86248000Y-99624000D01*
G75*
G02*
X86108000Y-99484000I0J140000D01*
G01*
X86108000Y-99144000D01*
G75*
G02*
X86248000Y-99004000I140000J0D01*
G01*
X86528000Y-99004000D01*
G75*
G02*
X86668000Y-99144000I0J-140000D01*
G01*
G37*
%TD.AperFunction*%
%TO.P,C26,1*%
%TO.N,LINEIN_L*%
%TA.AperFunction,SMDPad,CuDef*%
G36*
G01*
X87628000Y-99144000D02*
X87628000Y-99484000D01*
G75*
G02*
X87488000Y-99624000I-140000J0D01*
G01*
X87208000Y-99624000D01*
G75*
G02*
X87068000Y-99484000I0J140000D01*
G01*
X87068000Y-99144000D01*
G75*
G02*
X87208000Y-99004000I140000J0D01*
G01*
X87488000Y-99004000D01*
G75*
G02*
X87628000Y-99144000I0J-140000D01*
G01*
G37*
%TD.AperFunction*%
%TD*%
%TO.P,C25,2*%
%TO.N,Net-(C25-Pad2)*%
%TA.AperFunction,SMDPad,CuDef*%
G36*
G01*
X86668000Y-100414000D02*
X86668000Y-100754000D01*
G75*
G02*
X86528000Y-100894000I-140000J0D01*
G01*
X86248000Y-100894000D01*
G75*
G02*
X86108000Y-100754000I0J140000D01*
G01*
X86108000Y-100414000D01*
G75*
G02*
X86248000Y-100274000I140000J0D01*
G01*
X86528000Y-100274000D01*
G75*
G02*
X86668000Y-100414000I0J-140000D01*
G01*
G37*
%TD.AperFunction*%
%TO.P,C25,1*%
%TO.N,LINEIN_R*%
%TA.AperFunction,SMDPad,CuDef*%
G36*
G01*
X87628000Y-100414000D02*
X87628000Y-100754000D01*
G75*
G02*
X87488000Y-100894000I-140000J0D01*
G01*
X87208000Y-100894000D01*
G75*
G02*
X87068000Y-100754000I0J140000D01*
G01*
X87068000Y-100414000D01*
G75*
G02*
X87208000Y-100274000I140000J0D01*
G01*
X87488000Y-100274000D01*
G75*
G02*
X87628000Y-100414000I0J-140000D01*
G01*
G37*
%TD.AperFunction*%
%TD*%
%TO.P,C24,2*%
%TO.N,Net-(C24-Pad2)*%
%TA.AperFunction,SMDPad,CuDef*%
G36*
G01*
X99796000Y-102532000D02*
X99796000Y-102192000D01*
G75*
G02*
X99936000Y-102052000I140000J0D01*
G01*
X100216000Y-102052000D01*
G75*
G02*
X100356000Y-102192000I0J-140000D01*
G01*
X100356000Y-102532000D01*
G75*
G02*
X100216000Y-102672000I-140000J0D01*
G01*
X99936000Y-102672000D01*
G75*
G02*
X99796000Y-102532000I0J140000D01*
G01*
G37*
%TD.AperFunction*%
%TO.P,C24,1*%
%TO.N,HP_MIC*%
%TA.AperFunction,SMDPad,CuDef*%
G36*
G01*
X98836000Y-102532000D02*
X98836000Y-102192000D01*
G75*
G02*
X98976000Y-102052000I140000J0D01*
G01*
X99256000Y-102052000D01*
G75*
G02*
X99396000Y-102192000I0J-140000D01*
G01*
X99396000Y-102532000D01*
G75*
G02*
X99256000Y-102672000I-140000J0D01*
G01*
X98976000Y-102672000D01*
G75*
G02*
X98836000Y-102532000I0J140000D01*
G01*
G37*
%TD.AperFunction*%
%TD*%
%TO.P,C22,2*%
%TO.N,GND*%
%TA.AperFunction,SMDPad,CuDef*%
G36*
G01*
X88730000Y-93926000D02*
X89070000Y-93926000D01*
G75*
G02*
X89210000Y-94066000I0J-140000D01*
G01*
X89210000Y-94346000D01*
G75*
G02*
X89070000Y-94486000I-140000J0D01*
G01*
X88730000Y-94486000D01*
G75*
G02*
X88590000Y-94346000I0J140000D01*
G01*
X88590000Y-94066000D01*
G75*
G02*
X88730000Y-93926000I140000J0D01*
G01*
G37*
%TD.AperFunction*%
%TO.P,C22,1*%
%TO.N,Net-(C22-Pad1)*%
%TA.AperFunction,SMDPad,CuDef*%
G36*
G01*
X88730000Y-92966000D02*
X89070000Y-92966000D01*
G75*
G02*
X89210000Y-93106000I0J-140000D01*
G01*
X89210000Y-93386000D01*
G75*
G02*
X89070000Y-93526000I-140000J0D01*
G01*
X88730000Y-93526000D01*
G75*
G02*
X88590000Y-93386000I0J140000D01*
G01*
X88590000Y-93106000D01*
G75*
G02*
X88730000Y-92966000I140000J0D01*
G01*
G37*
%TD.AperFunction*%
%TD*%
%TO.P,C20,2*%
%TO.N,GNDA*%
%TA.AperFunction,SMDPad,CuDef*%
G36*
G01*
X82634000Y-104086000D02*
X82974000Y-104086000D01*
G75*
G02*
X83114000Y-104226000I0J-140000D01*
G01*
X83114000Y-104506000D01*
G75*
G02*
X82974000Y-104646000I-140000J0D01*
G01*
X82634000Y-104646000D01*
G75*
G02*
X82494000Y-104506000I0J140000D01*
G01*
X82494000Y-104226000D01*
G75*
G02*
X82634000Y-104086000I140000J0D01*
G01*
G37*
%TD.AperFunction*%
%TO.P,C20,1*%
%TO.N,+3.3VA*%
%TA.AperFunction,SMDPad,CuDef*%
G36*
G01*
X82634000Y-103126000D02*
X82974000Y-103126000D01*
G75*
G02*
X83114000Y-103266000I0J-140000D01*
G01*
X83114000Y-103546000D01*
G75*
G02*
X82974000Y-103686000I-140000J0D01*
G01*
X82634000Y-103686000D01*
G75*
G02*
X82494000Y-103546000I0J140000D01*
G01*
X82494000Y-103266000D01*
G75*
G02*
X82634000Y-103126000I140000J0D01*
G01*
G37*
%TD.AperFunction*%
%TD*%
%TO.P,C18,2*%
%TO.N,GNDA*%
%TA.AperFunction,SMDPad,CuDef*%
G36*
G01*
X84782000Y-104564000D02*
X84782000Y-104224000D01*
G75*
G02*
X84922000Y-104084000I140000J0D01*
G01*
X85202000Y-104084000D01*
G75*
G02*
X85342000Y-104224000I0J-140000D01*
G01*
X85342000Y-104564000D01*
G75*
G02*
X85202000Y-104704000I-140000J0D01*
G01*
X84922000Y-104704000D01*
G75*
G02*
X84782000Y-104564000I0J140000D01*
G01*
G37*
%TD.AperFunction*%
%TO.P,C18,1*%
%TO.N,+3.3VA*%
%TA.AperFunction,SMDPad,CuDef*%
G36*
G01*
X83822000Y-104564000D02*
X83822000Y-104224000D01*
G75*
G02*
X83962000Y-104084000I140000J0D01*
G01*
X84242000Y-104084000D01*
G75*
G02*
X84382000Y-104224000I0J-140000D01*
G01*
X84382000Y-104564000D01*
G75*
G02*
X84242000Y-104704000I-140000J0D01*
G01*
X83962000Y-104704000D01*
G75*
G02*
X83822000Y-104564000I0J140000D01*
G01*
G37*
%TD.AperFunction*%
%TD*%
%TO.P,C17,2*%
%TO.N,GNDA*%
%TA.AperFunction,SMDPad,CuDef*%
G36*
G01*
X87068000Y-102024000D02*
X87068000Y-101684000D01*
G75*
G02*
X87208000Y-101544000I140000J0D01*
G01*
X87488000Y-101544000D01*
G75*
G02*
X87628000Y-101684000I0J-140000D01*
G01*
X87628000Y-102024000D01*
G75*
G02*
X87488000Y-102164000I-140000J0D01*
G01*
X87208000Y-102164000D01*
G75*
G02*
X87068000Y-102024000I0J140000D01*
G01*
G37*
%TD.AperFunction*%
%TO.P,C17,1*%
%TO.N,VMID*%
%TA.AperFunction,SMDPad,CuDef*%
G36*
G01*
X86108000Y-102024000D02*
X86108000Y-101684000D01*
G75*
G02*
X86248000Y-101544000I140000J0D01*
G01*
X86528000Y-101544000D01*
G75*
G02*
X86668000Y-101684000I0J-140000D01*
G01*
X86668000Y-102024000D01*
G75*
G02*
X86528000Y-102164000I-140000J0D01*
G01*
X86248000Y-102164000D01*
G75*
G02*
X86108000Y-102024000I0J140000D01*
G01*
G37*
%TD.AperFunction*%
%TD*%
%TO.P,C16,2*%
%TO.N,GNDA*%
%TA.AperFunction,SMDPad,CuDef*%
G36*
G01*
X84754000Y-103294000D02*
X84754000Y-102954000D01*
G75*
G02*
X84894000Y-102814000I140000J0D01*
G01*
X85174000Y-102814000D01*
G75*
G02*
X85314000Y-102954000I0J-140000D01*
G01*
X85314000Y-103294000D01*
G75*
G02*
X85174000Y-103434000I-140000J0D01*
G01*
X84894000Y-103434000D01*
G75*
G02*
X84754000Y-103294000I0J140000D01*
G01*
G37*
%TD.AperFunction*%
%TO.P,C16,1*%
%TO.N,ADCVREF*%
%TA.AperFunction,SMDPad,CuDef*%
G36*
G01*
X83794000Y-103294000D02*
X83794000Y-102954000D01*
G75*
G02*
X83934000Y-102814000I140000J0D01*
G01*
X84214000Y-102814000D01*
G75*
G02*
X84354000Y-102954000I0J-140000D01*
G01*
X84354000Y-103294000D01*
G75*
G02*
X84214000Y-103434000I-140000J0D01*
G01*
X83934000Y-103434000D01*
G75*
G02*
X83794000Y-103294000I0J140000D01*
G01*
G37*
%TD.AperFunction*%
%TD*%
%TO.P,C15,2*%
%TO.N,GND*%
%TA.AperFunction,SMDPad,CuDef*%
G36*
G01*
X77640000Y-97082000D02*
X77300000Y-97082000D01*
G75*
G02*
X77160000Y-96942000I0J140000D01*
G01*
X77160000Y-96662000D01*
G75*
G02*
X77300000Y-96522000I140000J0D01*
G01*
X77640000Y-96522000D01*
G75*
G02*
X77780000Y-96662000I0J-140000D01*
G01*
X77780000Y-96942000D01*
G75*
G02*
X77640000Y-97082000I-140000J0D01*
G01*
G37*
%TD.AperFunction*%
%TO.P,C15,1*%
%TO.N,VREF*%
%TA.AperFunction,SMDPad,CuDef*%
G36*
G01*
X77640000Y-98042000D02*
X77300000Y-98042000D01*
G75*
G02*
X77160000Y-97902000I0J140000D01*
G01*
X77160000Y-97622000D01*
G75*
G02*
X77300000Y-97482000I140000J0D01*
G01*
X77640000Y-97482000D01*
G75*
G02*
X77780000Y-97622000I0J-140000D01*
G01*
X77780000Y-97902000D01*
G75*
G02*
X77640000Y-98042000I-140000J0D01*
G01*
G37*
%TD.AperFunction*%
%TD*%
%TO.P,C13,2*%
%TO.N,GND*%
%TA.AperFunction,SMDPad,CuDef*%
G36*
G01*
X85260000Y-93526000D02*
X84920000Y-93526000D01*
G75*
G02*
X84780000Y-93386000I0J140000D01*
G01*
X84780000Y-93106000D01*
G75*
G02*
X84920000Y-92966000I140000J0D01*
G01*
X85260000Y-92966000D01*
G75*
G02*
X85400000Y-93106000I0J-140000D01*
G01*
X85400000Y-93386000D01*
G75*
G02*
X85260000Y-93526000I-140000J0D01*
G01*
G37*
%TD.AperFunction*%
%TO.P,C13,1*%
%TO.N,+3V3*%
%TA.AperFunction,SMDPad,CuDef*%
G36*
G01*
X85260000Y-94486000D02*
X84920000Y-94486000D01*
G75*
G02*
X84780000Y-94346000I0J140000D01*
G01*
X84780000Y-94066000D01*
G75*
G02*
X84920000Y-93926000I140000J0D01*
G01*
X85260000Y-93926000D01*
G75*
G02*
X85400000Y-94066000I0J-140000D01*
G01*
X85400000Y-94346000D01*
G75*
G02*
X85260000Y-94486000I-140000J0D01*
G01*
G37*
%TD.AperFunction*%
%TD*%
%TO.P,C12,2*%
%TO.N,GND*%
%TA.AperFunction,SMDPad,CuDef*%
G36*
G01*
X99992000Y-78512000D02*
X99652000Y-78512000D01*
G75*
G02*
X99512000Y-78372000I0J140000D01*
G01*
X99512000Y-78092000D01*
G75*
G02*
X99652000Y-77952000I140000J0D01*
G01*
X99992000Y-77952000D01*
G75*
G02*
X100132000Y-78092000I0J-140000D01*
G01*
X100132000Y-78372000D01*
G75*
G02*
X99992000Y-78512000I-140000J0D01*
G01*
G37*
%TD.AperFunction*%
%TO.P,C12,1*%
%TO.N,VBUS*%
%TA.AperFunction,SMDPad,CuDef*%
G36*
G01*
X99992000Y-79472000D02*
X99652000Y-79472000D01*
G75*
G02*
X99512000Y-79332000I0J140000D01*
G01*
X99512000Y-79052000D01*
G75*
G02*
X99652000Y-78912000I140000J0D01*
G01*
X99992000Y-78912000D01*
G75*
G02*
X100132000Y-79052000I0J-140000D01*
G01*
X100132000Y-79332000D01*
G75*
G02*
X99992000Y-79472000I-140000J0D01*
G01*
G37*
%TD.AperFunction*%
%TD*%
%TO.P,C11,2*%
%TO.N,GND*%
%TA.AperFunction,SMDPad,CuDef*%
G36*
G01*
X77386000Y-86160000D02*
X77046000Y-86160000D01*
G75*
G02*
X76906000Y-86020000I0J140000D01*
G01*
X76906000Y-85740000D01*
G75*
G02*
X77046000Y-85600000I140000J0D01*
G01*
X77386000Y-85600000D01*
G75*
G02*
X77526000Y-85740000I0J-140000D01*
G01*
X77526000Y-86020000D01*
G75*
G02*
X77386000Y-86160000I-140000J0D01*
G01*
G37*
%TD.AperFunction*%
%TO.P,C11,1*%
%TO.N,+3V3*%
%TA.AperFunction,SMDPad,CuDef*%
G36*
G01*
X77386000Y-87120000D02*
X77046000Y-87120000D01*
G75*
G02*
X76906000Y-86980000I0J140000D01*
G01*
X76906000Y-86700000D01*
G75*
G02*
X77046000Y-86560000I140000J0D01*
G01*
X77386000Y-86560000D01*
G75*
G02*
X77526000Y-86700000I0J-140000D01*
G01*
X77526000Y-86980000D01*
G75*
G02*
X77386000Y-87120000I-140000J0D01*
G01*
G37*
%TD.AperFunction*%
%TD*%
%TO.P,C10,2*%
%TO.N,GND*%
%TA.AperFunction,SMDPad,CuDef*%
G36*
G01*
X92794000Y-92402000D02*
X93134000Y-92402000D01*
G75*
G02*
X93274000Y-92542000I0J-140000D01*
G01*
X93274000Y-92822000D01*
G75*
G02*
X93134000Y-92962000I-140000J0D01*
G01*
X92794000Y-92962000D01*
G75*
G02*
X92654000Y-92822000I0J140000D01*
G01*
X92654000Y-92542000D01*
G75*
G02*
X92794000Y-92402000I140000J0D01*
G01*
G37*
%TD.AperFunction*%
%TO.P,C10,1*%
%TO.N,+3V3*%
%TA.AperFunction,SMDPad,CuDef*%
G36*
G01*
X92794000Y-91442000D02*
X93134000Y-91442000D01*
G75*
G02*
X93274000Y-91582000I0J-140000D01*
G01*
X93274000Y-91862000D01*
G75*
G02*
X93134000Y-92002000I-140000J0D01*
G01*
X92794000Y-92002000D01*
G75*
G02*
X92654000Y-91862000I0J140000D01*
G01*
X92654000Y-91582000D01*
G75*
G02*
X92794000Y-91442000I140000J0D01*
G01*
G37*
%TD.AperFunction*%
%TD*%
%TO.P,C9,2*%
%TO.N,GND*%
%TA.AperFunction,SMDPad,CuDef*%
G36*
G01*
X77046000Y-88846000D02*
X77386000Y-88846000D01*
G75*
G02*
X77526000Y-88986000I0J-140000D01*
G01*
X77526000Y-89266000D01*
G75*
G02*
X77386000Y-89406000I-140000J0D01*
G01*
X77046000Y-89406000D01*
G75*
G02*
X76906000Y-89266000I0J140000D01*
G01*
X76906000Y-88986000D01*
G75*
G02*
X77046000Y-88846000I140000J0D01*
G01*
G37*
%TD.AperFunction*%
%TO.P,C9,1*%
%TO.N,+3V3*%
%TA.AperFunction,SMDPad,CuDef*%
G36*
G01*
X77046000Y-87886000D02*
X77386000Y-87886000D01*
G75*
G02*
X77526000Y-88026000I0J-140000D01*
G01*
X77526000Y-88306000D01*
G75*
G02*
X77386000Y-88446000I-140000J0D01*
G01*
X77046000Y-88446000D01*
G75*
G02*
X76906000Y-88306000I0J140000D01*
G01*
X76906000Y-88026000D01*
G75*
G02*
X77046000Y-87886000I140000J0D01*
G01*
G37*
%TD.AperFunction*%
%TD*%
%TO.P,C8,2*%
%TO.N,GNDA*%
%TA.AperFunction,SMDPad,CuDef*%
G36*
G01*
X87068000Y-103294000D02*
X87068000Y-102954000D01*
G75*
G02*
X87208000Y-102814000I140000J0D01*
G01*
X87488000Y-102814000D01*
G75*
G02*
X87628000Y-102954000I0J-140000D01*
G01*
X87628000Y-103294000D01*
G75*
G02*
X87488000Y-103434000I-140000J0D01*
G01*
X87208000Y-103434000D01*
G75*
G02*
X87068000Y-103294000I0J140000D01*
G01*
G37*
%TD.AperFunction*%
%TO.P,C8,1*%
%TO.N,VMID*%
%TA.AperFunction,SMDPad,CuDef*%
G36*
G01*
X86108000Y-103294000D02*
X86108000Y-102954000D01*
G75*
G02*
X86248000Y-102814000I140000J0D01*
G01*
X86528000Y-102814000D01*
G75*
G02*
X86668000Y-102954000I0J-140000D01*
G01*
X86668000Y-103294000D01*
G75*
G02*
X86528000Y-103434000I-140000J0D01*
G01*
X86248000Y-103434000D01*
G75*
G02*
X86108000Y-103294000I0J140000D01*
G01*
G37*
%TD.AperFunction*%
%TD*%
%TO.P,C7,2*%
%TO.N,GNDA*%
%TA.AperFunction,SMDPad,CuDef*%
G36*
G01*
X84782000Y-102024000D02*
X84782000Y-101684000D01*
G75*
G02*
X84922000Y-101544000I140000J0D01*
G01*
X85202000Y-101544000D01*
G75*
G02*
X85342000Y-101684000I0J-140000D01*
G01*
X85342000Y-102024000D01*
G75*
G02*
X85202000Y-102164000I-140000J0D01*
G01*
X84922000Y-102164000D01*
G75*
G02*
X84782000Y-102024000I0J140000D01*
G01*
G37*
%TD.AperFunction*%
%TO.P,C7,1*%
%TO.N,ADCVREF*%
%TA.AperFunction,SMDPad,CuDef*%
G36*
G01*
X83822000Y-102024000D02*
X83822000Y-101684000D01*
G75*
G02*
X83962000Y-101544000I140000J0D01*
G01*
X84242000Y-101544000D01*
G75*
G02*
X84382000Y-101684000I0J-140000D01*
G01*
X84382000Y-102024000D01*
G75*
G02*
X84242000Y-102164000I-140000J0D01*
G01*
X83962000Y-102164000D01*
G75*
G02*
X83822000Y-102024000I0J140000D01*
G01*
G37*
%TD.AperFunction*%
%TD*%
%TO.P,C6,2*%
%TO.N,GND*%
%TA.AperFunction,SMDPad,CuDef*%
G36*
G01*
X78910000Y-97082000D02*
X78570000Y-97082000D01*
G75*
G02*
X78430000Y-96942000I0J140000D01*
G01*
X78430000Y-96662000D01*
G75*
G02*
X78570000Y-96522000I140000J0D01*
G01*
X78910000Y-96522000D01*
G75*
G02*
X79050000Y-96662000I0J-140000D01*
G01*
X79050000Y-96942000D01*
G75*
G02*
X78910000Y-97082000I-140000J0D01*
G01*
G37*
%TD.AperFunction*%
%TO.P,C6,1*%
%TO.N,VREF*%
%TA.AperFunction,SMDPad,CuDef*%
G36*
G01*
X78910000Y-98042000D02*
X78570000Y-98042000D01*
G75*
G02*
X78430000Y-97902000I0J140000D01*
G01*
X78430000Y-97622000D01*
G75*
G02*
X78570000Y-97482000I140000J0D01*
G01*
X78910000Y-97482000D01*
G75*
G02*
X79050000Y-97622000I0J-140000D01*
G01*
X79050000Y-97902000D01*
G75*
G02*
X78910000Y-98042000I-140000J0D01*
G01*
G37*
%TD.AperFunction*%
%TD*%
%TO.P,C5,2*%
%TO.N,GND*%
%TA.AperFunction,SMDPad,CuDef*%
G36*
G01*
X83990000Y-93526000D02*
X83650000Y-93526000D01*
G75*
G02*
X83510000Y-93386000I0J140000D01*
G01*
X83510000Y-93106000D01*
G75*
G02*
X83650000Y-92966000I140000J0D01*
G01*
X83990000Y-92966000D01*
G75*
G02*
X84130000Y-93106000I0J-140000D01*
G01*
X84130000Y-93386000D01*
G75*
G02*
X83990000Y-93526000I-140000J0D01*
G01*
G37*
%TD.AperFunction*%
%TO.P,C5,1*%
%TO.N,+3V3*%
%TA.AperFunction,SMDPad,CuDef*%
G36*
G01*
X83990000Y-94486000D02*
X83650000Y-94486000D01*
G75*
G02*
X83510000Y-94346000I0J140000D01*
G01*
X83510000Y-94066000D01*
G75*
G02*
X83650000Y-93926000I140000J0D01*
G01*
X83990000Y-93926000D01*
G75*
G02*
X84130000Y-94066000I0J-140000D01*
G01*
X84130000Y-94346000D01*
G75*
G02*
X83990000Y-94486000I-140000J0D01*
G01*
G37*
%TD.AperFunction*%
%TD*%
%TO.P,C4,2*%
%TO.N,GND*%
%TA.AperFunction,SMDPad,CuDef*%
G36*
G01*
X94688000Y-87800000D02*
X94688000Y-87460000D01*
G75*
G02*
X94828000Y-87320000I140000J0D01*
G01*
X95108000Y-87320000D01*
G75*
G02*
X95248000Y-87460000I0J-140000D01*
G01*
X95248000Y-87800000D01*
G75*
G02*
X95108000Y-87940000I-140000J0D01*
G01*
X94828000Y-87940000D01*
G75*
G02*
X94688000Y-87800000I0J140000D01*
G01*
G37*
%TD.AperFunction*%
%TO.P,C4,1*%
%TO.N,Net-(C4-Pad1)*%
%TA.AperFunction,SMDPad,CuDef*%
G36*
G01*
X93728000Y-87800000D02*
X93728000Y-87460000D01*
G75*
G02*
X93868000Y-87320000I140000J0D01*
G01*
X94148000Y-87320000D01*
G75*
G02*
X94288000Y-87460000I0J-140000D01*
G01*
X94288000Y-87800000D01*
G75*
G02*
X94148000Y-87940000I-140000J0D01*
G01*
X93868000Y-87940000D01*
G75*
G02*
X93728000Y-87800000I0J140000D01*
G01*
G37*
%TD.AperFunction*%
%TD*%
%TO.P,C3,2*%
%TO.N,GND*%
%TA.AperFunction,SMDPad,CuDef*%
G36*
G01*
X94064000Y-92402000D02*
X94404000Y-92402000D01*
G75*
G02*
X94544000Y-92542000I0J-140000D01*
G01*
X94544000Y-92822000D01*
G75*
G02*
X94404000Y-92962000I-140000J0D01*
G01*
X94064000Y-92962000D01*
G75*
G02*
X93924000Y-92822000I0J140000D01*
G01*
X93924000Y-92542000D01*
G75*
G02*
X94064000Y-92402000I140000J0D01*
G01*
G37*
%TD.AperFunction*%
%TO.P,C3,1*%
%TO.N,+3V3*%
%TA.AperFunction,SMDPad,CuDef*%
G36*
G01*
X94064000Y-91442000D02*
X94404000Y-91442000D01*
G75*
G02*
X94544000Y-91582000I0J-140000D01*
G01*
X94544000Y-91862000D01*
G75*
G02*
X94404000Y-92002000I-140000J0D01*
G01*
X94064000Y-92002000D01*
G75*
G02*
X93924000Y-91862000I0J140000D01*
G01*
X93924000Y-91582000D01*
G75*
G02*
X94064000Y-91442000I140000J0D01*
G01*
G37*
%TD.AperFunction*%
%TD*%
%TO.P,C2,2*%
%TO.N,Ant*%
%TA.AperFunction,SMDPad,CuDef*%
G36*
G01*
X82750000Y-79418000D02*
X82750000Y-79078000D01*
G75*
G02*
X82890000Y-78938000I140000J0D01*
G01*
X83170000Y-78938000D01*
G75*
G02*
X83310000Y-79078000I0J-140000D01*
G01*
X83310000Y-79418000D01*
G75*
G02*
X83170000Y-79558000I-140000J0D01*
G01*
X82890000Y-79558000D01*
G75*
G02*
X82750000Y-79418000I0J140000D01*
G01*
G37*
%TD.AperFunction*%
%TO.P,C2,1*%
%TO.N,Net-(C2-Pad1)*%
%TA.AperFunction,SMDPad,CuDef*%
G36*
G01*
X81790000Y-79418000D02*
X81790000Y-79078000D01*
G75*
G02*
X81930000Y-78938000I140000J0D01*
G01*
X82210000Y-78938000D01*
G75*
G02*
X82350000Y-79078000I0J-140000D01*
G01*
X82350000Y-79418000D01*
G75*
G02*
X82210000Y-79558000I-140000J0D01*
G01*
X81930000Y-79558000D01*
G75*
G02*
X81790000Y-79418000I0J140000D01*
G01*
G37*
%TD.AperFunction*%
%TD*%
%TO.P,C1,2*%
%TO.N,GND*%
%TA.AperFunction,SMDPad,CuDef*%
G36*
G01*
X63954000Y-89578000D02*
X63954000Y-89238000D01*
G75*
G02*
X64094000Y-89098000I140000J0D01*
G01*
X64374000Y-89098000D01*
G75*
G02*
X64514000Y-89238000I0J-140000D01*
G01*
X64514000Y-89578000D01*
G75*
G02*
X64374000Y-89718000I-140000J0D01*
G01*
X64094000Y-89718000D01*
G75*
G02*
X63954000Y-89578000I0J140000D01*
G01*
G37*
%TD.AperFunction*%
%TO.P,C1,1*%
%TO.N,Reset*%
%TA.AperFunction,SMDPad,CuDef*%
G36*
G01*
X62994000Y-89578000D02*
X62994000Y-89238000D01*
G75*
G02*
X63134000Y-89098000I140000J0D01*
G01*
X63414000Y-89098000D01*
G75*
G02*
X63554000Y-89238000I0J-140000D01*
G01*
X63554000Y-89578000D01*
G75*
G02*
X63414000Y-89718000I-140000J0D01*
G01*
X63134000Y-89718000D01*
G75*
G02*
X62994000Y-89578000I0J140000D01*
G01*
G37*
%TD.AperFunction*%
%TD*%
D25*
%TO.N,GND*%
X99822000Y-77216000D03*
X99822000Y-80264000D03*
X93726000Y-80264000D03*
X101346000Y-85344000D03*
X98552000Y-84420000D03*
X95758000Y-87884000D03*
X77216000Y-89916000D03*
X77216000Y-85344000D03*
X77470000Y-96266000D03*
%TO.N,+3V3*%
X77862685Y-83997724D03*
D26*
X98552000Y-91694000D03*
D25*
%TO.N,GNDA*%
X79672265Y-99738265D03*
X86106000Y-104394000D03*
D26*
%TO.N,VBUS*%
X94742000Y-80264000D03*
D25*
X98552000Y-80264000D03*
D26*
X100477002Y-84074000D03*
D25*
%TO.N,HP_R*%
X94234000Y-101854000D03*
%TO.N,HP_L*%
X79756000Y-102362000D03*
%TO.N,Net-(J1-PadA5)*%
X96520000Y-80264000D03*
%TO.N,Net-(J1-PadB5)*%
X97536000Y-80264000D03*
%TD*%
D27*
%TO.N,GND*%
X96520000Y-77344000D02*
X98298000Y-77344000D01*
X99694000Y-77344000D02*
X99822000Y-77216000D01*
X98298000Y-77344000D02*
X99694000Y-77344000D01*
X99822000Y-78232000D02*
X99822000Y-77216000D01*
X100452000Y-86238000D02*
X101346000Y-85344000D01*
X100452000Y-86644000D02*
X100452000Y-86238000D01*
X98263000Y-84709000D02*
X98552000Y-84420000D01*
X97790000Y-84709000D02*
X98263000Y-84709000D01*
X95504000Y-87630000D02*
X95758000Y-87884000D01*
X94968000Y-87630000D02*
X95504000Y-87630000D01*
X77216000Y-89126000D02*
X77216000Y-89916000D01*
X77216000Y-85880000D02*
X77216000Y-85344000D01*
X77470000Y-96802000D02*
X77470000Y-96266000D01*
X78740000Y-96802000D02*
X77470000Y-96802000D01*
D28*
%TO.N,Ant*%
X83081000Y-79197000D02*
X83030000Y-79248000D01*
X83081000Y-77978000D02*
X83081000Y-79197000D01*
X77216000Y-84328000D02*
X78014000Y-85126000D01*
X77216000Y-83566000D02*
X77216000Y-84328000D01*
X77851000Y-82931000D02*
X77216000Y-83566000D01*
X78014000Y-85126000D02*
X78890000Y-85126000D01*
X80500302Y-82931000D02*
X77851000Y-82931000D01*
X83030000Y-80401302D02*
X80500302Y-82931000D01*
X83030000Y-79248000D02*
X83030000Y-80401302D01*
%TO.N,Net-(C2-Pad1)*%
X81448000Y-79162000D02*
X81534000Y-79248000D01*
X81448000Y-77470000D02*
X81448000Y-79162000D01*
X81534000Y-79248000D02*
X82070000Y-79248000D01*
X80749000Y-79248000D02*
X81534000Y-79248000D01*
D27*
%TO.N,+3V3*%
X78890000Y-85626000D02*
X78430000Y-85626000D01*
X77998000Y-86126000D02*
X77964000Y-86092000D01*
X78890000Y-86126000D02*
X77998000Y-86126000D01*
X77964000Y-86092000D02*
X77216000Y-86840000D01*
X78430000Y-85626000D02*
X77964000Y-86092000D01*
X77216000Y-86840000D02*
X77216000Y-88166000D01*
X78490961Y-84626000D02*
X77862685Y-83997724D01*
X78890000Y-84626000D02*
X78490961Y-84626000D01*
D29*
X98552000Y-89814000D02*
X98552000Y-91694000D01*
X94262000Y-91694000D02*
X94234000Y-91722000D01*
X98552000Y-91694000D02*
X94262000Y-91694000D01*
X94234000Y-91722000D02*
X92964000Y-91722000D01*
D27*
X85090000Y-94206000D02*
X83820000Y-94206000D01*
D29*
%TO.N,Net-(C4-Pad1)*%
X94008000Y-86211000D02*
X94008000Y-87630000D01*
X94250000Y-85969000D02*
X94008000Y-86211000D01*
X95148000Y-89814000D02*
X96252000Y-89814000D01*
X94008000Y-87630000D02*
X94008000Y-88674000D01*
X92582000Y-87248000D02*
X94615000Y-89281000D01*
X94615000Y-89281000D02*
X95148000Y-89814000D01*
X91948000Y-87248000D02*
X92582000Y-87248000D01*
X94008000Y-88674000D02*
X94615000Y-89281000D01*
D27*
%TO.N,VREF*%
X78826000Y-97848000D02*
X78740000Y-97762000D01*
X80600000Y-97848000D02*
X78826000Y-97848000D01*
X78740000Y-97762000D02*
X77470000Y-97762000D01*
%TO.N,GNDA*%
X80137332Y-99198000D02*
X79672265Y-99663067D01*
X79672265Y-99663067D02*
X79672265Y-99738265D01*
X80600000Y-99198000D02*
X80137332Y-99198000D01*
X85062000Y-103096000D02*
X85034000Y-103124000D01*
X85062000Y-101854000D02*
X85062000Y-103096000D01*
X87348000Y-101854000D02*
X87348000Y-103124000D01*
X85062000Y-104394000D02*
X86106000Y-104394000D01*
X85034000Y-103322000D02*
X86106000Y-104394000D01*
X85034000Y-103124000D02*
X85034000Y-103322000D01*
X87348000Y-103152000D02*
X86106000Y-104394000D01*
X87348000Y-103124000D02*
X87348000Y-103152000D01*
D30*
X85475340Y-105024660D02*
X86106000Y-104394000D01*
X83462660Y-105024660D02*
X85475340Y-105024660D01*
X82804000Y-104366000D02*
X83462660Y-105024660D01*
D27*
%TO.N,ADCVREF*%
X83708270Y-101854000D02*
X84102000Y-101854000D01*
X83000000Y-101145730D02*
X83708270Y-101854000D01*
X83000000Y-100248000D02*
X83000000Y-101145730D01*
X84102000Y-103096000D02*
X84074000Y-103124000D01*
X84102000Y-101854000D02*
X84102000Y-103096000D01*
%TO.N,VMID*%
X85777990Y-101243990D02*
X86388000Y-101854000D01*
X83983322Y-101243990D02*
X85777990Y-101243990D01*
X83450000Y-100710668D02*
X83983322Y-101243990D01*
X83450000Y-100248000D02*
X83450000Y-100710668D01*
X86388000Y-101854000D02*
X86388000Y-103124000D01*
D29*
%TO.N,VBUS*%
X94742000Y-80264000D02*
X94742000Y-79019500D01*
X94742000Y-81278000D02*
X94742000Y-80264000D01*
X98750000Y-80264000D02*
X99822000Y-79192000D01*
X98552000Y-80264000D02*
X98750000Y-80264000D01*
D27*
X98550000Y-85090000D02*
X100356000Y-85090000D01*
X100356000Y-85090000D02*
X101402000Y-84044000D01*
X97790000Y-85850000D02*
X98550000Y-85090000D01*
D29*
X92530217Y-83948000D02*
X91948000Y-83948000D01*
X93971990Y-81920680D02*
X93971990Y-82506227D01*
X93971990Y-82506227D02*
X92530217Y-83948000D01*
X93980000Y-81912670D02*
X93971990Y-81920680D01*
X93980000Y-81534000D02*
X93980000Y-81912670D01*
X94236000Y-81278000D02*
X93980000Y-81534000D01*
X94742000Y-81278000D02*
X94236000Y-81278000D01*
X101372000Y-84074000D02*
X101402000Y-84044000D01*
X100477002Y-84074000D02*
X101372000Y-84074000D01*
D27*
%TO.N,+3.3VA*%
X82804000Y-101854000D02*
X82804000Y-103406000D01*
X82100000Y-101150000D02*
X82804000Y-101854000D01*
X82100000Y-100248000D02*
X82100000Y-101150000D01*
X81650000Y-100700000D02*
X82804000Y-101854000D01*
X81650000Y-100248000D02*
X81650000Y-100700000D01*
X83114000Y-103406000D02*
X84102000Y-104394000D01*
X82804000Y-103406000D02*
X83114000Y-103406000D01*
%TO.N,Net-(C27-Pad1)*%
X90200000Y-91920000D02*
X90170000Y-91950000D01*
D30*
%TO.N,HP_R*%
X81552000Y-105477000D02*
X90611000Y-105477000D01*
X80977000Y-104902000D02*
X81552000Y-105477000D01*
X90611000Y-105477000D02*
X94234000Y-101854000D01*
%TO.N,Net-(C28-Pad1)*%
X76962160Y-103837160D02*
X78027000Y-104902000D01*
X79165474Y-98298000D02*
X76962160Y-100501314D01*
X76962160Y-100501314D02*
X76962160Y-103837160D01*
X80600000Y-98298000D02*
X79165474Y-98298000D01*
%TO.N,HP_L*%
X80977000Y-102362000D02*
X79756000Y-102362000D01*
%TO.N,Net-(C29-Pad1)*%
X78027000Y-100464966D02*
X78027000Y-102362000D01*
X79743966Y-98748000D02*
X78027000Y-100464966D01*
X80600000Y-98748000D02*
X79743966Y-98748000D01*
D27*
%TO.N,Net-(D1-Pad1)*%
X95919999Y-81185999D02*
X96012000Y-81278000D01*
X95919999Y-80171999D02*
X95919999Y-81185999D01*
X95517010Y-79769010D02*
X95919999Y-80171999D01*
X95517010Y-78219510D02*
X95517010Y-79769010D01*
X94742000Y-77444500D02*
X95517010Y-78219510D01*
%TO.N,Net-(D4-Pad1)*%
X89219500Y-84709000D02*
X88392000Y-85536500D01*
X89916000Y-84709000D02*
X89219500Y-84709000D01*
%TO.N,Net-(IC1-Pad5)*%
X97921000Y-83820000D02*
X97790000Y-83689000D01*
X99278000Y-83820000D02*
X97921000Y-83820000D01*
X99502000Y-84044000D02*
X99278000Y-83820000D01*
D29*
%TO.N,VBAT*%
X101402000Y-87304002D02*
X101402000Y-86644000D01*
X100822002Y-87884000D02*
X101402000Y-87304002D01*
X97028000Y-87884000D02*
X100822002Y-87884000D01*
X96250000Y-87106000D02*
X97028000Y-87884000D01*
X96250000Y-85019000D02*
X96250000Y-87106000D01*
D27*
%TO.N,Net-(IC1-Pad1)*%
X97792000Y-86868000D02*
X97790000Y-86870000D01*
X99278000Y-86868000D02*
X97792000Y-86868000D01*
X99502000Y-86644000D02*
X99278000Y-86868000D01*
X97169990Y-83455990D02*
X97169990Y-86755990D01*
X96012000Y-82298000D02*
X97169990Y-83455990D01*
X97284000Y-86870000D02*
X97790000Y-86870000D01*
X97169990Y-86755990D02*
X97284000Y-86870000D01*
%TO.N,Net-(J1-PadA5)*%
X96520000Y-80264000D02*
X96520000Y-78994000D01*
%TO.N,Net-(J1-PadB5)*%
X97536000Y-79756000D02*
X98298000Y-78994000D01*
X97536000Y-80264000D02*
X97536000Y-79756000D01*
%TO.N,Net-(Q1-Pad1)*%
X94742000Y-83577000D02*
X94250000Y-84069000D01*
X94742000Y-82298000D02*
X94742000Y-83577000D01*
%TO.N,Net-(R8-Pad1)*%
X82100000Y-94686000D02*
X82100000Y-96348000D01*
X82550000Y-94236000D02*
X82100000Y-94686000D01*
%TO.N,Net-(R9-Pad1)*%
X80010000Y-95158000D02*
X81200000Y-96348000D01*
X80010000Y-94236000D02*
X80010000Y-95158000D01*
%TO.N,Net-(R10-Pad1)*%
X81650000Y-94286000D02*
X81650000Y-96348000D01*
X81600000Y-94236000D02*
X81650000Y-94286000D01*
X81280000Y-94236000D02*
X81600000Y-94236000D01*
%TO.N,Net-(R11-Pad1)*%
X78740000Y-95088000D02*
X80600000Y-96948000D01*
X78740000Y-94236000D02*
X78740000Y-95088000D01*
%TD*%
M02*
