G04 #@! TF.GenerationSoftware,KiCad,Pcbnew,(5.1.8)-1*
G04 #@! TF.CreationDate,2021-01-25T23:00:58-08:00*
G04 #@! TF.ProjectId,audioboard,61756469-6f62-46f6-9172-642e6b696361,rev?*
G04 #@! TF.SameCoordinates,Original*
G04 #@! TF.FileFunction,Legend,Top*
G04 #@! TF.FilePolarity,Positive*
%FSLAX46Y46*%
G04 Gerber Fmt 4.6, Leading zero omitted, Abs format (unit mm)*
G04 Created by KiCad (PCBNEW (5.1.8)-1) date 2021-01-25 23:00:58*
%MOMM*%
%LPD*%
G01*
G04 APERTURE LIST*
%ADD10C,0.200000*%
%ADD11C,0.120000*%
%ADD12C,0.100000*%
%ADD13C,0.127000*%
G04 APERTURE END LIST*
D10*
X204368000Y-101396000D02*
X204368000Y-100246000D01*
X195428000Y-101396000D02*
X204368000Y-101396000D01*
X195428000Y-100246000D02*
X195428000Y-101396000D01*
D11*
X176833000Y-98679000D02*
G75*
G03*
X176833000Y-98679000I-1700000J0D01*
G01*
X205258641Y-77725000D02*
X204951359Y-77725000D01*
X205258641Y-78485000D02*
X204951359Y-78485000D01*
X203775000Y-87570000D02*
X205105000Y-87570000D01*
X203775000Y-88900000D02*
X203775000Y-87570000D01*
X203775000Y-90170000D02*
X206435000Y-90170000D01*
X206435000Y-90170000D02*
X206435000Y-92770000D01*
X203775000Y-90170000D02*
X203775000Y-92770000D01*
X203775000Y-92770000D02*
X206435000Y-92770000D01*
X201550000Y-89381359D02*
X201550000Y-89688641D01*
X202310000Y-89381359D02*
X202310000Y-89688641D01*
X198500000Y-89688641D02*
X198500000Y-89381359D01*
X197740000Y-89688641D02*
X197740000Y-89381359D01*
X186790359Y-70484000D02*
X187097641Y-70484000D01*
X186790359Y-69724000D02*
X187097641Y-69724000D01*
X201550000Y-74776359D02*
X201550000Y-75083641D01*
X202310000Y-74776359D02*
X202310000Y-75083641D01*
X190653641Y-84456000D02*
X190346359Y-84456000D01*
X190653641Y-85216000D02*
X190346359Y-85216000D01*
X189637641Y-85980000D02*
X189330359Y-85980000D01*
X189637641Y-86740000D02*
X189330359Y-86740000D01*
X186308000Y-86005641D02*
X186308000Y-85698359D01*
X185548000Y-86005641D02*
X185548000Y-85698359D01*
X187832000Y-83158359D02*
X187832000Y-83465641D01*
X187072000Y-83158359D02*
X187072000Y-83465641D01*
X185548000Y-83465641D02*
X185548000Y-83158359D01*
X186308000Y-83465641D02*
X186308000Y-83158359D01*
X193295000Y-93951359D02*
X193295000Y-94258641D01*
X194055000Y-93951359D02*
X194055000Y-94258641D01*
X193295000Y-91921359D02*
X193295000Y-92228641D01*
X194055000Y-91921359D02*
X194055000Y-92228641D01*
X177184000Y-97668000D02*
X178444000Y-97668000D01*
X184004000Y-97668000D02*
X182744000Y-97668000D01*
X177184000Y-93908000D02*
X177184000Y-97668000D01*
X184004000Y-91658000D02*
X184004000Y-97668000D01*
X200460000Y-85685000D02*
X200460000Y-86160000D01*
X200460000Y-86160000D02*
X199985000Y-86160000D01*
X193240000Y-79415000D02*
X193240000Y-78940000D01*
X193240000Y-78940000D02*
X193715000Y-78940000D01*
X193240000Y-85685000D02*
X193240000Y-86160000D01*
X193240000Y-86160000D02*
X193715000Y-86160000D01*
X200460000Y-79415000D02*
X200460000Y-78940000D01*
X184320000Y-79072000D02*
X183945000Y-79072000D01*
X183945000Y-79072000D02*
X183945000Y-78697000D01*
X187790000Y-74852000D02*
X188165000Y-74852000D01*
X188165000Y-74852000D02*
X188165000Y-75227000D01*
X184320000Y-74852000D02*
X183945000Y-74852000D01*
X183945000Y-74852000D02*
X183945000Y-75227000D01*
X187790000Y-79072000D02*
X188165000Y-79072000D01*
D12*
X205935000Y-80550000D02*
X205935000Y-84500000D01*
X203005000Y-80600000D02*
X203005000Y-84550000D01*
D11*
X201040000Y-89381359D02*
X201040000Y-89688641D01*
X200280000Y-89381359D02*
X200280000Y-89688641D01*
X197230000Y-89381359D02*
X197230000Y-89688641D01*
X196470000Y-89381359D02*
X196470000Y-89688641D01*
X192886359Y-74296000D02*
X193193641Y-74296000D01*
X192886359Y-75056000D02*
X193193641Y-75056000D01*
X190346359Y-75820000D02*
X190653641Y-75820000D01*
X190346359Y-76580000D02*
X190653641Y-76580000D01*
X190346359Y-74296000D02*
X190653641Y-74296000D01*
X190346359Y-75056000D02*
X190653641Y-75056000D01*
X190346359Y-77344000D02*
X190653641Y-77344000D01*
X190346359Y-78104000D02*
X190653641Y-78104000D01*
X187832000Y-85698359D02*
X187832000Y-86005641D01*
X187072000Y-85698359D02*
X187072000Y-86005641D01*
X188707500Y-92376258D02*
X188707500Y-91901742D01*
X189752500Y-92376258D02*
X189752500Y-91901742D01*
X201405258Y-93232500D02*
X200930742Y-93232500D01*
X201405258Y-92187500D02*
X200930742Y-92187500D01*
X197374742Y-92187500D02*
X197849258Y-92187500D01*
X197374742Y-93232500D02*
X197849258Y-93232500D01*
X186815000Y-95560000D02*
X186815000Y-94630000D01*
X186815000Y-92400000D02*
X186815000Y-93330000D01*
X186815000Y-92400000D02*
X184655000Y-92400000D01*
X186815000Y-95560000D02*
X185355000Y-95560000D01*
X173676000Y-90865000D02*
X176336000Y-90865000D01*
X173676000Y-78105000D02*
X173676000Y-90865000D01*
X176336000Y-78105000D02*
X176336000Y-90865000D01*
X173676000Y-78105000D02*
X176336000Y-78105000D01*
X173676000Y-76835000D02*
X173676000Y-75505000D01*
X173676000Y-75505000D02*
X175006000Y-75505000D01*
D10*
X190075000Y-94435000D02*
X190925000Y-94435000D01*
X190925000Y-94435000D02*
X190925000Y-97335000D01*
X190925000Y-97335000D02*
X190075000Y-97335000D01*
X190075000Y-97335000D02*
X190075000Y-94435000D01*
X188675000Y-94410000D02*
X189725000Y-94410000D01*
D13*
X192168000Y-67322000D02*
X192168000Y-72552000D01*
X196263000Y-72552000D02*
X203973000Y-72552000D01*
X198268000Y-67322000D02*
X205918000Y-67322000D01*
X205918000Y-67322000D02*
X205918000Y-70082000D01*
D10*
X194918000Y-66452000D02*
G75*
G03*
X194918000Y-66452000I-100000J0D01*
G01*
D13*
X192168000Y-72552000D02*
X193373000Y-72552000D01*
X192168000Y-67322000D02*
X193898000Y-67322000D01*
D11*
X205270000Y-74195000D02*
X202985000Y-74195000D01*
X202985000Y-74195000D02*
X202985000Y-75665000D01*
X202985000Y-75665000D02*
X205270000Y-75665000D01*
X188940000Y-100060000D02*
X188940000Y-98060000D01*
X188940000Y-98060000D02*
X185040000Y-98060000D01*
X188940000Y-100060000D02*
X185040000Y-100060000D01*
X189520000Y-98060000D02*
X189520000Y-100060000D01*
X189520000Y-100060000D02*
X193420000Y-100060000D01*
X189520000Y-98060000D02*
X193420000Y-98060000D01*
X191870000Y-92979000D02*
X191870000Y-90694000D01*
X191870000Y-90694000D02*
X190400000Y-90694000D01*
X190400000Y-90694000D02*
X190400000Y-92979000D01*
X202263836Y-88244000D02*
X202048164Y-88244000D01*
X202263836Y-87524000D02*
X202048164Y-87524000D01*
X185467164Y-96795000D02*
X185682836Y-96795000D01*
X185467164Y-97515000D02*
X185682836Y-97515000D01*
X180225752Y-78634000D02*
X178803248Y-78634000D01*
X180225752Y-76814000D02*
X178803248Y-76814000D01*
X180225752Y-76094000D02*
X178803248Y-76094000D01*
X180225752Y-74274000D02*
X178803248Y-74274000D01*
X183591252Y-72538000D02*
X182168748Y-72538000D01*
X183591252Y-70718000D02*
X182168748Y-70718000D01*
X183591252Y-69490000D02*
X182168748Y-69490000D01*
X183591252Y-67670000D02*
X182168748Y-67670000D01*
X199030000Y-89642836D02*
X199030000Y-89427164D01*
X199750000Y-89642836D02*
X199750000Y-89427164D01*
X181248164Y-90064000D02*
X181463836Y-90064000D01*
X181248164Y-90784000D02*
X181463836Y-90784000D01*
X181248164Y-88540000D02*
X181463836Y-88540000D01*
X181248164Y-89260000D02*
X181463836Y-89260000D01*
X186836164Y-67712000D02*
X187051836Y-67712000D01*
X186836164Y-68432000D02*
X187051836Y-68432000D01*
X184044000Y-85959836D02*
X184044000Y-85744164D01*
X184764000Y-85959836D02*
X184764000Y-85744164D01*
X195220000Y-89642836D02*
X195220000Y-89427164D01*
X195940000Y-89642836D02*
X195940000Y-89427164D01*
X181463836Y-81640000D02*
X181248164Y-81640000D01*
X181463836Y-80920000D02*
X181248164Y-80920000D01*
X181463836Y-80116000D02*
X181248164Y-80116000D01*
X181463836Y-79396000D02*
X181248164Y-79396000D01*
X181463836Y-86212000D02*
X181248164Y-86212000D01*
X181463836Y-85492000D02*
X181248164Y-85492000D01*
X181248164Y-82444000D02*
X181463836Y-82444000D01*
X181248164Y-83164000D02*
X181463836Y-83164000D01*
X186836164Y-72792000D02*
X187051836Y-72792000D01*
X186836164Y-73512000D02*
X187051836Y-73512000D01*
X190607836Y-81640000D02*
X190392164Y-81640000D01*
X190607836Y-80920000D02*
X190392164Y-80920000D01*
X193315000Y-96627836D02*
X193315000Y-96412164D01*
X194035000Y-96627836D02*
X194035000Y-96412164D01*
X196490000Y-75037836D02*
X196490000Y-74822164D01*
X197210000Y-75037836D02*
X197210000Y-74822164D01*
X177907836Y-90784000D02*
X177692164Y-90784000D01*
X177907836Y-90064000D02*
X177692164Y-90064000D01*
X195220000Y-75037836D02*
X195220000Y-74822164D01*
X195940000Y-75037836D02*
X195940000Y-74822164D01*
X181463836Y-87736000D02*
X181248164Y-87736000D01*
X181463836Y-87016000D02*
X181248164Y-87016000D01*
X181248164Y-83968000D02*
X181463836Y-83968000D01*
X181248164Y-84688000D02*
X181463836Y-84688000D01*
X186836164Y-71268000D02*
X187051836Y-71268000D01*
X186836164Y-71988000D02*
X187051836Y-71988000D01*
X190607836Y-80370000D02*
X190392164Y-80370000D01*
X190607836Y-79650000D02*
X190392164Y-79650000D01*
X175662000Y-92817836D02*
X175662000Y-92602164D01*
X176382000Y-92817836D02*
X176382000Y-92602164D01*
X199750000Y-74822164D02*
X199750000Y-75037836D01*
X199030000Y-74822164D02*
X199030000Y-75037836D01*
X205212836Y-77195000D02*
X204997164Y-77195000D01*
X205212836Y-76475000D02*
X204997164Y-76475000D01*
M02*
