%TF.GenerationSoftware,KiCad,Pcbnew,(5.1.8)-1*%
%TF.CreationDate,2021-03-06T05:42:10-08:00*%
%TF.ProjectId,audioboard,61756469-6f62-46f6-9172-642e6b696361,rev?*%
%TF.SameCoordinates,Original*%
%TF.FileFunction,Legend,Top*%
%TF.FilePolarity,Positive*%
%FSLAX46Y46*%
G04 Gerber Fmt 4.6, Leading zero omitted, Abs format (unit mm)*
G04 Created by KiCad (PCBNEW (5.1.8)-1) date 2021-03-06 05:42:10*
%MOMM*%
%LPD*%
G01*
G04 APERTURE LIST*
%ADD10C,0.120000*%
%ADD11C,0.200000*%
%ADD12C,0.127000*%
%ADD13C,0.150000*%
%ADD14C,0.254000*%
%ADD15C,0.015000*%
G04 APERTURE END LIST*
D10*
%TO.C,R16*%
X97410000Y-86513641D02*
X97410000Y-86206359D01*
X98170000Y-86513641D02*
X98170000Y-86206359D01*
%TO.C,R4*%
X95632000Y-81941641D02*
X95632000Y-81634359D01*
X96392000Y-81941641D02*
X96392000Y-81634359D01*
%TO.C,U3*%
X95142000Y-94874000D02*
X96402000Y-94874000D01*
X101962000Y-94874000D02*
X100702000Y-94874000D01*
X95142000Y-91114000D02*
X95142000Y-94874000D01*
X101962000Y-88864000D02*
X101962000Y-94874000D01*
%TO.C,U2*%
X85475000Y-83766000D02*
X85950000Y-83766000D01*
X85950000Y-83766000D02*
X85950000Y-84241000D01*
X79205000Y-90986000D02*
X78730000Y-90986000D01*
X78730000Y-90986000D02*
X78730000Y-90511000D01*
X85475000Y-90986000D02*
X85950000Y-90986000D01*
X85950000Y-90986000D02*
X85950000Y-90511000D01*
X79205000Y-83766000D02*
X78730000Y-83766000D01*
%TO.C,U1*%
X84660000Y-100033000D02*
X84660000Y-100408000D01*
X84660000Y-100408000D02*
X84285000Y-100408000D01*
X80440000Y-96563000D02*
X80440000Y-96188000D01*
X80440000Y-96188000D02*
X80815000Y-96188000D01*
X80440000Y-100033000D02*
X80440000Y-100408000D01*
X80440000Y-100408000D02*
X80815000Y-100408000D01*
X84660000Y-96563000D02*
X84660000Y-96188000D01*
%TO.C,R22*%
X90296000Y-84045359D02*
X90296000Y-84352641D01*
X89536000Y-84045359D02*
X89536000Y-84352641D01*
%TO.C,R21*%
X86740000Y-93572359D02*
X86740000Y-93879641D01*
X85980000Y-93572359D02*
X85980000Y-93879641D01*
%TO.C,R20*%
X88010000Y-91286359D02*
X88010000Y-91593641D01*
X87250000Y-91286359D02*
X87250000Y-91593641D01*
%TO.C,R19*%
X94362000Y-81941641D02*
X94362000Y-81634359D01*
X95122000Y-81941641D02*
X95122000Y-81634359D01*
%TO.C,R18*%
X89790000Y-89307641D02*
X89790000Y-89000359D01*
X90550000Y-89307641D02*
X90550000Y-89000359D01*
%TO.C,R17*%
X89280000Y-89000359D02*
X89280000Y-89307641D01*
X88520000Y-89000359D02*
X88520000Y-89307641D01*
%TO.C,R15*%
X90550000Y-91286359D02*
X90550000Y-91593641D01*
X89790000Y-91286359D02*
X89790000Y-91593641D01*
%TO.C,R14*%
X89280000Y-91286359D02*
X89280000Y-91593641D01*
X88520000Y-91286359D02*
X88520000Y-91593641D01*
%TO.C,R13*%
X86714359Y-96394000D02*
X87021641Y-96394000D01*
X86714359Y-97154000D02*
X87021641Y-97154000D01*
%TO.C,R12*%
X87021641Y-98424000D02*
X86714359Y-98424000D01*
X87021641Y-97664000D02*
X86714359Y-97664000D01*
%TO.C,R11*%
X78360000Y-93879641D02*
X78360000Y-93572359D01*
X79120000Y-93879641D02*
X79120000Y-93572359D01*
%TO.C,R10*%
X80900000Y-93879641D02*
X80900000Y-93572359D01*
X81660000Y-93879641D02*
X81660000Y-93572359D01*
%TO.C,R9*%
X79630000Y-93879641D02*
X79630000Y-93572359D01*
X80390000Y-93879641D02*
X80390000Y-93572359D01*
%TO.C,R8*%
X82170000Y-93879641D02*
X82170000Y-93572359D01*
X82930000Y-93879641D02*
X82930000Y-93572359D01*
%TO.C,R7*%
X87250000Y-93879641D02*
X87250000Y-93572359D01*
X88010000Y-93879641D02*
X88010000Y-93572359D01*
%TO.C,R6*%
X99414359Y-103252000D02*
X99721641Y-103252000D01*
X99414359Y-104012000D02*
X99721641Y-104012000D01*
%TO.C,R5*%
X97410000Y-84352641D02*
X97410000Y-84045359D01*
X98170000Y-84352641D02*
X98170000Y-84045359D01*
%TO.C,R3*%
X98820500Y-77931742D02*
X98820500Y-78406258D01*
X97775500Y-77931742D02*
X97775500Y-78406258D01*
%TO.C,R2*%
X97042500Y-77931742D02*
X97042500Y-78406258D01*
X95997500Y-77931742D02*
X95997500Y-78406258D01*
%TO.C,R1*%
X63600359Y-87504000D02*
X63907641Y-87504000D01*
X63600359Y-88264000D02*
X63907641Y-88264000D01*
%TO.C,Q1*%
X96010000Y-86599000D02*
X96010000Y-85669000D01*
X96010000Y-83439000D02*
X96010000Y-84369000D01*
X96010000Y-83439000D02*
X93850000Y-83439000D01*
X96010000Y-86599000D02*
X94550000Y-86599000D01*
%TO.C,J3*%
X84642000Y-108772000D02*
X84642000Y-106112000D01*
X79502000Y-108772000D02*
X84642000Y-108772000D01*
X79502000Y-106112000D02*
X84642000Y-106112000D01*
X79502000Y-108772000D02*
X79502000Y-106112000D01*
X78232000Y-108772000D02*
X76902000Y-108772000D01*
X76902000Y-108772000D02*
X76902000Y-107442000D01*
D11*
%TO.C,IC1*%
X99002000Y-85769000D02*
X99002000Y-84919000D01*
X99002000Y-84919000D02*
X101902000Y-84919000D01*
X101902000Y-84919000D02*
X101902000Y-85769000D01*
X101902000Y-85769000D02*
X99002000Y-85769000D01*
X98977000Y-87169000D02*
X98977000Y-86119000D01*
D12*
%TO.C,E1*%
X76598000Y-76720000D02*
X76598000Y-81950000D01*
X80693000Y-81950000D02*
X88403000Y-81950000D01*
X82698000Y-76720000D02*
X90348000Y-76720000D01*
X90348000Y-76720000D02*
X90348000Y-79480000D01*
D11*
X79348000Y-75850000D02*
G75*
G03*
X79348000Y-75850000I-100000J0D01*
G01*
D12*
X76598000Y-81950000D02*
X77803000Y-81950000D01*
X76598000Y-76720000D02*
X78328000Y-76720000D01*
D10*
%TO.C,D4*%
X87657000Y-83949000D02*
X87657000Y-86234000D01*
X87657000Y-86234000D02*
X89127000Y-86234000D01*
X89127000Y-86234000D02*
X89127000Y-83949000D01*
%TO.C,D2*%
X90948000Y-87848000D02*
X92948000Y-87848000D01*
X92948000Y-87848000D02*
X92948000Y-83948000D01*
X90948000Y-87848000D02*
X90948000Y-83948000D01*
%TO.C,D1*%
X95477000Y-79032000D02*
X95477000Y-76747000D01*
X95477000Y-76747000D02*
X94007000Y-76747000D01*
X94007000Y-76747000D02*
X94007000Y-79032000D01*
%TO.C,C29*%
X78790748Y-101452000D02*
X80213252Y-101452000D01*
X78790748Y-103272000D02*
X80213252Y-103272000D01*
%TO.C,C28*%
X78790748Y-103992000D02*
X80213252Y-103992000D01*
X78790748Y-105812000D02*
X80213252Y-105812000D01*
%TO.C,C27*%
X90530000Y-93618164D02*
X90530000Y-93833836D01*
X89810000Y-93618164D02*
X89810000Y-93833836D01*
%TO.C,C26*%
X86975836Y-99674000D02*
X86760164Y-99674000D01*
X86975836Y-98954000D02*
X86760164Y-98954000D01*
%TO.C,C25*%
X86975836Y-100944000D02*
X86760164Y-100944000D01*
X86975836Y-100224000D02*
X86760164Y-100224000D01*
%TO.C,C24*%
X99488164Y-102002000D02*
X99703836Y-102002000D01*
X99488164Y-102722000D02*
X99703836Y-102722000D01*
%TO.C,C22*%
X89260000Y-93618164D02*
X89260000Y-93833836D01*
X88540000Y-93618164D02*
X88540000Y-93833836D01*
%TO.C,C20*%
X83164000Y-103778164D02*
X83164000Y-103993836D01*
X82444000Y-103778164D02*
X82444000Y-103993836D01*
%TO.C,C18*%
X84474164Y-104034000D02*
X84689836Y-104034000D01*
X84474164Y-104754000D02*
X84689836Y-104754000D01*
%TO.C,C17*%
X86760164Y-101494000D02*
X86975836Y-101494000D01*
X86760164Y-102214000D02*
X86975836Y-102214000D01*
%TO.C,C16*%
X84446164Y-102764000D02*
X84661836Y-102764000D01*
X84446164Y-103484000D02*
X84661836Y-103484000D01*
%TO.C,C15*%
X77110000Y-97389836D02*
X77110000Y-97174164D01*
X77830000Y-97389836D02*
X77830000Y-97174164D01*
%TO.C,C13*%
X84730000Y-93833836D02*
X84730000Y-93618164D01*
X85450000Y-93833836D02*
X85450000Y-93618164D01*
%TO.C,C12*%
X99462000Y-78819836D02*
X99462000Y-78604164D01*
X100182000Y-78819836D02*
X100182000Y-78604164D01*
%TO.C,C11*%
X76856000Y-86467836D02*
X76856000Y-86252164D01*
X77576000Y-86467836D02*
X77576000Y-86252164D01*
%TO.C,C10*%
X93324000Y-92094164D02*
X93324000Y-92309836D01*
X92604000Y-92094164D02*
X92604000Y-92309836D01*
%TO.C,C9*%
X77576000Y-88538164D02*
X77576000Y-88753836D01*
X76856000Y-88538164D02*
X76856000Y-88753836D01*
%TO.C,C8*%
X86760164Y-102764000D02*
X86975836Y-102764000D01*
X86760164Y-103484000D02*
X86975836Y-103484000D01*
%TO.C,C7*%
X84474164Y-101494000D02*
X84689836Y-101494000D01*
X84474164Y-102214000D02*
X84689836Y-102214000D01*
%TO.C,C6*%
X78380000Y-97389836D02*
X78380000Y-97174164D01*
X79100000Y-97389836D02*
X79100000Y-97174164D01*
%TO.C,C5*%
X83460000Y-93833836D02*
X83460000Y-93618164D01*
X84180000Y-93833836D02*
X84180000Y-93618164D01*
%TO.C,C4*%
X94380164Y-87270000D02*
X94595836Y-87270000D01*
X94380164Y-87990000D02*
X94595836Y-87990000D01*
%TO.C,C3*%
X94594000Y-92094164D02*
X94594000Y-92309836D01*
X93874000Y-92094164D02*
X93874000Y-92309836D01*
%TO.C,C2*%
X82442164Y-78888000D02*
X82657836Y-78888000D01*
X82442164Y-79608000D02*
X82657836Y-79608000D01*
%TO.C,C1*%
X63646164Y-89048000D02*
X63861836Y-89048000D01*
X63646164Y-89768000D02*
X63861836Y-89768000D01*
%TO.C,*%
D13*
%TO.C,R16*%
X97072380Y-87002857D02*
X96596190Y-87336190D01*
X97072380Y-87574285D02*
X96072380Y-87574285D01*
X96072380Y-87193333D01*
X96120000Y-87098095D01*
X96167619Y-87050476D01*
X96262857Y-87002857D01*
X96405714Y-87002857D01*
X96500952Y-87050476D01*
X96548571Y-87098095D01*
X96596190Y-87193333D01*
X96596190Y-87574285D01*
X97072380Y-86050476D02*
X97072380Y-86621904D01*
X97072380Y-86336190D02*
X96072380Y-86336190D01*
X96215238Y-86431428D01*
X96310476Y-86526666D01*
X96358095Y-86621904D01*
X96072380Y-85193333D02*
X96072380Y-85383809D01*
X96120000Y-85479047D01*
X96167619Y-85526666D01*
X96310476Y-85621904D01*
X96500952Y-85669523D01*
X96881904Y-85669523D01*
X96977142Y-85621904D01*
X97024761Y-85574285D01*
X97072380Y-85479047D01*
X97072380Y-85288571D01*
X97024761Y-85193333D01*
X96977142Y-85145714D01*
X96881904Y-85098095D01*
X96643809Y-85098095D01*
X96548571Y-85145714D01*
X96500952Y-85193333D01*
X96453333Y-85288571D01*
X96453333Y-85479047D01*
X96500952Y-85574285D01*
X96548571Y-85621904D01*
X96643809Y-85669523D01*
%TO.C,R4*%
X95294380Y-81954666D02*
X94818190Y-82288000D01*
X95294380Y-82526095D02*
X94294380Y-82526095D01*
X94294380Y-82145142D01*
X94342000Y-82049904D01*
X94389619Y-82002285D01*
X94484857Y-81954666D01*
X94627714Y-81954666D01*
X94722952Y-82002285D01*
X94770571Y-82049904D01*
X94818190Y-82145142D01*
X94818190Y-82526095D01*
X94627714Y-81097523D02*
X95294380Y-81097523D01*
X94246761Y-81335619D02*
X94961047Y-81573714D01*
X94961047Y-80954666D01*
%TO.C,NT2*%
X100306380Y-98932857D02*
X99306380Y-98932857D01*
X100306380Y-98361428D01*
X99306380Y-98361428D01*
X99306380Y-98028095D02*
X99306380Y-97456666D01*
X100306380Y-97742380D02*
X99306380Y-97742380D01*
X99401619Y-97170952D02*
X99354000Y-97123333D01*
X99306380Y-97028095D01*
X99306380Y-96790000D01*
X99354000Y-96694761D01*
X99401619Y-96647142D01*
X99496857Y-96599523D01*
X99592095Y-96599523D01*
X99734952Y-96647142D01*
X100306380Y-97218571D01*
X100306380Y-96599523D01*
%TO.C,U3*%
X102504380Y-93725904D02*
X103313904Y-93725904D01*
X103409142Y-93678285D01*
X103456761Y-93630666D01*
X103504380Y-93535428D01*
X103504380Y-93344952D01*
X103456761Y-93249714D01*
X103409142Y-93202095D01*
X103313904Y-93154476D01*
X102504380Y-93154476D01*
X102504380Y-92773523D02*
X102504380Y-92154476D01*
X102885333Y-92487809D01*
X102885333Y-92344952D01*
X102932952Y-92249714D01*
X102980571Y-92202095D01*
X103075809Y-92154476D01*
X103313904Y-92154476D01*
X103409142Y-92202095D01*
X103456761Y-92249714D01*
X103504380Y-92344952D01*
X103504380Y-92630666D01*
X103456761Y-92725904D01*
X103409142Y-92773523D01*
%TO.C,U2*%
X81578095Y-82028380D02*
X81578095Y-82837904D01*
X81625714Y-82933142D01*
X81673333Y-82980761D01*
X81768571Y-83028380D01*
X81959047Y-83028380D01*
X82054285Y-82980761D01*
X82101904Y-82933142D01*
X82149523Y-82837904D01*
X82149523Y-82028380D01*
X82578095Y-82123619D02*
X82625714Y-82076000D01*
X82720952Y-82028380D01*
X82959047Y-82028380D01*
X83054285Y-82076000D01*
X83101904Y-82123619D01*
X83149523Y-82218857D01*
X83149523Y-82314095D01*
X83101904Y-82456952D01*
X82530476Y-83028380D01*
X83149523Y-83028380D01*
%TO.C,U1*%
X85302380Y-99059904D02*
X86111904Y-99059904D01*
X86207142Y-99012285D01*
X86254761Y-98964666D01*
X86302380Y-98869428D01*
X86302380Y-98678952D01*
X86254761Y-98583714D01*
X86207142Y-98536095D01*
X86111904Y-98488476D01*
X85302380Y-98488476D01*
X86302380Y-97488476D02*
X86302380Y-98059904D01*
X86302380Y-97774190D02*
X85302380Y-97774190D01*
X85445238Y-97869428D01*
X85540476Y-97964666D01*
X85588095Y-98059904D01*
%TO.C,R22*%
X91538380Y-84841857D02*
X91062190Y-85175190D01*
X91538380Y-85413285D02*
X90538380Y-85413285D01*
X90538380Y-85032333D01*
X90586000Y-84937095D01*
X90633619Y-84889476D01*
X90728857Y-84841857D01*
X90871714Y-84841857D01*
X90966952Y-84889476D01*
X91014571Y-84937095D01*
X91062190Y-85032333D01*
X91062190Y-85413285D01*
X90633619Y-84460904D02*
X90586000Y-84413285D01*
X90538380Y-84318047D01*
X90538380Y-84079952D01*
X90586000Y-83984714D01*
X90633619Y-83937095D01*
X90728857Y-83889476D01*
X90824095Y-83889476D01*
X90966952Y-83937095D01*
X91538380Y-84508523D01*
X91538380Y-83889476D01*
X90633619Y-83508523D02*
X90586000Y-83460904D01*
X90538380Y-83365666D01*
X90538380Y-83127571D01*
X90586000Y-83032333D01*
X90633619Y-82984714D01*
X90728857Y-82937095D01*
X90824095Y-82937095D01*
X90966952Y-82984714D01*
X91538380Y-83556142D01*
X91538380Y-82937095D01*
%TO.C,R21*%
X87982380Y-94368857D02*
X87506190Y-94702190D01*
X87982380Y-94940285D02*
X86982380Y-94940285D01*
X86982380Y-94559333D01*
X87030000Y-94464095D01*
X87077619Y-94416476D01*
X87172857Y-94368857D01*
X87315714Y-94368857D01*
X87410952Y-94416476D01*
X87458571Y-94464095D01*
X87506190Y-94559333D01*
X87506190Y-94940285D01*
X87077619Y-93987904D02*
X87030000Y-93940285D01*
X86982380Y-93845047D01*
X86982380Y-93606952D01*
X87030000Y-93511714D01*
X87077619Y-93464095D01*
X87172857Y-93416476D01*
X87268095Y-93416476D01*
X87410952Y-93464095D01*
X87982380Y-94035523D01*
X87982380Y-93416476D01*
X87982380Y-92464095D02*
X87982380Y-93035523D01*
X87982380Y-92749809D02*
X86982380Y-92749809D01*
X87125238Y-92845047D01*
X87220476Y-92940285D01*
X87268095Y-93035523D01*
%TO.C,R20*%
X89252380Y-92082857D02*
X88776190Y-92416190D01*
X89252380Y-92654285D02*
X88252380Y-92654285D01*
X88252380Y-92273333D01*
X88300000Y-92178095D01*
X88347619Y-92130476D01*
X88442857Y-92082857D01*
X88585714Y-92082857D01*
X88680952Y-92130476D01*
X88728571Y-92178095D01*
X88776190Y-92273333D01*
X88776190Y-92654285D01*
X88347619Y-91701904D02*
X88300000Y-91654285D01*
X88252380Y-91559047D01*
X88252380Y-91320952D01*
X88300000Y-91225714D01*
X88347619Y-91178095D01*
X88442857Y-91130476D01*
X88538095Y-91130476D01*
X88680952Y-91178095D01*
X89252380Y-91749523D01*
X89252380Y-91130476D01*
X88252380Y-90511428D02*
X88252380Y-90416190D01*
X88300000Y-90320952D01*
X88347619Y-90273333D01*
X88442857Y-90225714D01*
X88633333Y-90178095D01*
X88871428Y-90178095D01*
X89061904Y-90225714D01*
X89157142Y-90273333D01*
X89204761Y-90320952D01*
X89252380Y-90416190D01*
X89252380Y-90511428D01*
X89204761Y-90606666D01*
X89157142Y-90654285D01*
X89061904Y-90701904D01*
X88871428Y-90749523D01*
X88633333Y-90749523D01*
X88442857Y-90701904D01*
X88347619Y-90654285D01*
X88300000Y-90606666D01*
X88252380Y-90511428D01*
%TO.C,R19*%
X94024380Y-82430857D02*
X93548190Y-82764190D01*
X94024380Y-83002285D02*
X93024380Y-83002285D01*
X93024380Y-82621333D01*
X93072000Y-82526095D01*
X93119619Y-82478476D01*
X93214857Y-82430857D01*
X93357714Y-82430857D01*
X93452952Y-82478476D01*
X93500571Y-82526095D01*
X93548190Y-82621333D01*
X93548190Y-83002285D01*
X94024380Y-81478476D02*
X94024380Y-82049904D01*
X94024380Y-81764190D02*
X93024380Y-81764190D01*
X93167238Y-81859428D01*
X93262476Y-81954666D01*
X93310095Y-82049904D01*
X94024380Y-81002285D02*
X94024380Y-80811809D01*
X93976761Y-80716571D01*
X93929142Y-80668952D01*
X93786285Y-80573714D01*
X93595809Y-80526095D01*
X93214857Y-80526095D01*
X93119619Y-80573714D01*
X93072000Y-80621333D01*
X93024380Y-80716571D01*
X93024380Y-80907047D01*
X93072000Y-81002285D01*
X93119619Y-81049904D01*
X93214857Y-81097523D01*
X93452952Y-81097523D01*
X93548190Y-81049904D01*
X93595809Y-81002285D01*
X93643428Y-80907047D01*
X93643428Y-80716571D01*
X93595809Y-80621333D01*
X93548190Y-80573714D01*
X93452952Y-80526095D01*
%TO.C,R18*%
X89452380Y-89796857D02*
X88976190Y-90130190D01*
X89452380Y-90368285D02*
X88452380Y-90368285D01*
X88452380Y-89987333D01*
X88500000Y-89892095D01*
X88547619Y-89844476D01*
X88642857Y-89796857D01*
X88785714Y-89796857D01*
X88880952Y-89844476D01*
X88928571Y-89892095D01*
X88976190Y-89987333D01*
X88976190Y-90368285D01*
X89452380Y-88844476D02*
X89452380Y-89415904D01*
X89452380Y-89130190D02*
X88452380Y-89130190D01*
X88595238Y-89225428D01*
X88690476Y-89320666D01*
X88738095Y-89415904D01*
X88880952Y-88273047D02*
X88833333Y-88368285D01*
X88785714Y-88415904D01*
X88690476Y-88463523D01*
X88642857Y-88463523D01*
X88547619Y-88415904D01*
X88500000Y-88368285D01*
X88452380Y-88273047D01*
X88452380Y-88082571D01*
X88500000Y-87987333D01*
X88547619Y-87939714D01*
X88642857Y-87892095D01*
X88690476Y-87892095D01*
X88785714Y-87939714D01*
X88833333Y-87987333D01*
X88880952Y-88082571D01*
X88880952Y-88273047D01*
X88928571Y-88368285D01*
X88976190Y-88415904D01*
X89071428Y-88463523D01*
X89261904Y-88463523D01*
X89357142Y-88415904D01*
X89404761Y-88368285D01*
X89452380Y-88273047D01*
X89452380Y-88082571D01*
X89404761Y-87987333D01*
X89357142Y-87939714D01*
X89261904Y-87892095D01*
X89071428Y-87892095D01*
X88976190Y-87939714D01*
X88928571Y-87987333D01*
X88880952Y-88082571D01*
%TO.C,R17*%
X90522380Y-89796857D02*
X90046190Y-90130190D01*
X90522380Y-90368285D02*
X89522380Y-90368285D01*
X89522380Y-89987333D01*
X89570000Y-89892095D01*
X89617619Y-89844476D01*
X89712857Y-89796857D01*
X89855714Y-89796857D01*
X89950952Y-89844476D01*
X89998571Y-89892095D01*
X90046190Y-89987333D01*
X90046190Y-90368285D01*
X90522380Y-88844476D02*
X90522380Y-89415904D01*
X90522380Y-89130190D02*
X89522380Y-89130190D01*
X89665238Y-89225428D01*
X89760476Y-89320666D01*
X89808095Y-89415904D01*
X89522380Y-88511142D02*
X89522380Y-87844476D01*
X90522380Y-88273047D01*
%TO.C,R15*%
X91792380Y-92082857D02*
X91316190Y-92416190D01*
X91792380Y-92654285D02*
X90792380Y-92654285D01*
X90792380Y-92273333D01*
X90840000Y-92178095D01*
X90887619Y-92130476D01*
X90982857Y-92082857D01*
X91125714Y-92082857D01*
X91220952Y-92130476D01*
X91268571Y-92178095D01*
X91316190Y-92273333D01*
X91316190Y-92654285D01*
X91792380Y-91130476D02*
X91792380Y-91701904D01*
X91792380Y-91416190D02*
X90792380Y-91416190D01*
X90935238Y-91511428D01*
X91030476Y-91606666D01*
X91078095Y-91701904D01*
X90792380Y-90225714D02*
X90792380Y-90701904D01*
X91268571Y-90749523D01*
X91220952Y-90701904D01*
X91173333Y-90606666D01*
X91173333Y-90368571D01*
X91220952Y-90273333D01*
X91268571Y-90225714D01*
X91363809Y-90178095D01*
X91601904Y-90178095D01*
X91697142Y-90225714D01*
X91744761Y-90273333D01*
X91792380Y-90368571D01*
X91792380Y-90606666D01*
X91744761Y-90701904D01*
X91697142Y-90749523D01*
%TO.C,R14*%
X90522380Y-92082857D02*
X90046190Y-92416190D01*
X90522380Y-92654285D02*
X89522380Y-92654285D01*
X89522380Y-92273333D01*
X89570000Y-92178095D01*
X89617619Y-92130476D01*
X89712857Y-92082857D01*
X89855714Y-92082857D01*
X89950952Y-92130476D01*
X89998571Y-92178095D01*
X90046190Y-92273333D01*
X90046190Y-92654285D01*
X90522380Y-91130476D02*
X90522380Y-91701904D01*
X90522380Y-91416190D02*
X89522380Y-91416190D01*
X89665238Y-91511428D01*
X89760476Y-91606666D01*
X89808095Y-91701904D01*
X89855714Y-90273333D02*
X90522380Y-90273333D01*
X89474761Y-90511428D02*
X90189047Y-90749523D01*
X90189047Y-90130476D01*
%TO.C,R13*%
X86225142Y-96056380D02*
X85891809Y-95580190D01*
X85653714Y-96056380D02*
X85653714Y-95056380D01*
X86034666Y-95056380D01*
X86129904Y-95104000D01*
X86177523Y-95151619D01*
X86225142Y-95246857D01*
X86225142Y-95389714D01*
X86177523Y-95484952D01*
X86129904Y-95532571D01*
X86034666Y-95580190D01*
X85653714Y-95580190D01*
X87177523Y-96056380D02*
X86606095Y-96056380D01*
X86891809Y-96056380D02*
X86891809Y-95056380D01*
X86796571Y-95199238D01*
X86701333Y-95294476D01*
X86606095Y-95342095D01*
X87510857Y-95056380D02*
X88129904Y-95056380D01*
X87796571Y-95437333D01*
X87939428Y-95437333D01*
X88034666Y-95484952D01*
X88082285Y-95532571D01*
X88129904Y-95627809D01*
X88129904Y-95865904D01*
X88082285Y-95961142D01*
X88034666Y-96008761D01*
X87939428Y-96056380D01*
X87653714Y-96056380D01*
X87558476Y-96008761D01*
X87510857Y-95961142D01*
%TO.C,R12*%
X86225142Y-99666380D02*
X85891809Y-99190190D01*
X85653714Y-99666380D02*
X85653714Y-98666380D01*
X86034666Y-98666380D01*
X86129904Y-98714000D01*
X86177523Y-98761619D01*
X86225142Y-98856857D01*
X86225142Y-98999714D01*
X86177523Y-99094952D01*
X86129904Y-99142571D01*
X86034666Y-99190190D01*
X85653714Y-99190190D01*
X87177523Y-99666380D02*
X86606095Y-99666380D01*
X86891809Y-99666380D02*
X86891809Y-98666380D01*
X86796571Y-98809238D01*
X86701333Y-98904476D01*
X86606095Y-98952095D01*
X87558476Y-98761619D02*
X87606095Y-98714000D01*
X87701333Y-98666380D01*
X87939428Y-98666380D01*
X88034666Y-98714000D01*
X88082285Y-98761619D01*
X88129904Y-98856857D01*
X88129904Y-98952095D01*
X88082285Y-99094952D01*
X87510857Y-99666380D01*
X88129904Y-99666380D01*
%TO.C,R11*%
X78022380Y-94368857D02*
X77546190Y-94702190D01*
X78022380Y-94940285D02*
X77022380Y-94940285D01*
X77022380Y-94559333D01*
X77070000Y-94464095D01*
X77117619Y-94416476D01*
X77212857Y-94368857D01*
X77355714Y-94368857D01*
X77450952Y-94416476D01*
X77498571Y-94464095D01*
X77546190Y-94559333D01*
X77546190Y-94940285D01*
X78022380Y-93416476D02*
X78022380Y-93987904D01*
X78022380Y-93702190D02*
X77022380Y-93702190D01*
X77165238Y-93797428D01*
X77260476Y-93892666D01*
X77308095Y-93987904D01*
X78022380Y-92464095D02*
X78022380Y-93035523D01*
X78022380Y-92749809D02*
X77022380Y-92749809D01*
X77165238Y-92845047D01*
X77260476Y-92940285D01*
X77308095Y-93035523D01*
%TO.C,R10*%
X80562380Y-94368857D02*
X80086190Y-94702190D01*
X80562380Y-94940285D02*
X79562380Y-94940285D01*
X79562380Y-94559333D01*
X79610000Y-94464095D01*
X79657619Y-94416476D01*
X79752857Y-94368857D01*
X79895714Y-94368857D01*
X79990952Y-94416476D01*
X80038571Y-94464095D01*
X80086190Y-94559333D01*
X80086190Y-94940285D01*
X80562380Y-93416476D02*
X80562380Y-93987904D01*
X80562380Y-93702190D02*
X79562380Y-93702190D01*
X79705238Y-93797428D01*
X79800476Y-93892666D01*
X79848095Y-93987904D01*
X79562380Y-92797428D02*
X79562380Y-92702190D01*
X79610000Y-92606952D01*
X79657619Y-92559333D01*
X79752857Y-92511714D01*
X79943333Y-92464095D01*
X80181428Y-92464095D01*
X80371904Y-92511714D01*
X80467142Y-92559333D01*
X80514761Y-92606952D01*
X80562380Y-92702190D01*
X80562380Y-92797428D01*
X80514761Y-92892666D01*
X80467142Y-92940285D01*
X80371904Y-92987904D01*
X80181428Y-93035523D01*
X79943333Y-93035523D01*
X79752857Y-92987904D01*
X79657619Y-92940285D01*
X79610000Y-92892666D01*
X79562380Y-92797428D01*
%TO.C,R9*%
X79292380Y-93892666D02*
X78816190Y-94226000D01*
X79292380Y-94464095D02*
X78292380Y-94464095D01*
X78292380Y-94083142D01*
X78340000Y-93987904D01*
X78387619Y-93940285D01*
X78482857Y-93892666D01*
X78625714Y-93892666D01*
X78720952Y-93940285D01*
X78768571Y-93987904D01*
X78816190Y-94083142D01*
X78816190Y-94464095D01*
X79292380Y-93416476D02*
X79292380Y-93226000D01*
X79244761Y-93130761D01*
X79197142Y-93083142D01*
X79054285Y-92987904D01*
X78863809Y-92940285D01*
X78482857Y-92940285D01*
X78387619Y-92987904D01*
X78340000Y-93035523D01*
X78292380Y-93130761D01*
X78292380Y-93321238D01*
X78340000Y-93416476D01*
X78387619Y-93464095D01*
X78482857Y-93511714D01*
X78720952Y-93511714D01*
X78816190Y-93464095D01*
X78863809Y-93416476D01*
X78911428Y-93321238D01*
X78911428Y-93130761D01*
X78863809Y-93035523D01*
X78816190Y-92987904D01*
X78720952Y-92940285D01*
%TO.C,R8*%
X81832380Y-93892666D02*
X81356190Y-94226000D01*
X81832380Y-94464095D02*
X80832380Y-94464095D01*
X80832380Y-94083142D01*
X80880000Y-93987904D01*
X80927619Y-93940285D01*
X81022857Y-93892666D01*
X81165714Y-93892666D01*
X81260952Y-93940285D01*
X81308571Y-93987904D01*
X81356190Y-94083142D01*
X81356190Y-94464095D01*
X81260952Y-93321238D02*
X81213333Y-93416476D01*
X81165714Y-93464095D01*
X81070476Y-93511714D01*
X81022857Y-93511714D01*
X80927619Y-93464095D01*
X80880000Y-93416476D01*
X80832380Y-93321238D01*
X80832380Y-93130761D01*
X80880000Y-93035523D01*
X80927619Y-92987904D01*
X81022857Y-92940285D01*
X81070476Y-92940285D01*
X81165714Y-92987904D01*
X81213333Y-93035523D01*
X81260952Y-93130761D01*
X81260952Y-93321238D01*
X81308571Y-93416476D01*
X81356190Y-93464095D01*
X81451428Y-93511714D01*
X81641904Y-93511714D01*
X81737142Y-93464095D01*
X81784761Y-93416476D01*
X81832380Y-93321238D01*
X81832380Y-93130761D01*
X81784761Y-93035523D01*
X81737142Y-92987904D01*
X81641904Y-92940285D01*
X81451428Y-92940285D01*
X81356190Y-92987904D01*
X81308571Y-93035523D01*
X81260952Y-93130761D01*
%TO.C,R7*%
X86912380Y-93892666D02*
X86436190Y-94226000D01*
X86912380Y-94464095D02*
X85912380Y-94464095D01*
X85912380Y-94083142D01*
X85960000Y-93987904D01*
X86007619Y-93940285D01*
X86102857Y-93892666D01*
X86245714Y-93892666D01*
X86340952Y-93940285D01*
X86388571Y-93987904D01*
X86436190Y-94083142D01*
X86436190Y-94464095D01*
X85912380Y-93559333D02*
X85912380Y-92892666D01*
X86912380Y-93321238D01*
%TO.C,R6*%
X99401333Y-102914380D02*
X99068000Y-102438190D01*
X98829904Y-102914380D02*
X98829904Y-101914380D01*
X99210857Y-101914380D01*
X99306095Y-101962000D01*
X99353714Y-102009619D01*
X99401333Y-102104857D01*
X99401333Y-102247714D01*
X99353714Y-102342952D01*
X99306095Y-102390571D01*
X99210857Y-102438190D01*
X98829904Y-102438190D01*
X100258476Y-101914380D02*
X100068000Y-101914380D01*
X99972761Y-101962000D01*
X99925142Y-102009619D01*
X99829904Y-102152476D01*
X99782285Y-102342952D01*
X99782285Y-102723904D01*
X99829904Y-102819142D01*
X99877523Y-102866761D01*
X99972761Y-102914380D01*
X100163238Y-102914380D01*
X100258476Y-102866761D01*
X100306095Y-102819142D01*
X100353714Y-102723904D01*
X100353714Y-102485809D01*
X100306095Y-102390571D01*
X100258476Y-102342952D01*
X100163238Y-102295333D01*
X99972761Y-102295333D01*
X99877523Y-102342952D01*
X99829904Y-102390571D01*
X99782285Y-102485809D01*
%TO.C,R5*%
X97072380Y-84365666D02*
X96596190Y-84699000D01*
X97072380Y-84937095D02*
X96072380Y-84937095D01*
X96072380Y-84556142D01*
X96120000Y-84460904D01*
X96167619Y-84413285D01*
X96262857Y-84365666D01*
X96405714Y-84365666D01*
X96500952Y-84413285D01*
X96548571Y-84460904D01*
X96596190Y-84556142D01*
X96596190Y-84937095D01*
X96072380Y-83460904D02*
X96072380Y-83937095D01*
X96548571Y-83984714D01*
X96500952Y-83937095D01*
X96453333Y-83841857D01*
X96453333Y-83603761D01*
X96500952Y-83508523D01*
X96548571Y-83460904D01*
X96643809Y-83413285D01*
X96881904Y-83413285D01*
X96977142Y-83460904D01*
X97024761Y-83508523D01*
X97072380Y-83603761D01*
X97072380Y-83841857D01*
X97024761Y-83937095D01*
X96977142Y-83984714D01*
%TO.C,R3*%
X100180380Y-78335666D02*
X99704190Y-78669000D01*
X100180380Y-78907095D02*
X99180380Y-78907095D01*
X99180380Y-78526142D01*
X99228000Y-78430904D01*
X99275619Y-78383285D01*
X99370857Y-78335666D01*
X99513714Y-78335666D01*
X99608952Y-78383285D01*
X99656571Y-78430904D01*
X99704190Y-78526142D01*
X99704190Y-78907095D01*
X99180380Y-78002333D02*
X99180380Y-77383285D01*
X99561333Y-77716619D01*
X99561333Y-77573761D01*
X99608952Y-77478523D01*
X99656571Y-77430904D01*
X99751809Y-77383285D01*
X99989904Y-77383285D01*
X100085142Y-77430904D01*
X100132761Y-77478523D01*
X100180380Y-77573761D01*
X100180380Y-77859476D01*
X100132761Y-77954714D01*
X100085142Y-78002333D01*
%TO.C,R2*%
X98402380Y-78335666D02*
X97926190Y-78669000D01*
X98402380Y-78907095D02*
X97402380Y-78907095D01*
X97402380Y-78526142D01*
X97450000Y-78430904D01*
X97497619Y-78383285D01*
X97592857Y-78335666D01*
X97735714Y-78335666D01*
X97830952Y-78383285D01*
X97878571Y-78430904D01*
X97926190Y-78526142D01*
X97926190Y-78907095D01*
X97497619Y-77954714D02*
X97450000Y-77907095D01*
X97402380Y-77811857D01*
X97402380Y-77573761D01*
X97450000Y-77478523D01*
X97497619Y-77430904D01*
X97592857Y-77383285D01*
X97688095Y-77383285D01*
X97830952Y-77430904D01*
X98402380Y-78002333D01*
X98402380Y-77383285D01*
%TO.C,R1*%
X63587333Y-87166380D02*
X63254000Y-86690190D01*
X63015904Y-87166380D02*
X63015904Y-86166380D01*
X63396857Y-86166380D01*
X63492095Y-86214000D01*
X63539714Y-86261619D01*
X63587333Y-86356857D01*
X63587333Y-86499714D01*
X63539714Y-86594952D01*
X63492095Y-86642571D01*
X63396857Y-86690190D01*
X63015904Y-86690190D01*
X64539714Y-87166380D02*
X63968285Y-87166380D01*
X64254000Y-87166380D02*
X64254000Y-86166380D01*
X64158761Y-86309238D01*
X64063523Y-86404476D01*
X63968285Y-86452095D01*
%TO.C,Q1*%
X95154761Y-83066619D02*
X95059523Y-83019000D01*
X94964285Y-82923761D01*
X94821428Y-82780904D01*
X94726190Y-82733285D01*
X94630952Y-82733285D01*
X94678571Y-82971380D02*
X94583333Y-82923761D01*
X94488095Y-82828523D01*
X94440476Y-82638047D01*
X94440476Y-82304714D01*
X94488095Y-82114238D01*
X94583333Y-82019000D01*
X94678571Y-81971380D01*
X94869047Y-81971380D01*
X94964285Y-82019000D01*
X95059523Y-82114238D01*
X95107142Y-82304714D01*
X95107142Y-82638047D01*
X95059523Y-82828523D01*
X94964285Y-82923761D01*
X94869047Y-82971380D01*
X94678571Y-82971380D01*
X96059523Y-82971380D02*
X95488095Y-82971380D01*
X95773809Y-82971380D02*
X95773809Y-81971380D01*
X95678571Y-82114238D01*
X95583333Y-82209476D01*
X95488095Y-82257095D01*
%TO.C,L2*%
X83399333Y-77260380D02*
X82923142Y-77260380D01*
X82923142Y-76260380D01*
X83685047Y-76355619D02*
X83732666Y-76308000D01*
X83827904Y-76260380D01*
X84066000Y-76260380D01*
X84161238Y-76308000D01*
X84208857Y-76355619D01*
X84256476Y-76450857D01*
X84256476Y-76546095D01*
X84208857Y-76688952D01*
X83637428Y-77260380D01*
X84256476Y-77260380D01*
%TO.C,L1*%
X80097333Y-80870380D02*
X79621142Y-80870380D01*
X79621142Y-79870380D01*
X80954476Y-80870380D02*
X80383047Y-80870380D01*
X80668761Y-80870380D02*
X80668761Y-79870380D01*
X80573523Y-80013238D01*
X80478285Y-80108476D01*
X80383047Y-80156095D01*
%TO.C,J3*%
X75354380Y-107775333D02*
X76068666Y-107775333D01*
X76211523Y-107822952D01*
X76306761Y-107918190D01*
X76354380Y-108061047D01*
X76354380Y-108156285D01*
X75354380Y-107394380D02*
X75354380Y-106775333D01*
X75735333Y-107108666D01*
X75735333Y-106965809D01*
X75782952Y-106870571D01*
X75830571Y-106822952D01*
X75925809Y-106775333D01*
X76163904Y-106775333D01*
X76259142Y-106822952D01*
X76306761Y-106870571D01*
X76354380Y-106965809D01*
X76354380Y-107251523D01*
X76306761Y-107346761D01*
X76259142Y-107394380D01*
%TO.C,IC1*%
D14*
X101026523Y-86583761D02*
X99756523Y-86583761D01*
X100905571Y-85253285D02*
X100966047Y-85313761D01*
X101026523Y-85495190D01*
X101026523Y-85616142D01*
X100966047Y-85797571D01*
X100845095Y-85918523D01*
X100724142Y-85979000D01*
X100482238Y-86039476D01*
X100300809Y-86039476D01*
X100058904Y-85979000D01*
X99937952Y-85918523D01*
X99817000Y-85797571D01*
X99756523Y-85616142D01*
X99756523Y-85495190D01*
X99817000Y-85313761D01*
X99877476Y-85253285D01*
X101026523Y-84043761D02*
X101026523Y-84769476D01*
X101026523Y-84406619D02*
X99756523Y-84406619D01*
X99937952Y-84527571D01*
X100058904Y-84648523D01*
X100119380Y-84769476D01*
%TO.C,E1*%
D15*
X78732523Y-74763571D02*
X79065857Y-74763571D01*
X79208714Y-75287380D02*
X78732523Y-75287380D01*
X78732523Y-74287380D01*
X79208714Y-74287380D01*
X80161095Y-75287380D02*
X79589666Y-75287380D01*
X79875380Y-75287380D02*
X79875380Y-74287380D01*
X79780142Y-74430238D01*
X79684904Y-74525476D01*
X79589666Y-74573095D01*
%TO.C,D4*%
D13*
X87414380Y-85487095D02*
X86414380Y-85487095D01*
X86414380Y-85249000D01*
X86462000Y-85106142D01*
X86557238Y-85010904D01*
X86652476Y-84963285D01*
X86842952Y-84915666D01*
X86985809Y-84915666D01*
X87176285Y-84963285D01*
X87271523Y-85010904D01*
X87366761Y-85106142D01*
X87414380Y-85249000D01*
X87414380Y-85487095D01*
X86747714Y-84058523D02*
X87414380Y-84058523D01*
X86366761Y-84296619D02*
X87081047Y-84534714D01*
X87081047Y-83915666D01*
%TO.C,D2*%
X90400380Y-86336095D02*
X89400380Y-86336095D01*
X89400380Y-86098000D01*
X89448000Y-85955142D01*
X89543238Y-85859904D01*
X89638476Y-85812285D01*
X89828952Y-85764666D01*
X89971809Y-85764666D01*
X90162285Y-85812285D01*
X90257523Y-85859904D01*
X90352761Y-85955142D01*
X90400380Y-86098000D01*
X90400380Y-86336095D01*
X89495619Y-85383714D02*
X89448000Y-85336095D01*
X89400380Y-85240857D01*
X89400380Y-85002761D01*
X89448000Y-84907523D01*
X89495619Y-84859904D01*
X89590857Y-84812285D01*
X89686095Y-84812285D01*
X89828952Y-84859904D01*
X90400380Y-85431333D01*
X90400380Y-84812285D01*
%TO.C,D1*%
X96624380Y-78970095D02*
X95624380Y-78970095D01*
X95624380Y-78732000D01*
X95672000Y-78589142D01*
X95767238Y-78493904D01*
X95862476Y-78446285D01*
X96052952Y-78398666D01*
X96195809Y-78398666D01*
X96386285Y-78446285D01*
X96481523Y-78493904D01*
X96576761Y-78589142D01*
X96624380Y-78732000D01*
X96624380Y-78970095D01*
X96624380Y-77446285D02*
X96624380Y-78017714D01*
X96624380Y-77732000D02*
X95624380Y-77732000D01*
X95767238Y-77827238D01*
X95862476Y-77922476D01*
X95910095Y-78017714D01*
%TO.C,C29*%
X78859142Y-100869142D02*
X78811523Y-100916761D01*
X78668666Y-100964380D01*
X78573428Y-100964380D01*
X78430571Y-100916761D01*
X78335333Y-100821523D01*
X78287714Y-100726285D01*
X78240095Y-100535809D01*
X78240095Y-100392952D01*
X78287714Y-100202476D01*
X78335333Y-100107238D01*
X78430571Y-100012000D01*
X78573428Y-99964380D01*
X78668666Y-99964380D01*
X78811523Y-100012000D01*
X78859142Y-100059619D01*
X79240095Y-100059619D02*
X79287714Y-100012000D01*
X79382952Y-99964380D01*
X79621047Y-99964380D01*
X79716285Y-100012000D01*
X79763904Y-100059619D01*
X79811523Y-100154857D01*
X79811523Y-100250095D01*
X79763904Y-100392952D01*
X79192476Y-100964380D01*
X79811523Y-100964380D01*
X80287714Y-100964380D02*
X80478190Y-100964380D01*
X80573428Y-100916761D01*
X80621047Y-100869142D01*
X80716285Y-100726285D01*
X80763904Y-100535809D01*
X80763904Y-100154857D01*
X80716285Y-100059619D01*
X80668666Y-100012000D01*
X80573428Y-99964380D01*
X80382952Y-99964380D01*
X80287714Y-100012000D01*
X80240095Y-100059619D01*
X80192476Y-100154857D01*
X80192476Y-100392952D01*
X80240095Y-100488190D01*
X80287714Y-100535809D01*
X80382952Y-100583428D01*
X80573428Y-100583428D01*
X80668666Y-100535809D01*
X80716285Y-100488190D01*
X80763904Y-100392952D01*
%TO.C,C28*%
X78859142Y-103409142D02*
X78811523Y-103456761D01*
X78668666Y-103504380D01*
X78573428Y-103504380D01*
X78430571Y-103456761D01*
X78335333Y-103361523D01*
X78287714Y-103266285D01*
X78240095Y-103075809D01*
X78240095Y-102932952D01*
X78287714Y-102742476D01*
X78335333Y-102647238D01*
X78430571Y-102552000D01*
X78573428Y-102504380D01*
X78668666Y-102504380D01*
X78811523Y-102552000D01*
X78859142Y-102599619D01*
X79240095Y-102599619D02*
X79287714Y-102552000D01*
X79382952Y-102504380D01*
X79621047Y-102504380D01*
X79716285Y-102552000D01*
X79763904Y-102599619D01*
X79811523Y-102694857D01*
X79811523Y-102790095D01*
X79763904Y-102932952D01*
X79192476Y-103504380D01*
X79811523Y-103504380D01*
X80382952Y-102932952D02*
X80287714Y-102885333D01*
X80240095Y-102837714D01*
X80192476Y-102742476D01*
X80192476Y-102694857D01*
X80240095Y-102599619D01*
X80287714Y-102552000D01*
X80382952Y-102504380D01*
X80573428Y-102504380D01*
X80668666Y-102552000D01*
X80716285Y-102599619D01*
X80763904Y-102694857D01*
X80763904Y-102742476D01*
X80716285Y-102837714D01*
X80668666Y-102885333D01*
X80573428Y-102932952D01*
X80382952Y-102932952D01*
X80287714Y-102980571D01*
X80240095Y-103028190D01*
X80192476Y-103123428D01*
X80192476Y-103313904D01*
X80240095Y-103409142D01*
X80287714Y-103456761D01*
X80382952Y-103504380D01*
X80573428Y-103504380D01*
X80668666Y-103456761D01*
X80716285Y-103409142D01*
X80763904Y-103313904D01*
X80763904Y-103123428D01*
X80716285Y-103028190D01*
X80668666Y-102980571D01*
X80573428Y-102932952D01*
%TO.C,C27*%
X91687142Y-94368857D02*
X91734761Y-94416476D01*
X91782380Y-94559333D01*
X91782380Y-94654571D01*
X91734761Y-94797428D01*
X91639523Y-94892666D01*
X91544285Y-94940285D01*
X91353809Y-94987904D01*
X91210952Y-94987904D01*
X91020476Y-94940285D01*
X90925238Y-94892666D01*
X90830000Y-94797428D01*
X90782380Y-94654571D01*
X90782380Y-94559333D01*
X90830000Y-94416476D01*
X90877619Y-94368857D01*
X90877619Y-93987904D02*
X90830000Y-93940285D01*
X90782380Y-93845047D01*
X90782380Y-93606952D01*
X90830000Y-93511714D01*
X90877619Y-93464095D01*
X90972857Y-93416476D01*
X91068095Y-93416476D01*
X91210952Y-93464095D01*
X91782380Y-94035523D01*
X91782380Y-93416476D01*
X90782380Y-93083142D02*
X90782380Y-92416476D01*
X91782380Y-92845047D01*
%TO.C,C26*%
X86225142Y-100831142D02*
X86177523Y-100878761D01*
X86034666Y-100926380D01*
X85939428Y-100926380D01*
X85796571Y-100878761D01*
X85701333Y-100783523D01*
X85653714Y-100688285D01*
X85606095Y-100497809D01*
X85606095Y-100354952D01*
X85653714Y-100164476D01*
X85701333Y-100069238D01*
X85796571Y-99974000D01*
X85939428Y-99926380D01*
X86034666Y-99926380D01*
X86177523Y-99974000D01*
X86225142Y-100021619D01*
X86606095Y-100021619D02*
X86653714Y-99974000D01*
X86748952Y-99926380D01*
X86987047Y-99926380D01*
X87082285Y-99974000D01*
X87129904Y-100021619D01*
X87177523Y-100116857D01*
X87177523Y-100212095D01*
X87129904Y-100354952D01*
X86558476Y-100926380D01*
X87177523Y-100926380D01*
X88034666Y-99926380D02*
X87844190Y-99926380D01*
X87748952Y-99974000D01*
X87701333Y-100021619D01*
X87606095Y-100164476D01*
X87558476Y-100354952D01*
X87558476Y-100735904D01*
X87606095Y-100831142D01*
X87653714Y-100878761D01*
X87748952Y-100926380D01*
X87939428Y-100926380D01*
X88034666Y-100878761D01*
X88082285Y-100831142D01*
X88129904Y-100735904D01*
X88129904Y-100497809D01*
X88082285Y-100402571D01*
X88034666Y-100354952D01*
X87939428Y-100307333D01*
X87748952Y-100307333D01*
X87653714Y-100354952D01*
X87606095Y-100402571D01*
X87558476Y-100497809D01*
%TO.C,C25*%
X86225142Y-102101142D02*
X86177523Y-102148761D01*
X86034666Y-102196380D01*
X85939428Y-102196380D01*
X85796571Y-102148761D01*
X85701333Y-102053523D01*
X85653714Y-101958285D01*
X85606095Y-101767809D01*
X85606095Y-101624952D01*
X85653714Y-101434476D01*
X85701333Y-101339238D01*
X85796571Y-101244000D01*
X85939428Y-101196380D01*
X86034666Y-101196380D01*
X86177523Y-101244000D01*
X86225142Y-101291619D01*
X86606095Y-101291619D02*
X86653714Y-101244000D01*
X86748952Y-101196380D01*
X86987047Y-101196380D01*
X87082285Y-101244000D01*
X87129904Y-101291619D01*
X87177523Y-101386857D01*
X87177523Y-101482095D01*
X87129904Y-101624952D01*
X86558476Y-102196380D01*
X87177523Y-102196380D01*
X88082285Y-101196380D02*
X87606095Y-101196380D01*
X87558476Y-101672571D01*
X87606095Y-101624952D01*
X87701333Y-101577333D01*
X87939428Y-101577333D01*
X88034666Y-101624952D01*
X88082285Y-101672571D01*
X88129904Y-101767809D01*
X88129904Y-102005904D01*
X88082285Y-102101142D01*
X88034666Y-102148761D01*
X87939428Y-102196380D01*
X87701333Y-102196380D01*
X87606095Y-102148761D01*
X87558476Y-102101142D01*
%TO.C,C24*%
X98953142Y-101559142D02*
X98905523Y-101606761D01*
X98762666Y-101654380D01*
X98667428Y-101654380D01*
X98524571Y-101606761D01*
X98429333Y-101511523D01*
X98381714Y-101416285D01*
X98334095Y-101225809D01*
X98334095Y-101082952D01*
X98381714Y-100892476D01*
X98429333Y-100797238D01*
X98524571Y-100702000D01*
X98667428Y-100654380D01*
X98762666Y-100654380D01*
X98905523Y-100702000D01*
X98953142Y-100749619D01*
X99334095Y-100749619D02*
X99381714Y-100702000D01*
X99476952Y-100654380D01*
X99715047Y-100654380D01*
X99810285Y-100702000D01*
X99857904Y-100749619D01*
X99905523Y-100844857D01*
X99905523Y-100940095D01*
X99857904Y-101082952D01*
X99286476Y-101654380D01*
X99905523Y-101654380D01*
X100762666Y-100987714D02*
X100762666Y-101654380D01*
X100524571Y-100606761D02*
X100286476Y-101321047D01*
X100905523Y-101321047D01*
%TO.C,C22*%
X90417142Y-94368857D02*
X90464761Y-94416476D01*
X90512380Y-94559333D01*
X90512380Y-94654571D01*
X90464761Y-94797428D01*
X90369523Y-94892666D01*
X90274285Y-94940285D01*
X90083809Y-94987904D01*
X89940952Y-94987904D01*
X89750476Y-94940285D01*
X89655238Y-94892666D01*
X89560000Y-94797428D01*
X89512380Y-94654571D01*
X89512380Y-94559333D01*
X89560000Y-94416476D01*
X89607619Y-94368857D01*
X89607619Y-93987904D02*
X89560000Y-93940285D01*
X89512380Y-93845047D01*
X89512380Y-93606952D01*
X89560000Y-93511714D01*
X89607619Y-93464095D01*
X89702857Y-93416476D01*
X89798095Y-93416476D01*
X89940952Y-93464095D01*
X90512380Y-94035523D01*
X90512380Y-93416476D01*
X89607619Y-93035523D02*
X89560000Y-92987904D01*
X89512380Y-92892666D01*
X89512380Y-92654571D01*
X89560000Y-92559333D01*
X89607619Y-92511714D01*
X89702857Y-92464095D01*
X89798095Y-92464095D01*
X89940952Y-92511714D01*
X90512380Y-93083142D01*
X90512380Y-92464095D01*
%TO.C,C20*%
X84321142Y-104528857D02*
X84368761Y-104576476D01*
X84416380Y-104719333D01*
X84416380Y-104814571D01*
X84368761Y-104957428D01*
X84273523Y-105052666D01*
X84178285Y-105100285D01*
X83987809Y-105147904D01*
X83844952Y-105147904D01*
X83654476Y-105100285D01*
X83559238Y-105052666D01*
X83464000Y-104957428D01*
X83416380Y-104814571D01*
X83416380Y-104719333D01*
X83464000Y-104576476D01*
X83511619Y-104528857D01*
X83511619Y-104147904D02*
X83464000Y-104100285D01*
X83416380Y-104005047D01*
X83416380Y-103766952D01*
X83464000Y-103671714D01*
X83511619Y-103624095D01*
X83606857Y-103576476D01*
X83702095Y-103576476D01*
X83844952Y-103624095D01*
X84416380Y-104195523D01*
X84416380Y-103576476D01*
X83416380Y-102957428D02*
X83416380Y-102862190D01*
X83464000Y-102766952D01*
X83511619Y-102719333D01*
X83606857Y-102671714D01*
X83797333Y-102624095D01*
X84035428Y-102624095D01*
X84225904Y-102671714D01*
X84321142Y-102719333D01*
X84368761Y-102766952D01*
X84416380Y-102862190D01*
X84416380Y-102957428D01*
X84368761Y-103052666D01*
X84321142Y-103100285D01*
X84225904Y-103147904D01*
X84035428Y-103195523D01*
X83797333Y-103195523D01*
X83606857Y-103147904D01*
X83511619Y-103100285D01*
X83464000Y-103052666D01*
X83416380Y-102957428D01*
%TO.C,C18*%
X83939142Y-103591142D02*
X83891523Y-103638761D01*
X83748666Y-103686380D01*
X83653428Y-103686380D01*
X83510571Y-103638761D01*
X83415333Y-103543523D01*
X83367714Y-103448285D01*
X83320095Y-103257809D01*
X83320095Y-103114952D01*
X83367714Y-102924476D01*
X83415333Y-102829238D01*
X83510571Y-102734000D01*
X83653428Y-102686380D01*
X83748666Y-102686380D01*
X83891523Y-102734000D01*
X83939142Y-102781619D01*
X84891523Y-103686380D02*
X84320095Y-103686380D01*
X84605809Y-103686380D02*
X84605809Y-102686380D01*
X84510571Y-102829238D01*
X84415333Y-102924476D01*
X84320095Y-102972095D01*
X85462952Y-103114952D02*
X85367714Y-103067333D01*
X85320095Y-103019714D01*
X85272476Y-102924476D01*
X85272476Y-102876857D01*
X85320095Y-102781619D01*
X85367714Y-102734000D01*
X85462952Y-102686380D01*
X85653428Y-102686380D01*
X85748666Y-102734000D01*
X85796285Y-102781619D01*
X85843904Y-102876857D01*
X85843904Y-102924476D01*
X85796285Y-103019714D01*
X85748666Y-103067333D01*
X85653428Y-103114952D01*
X85462952Y-103114952D01*
X85367714Y-103162571D01*
X85320095Y-103210190D01*
X85272476Y-103305428D01*
X85272476Y-103495904D01*
X85320095Y-103591142D01*
X85367714Y-103638761D01*
X85462952Y-103686380D01*
X85653428Y-103686380D01*
X85748666Y-103638761D01*
X85796285Y-103591142D01*
X85843904Y-103495904D01*
X85843904Y-103305428D01*
X85796285Y-103210190D01*
X85748666Y-103162571D01*
X85653428Y-103114952D01*
%TO.C,C17*%
X86225142Y-101051142D02*
X86177523Y-101098761D01*
X86034666Y-101146380D01*
X85939428Y-101146380D01*
X85796571Y-101098761D01*
X85701333Y-101003523D01*
X85653714Y-100908285D01*
X85606095Y-100717809D01*
X85606095Y-100574952D01*
X85653714Y-100384476D01*
X85701333Y-100289238D01*
X85796571Y-100194000D01*
X85939428Y-100146380D01*
X86034666Y-100146380D01*
X86177523Y-100194000D01*
X86225142Y-100241619D01*
X87177523Y-101146380D02*
X86606095Y-101146380D01*
X86891809Y-101146380D02*
X86891809Y-100146380D01*
X86796571Y-100289238D01*
X86701333Y-100384476D01*
X86606095Y-100432095D01*
X87510857Y-100146380D02*
X88177523Y-100146380D01*
X87748952Y-101146380D01*
%TO.C,C16*%
X83911142Y-102321142D02*
X83863523Y-102368761D01*
X83720666Y-102416380D01*
X83625428Y-102416380D01*
X83482571Y-102368761D01*
X83387333Y-102273523D01*
X83339714Y-102178285D01*
X83292095Y-101987809D01*
X83292095Y-101844952D01*
X83339714Y-101654476D01*
X83387333Y-101559238D01*
X83482571Y-101464000D01*
X83625428Y-101416380D01*
X83720666Y-101416380D01*
X83863523Y-101464000D01*
X83911142Y-101511619D01*
X84863523Y-102416380D02*
X84292095Y-102416380D01*
X84577809Y-102416380D02*
X84577809Y-101416380D01*
X84482571Y-101559238D01*
X84387333Y-101654476D01*
X84292095Y-101702095D01*
X85720666Y-101416380D02*
X85530190Y-101416380D01*
X85434952Y-101464000D01*
X85387333Y-101511619D01*
X85292095Y-101654476D01*
X85244476Y-101844952D01*
X85244476Y-102225904D01*
X85292095Y-102321142D01*
X85339714Y-102368761D01*
X85434952Y-102416380D01*
X85625428Y-102416380D01*
X85720666Y-102368761D01*
X85768285Y-102321142D01*
X85815904Y-102225904D01*
X85815904Y-101987809D01*
X85768285Y-101892571D01*
X85720666Y-101844952D01*
X85625428Y-101797333D01*
X85434952Y-101797333D01*
X85339714Y-101844952D01*
X85292095Y-101892571D01*
X85244476Y-101987809D01*
%TO.C,C15*%
X76667142Y-97924857D02*
X76714761Y-97972476D01*
X76762380Y-98115333D01*
X76762380Y-98210571D01*
X76714761Y-98353428D01*
X76619523Y-98448666D01*
X76524285Y-98496285D01*
X76333809Y-98543904D01*
X76190952Y-98543904D01*
X76000476Y-98496285D01*
X75905238Y-98448666D01*
X75810000Y-98353428D01*
X75762380Y-98210571D01*
X75762380Y-98115333D01*
X75810000Y-97972476D01*
X75857619Y-97924857D01*
X76762380Y-96972476D02*
X76762380Y-97543904D01*
X76762380Y-97258190D02*
X75762380Y-97258190D01*
X75905238Y-97353428D01*
X76000476Y-97448666D01*
X76048095Y-97543904D01*
X75762380Y-96067714D02*
X75762380Y-96543904D01*
X76238571Y-96591523D01*
X76190952Y-96543904D01*
X76143333Y-96448666D01*
X76143333Y-96210571D01*
X76190952Y-96115333D01*
X76238571Y-96067714D01*
X76333809Y-96020095D01*
X76571904Y-96020095D01*
X76667142Y-96067714D01*
X76714761Y-96115333D01*
X76762380Y-96210571D01*
X76762380Y-96448666D01*
X76714761Y-96543904D01*
X76667142Y-96591523D01*
%TO.C,C13*%
X84287142Y-94368857D02*
X84334761Y-94416476D01*
X84382380Y-94559333D01*
X84382380Y-94654571D01*
X84334761Y-94797428D01*
X84239523Y-94892666D01*
X84144285Y-94940285D01*
X83953809Y-94987904D01*
X83810952Y-94987904D01*
X83620476Y-94940285D01*
X83525238Y-94892666D01*
X83430000Y-94797428D01*
X83382380Y-94654571D01*
X83382380Y-94559333D01*
X83430000Y-94416476D01*
X83477619Y-94368857D01*
X84382380Y-93416476D02*
X84382380Y-93987904D01*
X84382380Y-93702190D02*
X83382380Y-93702190D01*
X83525238Y-93797428D01*
X83620476Y-93892666D01*
X83668095Y-93987904D01*
X83382380Y-93083142D02*
X83382380Y-92464095D01*
X83763333Y-92797428D01*
X83763333Y-92654571D01*
X83810952Y-92559333D01*
X83858571Y-92511714D01*
X83953809Y-92464095D01*
X84191904Y-92464095D01*
X84287142Y-92511714D01*
X84334761Y-92559333D01*
X84382380Y-92654571D01*
X84382380Y-92940285D01*
X84334761Y-93035523D01*
X84287142Y-93083142D01*
%TO.C,C12*%
X99019142Y-79354857D02*
X99066761Y-79402476D01*
X99114380Y-79545333D01*
X99114380Y-79640571D01*
X99066761Y-79783428D01*
X98971523Y-79878666D01*
X98876285Y-79926285D01*
X98685809Y-79973904D01*
X98542952Y-79973904D01*
X98352476Y-79926285D01*
X98257238Y-79878666D01*
X98162000Y-79783428D01*
X98114380Y-79640571D01*
X98114380Y-79545333D01*
X98162000Y-79402476D01*
X98209619Y-79354857D01*
X99114380Y-78402476D02*
X99114380Y-78973904D01*
X99114380Y-78688190D02*
X98114380Y-78688190D01*
X98257238Y-78783428D01*
X98352476Y-78878666D01*
X98400095Y-78973904D01*
X98209619Y-78021523D02*
X98162000Y-77973904D01*
X98114380Y-77878666D01*
X98114380Y-77640571D01*
X98162000Y-77545333D01*
X98209619Y-77497714D01*
X98304857Y-77450095D01*
X98400095Y-77450095D01*
X98542952Y-77497714D01*
X99114380Y-78069142D01*
X99114380Y-77450095D01*
%TO.C,C11*%
X76413142Y-87002857D02*
X76460761Y-87050476D01*
X76508380Y-87193333D01*
X76508380Y-87288571D01*
X76460761Y-87431428D01*
X76365523Y-87526666D01*
X76270285Y-87574285D01*
X76079809Y-87621904D01*
X75936952Y-87621904D01*
X75746476Y-87574285D01*
X75651238Y-87526666D01*
X75556000Y-87431428D01*
X75508380Y-87288571D01*
X75508380Y-87193333D01*
X75556000Y-87050476D01*
X75603619Y-87002857D01*
X76508380Y-86050476D02*
X76508380Y-86621904D01*
X76508380Y-86336190D02*
X75508380Y-86336190D01*
X75651238Y-86431428D01*
X75746476Y-86526666D01*
X75794095Y-86621904D01*
X76508380Y-85098095D02*
X76508380Y-85669523D01*
X76508380Y-85383809D02*
X75508380Y-85383809D01*
X75651238Y-85479047D01*
X75746476Y-85574285D01*
X75794095Y-85669523D01*
%TO.C,C10*%
X94481142Y-92844857D02*
X94528761Y-92892476D01*
X94576380Y-93035333D01*
X94576380Y-93130571D01*
X94528761Y-93273428D01*
X94433523Y-93368666D01*
X94338285Y-93416285D01*
X94147809Y-93463904D01*
X94004952Y-93463904D01*
X93814476Y-93416285D01*
X93719238Y-93368666D01*
X93624000Y-93273428D01*
X93576380Y-93130571D01*
X93576380Y-93035333D01*
X93624000Y-92892476D01*
X93671619Y-92844857D01*
X94576380Y-91892476D02*
X94576380Y-92463904D01*
X94576380Y-92178190D02*
X93576380Y-92178190D01*
X93719238Y-92273428D01*
X93814476Y-92368666D01*
X93862095Y-92463904D01*
X93576380Y-91273428D02*
X93576380Y-91178190D01*
X93624000Y-91082952D01*
X93671619Y-91035333D01*
X93766857Y-90987714D01*
X93957333Y-90940095D01*
X94195428Y-90940095D01*
X94385904Y-90987714D01*
X94481142Y-91035333D01*
X94528761Y-91082952D01*
X94576380Y-91178190D01*
X94576380Y-91273428D01*
X94528761Y-91368666D01*
X94481142Y-91416285D01*
X94385904Y-91463904D01*
X94195428Y-91511523D01*
X93957333Y-91511523D01*
X93766857Y-91463904D01*
X93671619Y-91416285D01*
X93624000Y-91368666D01*
X93576380Y-91273428D01*
%TO.C,C9*%
X78733142Y-88812666D02*
X78780761Y-88860285D01*
X78828380Y-89003142D01*
X78828380Y-89098380D01*
X78780761Y-89241238D01*
X78685523Y-89336476D01*
X78590285Y-89384095D01*
X78399809Y-89431714D01*
X78256952Y-89431714D01*
X78066476Y-89384095D01*
X77971238Y-89336476D01*
X77876000Y-89241238D01*
X77828380Y-89098380D01*
X77828380Y-89003142D01*
X77876000Y-88860285D01*
X77923619Y-88812666D01*
X78828380Y-88336476D02*
X78828380Y-88146000D01*
X78780761Y-88050761D01*
X78733142Y-88003142D01*
X78590285Y-87907904D01*
X78399809Y-87860285D01*
X78018857Y-87860285D01*
X77923619Y-87907904D01*
X77876000Y-87955523D01*
X77828380Y-88050761D01*
X77828380Y-88241238D01*
X77876000Y-88336476D01*
X77923619Y-88384095D01*
X78018857Y-88431714D01*
X78256952Y-88431714D01*
X78352190Y-88384095D01*
X78399809Y-88336476D01*
X78447428Y-88241238D01*
X78447428Y-88050761D01*
X78399809Y-87955523D01*
X78352190Y-87907904D01*
X78256952Y-87860285D01*
%TO.C,C8*%
X86701333Y-102321142D02*
X86653714Y-102368761D01*
X86510857Y-102416380D01*
X86415619Y-102416380D01*
X86272761Y-102368761D01*
X86177523Y-102273523D01*
X86129904Y-102178285D01*
X86082285Y-101987809D01*
X86082285Y-101844952D01*
X86129904Y-101654476D01*
X86177523Y-101559238D01*
X86272761Y-101464000D01*
X86415619Y-101416380D01*
X86510857Y-101416380D01*
X86653714Y-101464000D01*
X86701333Y-101511619D01*
X87272761Y-101844952D02*
X87177523Y-101797333D01*
X87129904Y-101749714D01*
X87082285Y-101654476D01*
X87082285Y-101606857D01*
X87129904Y-101511619D01*
X87177523Y-101464000D01*
X87272761Y-101416380D01*
X87463238Y-101416380D01*
X87558476Y-101464000D01*
X87606095Y-101511619D01*
X87653714Y-101606857D01*
X87653714Y-101654476D01*
X87606095Y-101749714D01*
X87558476Y-101797333D01*
X87463238Y-101844952D01*
X87272761Y-101844952D01*
X87177523Y-101892571D01*
X87129904Y-101940190D01*
X87082285Y-102035428D01*
X87082285Y-102225904D01*
X87129904Y-102321142D01*
X87177523Y-102368761D01*
X87272761Y-102416380D01*
X87463238Y-102416380D01*
X87558476Y-102368761D01*
X87606095Y-102321142D01*
X87653714Y-102225904D01*
X87653714Y-102035428D01*
X87606095Y-101940190D01*
X87558476Y-101892571D01*
X87463238Y-101844952D01*
%TO.C,C7*%
X84415333Y-101051142D02*
X84367714Y-101098761D01*
X84224857Y-101146380D01*
X84129619Y-101146380D01*
X83986761Y-101098761D01*
X83891523Y-101003523D01*
X83843904Y-100908285D01*
X83796285Y-100717809D01*
X83796285Y-100574952D01*
X83843904Y-100384476D01*
X83891523Y-100289238D01*
X83986761Y-100194000D01*
X84129619Y-100146380D01*
X84224857Y-100146380D01*
X84367714Y-100194000D01*
X84415333Y-100241619D01*
X84748666Y-100146380D02*
X85415333Y-100146380D01*
X84986761Y-101146380D01*
%TO.C,C6*%
X77937142Y-97448666D02*
X77984761Y-97496285D01*
X78032380Y-97639142D01*
X78032380Y-97734380D01*
X77984761Y-97877238D01*
X77889523Y-97972476D01*
X77794285Y-98020095D01*
X77603809Y-98067714D01*
X77460952Y-98067714D01*
X77270476Y-98020095D01*
X77175238Y-97972476D01*
X77080000Y-97877238D01*
X77032380Y-97734380D01*
X77032380Y-97639142D01*
X77080000Y-97496285D01*
X77127619Y-97448666D01*
X77032380Y-96591523D02*
X77032380Y-96782000D01*
X77080000Y-96877238D01*
X77127619Y-96924857D01*
X77270476Y-97020095D01*
X77460952Y-97067714D01*
X77841904Y-97067714D01*
X77937142Y-97020095D01*
X77984761Y-96972476D01*
X78032380Y-96877238D01*
X78032380Y-96686761D01*
X77984761Y-96591523D01*
X77937142Y-96543904D01*
X77841904Y-96496285D01*
X77603809Y-96496285D01*
X77508571Y-96543904D01*
X77460952Y-96591523D01*
X77413333Y-96686761D01*
X77413333Y-96877238D01*
X77460952Y-96972476D01*
X77508571Y-97020095D01*
X77603809Y-97067714D01*
%TO.C,C5*%
X83017142Y-93892666D02*
X83064761Y-93940285D01*
X83112380Y-94083142D01*
X83112380Y-94178380D01*
X83064761Y-94321238D01*
X82969523Y-94416476D01*
X82874285Y-94464095D01*
X82683809Y-94511714D01*
X82540952Y-94511714D01*
X82350476Y-94464095D01*
X82255238Y-94416476D01*
X82160000Y-94321238D01*
X82112380Y-94178380D01*
X82112380Y-94083142D01*
X82160000Y-93940285D01*
X82207619Y-93892666D01*
X82112380Y-92987904D02*
X82112380Y-93464095D01*
X82588571Y-93511714D01*
X82540952Y-93464095D01*
X82493333Y-93368857D01*
X82493333Y-93130761D01*
X82540952Y-93035523D01*
X82588571Y-92987904D01*
X82683809Y-92940285D01*
X82921904Y-92940285D01*
X83017142Y-92987904D01*
X83064761Y-93035523D01*
X83112380Y-93130761D01*
X83112380Y-93368857D01*
X83064761Y-93464095D01*
X83017142Y-93511714D01*
%TO.C,C4*%
X94321333Y-86827142D02*
X94273714Y-86874761D01*
X94130857Y-86922380D01*
X94035619Y-86922380D01*
X93892761Y-86874761D01*
X93797523Y-86779523D01*
X93749904Y-86684285D01*
X93702285Y-86493809D01*
X93702285Y-86350952D01*
X93749904Y-86160476D01*
X93797523Y-86065238D01*
X93892761Y-85970000D01*
X94035619Y-85922380D01*
X94130857Y-85922380D01*
X94273714Y-85970000D01*
X94321333Y-86017619D01*
X95178476Y-86255714D02*
X95178476Y-86922380D01*
X94940380Y-85874761D02*
X94702285Y-86589047D01*
X95321333Y-86589047D01*
%TO.C,C3*%
X95751142Y-92368666D02*
X95798761Y-92416285D01*
X95846380Y-92559142D01*
X95846380Y-92654380D01*
X95798761Y-92797238D01*
X95703523Y-92892476D01*
X95608285Y-92940095D01*
X95417809Y-92987714D01*
X95274952Y-92987714D01*
X95084476Y-92940095D01*
X94989238Y-92892476D01*
X94894000Y-92797238D01*
X94846380Y-92654380D01*
X94846380Y-92559142D01*
X94894000Y-92416285D01*
X94941619Y-92368666D01*
X94846380Y-92035333D02*
X94846380Y-91416285D01*
X95227333Y-91749619D01*
X95227333Y-91606761D01*
X95274952Y-91511523D01*
X95322571Y-91463904D01*
X95417809Y-91416285D01*
X95655904Y-91416285D01*
X95751142Y-91463904D01*
X95798761Y-91511523D01*
X95846380Y-91606761D01*
X95846380Y-91892476D01*
X95798761Y-91987714D01*
X95751142Y-92035333D01*
%TO.C,C2*%
X82383333Y-78445142D02*
X82335714Y-78492761D01*
X82192857Y-78540380D01*
X82097619Y-78540380D01*
X81954761Y-78492761D01*
X81859523Y-78397523D01*
X81811904Y-78302285D01*
X81764285Y-78111809D01*
X81764285Y-77968952D01*
X81811904Y-77778476D01*
X81859523Y-77683238D01*
X81954761Y-77588000D01*
X82097619Y-77540380D01*
X82192857Y-77540380D01*
X82335714Y-77588000D01*
X82383333Y-77635619D01*
X82764285Y-77635619D02*
X82811904Y-77588000D01*
X82907142Y-77540380D01*
X83145238Y-77540380D01*
X83240476Y-77588000D01*
X83288095Y-77635619D01*
X83335714Y-77730857D01*
X83335714Y-77826095D01*
X83288095Y-77968952D01*
X82716666Y-78540380D01*
X83335714Y-78540380D01*
%TO.C,C1*%
X63587333Y-88605142D02*
X63539714Y-88652761D01*
X63396857Y-88700380D01*
X63301619Y-88700380D01*
X63158761Y-88652761D01*
X63063523Y-88557523D01*
X63015904Y-88462285D01*
X62968285Y-88271809D01*
X62968285Y-88128952D01*
X63015904Y-87938476D01*
X63063523Y-87843238D01*
X63158761Y-87748000D01*
X63301619Y-87700380D01*
X63396857Y-87700380D01*
X63539714Y-87748000D01*
X63587333Y-87795619D01*
X64539714Y-88700380D02*
X63968285Y-88700380D01*
X64254000Y-88700380D02*
X64254000Y-87700380D01*
X64158761Y-87843238D01*
X64063523Y-87938476D01*
X63968285Y-87986095D01*
%TD*%
M02*
