G04 #@! TF.GenerationSoftware,KiCad,Pcbnew,(5.1.8)-1*
G04 #@! TF.CreationDate,2021-01-25T23:00:58-08:00*
G04 #@! TF.ProjectId,audioboard,61756469-6f62-46f6-9172-642e6b696361,rev?*
G04 #@! TF.SameCoordinates,Original*
G04 #@! TF.FileFunction,Copper,L1,Top*
G04 #@! TF.FilePolarity,Positive*
%FSLAX46Y46*%
G04 Gerber Fmt 4.6, Leading zero omitted, Abs format (unit mm)*
G04 Created by KiCad (PCBNEW (5.1.8)-1) date 2021-01-25 23:00:58*
%MOMM*%
%LPD*%
G01*
G04 APERTURE LIST*
G04 #@! TA.AperFunction,SMDPad,CuDef*
%ADD10R,0.800000X1.200000*%
G04 #@! TD*
G04 #@! TA.AperFunction,SMDPad,CuDef*
%ADD11R,0.760000X1.200000*%
G04 #@! TD*
G04 #@! TA.AperFunction,SMDPad,CuDef*
%ADD12R,0.700000X1.200000*%
G04 #@! TD*
G04 #@! TA.AperFunction,ComponentPad*
%ADD13O,1.100000X2.200000*%
G04 #@! TD*
G04 #@! TA.AperFunction,ComponentPad*
%ADD14C,3.000000*%
G04 #@! TD*
G04 #@! TA.AperFunction,ComponentPad*
%ADD15O,1.700000X1.700000*%
G04 #@! TD*
G04 #@! TA.AperFunction,ComponentPad*
%ADD16R,1.700000X1.700000*%
G04 #@! TD*
G04 #@! TA.AperFunction,SMDPad,CuDef*
%ADD17R,1.500000X2.000000*%
G04 #@! TD*
G04 #@! TA.AperFunction,SMDPad,CuDef*
%ADD18R,3.800000X2.000000*%
G04 #@! TD*
G04 #@! TA.AperFunction,SMDPad,CuDef*
%ADD19R,5.300000X5.300000*%
G04 #@! TD*
G04 #@! TA.AperFunction,SMDPad,CuDef*
%ADD20R,2.400000X2.400000*%
G04 #@! TD*
G04 #@! TA.AperFunction,SMDPad,CuDef*
%ADD21C,0.100000*%
G04 #@! TD*
G04 #@! TA.AperFunction,SMDPad,CuDef*
%ADD22R,2.000000X1.050000*%
G04 #@! TD*
G04 #@! TA.AperFunction,SMDPad,CuDef*
%ADD23R,0.900000X0.800000*%
G04 #@! TD*
G04 #@! TA.AperFunction,SMDPad,CuDef*
%ADD24R,1.050000X0.550000*%
G04 #@! TD*
G04 #@! TA.AperFunction,SMDPad,CuDef*
%ADD25R,1.200000X1.500000*%
G04 #@! TD*
G04 #@! TA.AperFunction,SMDPad,CuDef*
%ADD26R,0.900000X1.200000*%
G04 #@! TD*
G04 #@! TA.AperFunction,ViaPad*
%ADD27C,0.800000*%
G04 #@! TD*
G04 #@! TA.AperFunction,ViaPad*
%ADD28C,0.600000*%
G04 #@! TD*
G04 #@! TA.AperFunction,Conductor*
%ADD29C,0.250000*%
G04 #@! TD*
G04 #@! TA.AperFunction,Conductor*
%ADD30C,0.500000*%
G04 #@! TD*
G04 APERTURE END LIST*
G04 #@! TA.AperFunction,SMDPad,CuDef*
G36*
G01*
X200487500Y-75120000D02*
X200832500Y-75120000D01*
G75*
G02*
X200980000Y-75267500I0J-147500D01*
G01*
X200980000Y-75562500D01*
G75*
G02*
X200832500Y-75710000I-147500J0D01*
G01*
X200487500Y-75710000D01*
G75*
G02*
X200340000Y-75562500I0J147500D01*
G01*
X200340000Y-75267500D01*
G75*
G02*
X200487500Y-75120000I147500J0D01*
G01*
G37*
G04 #@! TD.AperFunction*
G04 #@! TA.AperFunction,SMDPad,CuDef*
G36*
G01*
X200487500Y-74150000D02*
X200832500Y-74150000D01*
G75*
G02*
X200980000Y-74297500I0J-147500D01*
G01*
X200980000Y-74592500D01*
G75*
G02*
X200832500Y-74740000I-147500J0D01*
G01*
X200487500Y-74740000D01*
G75*
G02*
X200340000Y-74592500I0J147500D01*
G01*
X200340000Y-74297500D01*
G75*
G02*
X200487500Y-74150000I147500J0D01*
G01*
G37*
G04 #@! TD.AperFunction*
D10*
X197148000Y-94916000D03*
X202648000Y-94916000D03*
D11*
X198378000Y-94916000D03*
X201418000Y-94916000D03*
D12*
X199398000Y-94916000D03*
X200398000Y-94916000D03*
D13*
X195578000Y-94996000D03*
X204218000Y-94996000D03*
X195578000Y-98796000D03*
X204218000Y-98796000D03*
D14*
X175133000Y-98679000D03*
G04 #@! TA.AperFunction,SMDPad,CuDef*
G36*
G01*
X204865000Y-77920000D02*
X204865000Y-78290000D01*
G75*
G02*
X204730000Y-78425000I-135000J0D01*
G01*
X204460000Y-78425000D01*
G75*
G02*
X204325000Y-78290000I0J135000D01*
G01*
X204325000Y-77920000D01*
G75*
G02*
X204460000Y-77785000I135000J0D01*
G01*
X204730000Y-77785000D01*
G75*
G02*
X204865000Y-77920000I0J-135000D01*
G01*
G37*
G04 #@! TD.AperFunction*
G04 #@! TA.AperFunction,SMDPad,CuDef*
G36*
G01*
X205885000Y-77920000D02*
X205885000Y-78290000D01*
G75*
G02*
X205750000Y-78425000I-135000J0D01*
G01*
X205480000Y-78425000D01*
G75*
G02*
X205345000Y-78290000I0J135000D01*
G01*
X205345000Y-77920000D01*
G75*
G02*
X205480000Y-77785000I135000J0D01*
G01*
X205750000Y-77785000D01*
G75*
G02*
X205885000Y-77920000I0J-135000D01*
G01*
G37*
G04 #@! TD.AperFunction*
D15*
X205105000Y-91440000D03*
D16*
X205105000Y-88900000D03*
G04 #@! TA.AperFunction,SMDPad,CuDef*
G36*
G01*
X201745000Y-89775000D02*
X202115000Y-89775000D01*
G75*
G02*
X202250000Y-89910000I0J-135000D01*
G01*
X202250000Y-90180000D01*
G75*
G02*
X202115000Y-90315000I-135000J0D01*
G01*
X201745000Y-90315000D01*
G75*
G02*
X201610000Y-90180000I0J135000D01*
G01*
X201610000Y-89910000D01*
G75*
G02*
X201745000Y-89775000I135000J0D01*
G01*
G37*
G04 #@! TD.AperFunction*
G04 #@! TA.AperFunction,SMDPad,CuDef*
G36*
G01*
X201745000Y-88755000D02*
X202115000Y-88755000D01*
G75*
G02*
X202250000Y-88890000I0J-135000D01*
G01*
X202250000Y-89160000D01*
G75*
G02*
X202115000Y-89295000I-135000J0D01*
G01*
X201745000Y-89295000D01*
G75*
G02*
X201610000Y-89160000I0J135000D01*
G01*
X201610000Y-88890000D01*
G75*
G02*
X201745000Y-88755000I135000J0D01*
G01*
G37*
G04 #@! TD.AperFunction*
G04 #@! TA.AperFunction,SMDPad,CuDef*
G36*
G01*
X198305000Y-89295000D02*
X197935000Y-89295000D01*
G75*
G02*
X197800000Y-89160000I0J135000D01*
G01*
X197800000Y-88890000D01*
G75*
G02*
X197935000Y-88755000I135000J0D01*
G01*
X198305000Y-88755000D01*
G75*
G02*
X198440000Y-88890000I0J-135000D01*
G01*
X198440000Y-89160000D01*
G75*
G02*
X198305000Y-89295000I-135000J0D01*
G01*
G37*
G04 #@! TD.AperFunction*
G04 #@! TA.AperFunction,SMDPad,CuDef*
G36*
G01*
X198305000Y-90315000D02*
X197935000Y-90315000D01*
G75*
G02*
X197800000Y-90180000I0J135000D01*
G01*
X197800000Y-89910000D01*
G75*
G02*
X197935000Y-89775000I135000J0D01*
G01*
X198305000Y-89775000D01*
G75*
G02*
X198440000Y-89910000I0J-135000D01*
G01*
X198440000Y-90180000D01*
G75*
G02*
X198305000Y-90315000I-135000J0D01*
G01*
G37*
G04 #@! TD.AperFunction*
G04 #@! TA.AperFunction,SMDPad,CuDef*
G36*
G01*
X187184000Y-70289000D02*
X187184000Y-69919000D01*
G75*
G02*
X187319000Y-69784000I135000J0D01*
G01*
X187589000Y-69784000D01*
G75*
G02*
X187724000Y-69919000I0J-135000D01*
G01*
X187724000Y-70289000D01*
G75*
G02*
X187589000Y-70424000I-135000J0D01*
G01*
X187319000Y-70424000D01*
G75*
G02*
X187184000Y-70289000I0J135000D01*
G01*
G37*
G04 #@! TD.AperFunction*
G04 #@! TA.AperFunction,SMDPad,CuDef*
G36*
G01*
X186164000Y-70289000D02*
X186164000Y-69919000D01*
G75*
G02*
X186299000Y-69784000I135000J0D01*
G01*
X186569000Y-69784000D01*
G75*
G02*
X186704000Y-69919000I0J-135000D01*
G01*
X186704000Y-70289000D01*
G75*
G02*
X186569000Y-70424000I-135000J0D01*
G01*
X186299000Y-70424000D01*
G75*
G02*
X186164000Y-70289000I0J135000D01*
G01*
G37*
G04 #@! TD.AperFunction*
G04 #@! TA.AperFunction,SMDPad,CuDef*
G36*
G01*
X201745000Y-75170000D02*
X202115000Y-75170000D01*
G75*
G02*
X202250000Y-75305000I0J-135000D01*
G01*
X202250000Y-75575000D01*
G75*
G02*
X202115000Y-75710000I-135000J0D01*
G01*
X201745000Y-75710000D01*
G75*
G02*
X201610000Y-75575000I0J135000D01*
G01*
X201610000Y-75305000D01*
G75*
G02*
X201745000Y-75170000I135000J0D01*
G01*
G37*
G04 #@! TD.AperFunction*
G04 #@! TA.AperFunction,SMDPad,CuDef*
G36*
G01*
X201745000Y-74150000D02*
X202115000Y-74150000D01*
G75*
G02*
X202250000Y-74285000I0J-135000D01*
G01*
X202250000Y-74555000D01*
G75*
G02*
X202115000Y-74690000I-135000J0D01*
G01*
X201745000Y-74690000D01*
G75*
G02*
X201610000Y-74555000I0J135000D01*
G01*
X201610000Y-74285000D01*
G75*
G02*
X201745000Y-74150000I135000J0D01*
G01*
G37*
G04 #@! TD.AperFunction*
G04 #@! TA.AperFunction,SMDPad,CuDef*
G36*
G01*
X190260000Y-84651000D02*
X190260000Y-85021000D01*
G75*
G02*
X190125000Y-85156000I-135000J0D01*
G01*
X189855000Y-85156000D01*
G75*
G02*
X189720000Y-85021000I0J135000D01*
G01*
X189720000Y-84651000D01*
G75*
G02*
X189855000Y-84516000I135000J0D01*
G01*
X190125000Y-84516000D01*
G75*
G02*
X190260000Y-84651000I0J-135000D01*
G01*
G37*
G04 #@! TD.AperFunction*
G04 #@! TA.AperFunction,SMDPad,CuDef*
G36*
G01*
X191280000Y-84651000D02*
X191280000Y-85021000D01*
G75*
G02*
X191145000Y-85156000I-135000J0D01*
G01*
X190875000Y-85156000D01*
G75*
G02*
X190740000Y-85021000I0J135000D01*
G01*
X190740000Y-84651000D01*
G75*
G02*
X190875000Y-84516000I135000J0D01*
G01*
X191145000Y-84516000D01*
G75*
G02*
X191280000Y-84651000I0J-135000D01*
G01*
G37*
G04 #@! TD.AperFunction*
G04 #@! TA.AperFunction,SMDPad,CuDef*
G36*
G01*
X189244000Y-86175000D02*
X189244000Y-86545000D01*
G75*
G02*
X189109000Y-86680000I-135000J0D01*
G01*
X188839000Y-86680000D01*
G75*
G02*
X188704000Y-86545000I0J135000D01*
G01*
X188704000Y-86175000D01*
G75*
G02*
X188839000Y-86040000I135000J0D01*
G01*
X189109000Y-86040000D01*
G75*
G02*
X189244000Y-86175000I0J-135000D01*
G01*
G37*
G04 #@! TD.AperFunction*
G04 #@! TA.AperFunction,SMDPad,CuDef*
G36*
G01*
X190264000Y-86175000D02*
X190264000Y-86545000D01*
G75*
G02*
X190129000Y-86680000I-135000J0D01*
G01*
X189859000Y-86680000D01*
G75*
G02*
X189724000Y-86545000I0J135000D01*
G01*
X189724000Y-86175000D01*
G75*
G02*
X189859000Y-86040000I135000J0D01*
G01*
X190129000Y-86040000D01*
G75*
G02*
X190264000Y-86175000I0J-135000D01*
G01*
G37*
G04 #@! TD.AperFunction*
G04 #@! TA.AperFunction,SMDPad,CuDef*
G36*
G01*
X186113000Y-85612000D02*
X185743000Y-85612000D01*
G75*
G02*
X185608000Y-85477000I0J135000D01*
G01*
X185608000Y-85207000D01*
G75*
G02*
X185743000Y-85072000I135000J0D01*
G01*
X186113000Y-85072000D01*
G75*
G02*
X186248000Y-85207000I0J-135000D01*
G01*
X186248000Y-85477000D01*
G75*
G02*
X186113000Y-85612000I-135000J0D01*
G01*
G37*
G04 #@! TD.AperFunction*
G04 #@! TA.AperFunction,SMDPad,CuDef*
G36*
G01*
X186113000Y-86632000D02*
X185743000Y-86632000D01*
G75*
G02*
X185608000Y-86497000I0J135000D01*
G01*
X185608000Y-86227000D01*
G75*
G02*
X185743000Y-86092000I135000J0D01*
G01*
X186113000Y-86092000D01*
G75*
G02*
X186248000Y-86227000I0J-135000D01*
G01*
X186248000Y-86497000D01*
G75*
G02*
X186113000Y-86632000I-135000J0D01*
G01*
G37*
G04 #@! TD.AperFunction*
G04 #@! TA.AperFunction,SMDPad,CuDef*
G36*
G01*
X187267000Y-83552000D02*
X187637000Y-83552000D01*
G75*
G02*
X187772000Y-83687000I0J-135000D01*
G01*
X187772000Y-83957000D01*
G75*
G02*
X187637000Y-84092000I-135000J0D01*
G01*
X187267000Y-84092000D01*
G75*
G02*
X187132000Y-83957000I0J135000D01*
G01*
X187132000Y-83687000D01*
G75*
G02*
X187267000Y-83552000I135000J0D01*
G01*
G37*
G04 #@! TD.AperFunction*
G04 #@! TA.AperFunction,SMDPad,CuDef*
G36*
G01*
X187267000Y-82532000D02*
X187637000Y-82532000D01*
G75*
G02*
X187772000Y-82667000I0J-135000D01*
G01*
X187772000Y-82937000D01*
G75*
G02*
X187637000Y-83072000I-135000J0D01*
G01*
X187267000Y-83072000D01*
G75*
G02*
X187132000Y-82937000I0J135000D01*
G01*
X187132000Y-82667000D01*
G75*
G02*
X187267000Y-82532000I135000J0D01*
G01*
G37*
G04 #@! TD.AperFunction*
G04 #@! TA.AperFunction,SMDPad,CuDef*
G36*
G01*
X186113000Y-83072000D02*
X185743000Y-83072000D01*
G75*
G02*
X185608000Y-82937000I0J135000D01*
G01*
X185608000Y-82667000D01*
G75*
G02*
X185743000Y-82532000I135000J0D01*
G01*
X186113000Y-82532000D01*
G75*
G02*
X186248000Y-82667000I0J-135000D01*
G01*
X186248000Y-82937000D01*
G75*
G02*
X186113000Y-83072000I-135000J0D01*
G01*
G37*
G04 #@! TD.AperFunction*
G04 #@! TA.AperFunction,SMDPad,CuDef*
G36*
G01*
X186113000Y-84092000D02*
X185743000Y-84092000D01*
G75*
G02*
X185608000Y-83957000I0J135000D01*
G01*
X185608000Y-83687000D01*
G75*
G02*
X185743000Y-83552000I135000J0D01*
G01*
X186113000Y-83552000D01*
G75*
G02*
X186248000Y-83687000I0J-135000D01*
G01*
X186248000Y-83957000D01*
G75*
G02*
X186113000Y-84092000I-135000J0D01*
G01*
G37*
G04 #@! TD.AperFunction*
G04 #@! TA.AperFunction,SMDPad,CuDef*
G36*
G01*
X193490000Y-94345000D02*
X193860000Y-94345000D01*
G75*
G02*
X193995000Y-94480000I0J-135000D01*
G01*
X193995000Y-94750000D01*
G75*
G02*
X193860000Y-94885000I-135000J0D01*
G01*
X193490000Y-94885000D01*
G75*
G02*
X193355000Y-94750000I0J135000D01*
G01*
X193355000Y-94480000D01*
G75*
G02*
X193490000Y-94345000I135000J0D01*
G01*
G37*
G04 #@! TD.AperFunction*
G04 #@! TA.AperFunction,SMDPad,CuDef*
G36*
G01*
X193490000Y-93325000D02*
X193860000Y-93325000D01*
G75*
G02*
X193995000Y-93460000I0J-135000D01*
G01*
X193995000Y-93730000D01*
G75*
G02*
X193860000Y-93865000I-135000J0D01*
G01*
X193490000Y-93865000D01*
G75*
G02*
X193355000Y-93730000I0J135000D01*
G01*
X193355000Y-93460000D01*
G75*
G02*
X193490000Y-93325000I135000J0D01*
G01*
G37*
G04 #@! TD.AperFunction*
G04 #@! TA.AperFunction,SMDPad,CuDef*
G36*
G01*
X193490000Y-92315000D02*
X193860000Y-92315000D01*
G75*
G02*
X193995000Y-92450000I0J-135000D01*
G01*
X193995000Y-92720000D01*
G75*
G02*
X193860000Y-92855000I-135000J0D01*
G01*
X193490000Y-92855000D01*
G75*
G02*
X193355000Y-92720000I0J135000D01*
G01*
X193355000Y-92450000D01*
G75*
G02*
X193490000Y-92315000I135000J0D01*
G01*
G37*
G04 #@! TD.AperFunction*
G04 #@! TA.AperFunction,SMDPad,CuDef*
G36*
G01*
X193490000Y-91295000D02*
X193860000Y-91295000D01*
G75*
G02*
X193995000Y-91430000I0J-135000D01*
G01*
X193995000Y-91700000D01*
G75*
G02*
X193860000Y-91835000I-135000J0D01*
G01*
X193490000Y-91835000D01*
G75*
G02*
X193355000Y-91700000I0J135000D01*
G01*
X193355000Y-91430000D01*
G75*
G02*
X193490000Y-91295000I135000J0D01*
G01*
G37*
G04 #@! TD.AperFunction*
D17*
X182894000Y-92608000D03*
X178294000Y-92608000D03*
X180594000Y-92608000D03*
D18*
X180594000Y-98908000D03*
D19*
X196850000Y-82550000D03*
G04 #@! TA.AperFunction,SMDPad,CuDef*
G36*
G01*
X199962500Y-79675000D02*
X200637500Y-79675000D01*
G75*
G02*
X200700000Y-79737500I0J-62500D01*
G01*
X200700000Y-79862500D01*
G75*
G02*
X200637500Y-79925000I-62500J0D01*
G01*
X199962500Y-79925000D01*
G75*
G02*
X199900000Y-79862500I0J62500D01*
G01*
X199900000Y-79737500D01*
G75*
G02*
X199962500Y-79675000I62500J0D01*
G01*
G37*
G04 #@! TD.AperFunction*
G04 #@! TA.AperFunction,SMDPad,CuDef*
G36*
G01*
X199962500Y-80175000D02*
X200637500Y-80175000D01*
G75*
G02*
X200700000Y-80237500I0J-62500D01*
G01*
X200700000Y-80362500D01*
G75*
G02*
X200637500Y-80425000I-62500J0D01*
G01*
X199962500Y-80425000D01*
G75*
G02*
X199900000Y-80362500I0J62500D01*
G01*
X199900000Y-80237500D01*
G75*
G02*
X199962500Y-80175000I62500J0D01*
G01*
G37*
G04 #@! TD.AperFunction*
G04 #@! TA.AperFunction,SMDPad,CuDef*
G36*
G01*
X199962500Y-80675000D02*
X200637500Y-80675000D01*
G75*
G02*
X200700000Y-80737500I0J-62500D01*
G01*
X200700000Y-80862500D01*
G75*
G02*
X200637500Y-80925000I-62500J0D01*
G01*
X199962500Y-80925000D01*
G75*
G02*
X199900000Y-80862500I0J62500D01*
G01*
X199900000Y-80737500D01*
G75*
G02*
X199962500Y-80675000I62500J0D01*
G01*
G37*
G04 #@! TD.AperFunction*
G04 #@! TA.AperFunction,SMDPad,CuDef*
G36*
G01*
X199962500Y-81175000D02*
X200637500Y-81175000D01*
G75*
G02*
X200700000Y-81237500I0J-62500D01*
G01*
X200700000Y-81362500D01*
G75*
G02*
X200637500Y-81425000I-62500J0D01*
G01*
X199962500Y-81425000D01*
G75*
G02*
X199900000Y-81362500I0J62500D01*
G01*
X199900000Y-81237500D01*
G75*
G02*
X199962500Y-81175000I62500J0D01*
G01*
G37*
G04 #@! TD.AperFunction*
G04 #@! TA.AperFunction,SMDPad,CuDef*
G36*
G01*
X199962500Y-81675000D02*
X200637500Y-81675000D01*
G75*
G02*
X200700000Y-81737500I0J-62500D01*
G01*
X200700000Y-81862500D01*
G75*
G02*
X200637500Y-81925000I-62500J0D01*
G01*
X199962500Y-81925000D01*
G75*
G02*
X199900000Y-81862500I0J62500D01*
G01*
X199900000Y-81737500D01*
G75*
G02*
X199962500Y-81675000I62500J0D01*
G01*
G37*
G04 #@! TD.AperFunction*
G04 #@! TA.AperFunction,SMDPad,CuDef*
G36*
G01*
X199962500Y-82175000D02*
X200637500Y-82175000D01*
G75*
G02*
X200700000Y-82237500I0J-62500D01*
G01*
X200700000Y-82362500D01*
G75*
G02*
X200637500Y-82425000I-62500J0D01*
G01*
X199962500Y-82425000D01*
G75*
G02*
X199900000Y-82362500I0J62500D01*
G01*
X199900000Y-82237500D01*
G75*
G02*
X199962500Y-82175000I62500J0D01*
G01*
G37*
G04 #@! TD.AperFunction*
G04 #@! TA.AperFunction,SMDPad,CuDef*
G36*
G01*
X199962500Y-82675000D02*
X200637500Y-82675000D01*
G75*
G02*
X200700000Y-82737500I0J-62500D01*
G01*
X200700000Y-82862500D01*
G75*
G02*
X200637500Y-82925000I-62500J0D01*
G01*
X199962500Y-82925000D01*
G75*
G02*
X199900000Y-82862500I0J62500D01*
G01*
X199900000Y-82737500D01*
G75*
G02*
X199962500Y-82675000I62500J0D01*
G01*
G37*
G04 #@! TD.AperFunction*
G04 #@! TA.AperFunction,SMDPad,CuDef*
G36*
G01*
X199962500Y-83175000D02*
X200637500Y-83175000D01*
G75*
G02*
X200700000Y-83237500I0J-62500D01*
G01*
X200700000Y-83362500D01*
G75*
G02*
X200637500Y-83425000I-62500J0D01*
G01*
X199962500Y-83425000D01*
G75*
G02*
X199900000Y-83362500I0J62500D01*
G01*
X199900000Y-83237500D01*
G75*
G02*
X199962500Y-83175000I62500J0D01*
G01*
G37*
G04 #@! TD.AperFunction*
G04 #@! TA.AperFunction,SMDPad,CuDef*
G36*
G01*
X199962500Y-83675000D02*
X200637500Y-83675000D01*
G75*
G02*
X200700000Y-83737500I0J-62500D01*
G01*
X200700000Y-83862500D01*
G75*
G02*
X200637500Y-83925000I-62500J0D01*
G01*
X199962500Y-83925000D01*
G75*
G02*
X199900000Y-83862500I0J62500D01*
G01*
X199900000Y-83737500D01*
G75*
G02*
X199962500Y-83675000I62500J0D01*
G01*
G37*
G04 #@! TD.AperFunction*
G04 #@! TA.AperFunction,SMDPad,CuDef*
G36*
G01*
X199962500Y-84175000D02*
X200637500Y-84175000D01*
G75*
G02*
X200700000Y-84237500I0J-62500D01*
G01*
X200700000Y-84362500D01*
G75*
G02*
X200637500Y-84425000I-62500J0D01*
G01*
X199962500Y-84425000D01*
G75*
G02*
X199900000Y-84362500I0J62500D01*
G01*
X199900000Y-84237500D01*
G75*
G02*
X199962500Y-84175000I62500J0D01*
G01*
G37*
G04 #@! TD.AperFunction*
G04 #@! TA.AperFunction,SMDPad,CuDef*
G36*
G01*
X199962500Y-84675000D02*
X200637500Y-84675000D01*
G75*
G02*
X200700000Y-84737500I0J-62500D01*
G01*
X200700000Y-84862500D01*
G75*
G02*
X200637500Y-84925000I-62500J0D01*
G01*
X199962500Y-84925000D01*
G75*
G02*
X199900000Y-84862500I0J62500D01*
G01*
X199900000Y-84737500D01*
G75*
G02*
X199962500Y-84675000I62500J0D01*
G01*
G37*
G04 #@! TD.AperFunction*
G04 #@! TA.AperFunction,SMDPad,CuDef*
G36*
G01*
X199962500Y-85175000D02*
X200637500Y-85175000D01*
G75*
G02*
X200700000Y-85237500I0J-62500D01*
G01*
X200700000Y-85362500D01*
G75*
G02*
X200637500Y-85425000I-62500J0D01*
G01*
X199962500Y-85425000D01*
G75*
G02*
X199900000Y-85362500I0J62500D01*
G01*
X199900000Y-85237500D01*
G75*
G02*
X199962500Y-85175000I62500J0D01*
G01*
G37*
G04 #@! TD.AperFunction*
G04 #@! TA.AperFunction,SMDPad,CuDef*
G36*
G01*
X199537500Y-85600000D02*
X199662500Y-85600000D01*
G75*
G02*
X199725000Y-85662500I0J-62500D01*
G01*
X199725000Y-86337500D01*
G75*
G02*
X199662500Y-86400000I-62500J0D01*
G01*
X199537500Y-86400000D01*
G75*
G02*
X199475000Y-86337500I0J62500D01*
G01*
X199475000Y-85662500D01*
G75*
G02*
X199537500Y-85600000I62500J0D01*
G01*
G37*
G04 #@! TD.AperFunction*
G04 #@! TA.AperFunction,SMDPad,CuDef*
G36*
G01*
X199037500Y-85600000D02*
X199162500Y-85600000D01*
G75*
G02*
X199225000Y-85662500I0J-62500D01*
G01*
X199225000Y-86337500D01*
G75*
G02*
X199162500Y-86400000I-62500J0D01*
G01*
X199037500Y-86400000D01*
G75*
G02*
X198975000Y-86337500I0J62500D01*
G01*
X198975000Y-85662500D01*
G75*
G02*
X199037500Y-85600000I62500J0D01*
G01*
G37*
G04 #@! TD.AperFunction*
G04 #@! TA.AperFunction,SMDPad,CuDef*
G36*
G01*
X198537500Y-85600000D02*
X198662500Y-85600000D01*
G75*
G02*
X198725000Y-85662500I0J-62500D01*
G01*
X198725000Y-86337500D01*
G75*
G02*
X198662500Y-86400000I-62500J0D01*
G01*
X198537500Y-86400000D01*
G75*
G02*
X198475000Y-86337500I0J62500D01*
G01*
X198475000Y-85662500D01*
G75*
G02*
X198537500Y-85600000I62500J0D01*
G01*
G37*
G04 #@! TD.AperFunction*
G04 #@! TA.AperFunction,SMDPad,CuDef*
G36*
G01*
X198037500Y-85600000D02*
X198162500Y-85600000D01*
G75*
G02*
X198225000Y-85662500I0J-62500D01*
G01*
X198225000Y-86337500D01*
G75*
G02*
X198162500Y-86400000I-62500J0D01*
G01*
X198037500Y-86400000D01*
G75*
G02*
X197975000Y-86337500I0J62500D01*
G01*
X197975000Y-85662500D01*
G75*
G02*
X198037500Y-85600000I62500J0D01*
G01*
G37*
G04 #@! TD.AperFunction*
G04 #@! TA.AperFunction,SMDPad,CuDef*
G36*
G01*
X197537500Y-85600000D02*
X197662500Y-85600000D01*
G75*
G02*
X197725000Y-85662500I0J-62500D01*
G01*
X197725000Y-86337500D01*
G75*
G02*
X197662500Y-86400000I-62500J0D01*
G01*
X197537500Y-86400000D01*
G75*
G02*
X197475000Y-86337500I0J62500D01*
G01*
X197475000Y-85662500D01*
G75*
G02*
X197537500Y-85600000I62500J0D01*
G01*
G37*
G04 #@! TD.AperFunction*
G04 #@! TA.AperFunction,SMDPad,CuDef*
G36*
G01*
X197037500Y-85600000D02*
X197162500Y-85600000D01*
G75*
G02*
X197225000Y-85662500I0J-62500D01*
G01*
X197225000Y-86337500D01*
G75*
G02*
X197162500Y-86400000I-62500J0D01*
G01*
X197037500Y-86400000D01*
G75*
G02*
X196975000Y-86337500I0J62500D01*
G01*
X196975000Y-85662500D01*
G75*
G02*
X197037500Y-85600000I62500J0D01*
G01*
G37*
G04 #@! TD.AperFunction*
G04 #@! TA.AperFunction,SMDPad,CuDef*
G36*
G01*
X196537500Y-85600000D02*
X196662500Y-85600000D01*
G75*
G02*
X196725000Y-85662500I0J-62500D01*
G01*
X196725000Y-86337500D01*
G75*
G02*
X196662500Y-86400000I-62500J0D01*
G01*
X196537500Y-86400000D01*
G75*
G02*
X196475000Y-86337500I0J62500D01*
G01*
X196475000Y-85662500D01*
G75*
G02*
X196537500Y-85600000I62500J0D01*
G01*
G37*
G04 #@! TD.AperFunction*
G04 #@! TA.AperFunction,SMDPad,CuDef*
G36*
G01*
X196037500Y-85600000D02*
X196162500Y-85600000D01*
G75*
G02*
X196225000Y-85662500I0J-62500D01*
G01*
X196225000Y-86337500D01*
G75*
G02*
X196162500Y-86400000I-62500J0D01*
G01*
X196037500Y-86400000D01*
G75*
G02*
X195975000Y-86337500I0J62500D01*
G01*
X195975000Y-85662500D01*
G75*
G02*
X196037500Y-85600000I62500J0D01*
G01*
G37*
G04 #@! TD.AperFunction*
G04 #@! TA.AperFunction,SMDPad,CuDef*
G36*
G01*
X195537500Y-85600000D02*
X195662500Y-85600000D01*
G75*
G02*
X195725000Y-85662500I0J-62500D01*
G01*
X195725000Y-86337500D01*
G75*
G02*
X195662500Y-86400000I-62500J0D01*
G01*
X195537500Y-86400000D01*
G75*
G02*
X195475000Y-86337500I0J62500D01*
G01*
X195475000Y-85662500D01*
G75*
G02*
X195537500Y-85600000I62500J0D01*
G01*
G37*
G04 #@! TD.AperFunction*
G04 #@! TA.AperFunction,SMDPad,CuDef*
G36*
G01*
X195037500Y-85600000D02*
X195162500Y-85600000D01*
G75*
G02*
X195225000Y-85662500I0J-62500D01*
G01*
X195225000Y-86337500D01*
G75*
G02*
X195162500Y-86400000I-62500J0D01*
G01*
X195037500Y-86400000D01*
G75*
G02*
X194975000Y-86337500I0J62500D01*
G01*
X194975000Y-85662500D01*
G75*
G02*
X195037500Y-85600000I62500J0D01*
G01*
G37*
G04 #@! TD.AperFunction*
G04 #@! TA.AperFunction,SMDPad,CuDef*
G36*
G01*
X194537500Y-85600000D02*
X194662500Y-85600000D01*
G75*
G02*
X194725000Y-85662500I0J-62500D01*
G01*
X194725000Y-86337500D01*
G75*
G02*
X194662500Y-86400000I-62500J0D01*
G01*
X194537500Y-86400000D01*
G75*
G02*
X194475000Y-86337500I0J62500D01*
G01*
X194475000Y-85662500D01*
G75*
G02*
X194537500Y-85600000I62500J0D01*
G01*
G37*
G04 #@! TD.AperFunction*
G04 #@! TA.AperFunction,SMDPad,CuDef*
G36*
G01*
X194037500Y-85600000D02*
X194162500Y-85600000D01*
G75*
G02*
X194225000Y-85662500I0J-62500D01*
G01*
X194225000Y-86337500D01*
G75*
G02*
X194162500Y-86400000I-62500J0D01*
G01*
X194037500Y-86400000D01*
G75*
G02*
X193975000Y-86337500I0J62500D01*
G01*
X193975000Y-85662500D01*
G75*
G02*
X194037500Y-85600000I62500J0D01*
G01*
G37*
G04 #@! TD.AperFunction*
G04 #@! TA.AperFunction,SMDPad,CuDef*
G36*
G01*
X193062500Y-85175000D02*
X193737500Y-85175000D01*
G75*
G02*
X193800000Y-85237500I0J-62500D01*
G01*
X193800000Y-85362500D01*
G75*
G02*
X193737500Y-85425000I-62500J0D01*
G01*
X193062500Y-85425000D01*
G75*
G02*
X193000000Y-85362500I0J62500D01*
G01*
X193000000Y-85237500D01*
G75*
G02*
X193062500Y-85175000I62500J0D01*
G01*
G37*
G04 #@! TD.AperFunction*
G04 #@! TA.AperFunction,SMDPad,CuDef*
G36*
G01*
X193062500Y-84675000D02*
X193737500Y-84675000D01*
G75*
G02*
X193800000Y-84737500I0J-62500D01*
G01*
X193800000Y-84862500D01*
G75*
G02*
X193737500Y-84925000I-62500J0D01*
G01*
X193062500Y-84925000D01*
G75*
G02*
X193000000Y-84862500I0J62500D01*
G01*
X193000000Y-84737500D01*
G75*
G02*
X193062500Y-84675000I62500J0D01*
G01*
G37*
G04 #@! TD.AperFunction*
G04 #@! TA.AperFunction,SMDPad,CuDef*
G36*
G01*
X193062500Y-84175000D02*
X193737500Y-84175000D01*
G75*
G02*
X193800000Y-84237500I0J-62500D01*
G01*
X193800000Y-84362500D01*
G75*
G02*
X193737500Y-84425000I-62500J0D01*
G01*
X193062500Y-84425000D01*
G75*
G02*
X193000000Y-84362500I0J62500D01*
G01*
X193000000Y-84237500D01*
G75*
G02*
X193062500Y-84175000I62500J0D01*
G01*
G37*
G04 #@! TD.AperFunction*
G04 #@! TA.AperFunction,SMDPad,CuDef*
G36*
G01*
X193062500Y-83675000D02*
X193737500Y-83675000D01*
G75*
G02*
X193800000Y-83737500I0J-62500D01*
G01*
X193800000Y-83862500D01*
G75*
G02*
X193737500Y-83925000I-62500J0D01*
G01*
X193062500Y-83925000D01*
G75*
G02*
X193000000Y-83862500I0J62500D01*
G01*
X193000000Y-83737500D01*
G75*
G02*
X193062500Y-83675000I62500J0D01*
G01*
G37*
G04 #@! TD.AperFunction*
G04 #@! TA.AperFunction,SMDPad,CuDef*
G36*
G01*
X193062500Y-83175000D02*
X193737500Y-83175000D01*
G75*
G02*
X193800000Y-83237500I0J-62500D01*
G01*
X193800000Y-83362500D01*
G75*
G02*
X193737500Y-83425000I-62500J0D01*
G01*
X193062500Y-83425000D01*
G75*
G02*
X193000000Y-83362500I0J62500D01*
G01*
X193000000Y-83237500D01*
G75*
G02*
X193062500Y-83175000I62500J0D01*
G01*
G37*
G04 #@! TD.AperFunction*
G04 #@! TA.AperFunction,SMDPad,CuDef*
G36*
G01*
X193062500Y-82675000D02*
X193737500Y-82675000D01*
G75*
G02*
X193800000Y-82737500I0J-62500D01*
G01*
X193800000Y-82862500D01*
G75*
G02*
X193737500Y-82925000I-62500J0D01*
G01*
X193062500Y-82925000D01*
G75*
G02*
X193000000Y-82862500I0J62500D01*
G01*
X193000000Y-82737500D01*
G75*
G02*
X193062500Y-82675000I62500J0D01*
G01*
G37*
G04 #@! TD.AperFunction*
G04 #@! TA.AperFunction,SMDPad,CuDef*
G36*
G01*
X193062500Y-82175000D02*
X193737500Y-82175000D01*
G75*
G02*
X193800000Y-82237500I0J-62500D01*
G01*
X193800000Y-82362500D01*
G75*
G02*
X193737500Y-82425000I-62500J0D01*
G01*
X193062500Y-82425000D01*
G75*
G02*
X193000000Y-82362500I0J62500D01*
G01*
X193000000Y-82237500D01*
G75*
G02*
X193062500Y-82175000I62500J0D01*
G01*
G37*
G04 #@! TD.AperFunction*
G04 #@! TA.AperFunction,SMDPad,CuDef*
G36*
G01*
X193062500Y-81675000D02*
X193737500Y-81675000D01*
G75*
G02*
X193800000Y-81737500I0J-62500D01*
G01*
X193800000Y-81862500D01*
G75*
G02*
X193737500Y-81925000I-62500J0D01*
G01*
X193062500Y-81925000D01*
G75*
G02*
X193000000Y-81862500I0J62500D01*
G01*
X193000000Y-81737500D01*
G75*
G02*
X193062500Y-81675000I62500J0D01*
G01*
G37*
G04 #@! TD.AperFunction*
G04 #@! TA.AperFunction,SMDPad,CuDef*
G36*
G01*
X193062500Y-81175000D02*
X193737500Y-81175000D01*
G75*
G02*
X193800000Y-81237500I0J-62500D01*
G01*
X193800000Y-81362500D01*
G75*
G02*
X193737500Y-81425000I-62500J0D01*
G01*
X193062500Y-81425000D01*
G75*
G02*
X193000000Y-81362500I0J62500D01*
G01*
X193000000Y-81237500D01*
G75*
G02*
X193062500Y-81175000I62500J0D01*
G01*
G37*
G04 #@! TD.AperFunction*
G04 #@! TA.AperFunction,SMDPad,CuDef*
G36*
G01*
X193062500Y-80675000D02*
X193737500Y-80675000D01*
G75*
G02*
X193800000Y-80737500I0J-62500D01*
G01*
X193800000Y-80862500D01*
G75*
G02*
X193737500Y-80925000I-62500J0D01*
G01*
X193062500Y-80925000D01*
G75*
G02*
X193000000Y-80862500I0J62500D01*
G01*
X193000000Y-80737500D01*
G75*
G02*
X193062500Y-80675000I62500J0D01*
G01*
G37*
G04 #@! TD.AperFunction*
G04 #@! TA.AperFunction,SMDPad,CuDef*
G36*
G01*
X193062500Y-80175000D02*
X193737500Y-80175000D01*
G75*
G02*
X193800000Y-80237500I0J-62500D01*
G01*
X193800000Y-80362500D01*
G75*
G02*
X193737500Y-80425000I-62500J0D01*
G01*
X193062500Y-80425000D01*
G75*
G02*
X193000000Y-80362500I0J62500D01*
G01*
X193000000Y-80237500D01*
G75*
G02*
X193062500Y-80175000I62500J0D01*
G01*
G37*
G04 #@! TD.AperFunction*
G04 #@! TA.AperFunction,SMDPad,CuDef*
G36*
G01*
X193062500Y-79675000D02*
X193737500Y-79675000D01*
G75*
G02*
X193800000Y-79737500I0J-62500D01*
G01*
X193800000Y-79862500D01*
G75*
G02*
X193737500Y-79925000I-62500J0D01*
G01*
X193062500Y-79925000D01*
G75*
G02*
X193000000Y-79862500I0J62500D01*
G01*
X193000000Y-79737500D01*
G75*
G02*
X193062500Y-79675000I62500J0D01*
G01*
G37*
G04 #@! TD.AperFunction*
G04 #@! TA.AperFunction,SMDPad,CuDef*
G36*
G01*
X194037500Y-78700000D02*
X194162500Y-78700000D01*
G75*
G02*
X194225000Y-78762500I0J-62500D01*
G01*
X194225000Y-79437500D01*
G75*
G02*
X194162500Y-79500000I-62500J0D01*
G01*
X194037500Y-79500000D01*
G75*
G02*
X193975000Y-79437500I0J62500D01*
G01*
X193975000Y-78762500D01*
G75*
G02*
X194037500Y-78700000I62500J0D01*
G01*
G37*
G04 #@! TD.AperFunction*
G04 #@! TA.AperFunction,SMDPad,CuDef*
G36*
G01*
X194537500Y-78700000D02*
X194662500Y-78700000D01*
G75*
G02*
X194725000Y-78762500I0J-62500D01*
G01*
X194725000Y-79437500D01*
G75*
G02*
X194662500Y-79500000I-62500J0D01*
G01*
X194537500Y-79500000D01*
G75*
G02*
X194475000Y-79437500I0J62500D01*
G01*
X194475000Y-78762500D01*
G75*
G02*
X194537500Y-78700000I62500J0D01*
G01*
G37*
G04 #@! TD.AperFunction*
G04 #@! TA.AperFunction,SMDPad,CuDef*
G36*
G01*
X195037500Y-78700000D02*
X195162500Y-78700000D01*
G75*
G02*
X195225000Y-78762500I0J-62500D01*
G01*
X195225000Y-79437500D01*
G75*
G02*
X195162500Y-79500000I-62500J0D01*
G01*
X195037500Y-79500000D01*
G75*
G02*
X194975000Y-79437500I0J62500D01*
G01*
X194975000Y-78762500D01*
G75*
G02*
X195037500Y-78700000I62500J0D01*
G01*
G37*
G04 #@! TD.AperFunction*
G04 #@! TA.AperFunction,SMDPad,CuDef*
G36*
G01*
X195537500Y-78700000D02*
X195662500Y-78700000D01*
G75*
G02*
X195725000Y-78762500I0J-62500D01*
G01*
X195725000Y-79437500D01*
G75*
G02*
X195662500Y-79500000I-62500J0D01*
G01*
X195537500Y-79500000D01*
G75*
G02*
X195475000Y-79437500I0J62500D01*
G01*
X195475000Y-78762500D01*
G75*
G02*
X195537500Y-78700000I62500J0D01*
G01*
G37*
G04 #@! TD.AperFunction*
G04 #@! TA.AperFunction,SMDPad,CuDef*
G36*
G01*
X196037500Y-78700000D02*
X196162500Y-78700000D01*
G75*
G02*
X196225000Y-78762500I0J-62500D01*
G01*
X196225000Y-79437500D01*
G75*
G02*
X196162500Y-79500000I-62500J0D01*
G01*
X196037500Y-79500000D01*
G75*
G02*
X195975000Y-79437500I0J62500D01*
G01*
X195975000Y-78762500D01*
G75*
G02*
X196037500Y-78700000I62500J0D01*
G01*
G37*
G04 #@! TD.AperFunction*
G04 #@! TA.AperFunction,SMDPad,CuDef*
G36*
G01*
X196537500Y-78700000D02*
X196662500Y-78700000D01*
G75*
G02*
X196725000Y-78762500I0J-62500D01*
G01*
X196725000Y-79437500D01*
G75*
G02*
X196662500Y-79500000I-62500J0D01*
G01*
X196537500Y-79500000D01*
G75*
G02*
X196475000Y-79437500I0J62500D01*
G01*
X196475000Y-78762500D01*
G75*
G02*
X196537500Y-78700000I62500J0D01*
G01*
G37*
G04 #@! TD.AperFunction*
G04 #@! TA.AperFunction,SMDPad,CuDef*
G36*
G01*
X197037500Y-78700000D02*
X197162500Y-78700000D01*
G75*
G02*
X197225000Y-78762500I0J-62500D01*
G01*
X197225000Y-79437500D01*
G75*
G02*
X197162500Y-79500000I-62500J0D01*
G01*
X197037500Y-79500000D01*
G75*
G02*
X196975000Y-79437500I0J62500D01*
G01*
X196975000Y-78762500D01*
G75*
G02*
X197037500Y-78700000I62500J0D01*
G01*
G37*
G04 #@! TD.AperFunction*
G04 #@! TA.AperFunction,SMDPad,CuDef*
G36*
G01*
X197537500Y-78700000D02*
X197662500Y-78700000D01*
G75*
G02*
X197725000Y-78762500I0J-62500D01*
G01*
X197725000Y-79437500D01*
G75*
G02*
X197662500Y-79500000I-62500J0D01*
G01*
X197537500Y-79500000D01*
G75*
G02*
X197475000Y-79437500I0J62500D01*
G01*
X197475000Y-78762500D01*
G75*
G02*
X197537500Y-78700000I62500J0D01*
G01*
G37*
G04 #@! TD.AperFunction*
G04 #@! TA.AperFunction,SMDPad,CuDef*
G36*
G01*
X198037500Y-78700000D02*
X198162500Y-78700000D01*
G75*
G02*
X198225000Y-78762500I0J-62500D01*
G01*
X198225000Y-79437500D01*
G75*
G02*
X198162500Y-79500000I-62500J0D01*
G01*
X198037500Y-79500000D01*
G75*
G02*
X197975000Y-79437500I0J62500D01*
G01*
X197975000Y-78762500D01*
G75*
G02*
X198037500Y-78700000I62500J0D01*
G01*
G37*
G04 #@! TD.AperFunction*
G04 #@! TA.AperFunction,SMDPad,CuDef*
G36*
G01*
X198537500Y-78700000D02*
X198662500Y-78700000D01*
G75*
G02*
X198725000Y-78762500I0J-62500D01*
G01*
X198725000Y-79437500D01*
G75*
G02*
X198662500Y-79500000I-62500J0D01*
G01*
X198537500Y-79500000D01*
G75*
G02*
X198475000Y-79437500I0J62500D01*
G01*
X198475000Y-78762500D01*
G75*
G02*
X198537500Y-78700000I62500J0D01*
G01*
G37*
G04 #@! TD.AperFunction*
G04 #@! TA.AperFunction,SMDPad,CuDef*
G36*
G01*
X199037500Y-78700000D02*
X199162500Y-78700000D01*
G75*
G02*
X199225000Y-78762500I0J-62500D01*
G01*
X199225000Y-79437500D01*
G75*
G02*
X199162500Y-79500000I-62500J0D01*
G01*
X199037500Y-79500000D01*
G75*
G02*
X198975000Y-79437500I0J62500D01*
G01*
X198975000Y-78762500D01*
G75*
G02*
X199037500Y-78700000I62500J0D01*
G01*
G37*
G04 #@! TD.AperFunction*
G04 #@! TA.AperFunction,SMDPad,CuDef*
G36*
G01*
X199537500Y-78700000D02*
X199662500Y-78700000D01*
G75*
G02*
X199725000Y-78762500I0J-62500D01*
G01*
X199725000Y-79437500D01*
G75*
G02*
X199662500Y-79500000I-62500J0D01*
G01*
X199537500Y-79500000D01*
G75*
G02*
X199475000Y-79437500I0J62500D01*
G01*
X199475000Y-78762500D01*
G75*
G02*
X199537500Y-78700000I62500J0D01*
G01*
G37*
G04 #@! TD.AperFunction*
D20*
X186055000Y-76962000D03*
G04 #@! TA.AperFunction,SMDPad,CuDef*
D21*
G36*
X187330307Y-79310799D02*
G01*
X187318582Y-79307242D01*
X187307777Y-79301467D01*
X187298306Y-79293694D01*
X187290533Y-79284223D01*
X187284758Y-79273418D01*
X187281201Y-79261693D01*
X187280000Y-79249500D01*
X187280000Y-78574500D01*
X187281201Y-78562307D01*
X187284758Y-78550582D01*
X187290533Y-78539777D01*
X187298306Y-78530306D01*
X187307777Y-78522533D01*
X187318582Y-78516758D01*
X187330307Y-78513201D01*
X187342500Y-78512000D01*
X187404112Y-78512000D01*
X187416305Y-78513201D01*
X187428030Y-78516758D01*
X187438835Y-78522533D01*
X187448306Y-78530306D01*
X187511694Y-78593694D01*
X187519467Y-78603165D01*
X187525242Y-78613970D01*
X187528799Y-78625695D01*
X187530000Y-78637888D01*
X187530000Y-79249500D01*
X187528799Y-79261693D01*
X187525242Y-79273418D01*
X187519467Y-79284223D01*
X187511694Y-79293694D01*
X187502223Y-79301467D01*
X187491418Y-79307242D01*
X187479693Y-79310799D01*
X187467500Y-79312000D01*
X187342500Y-79312000D01*
X187330307Y-79310799D01*
G37*
G04 #@! TD.AperFunction*
G04 #@! TA.AperFunction,SMDPad,CuDef*
G36*
G01*
X187080000Y-78574500D02*
X187080000Y-79249500D01*
G75*
G02*
X187017500Y-79312000I-62500J0D01*
G01*
X186892500Y-79312000D01*
G75*
G02*
X186830000Y-79249500I0J62500D01*
G01*
X186830000Y-78574500D01*
G75*
G02*
X186892500Y-78512000I62500J0D01*
G01*
X187017500Y-78512000D01*
G75*
G02*
X187080000Y-78574500I0J-62500D01*
G01*
G37*
G04 #@! TD.AperFunction*
G04 #@! TA.AperFunction,SMDPad,CuDef*
G36*
G01*
X186630000Y-78574500D02*
X186630000Y-79249500D01*
G75*
G02*
X186567500Y-79312000I-62500J0D01*
G01*
X186442500Y-79312000D01*
G75*
G02*
X186380000Y-79249500I0J62500D01*
G01*
X186380000Y-78574500D01*
G75*
G02*
X186442500Y-78512000I62500J0D01*
G01*
X186567500Y-78512000D01*
G75*
G02*
X186630000Y-78574500I0J-62500D01*
G01*
G37*
G04 #@! TD.AperFunction*
G04 #@! TA.AperFunction,SMDPad,CuDef*
G36*
G01*
X186180000Y-78574500D02*
X186180000Y-79249500D01*
G75*
G02*
X186117500Y-79312000I-62500J0D01*
G01*
X185992500Y-79312000D01*
G75*
G02*
X185930000Y-79249500I0J62500D01*
G01*
X185930000Y-78574500D01*
G75*
G02*
X185992500Y-78512000I62500J0D01*
G01*
X186117500Y-78512000D01*
G75*
G02*
X186180000Y-78574500I0J-62500D01*
G01*
G37*
G04 #@! TD.AperFunction*
G04 #@! TA.AperFunction,SMDPad,CuDef*
G36*
G01*
X185730000Y-78574500D02*
X185730000Y-79249500D01*
G75*
G02*
X185667500Y-79312000I-62500J0D01*
G01*
X185542500Y-79312000D01*
G75*
G02*
X185480000Y-79249500I0J62500D01*
G01*
X185480000Y-78574500D01*
G75*
G02*
X185542500Y-78512000I62500J0D01*
G01*
X185667500Y-78512000D01*
G75*
G02*
X185730000Y-78574500I0J-62500D01*
G01*
G37*
G04 #@! TD.AperFunction*
G04 #@! TA.AperFunction,SMDPad,CuDef*
G36*
G01*
X185280000Y-78574500D02*
X185280000Y-79249500D01*
G75*
G02*
X185217500Y-79312000I-62500J0D01*
G01*
X185092500Y-79312000D01*
G75*
G02*
X185030000Y-79249500I0J62500D01*
G01*
X185030000Y-78574500D01*
G75*
G02*
X185092500Y-78512000I62500J0D01*
G01*
X185217500Y-78512000D01*
G75*
G02*
X185280000Y-78574500I0J-62500D01*
G01*
G37*
G04 #@! TD.AperFunction*
G04 #@! TA.AperFunction,SMDPad,CuDef*
G36*
X184630307Y-79310799D02*
G01*
X184618582Y-79307242D01*
X184607777Y-79301467D01*
X184598306Y-79293694D01*
X184590533Y-79284223D01*
X184584758Y-79273418D01*
X184581201Y-79261693D01*
X184580000Y-79249500D01*
X184580000Y-78637888D01*
X184581201Y-78625695D01*
X184584758Y-78613970D01*
X184590533Y-78603165D01*
X184598306Y-78593694D01*
X184661694Y-78530306D01*
X184671165Y-78522533D01*
X184681970Y-78516758D01*
X184693695Y-78513201D01*
X184705888Y-78512000D01*
X184767500Y-78512000D01*
X184779693Y-78513201D01*
X184791418Y-78516758D01*
X184802223Y-78522533D01*
X184811694Y-78530306D01*
X184819467Y-78539777D01*
X184825242Y-78550582D01*
X184828799Y-78562307D01*
X184830000Y-78574500D01*
X184830000Y-79249500D01*
X184828799Y-79261693D01*
X184825242Y-79273418D01*
X184819467Y-79284223D01*
X184811694Y-79293694D01*
X184802223Y-79301467D01*
X184791418Y-79307242D01*
X184779693Y-79310799D01*
X184767500Y-79312000D01*
X184642500Y-79312000D01*
X184630307Y-79310799D01*
G37*
G04 #@! TD.AperFunction*
G04 #@! TA.AperFunction,SMDPad,CuDef*
G36*
X183755307Y-78435799D02*
G01*
X183743582Y-78432242D01*
X183732777Y-78426467D01*
X183723306Y-78418694D01*
X183715533Y-78409223D01*
X183709758Y-78398418D01*
X183706201Y-78386693D01*
X183705000Y-78374500D01*
X183705000Y-78249500D01*
X183706201Y-78237307D01*
X183709758Y-78225582D01*
X183715533Y-78214777D01*
X183723306Y-78205306D01*
X183732777Y-78197533D01*
X183743582Y-78191758D01*
X183755307Y-78188201D01*
X183767500Y-78187000D01*
X184442500Y-78187000D01*
X184454693Y-78188201D01*
X184466418Y-78191758D01*
X184477223Y-78197533D01*
X184486694Y-78205306D01*
X184494467Y-78214777D01*
X184500242Y-78225582D01*
X184503799Y-78237307D01*
X184505000Y-78249500D01*
X184505000Y-78311112D01*
X184503799Y-78323305D01*
X184500242Y-78335030D01*
X184494467Y-78345835D01*
X184486694Y-78355306D01*
X184423306Y-78418694D01*
X184413835Y-78426467D01*
X184403030Y-78432242D01*
X184391305Y-78435799D01*
X184379112Y-78437000D01*
X183767500Y-78437000D01*
X183755307Y-78435799D01*
G37*
G04 #@! TD.AperFunction*
G04 #@! TA.AperFunction,SMDPad,CuDef*
G36*
G01*
X184505000Y-77799500D02*
X184505000Y-77924500D01*
G75*
G02*
X184442500Y-77987000I-62500J0D01*
G01*
X183767500Y-77987000D01*
G75*
G02*
X183705000Y-77924500I0J62500D01*
G01*
X183705000Y-77799500D01*
G75*
G02*
X183767500Y-77737000I62500J0D01*
G01*
X184442500Y-77737000D01*
G75*
G02*
X184505000Y-77799500I0J-62500D01*
G01*
G37*
G04 #@! TD.AperFunction*
G04 #@! TA.AperFunction,SMDPad,CuDef*
G36*
G01*
X184505000Y-77349500D02*
X184505000Y-77474500D01*
G75*
G02*
X184442500Y-77537000I-62500J0D01*
G01*
X183767500Y-77537000D01*
G75*
G02*
X183705000Y-77474500I0J62500D01*
G01*
X183705000Y-77349500D01*
G75*
G02*
X183767500Y-77287000I62500J0D01*
G01*
X184442500Y-77287000D01*
G75*
G02*
X184505000Y-77349500I0J-62500D01*
G01*
G37*
G04 #@! TD.AperFunction*
G04 #@! TA.AperFunction,SMDPad,CuDef*
G36*
G01*
X184505000Y-76899500D02*
X184505000Y-77024500D01*
G75*
G02*
X184442500Y-77087000I-62500J0D01*
G01*
X183767500Y-77087000D01*
G75*
G02*
X183705000Y-77024500I0J62500D01*
G01*
X183705000Y-76899500D01*
G75*
G02*
X183767500Y-76837000I62500J0D01*
G01*
X184442500Y-76837000D01*
G75*
G02*
X184505000Y-76899500I0J-62500D01*
G01*
G37*
G04 #@! TD.AperFunction*
G04 #@! TA.AperFunction,SMDPad,CuDef*
G36*
G01*
X184505000Y-76449500D02*
X184505000Y-76574500D01*
G75*
G02*
X184442500Y-76637000I-62500J0D01*
G01*
X183767500Y-76637000D01*
G75*
G02*
X183705000Y-76574500I0J62500D01*
G01*
X183705000Y-76449500D01*
G75*
G02*
X183767500Y-76387000I62500J0D01*
G01*
X184442500Y-76387000D01*
G75*
G02*
X184505000Y-76449500I0J-62500D01*
G01*
G37*
G04 #@! TD.AperFunction*
G04 #@! TA.AperFunction,SMDPad,CuDef*
G36*
G01*
X184505000Y-75999500D02*
X184505000Y-76124500D01*
G75*
G02*
X184442500Y-76187000I-62500J0D01*
G01*
X183767500Y-76187000D01*
G75*
G02*
X183705000Y-76124500I0J62500D01*
G01*
X183705000Y-75999500D01*
G75*
G02*
X183767500Y-75937000I62500J0D01*
G01*
X184442500Y-75937000D01*
G75*
G02*
X184505000Y-75999500I0J-62500D01*
G01*
G37*
G04 #@! TD.AperFunction*
G04 #@! TA.AperFunction,SMDPad,CuDef*
G36*
X183755307Y-75735799D02*
G01*
X183743582Y-75732242D01*
X183732777Y-75726467D01*
X183723306Y-75718694D01*
X183715533Y-75709223D01*
X183709758Y-75698418D01*
X183706201Y-75686693D01*
X183705000Y-75674500D01*
X183705000Y-75549500D01*
X183706201Y-75537307D01*
X183709758Y-75525582D01*
X183715533Y-75514777D01*
X183723306Y-75505306D01*
X183732777Y-75497533D01*
X183743582Y-75491758D01*
X183755307Y-75488201D01*
X183767500Y-75487000D01*
X184379112Y-75487000D01*
X184391305Y-75488201D01*
X184403030Y-75491758D01*
X184413835Y-75497533D01*
X184423306Y-75505306D01*
X184486694Y-75568694D01*
X184494467Y-75578165D01*
X184500242Y-75588970D01*
X184503799Y-75600695D01*
X184505000Y-75612888D01*
X184505000Y-75674500D01*
X184503799Y-75686693D01*
X184500242Y-75698418D01*
X184494467Y-75709223D01*
X184486694Y-75718694D01*
X184477223Y-75726467D01*
X184466418Y-75732242D01*
X184454693Y-75735799D01*
X184442500Y-75737000D01*
X183767500Y-75737000D01*
X183755307Y-75735799D01*
G37*
G04 #@! TD.AperFunction*
G04 #@! TA.AperFunction,SMDPad,CuDef*
G36*
X184693695Y-75410799D02*
G01*
X184681970Y-75407242D01*
X184671165Y-75401467D01*
X184661694Y-75393694D01*
X184598306Y-75330306D01*
X184590533Y-75320835D01*
X184584758Y-75310030D01*
X184581201Y-75298305D01*
X184580000Y-75286112D01*
X184580000Y-74674500D01*
X184581201Y-74662307D01*
X184584758Y-74650582D01*
X184590533Y-74639777D01*
X184598306Y-74630306D01*
X184607777Y-74622533D01*
X184618582Y-74616758D01*
X184630307Y-74613201D01*
X184642500Y-74612000D01*
X184767500Y-74612000D01*
X184779693Y-74613201D01*
X184791418Y-74616758D01*
X184802223Y-74622533D01*
X184811694Y-74630306D01*
X184819467Y-74639777D01*
X184825242Y-74650582D01*
X184828799Y-74662307D01*
X184830000Y-74674500D01*
X184830000Y-75349500D01*
X184828799Y-75361693D01*
X184825242Y-75373418D01*
X184819467Y-75384223D01*
X184811694Y-75393694D01*
X184802223Y-75401467D01*
X184791418Y-75407242D01*
X184779693Y-75410799D01*
X184767500Y-75412000D01*
X184705888Y-75412000D01*
X184693695Y-75410799D01*
G37*
G04 #@! TD.AperFunction*
G04 #@! TA.AperFunction,SMDPad,CuDef*
G36*
G01*
X185280000Y-74674500D02*
X185280000Y-75349500D01*
G75*
G02*
X185217500Y-75412000I-62500J0D01*
G01*
X185092500Y-75412000D01*
G75*
G02*
X185030000Y-75349500I0J62500D01*
G01*
X185030000Y-74674500D01*
G75*
G02*
X185092500Y-74612000I62500J0D01*
G01*
X185217500Y-74612000D01*
G75*
G02*
X185280000Y-74674500I0J-62500D01*
G01*
G37*
G04 #@! TD.AperFunction*
G04 #@! TA.AperFunction,SMDPad,CuDef*
G36*
G01*
X185730000Y-74674500D02*
X185730000Y-75349500D01*
G75*
G02*
X185667500Y-75412000I-62500J0D01*
G01*
X185542500Y-75412000D01*
G75*
G02*
X185480000Y-75349500I0J62500D01*
G01*
X185480000Y-74674500D01*
G75*
G02*
X185542500Y-74612000I62500J0D01*
G01*
X185667500Y-74612000D01*
G75*
G02*
X185730000Y-74674500I0J-62500D01*
G01*
G37*
G04 #@! TD.AperFunction*
G04 #@! TA.AperFunction,SMDPad,CuDef*
G36*
G01*
X186180000Y-74674500D02*
X186180000Y-75349500D01*
G75*
G02*
X186117500Y-75412000I-62500J0D01*
G01*
X185992500Y-75412000D01*
G75*
G02*
X185930000Y-75349500I0J62500D01*
G01*
X185930000Y-74674500D01*
G75*
G02*
X185992500Y-74612000I62500J0D01*
G01*
X186117500Y-74612000D01*
G75*
G02*
X186180000Y-74674500I0J-62500D01*
G01*
G37*
G04 #@! TD.AperFunction*
G04 #@! TA.AperFunction,SMDPad,CuDef*
G36*
G01*
X186630000Y-74674500D02*
X186630000Y-75349500D01*
G75*
G02*
X186567500Y-75412000I-62500J0D01*
G01*
X186442500Y-75412000D01*
G75*
G02*
X186380000Y-75349500I0J62500D01*
G01*
X186380000Y-74674500D01*
G75*
G02*
X186442500Y-74612000I62500J0D01*
G01*
X186567500Y-74612000D01*
G75*
G02*
X186630000Y-74674500I0J-62500D01*
G01*
G37*
G04 #@! TD.AperFunction*
G04 #@! TA.AperFunction,SMDPad,CuDef*
G36*
G01*
X187080000Y-74674500D02*
X187080000Y-75349500D01*
G75*
G02*
X187017500Y-75412000I-62500J0D01*
G01*
X186892500Y-75412000D01*
G75*
G02*
X186830000Y-75349500I0J62500D01*
G01*
X186830000Y-74674500D01*
G75*
G02*
X186892500Y-74612000I62500J0D01*
G01*
X187017500Y-74612000D01*
G75*
G02*
X187080000Y-74674500I0J-62500D01*
G01*
G37*
G04 #@! TD.AperFunction*
G04 #@! TA.AperFunction,SMDPad,CuDef*
G36*
X187330307Y-75410799D02*
G01*
X187318582Y-75407242D01*
X187307777Y-75401467D01*
X187298306Y-75393694D01*
X187290533Y-75384223D01*
X187284758Y-75373418D01*
X187281201Y-75361693D01*
X187280000Y-75349500D01*
X187280000Y-74674500D01*
X187281201Y-74662307D01*
X187284758Y-74650582D01*
X187290533Y-74639777D01*
X187298306Y-74630306D01*
X187307777Y-74622533D01*
X187318582Y-74616758D01*
X187330307Y-74613201D01*
X187342500Y-74612000D01*
X187467500Y-74612000D01*
X187479693Y-74613201D01*
X187491418Y-74616758D01*
X187502223Y-74622533D01*
X187511694Y-74630306D01*
X187519467Y-74639777D01*
X187525242Y-74650582D01*
X187528799Y-74662307D01*
X187530000Y-74674500D01*
X187530000Y-75286112D01*
X187528799Y-75298305D01*
X187525242Y-75310030D01*
X187519467Y-75320835D01*
X187511694Y-75330306D01*
X187448306Y-75393694D01*
X187438835Y-75401467D01*
X187428030Y-75407242D01*
X187416305Y-75410799D01*
X187404112Y-75412000D01*
X187342500Y-75412000D01*
X187330307Y-75410799D01*
G37*
G04 #@! TD.AperFunction*
G04 #@! TA.AperFunction,SMDPad,CuDef*
G36*
X187655307Y-75735799D02*
G01*
X187643582Y-75732242D01*
X187632777Y-75726467D01*
X187623306Y-75718694D01*
X187615533Y-75709223D01*
X187609758Y-75698418D01*
X187606201Y-75686693D01*
X187605000Y-75674500D01*
X187605000Y-75612888D01*
X187606201Y-75600695D01*
X187609758Y-75588970D01*
X187615533Y-75578165D01*
X187623306Y-75568694D01*
X187686694Y-75505306D01*
X187696165Y-75497533D01*
X187706970Y-75491758D01*
X187718695Y-75488201D01*
X187730888Y-75487000D01*
X188342500Y-75487000D01*
X188354693Y-75488201D01*
X188366418Y-75491758D01*
X188377223Y-75497533D01*
X188386694Y-75505306D01*
X188394467Y-75514777D01*
X188400242Y-75525582D01*
X188403799Y-75537307D01*
X188405000Y-75549500D01*
X188405000Y-75674500D01*
X188403799Y-75686693D01*
X188400242Y-75698418D01*
X188394467Y-75709223D01*
X188386694Y-75718694D01*
X188377223Y-75726467D01*
X188366418Y-75732242D01*
X188354693Y-75735799D01*
X188342500Y-75737000D01*
X187667500Y-75737000D01*
X187655307Y-75735799D01*
G37*
G04 #@! TD.AperFunction*
G04 #@! TA.AperFunction,SMDPad,CuDef*
G36*
G01*
X188405000Y-75999500D02*
X188405000Y-76124500D01*
G75*
G02*
X188342500Y-76187000I-62500J0D01*
G01*
X187667500Y-76187000D01*
G75*
G02*
X187605000Y-76124500I0J62500D01*
G01*
X187605000Y-75999500D01*
G75*
G02*
X187667500Y-75937000I62500J0D01*
G01*
X188342500Y-75937000D01*
G75*
G02*
X188405000Y-75999500I0J-62500D01*
G01*
G37*
G04 #@! TD.AperFunction*
G04 #@! TA.AperFunction,SMDPad,CuDef*
G36*
G01*
X188405000Y-76449500D02*
X188405000Y-76574500D01*
G75*
G02*
X188342500Y-76637000I-62500J0D01*
G01*
X187667500Y-76637000D01*
G75*
G02*
X187605000Y-76574500I0J62500D01*
G01*
X187605000Y-76449500D01*
G75*
G02*
X187667500Y-76387000I62500J0D01*
G01*
X188342500Y-76387000D01*
G75*
G02*
X188405000Y-76449500I0J-62500D01*
G01*
G37*
G04 #@! TD.AperFunction*
G04 #@! TA.AperFunction,SMDPad,CuDef*
G36*
G01*
X188405000Y-76899500D02*
X188405000Y-77024500D01*
G75*
G02*
X188342500Y-77087000I-62500J0D01*
G01*
X187667500Y-77087000D01*
G75*
G02*
X187605000Y-77024500I0J62500D01*
G01*
X187605000Y-76899500D01*
G75*
G02*
X187667500Y-76837000I62500J0D01*
G01*
X188342500Y-76837000D01*
G75*
G02*
X188405000Y-76899500I0J-62500D01*
G01*
G37*
G04 #@! TD.AperFunction*
G04 #@! TA.AperFunction,SMDPad,CuDef*
G36*
G01*
X188405000Y-77349500D02*
X188405000Y-77474500D01*
G75*
G02*
X188342500Y-77537000I-62500J0D01*
G01*
X187667500Y-77537000D01*
G75*
G02*
X187605000Y-77474500I0J62500D01*
G01*
X187605000Y-77349500D01*
G75*
G02*
X187667500Y-77287000I62500J0D01*
G01*
X188342500Y-77287000D01*
G75*
G02*
X188405000Y-77349500I0J-62500D01*
G01*
G37*
G04 #@! TD.AperFunction*
G04 #@! TA.AperFunction,SMDPad,CuDef*
G36*
G01*
X188405000Y-77799500D02*
X188405000Y-77924500D01*
G75*
G02*
X188342500Y-77987000I-62500J0D01*
G01*
X187667500Y-77987000D01*
G75*
G02*
X187605000Y-77924500I0J62500D01*
G01*
X187605000Y-77799500D01*
G75*
G02*
X187667500Y-77737000I62500J0D01*
G01*
X188342500Y-77737000D01*
G75*
G02*
X188405000Y-77799500I0J-62500D01*
G01*
G37*
G04 #@! TD.AperFunction*
G04 #@! TA.AperFunction,SMDPad,CuDef*
G36*
X187718695Y-78435799D02*
G01*
X187706970Y-78432242D01*
X187696165Y-78426467D01*
X187686694Y-78418694D01*
X187623306Y-78355306D01*
X187615533Y-78345835D01*
X187609758Y-78335030D01*
X187606201Y-78323305D01*
X187605000Y-78311112D01*
X187605000Y-78249500D01*
X187606201Y-78237307D01*
X187609758Y-78225582D01*
X187615533Y-78214777D01*
X187623306Y-78205306D01*
X187632777Y-78197533D01*
X187643582Y-78191758D01*
X187655307Y-78188201D01*
X187667500Y-78187000D01*
X188342500Y-78187000D01*
X188354693Y-78188201D01*
X188366418Y-78191758D01*
X188377223Y-78197533D01*
X188386694Y-78205306D01*
X188394467Y-78214777D01*
X188400242Y-78225582D01*
X188403799Y-78237307D01*
X188405000Y-78249500D01*
X188405000Y-78374500D01*
X188403799Y-78386693D01*
X188400242Y-78398418D01*
X188394467Y-78409223D01*
X188386694Y-78418694D01*
X188377223Y-78426467D01*
X188366418Y-78432242D01*
X188354693Y-78435799D01*
X188342500Y-78437000D01*
X187730888Y-78437000D01*
X187718695Y-78435799D01*
G37*
G04 #@! TD.AperFunction*
D22*
X204470000Y-80325000D03*
X204470000Y-84775000D03*
G04 #@! TA.AperFunction,SMDPad,CuDef*
G36*
G01*
X200475000Y-89775000D02*
X200845000Y-89775000D01*
G75*
G02*
X200980000Y-89910000I0J-135000D01*
G01*
X200980000Y-90180000D01*
G75*
G02*
X200845000Y-90315000I-135000J0D01*
G01*
X200475000Y-90315000D01*
G75*
G02*
X200340000Y-90180000I0J135000D01*
G01*
X200340000Y-89910000D01*
G75*
G02*
X200475000Y-89775000I135000J0D01*
G01*
G37*
G04 #@! TD.AperFunction*
G04 #@! TA.AperFunction,SMDPad,CuDef*
G36*
G01*
X200475000Y-88755000D02*
X200845000Y-88755000D01*
G75*
G02*
X200980000Y-88890000I0J-135000D01*
G01*
X200980000Y-89160000D01*
G75*
G02*
X200845000Y-89295000I-135000J0D01*
G01*
X200475000Y-89295000D01*
G75*
G02*
X200340000Y-89160000I0J135000D01*
G01*
X200340000Y-88890000D01*
G75*
G02*
X200475000Y-88755000I135000J0D01*
G01*
G37*
G04 #@! TD.AperFunction*
G04 #@! TA.AperFunction,SMDPad,CuDef*
G36*
G01*
X196665000Y-89775000D02*
X197035000Y-89775000D01*
G75*
G02*
X197170000Y-89910000I0J-135000D01*
G01*
X197170000Y-90180000D01*
G75*
G02*
X197035000Y-90315000I-135000J0D01*
G01*
X196665000Y-90315000D01*
G75*
G02*
X196530000Y-90180000I0J135000D01*
G01*
X196530000Y-89910000D01*
G75*
G02*
X196665000Y-89775000I135000J0D01*
G01*
G37*
G04 #@! TD.AperFunction*
G04 #@! TA.AperFunction,SMDPad,CuDef*
G36*
G01*
X196665000Y-88755000D02*
X197035000Y-88755000D01*
G75*
G02*
X197170000Y-88890000I0J-135000D01*
G01*
X197170000Y-89160000D01*
G75*
G02*
X197035000Y-89295000I-135000J0D01*
G01*
X196665000Y-89295000D01*
G75*
G02*
X196530000Y-89160000I0J135000D01*
G01*
X196530000Y-88890000D01*
G75*
G02*
X196665000Y-88755000I135000J0D01*
G01*
G37*
G04 #@! TD.AperFunction*
G04 #@! TA.AperFunction,SMDPad,CuDef*
G36*
G01*
X193280000Y-74861000D02*
X193280000Y-74491000D01*
G75*
G02*
X193415000Y-74356000I135000J0D01*
G01*
X193685000Y-74356000D01*
G75*
G02*
X193820000Y-74491000I0J-135000D01*
G01*
X193820000Y-74861000D01*
G75*
G02*
X193685000Y-74996000I-135000J0D01*
G01*
X193415000Y-74996000D01*
G75*
G02*
X193280000Y-74861000I0J135000D01*
G01*
G37*
G04 #@! TD.AperFunction*
G04 #@! TA.AperFunction,SMDPad,CuDef*
G36*
G01*
X192260000Y-74861000D02*
X192260000Y-74491000D01*
G75*
G02*
X192395000Y-74356000I135000J0D01*
G01*
X192665000Y-74356000D01*
G75*
G02*
X192800000Y-74491000I0J-135000D01*
G01*
X192800000Y-74861000D01*
G75*
G02*
X192665000Y-74996000I-135000J0D01*
G01*
X192395000Y-74996000D01*
G75*
G02*
X192260000Y-74861000I0J135000D01*
G01*
G37*
G04 #@! TD.AperFunction*
G04 #@! TA.AperFunction,SMDPad,CuDef*
G36*
G01*
X190740000Y-76385000D02*
X190740000Y-76015000D01*
G75*
G02*
X190875000Y-75880000I135000J0D01*
G01*
X191145000Y-75880000D01*
G75*
G02*
X191280000Y-76015000I0J-135000D01*
G01*
X191280000Y-76385000D01*
G75*
G02*
X191145000Y-76520000I-135000J0D01*
G01*
X190875000Y-76520000D01*
G75*
G02*
X190740000Y-76385000I0J135000D01*
G01*
G37*
G04 #@! TD.AperFunction*
G04 #@! TA.AperFunction,SMDPad,CuDef*
G36*
G01*
X189720000Y-76385000D02*
X189720000Y-76015000D01*
G75*
G02*
X189855000Y-75880000I135000J0D01*
G01*
X190125000Y-75880000D01*
G75*
G02*
X190260000Y-76015000I0J-135000D01*
G01*
X190260000Y-76385000D01*
G75*
G02*
X190125000Y-76520000I-135000J0D01*
G01*
X189855000Y-76520000D01*
G75*
G02*
X189720000Y-76385000I0J135000D01*
G01*
G37*
G04 #@! TD.AperFunction*
G04 #@! TA.AperFunction,SMDPad,CuDef*
G36*
G01*
X190740000Y-74861000D02*
X190740000Y-74491000D01*
G75*
G02*
X190875000Y-74356000I135000J0D01*
G01*
X191145000Y-74356000D01*
G75*
G02*
X191280000Y-74491000I0J-135000D01*
G01*
X191280000Y-74861000D01*
G75*
G02*
X191145000Y-74996000I-135000J0D01*
G01*
X190875000Y-74996000D01*
G75*
G02*
X190740000Y-74861000I0J135000D01*
G01*
G37*
G04 #@! TD.AperFunction*
G04 #@! TA.AperFunction,SMDPad,CuDef*
G36*
G01*
X189720000Y-74861000D02*
X189720000Y-74491000D01*
G75*
G02*
X189855000Y-74356000I135000J0D01*
G01*
X190125000Y-74356000D01*
G75*
G02*
X190260000Y-74491000I0J-135000D01*
G01*
X190260000Y-74861000D01*
G75*
G02*
X190125000Y-74996000I-135000J0D01*
G01*
X189855000Y-74996000D01*
G75*
G02*
X189720000Y-74861000I0J135000D01*
G01*
G37*
G04 #@! TD.AperFunction*
G04 #@! TA.AperFunction,SMDPad,CuDef*
G36*
G01*
X190740000Y-77909000D02*
X190740000Y-77539000D01*
G75*
G02*
X190875000Y-77404000I135000J0D01*
G01*
X191145000Y-77404000D01*
G75*
G02*
X191280000Y-77539000I0J-135000D01*
G01*
X191280000Y-77909000D01*
G75*
G02*
X191145000Y-78044000I-135000J0D01*
G01*
X190875000Y-78044000D01*
G75*
G02*
X190740000Y-77909000I0J135000D01*
G01*
G37*
G04 #@! TD.AperFunction*
G04 #@! TA.AperFunction,SMDPad,CuDef*
G36*
G01*
X189720000Y-77909000D02*
X189720000Y-77539000D01*
G75*
G02*
X189855000Y-77404000I135000J0D01*
G01*
X190125000Y-77404000D01*
G75*
G02*
X190260000Y-77539000I0J-135000D01*
G01*
X190260000Y-77909000D01*
G75*
G02*
X190125000Y-78044000I-135000J0D01*
G01*
X189855000Y-78044000D01*
G75*
G02*
X189720000Y-77909000I0J135000D01*
G01*
G37*
G04 #@! TD.AperFunction*
G04 #@! TA.AperFunction,SMDPad,CuDef*
G36*
G01*
X187267000Y-86092000D02*
X187637000Y-86092000D01*
G75*
G02*
X187772000Y-86227000I0J-135000D01*
G01*
X187772000Y-86497000D01*
G75*
G02*
X187637000Y-86632000I-135000J0D01*
G01*
X187267000Y-86632000D01*
G75*
G02*
X187132000Y-86497000I0J135000D01*
G01*
X187132000Y-86227000D01*
G75*
G02*
X187267000Y-86092000I135000J0D01*
G01*
G37*
G04 #@! TD.AperFunction*
G04 #@! TA.AperFunction,SMDPad,CuDef*
G36*
G01*
X187267000Y-85072000D02*
X187637000Y-85072000D01*
G75*
G02*
X187772000Y-85207000I0J-135000D01*
G01*
X187772000Y-85477000D01*
G75*
G02*
X187637000Y-85612000I-135000J0D01*
G01*
X187267000Y-85612000D01*
G75*
G02*
X187132000Y-85477000I0J135000D01*
G01*
X187132000Y-85207000D01*
G75*
G02*
X187267000Y-85072000I135000J0D01*
G01*
G37*
G04 #@! TD.AperFunction*
G04 #@! TA.AperFunction,SMDPad,CuDef*
G36*
G01*
X189505000Y-91714000D02*
X188955000Y-91714000D01*
G75*
G02*
X188755000Y-91514000I0J200000D01*
G01*
X188755000Y-91114000D01*
G75*
G02*
X188955000Y-90914000I200000J0D01*
G01*
X189505000Y-90914000D01*
G75*
G02*
X189705000Y-91114000I0J-200000D01*
G01*
X189705000Y-91514000D01*
G75*
G02*
X189505000Y-91714000I-200000J0D01*
G01*
G37*
G04 #@! TD.AperFunction*
G04 #@! TA.AperFunction,SMDPad,CuDef*
G36*
G01*
X189505000Y-93364000D02*
X188955000Y-93364000D01*
G75*
G02*
X188755000Y-93164000I0J200000D01*
G01*
X188755000Y-92764000D01*
G75*
G02*
X188955000Y-92564000I200000J0D01*
G01*
X189505000Y-92564000D01*
G75*
G02*
X189705000Y-92764000I0J-200000D01*
G01*
X189705000Y-93164000D01*
G75*
G02*
X189505000Y-93364000I-200000J0D01*
G01*
G37*
G04 #@! TD.AperFunction*
G04 #@! TA.AperFunction,SMDPad,CuDef*
G36*
G01*
X200743000Y-92435000D02*
X200743000Y-92985000D01*
G75*
G02*
X200543000Y-93185000I-200000J0D01*
G01*
X200143000Y-93185000D01*
G75*
G02*
X199943000Y-92985000I0J200000D01*
G01*
X199943000Y-92435000D01*
G75*
G02*
X200143000Y-92235000I200000J0D01*
G01*
X200543000Y-92235000D01*
G75*
G02*
X200743000Y-92435000I0J-200000D01*
G01*
G37*
G04 #@! TD.AperFunction*
G04 #@! TA.AperFunction,SMDPad,CuDef*
G36*
G01*
X202393000Y-92435000D02*
X202393000Y-92985000D01*
G75*
G02*
X202193000Y-93185000I-200000J0D01*
G01*
X201793000Y-93185000D01*
G75*
G02*
X201593000Y-92985000I0J200000D01*
G01*
X201593000Y-92435000D01*
G75*
G02*
X201793000Y-92235000I200000J0D01*
G01*
X202193000Y-92235000D01*
G75*
G02*
X202393000Y-92435000I0J-200000D01*
G01*
G37*
G04 #@! TD.AperFunction*
G04 #@! TA.AperFunction,SMDPad,CuDef*
G36*
G01*
X198037000Y-92985000D02*
X198037000Y-92435000D01*
G75*
G02*
X198237000Y-92235000I200000J0D01*
G01*
X198637000Y-92235000D01*
G75*
G02*
X198837000Y-92435000I0J-200000D01*
G01*
X198837000Y-92985000D01*
G75*
G02*
X198637000Y-93185000I-200000J0D01*
G01*
X198237000Y-93185000D01*
G75*
G02*
X198037000Y-92985000I0J200000D01*
G01*
G37*
G04 #@! TD.AperFunction*
G04 #@! TA.AperFunction,SMDPad,CuDef*
G36*
G01*
X196387000Y-92985000D02*
X196387000Y-92435000D01*
G75*
G02*
X196587000Y-92235000I200000J0D01*
G01*
X196987000Y-92235000D01*
G75*
G02*
X197187000Y-92435000I0J-200000D01*
G01*
X197187000Y-92985000D01*
G75*
G02*
X196987000Y-93185000I-200000J0D01*
G01*
X196587000Y-93185000D01*
G75*
G02*
X196387000Y-92985000I0J200000D01*
G01*
G37*
G04 #@! TD.AperFunction*
D23*
X187055000Y-93980000D03*
X185055000Y-94930000D03*
X185055000Y-93030000D03*
G04 #@! TA.AperFunction,SMDPad,CuDef*
G36*
G01*
X198292500Y-74740000D02*
X197947500Y-74740000D01*
G75*
G02*
X197800000Y-74592500I0J147500D01*
G01*
X197800000Y-74297500D01*
G75*
G02*
X197947500Y-74150000I147500J0D01*
G01*
X198292500Y-74150000D01*
G75*
G02*
X198440000Y-74297500I0J-147500D01*
G01*
X198440000Y-74592500D01*
G75*
G02*
X198292500Y-74740000I-147500J0D01*
G01*
G37*
G04 #@! TD.AperFunction*
G04 #@! TA.AperFunction,SMDPad,CuDef*
G36*
G01*
X198292500Y-75710000D02*
X197947500Y-75710000D01*
G75*
G02*
X197800000Y-75562500I0J147500D01*
G01*
X197800000Y-75267500D01*
G75*
G02*
X197947500Y-75120000I147500J0D01*
G01*
X198292500Y-75120000D01*
G75*
G02*
X198440000Y-75267500I0J-147500D01*
G01*
X198440000Y-75562500D01*
G75*
G02*
X198292500Y-75710000I-147500J0D01*
G01*
G37*
G04 #@! TD.AperFunction*
D15*
X175006000Y-89535000D03*
X175006000Y-86995000D03*
X175006000Y-84455000D03*
X175006000Y-81915000D03*
X175006000Y-79375000D03*
D16*
X175006000Y-76835000D03*
D24*
X191800000Y-94935000D03*
X191800000Y-96835000D03*
X189200000Y-96835000D03*
X189200000Y-95885000D03*
X189200000Y-94935000D03*
D25*
X194818000Y-68072000D03*
X197018000Y-68072000D03*
X205518000Y-71802000D03*
X194818000Y-71802000D03*
G04 #@! TA.AperFunction,SMDPad,CuDef*
G36*
G01*
X204820000Y-75186250D02*
X204820000Y-74673750D01*
G75*
G02*
X205038750Y-74455000I218750J0D01*
G01*
X205476250Y-74455000D01*
G75*
G02*
X205695000Y-74673750I0J-218750D01*
G01*
X205695000Y-75186250D01*
G75*
G02*
X205476250Y-75405000I-218750J0D01*
G01*
X205038750Y-75405000D01*
G75*
G02*
X204820000Y-75186250I0J218750D01*
G01*
G37*
G04 #@! TD.AperFunction*
G04 #@! TA.AperFunction,SMDPad,CuDef*
G36*
G01*
X203245000Y-75186250D02*
X203245000Y-74673750D01*
G75*
G02*
X203463750Y-74455000I218750J0D01*
G01*
X203901250Y-74455000D01*
G75*
G02*
X204120000Y-74673750I0J-218750D01*
G01*
X204120000Y-75186250D01*
G75*
G02*
X203901250Y-75405000I-218750J0D01*
G01*
X203463750Y-75405000D01*
G75*
G02*
X203245000Y-75186250I0J218750D01*
G01*
G37*
G04 #@! TD.AperFunction*
D26*
X185040000Y-99060000D03*
X188340000Y-99060000D03*
X193420000Y-99060000D03*
X190120000Y-99060000D03*
G04 #@! TA.AperFunction,SMDPad,CuDef*
G36*
G01*
X190878750Y-92529000D02*
X191391250Y-92529000D01*
G75*
G02*
X191610000Y-92747750I0J-218750D01*
G01*
X191610000Y-93185250D01*
G75*
G02*
X191391250Y-93404000I-218750J0D01*
G01*
X190878750Y-93404000D01*
G75*
G02*
X190660000Y-93185250I0J218750D01*
G01*
X190660000Y-92747750D01*
G75*
G02*
X190878750Y-92529000I218750J0D01*
G01*
G37*
G04 #@! TD.AperFunction*
G04 #@! TA.AperFunction,SMDPad,CuDef*
G36*
G01*
X190878750Y-90954000D02*
X191391250Y-90954000D01*
G75*
G02*
X191610000Y-91172750I0J-218750D01*
G01*
X191610000Y-91610250D01*
G75*
G02*
X191391250Y-91829000I-218750J0D01*
G01*
X190878750Y-91829000D01*
G75*
G02*
X190660000Y-91610250I0J218750D01*
G01*
X190660000Y-91172750D01*
G75*
G02*
X190878750Y-90954000I218750J0D01*
G01*
G37*
G04 #@! TD.AperFunction*
G04 #@! TA.AperFunction,SMDPad,CuDef*
G36*
G01*
X201956000Y-87714000D02*
X201956000Y-88054000D01*
G75*
G02*
X201816000Y-88194000I-140000J0D01*
G01*
X201536000Y-88194000D01*
G75*
G02*
X201396000Y-88054000I0J140000D01*
G01*
X201396000Y-87714000D01*
G75*
G02*
X201536000Y-87574000I140000J0D01*
G01*
X201816000Y-87574000D01*
G75*
G02*
X201956000Y-87714000I0J-140000D01*
G01*
G37*
G04 #@! TD.AperFunction*
G04 #@! TA.AperFunction,SMDPad,CuDef*
G36*
G01*
X202916000Y-87714000D02*
X202916000Y-88054000D01*
G75*
G02*
X202776000Y-88194000I-140000J0D01*
G01*
X202496000Y-88194000D01*
G75*
G02*
X202356000Y-88054000I0J140000D01*
G01*
X202356000Y-87714000D01*
G75*
G02*
X202496000Y-87574000I140000J0D01*
G01*
X202776000Y-87574000D01*
G75*
G02*
X202916000Y-87714000I0J-140000D01*
G01*
G37*
G04 #@! TD.AperFunction*
G04 #@! TA.AperFunction,SMDPad,CuDef*
G36*
G01*
X185775000Y-97325000D02*
X185775000Y-96985000D01*
G75*
G02*
X185915000Y-96845000I140000J0D01*
G01*
X186195000Y-96845000D01*
G75*
G02*
X186335000Y-96985000I0J-140000D01*
G01*
X186335000Y-97325000D01*
G75*
G02*
X186195000Y-97465000I-140000J0D01*
G01*
X185915000Y-97465000D01*
G75*
G02*
X185775000Y-97325000I0J140000D01*
G01*
G37*
G04 #@! TD.AperFunction*
G04 #@! TA.AperFunction,SMDPad,CuDef*
G36*
G01*
X184815000Y-97325000D02*
X184815000Y-96985000D01*
G75*
G02*
X184955000Y-96845000I140000J0D01*
G01*
X185235000Y-96845000D01*
G75*
G02*
X185375000Y-96985000I0J-140000D01*
G01*
X185375000Y-97325000D01*
G75*
G02*
X185235000Y-97465000I-140000J0D01*
G01*
X184955000Y-97465000D01*
G75*
G02*
X184815000Y-97325000I0J140000D01*
G01*
G37*
G04 #@! TD.AperFunction*
G04 #@! TA.AperFunction,SMDPad,CuDef*
G36*
G01*
X178614500Y-77073999D02*
X178614500Y-78374001D01*
G75*
G02*
X178364501Y-78624000I-249999J0D01*
G01*
X177714499Y-78624000D01*
G75*
G02*
X177464500Y-78374001I0J249999D01*
G01*
X177464500Y-77073999D01*
G75*
G02*
X177714499Y-76824000I249999J0D01*
G01*
X178364501Y-76824000D01*
G75*
G02*
X178614500Y-77073999I0J-249999D01*
G01*
G37*
G04 #@! TD.AperFunction*
G04 #@! TA.AperFunction,SMDPad,CuDef*
G36*
G01*
X181564500Y-77073999D02*
X181564500Y-78374001D01*
G75*
G02*
X181314501Y-78624000I-249999J0D01*
G01*
X180664499Y-78624000D01*
G75*
G02*
X180414500Y-78374001I0J249999D01*
G01*
X180414500Y-77073999D01*
G75*
G02*
X180664499Y-76824000I249999J0D01*
G01*
X181314501Y-76824000D01*
G75*
G02*
X181564500Y-77073999I0J-249999D01*
G01*
G37*
G04 #@! TD.AperFunction*
G04 #@! TA.AperFunction,SMDPad,CuDef*
G36*
G01*
X178614500Y-74533999D02*
X178614500Y-75834001D01*
G75*
G02*
X178364501Y-76084000I-249999J0D01*
G01*
X177714499Y-76084000D01*
G75*
G02*
X177464500Y-75834001I0J249999D01*
G01*
X177464500Y-74533999D01*
G75*
G02*
X177714499Y-74284000I249999J0D01*
G01*
X178364501Y-74284000D01*
G75*
G02*
X178614500Y-74533999I0J-249999D01*
G01*
G37*
G04 #@! TD.AperFunction*
G04 #@! TA.AperFunction,SMDPad,CuDef*
G36*
G01*
X181564500Y-74533999D02*
X181564500Y-75834001D01*
G75*
G02*
X181314501Y-76084000I-249999J0D01*
G01*
X180664499Y-76084000D01*
G75*
G02*
X180414500Y-75834001I0J249999D01*
G01*
X180414500Y-74533999D01*
G75*
G02*
X180664499Y-74284000I249999J0D01*
G01*
X181314501Y-74284000D01*
G75*
G02*
X181564500Y-74533999I0J-249999D01*
G01*
G37*
G04 #@! TD.AperFunction*
G04 #@! TA.AperFunction,SMDPad,CuDef*
G36*
G01*
X181980000Y-70977999D02*
X181980000Y-72278001D01*
G75*
G02*
X181730001Y-72528000I-249999J0D01*
G01*
X181079999Y-72528000D01*
G75*
G02*
X180830000Y-72278001I0J249999D01*
G01*
X180830000Y-70977999D01*
G75*
G02*
X181079999Y-70728000I249999J0D01*
G01*
X181730001Y-70728000D01*
G75*
G02*
X181980000Y-70977999I0J-249999D01*
G01*
G37*
G04 #@! TD.AperFunction*
G04 #@! TA.AperFunction,SMDPad,CuDef*
G36*
G01*
X184930000Y-70977999D02*
X184930000Y-72278001D01*
G75*
G02*
X184680001Y-72528000I-249999J0D01*
G01*
X184029999Y-72528000D01*
G75*
G02*
X183780000Y-72278001I0J249999D01*
G01*
X183780000Y-70977999D01*
G75*
G02*
X184029999Y-70728000I249999J0D01*
G01*
X184680001Y-70728000D01*
G75*
G02*
X184930000Y-70977999I0J-249999D01*
G01*
G37*
G04 #@! TD.AperFunction*
G04 #@! TA.AperFunction,SMDPad,CuDef*
G36*
G01*
X181980000Y-67929999D02*
X181980000Y-69230001D01*
G75*
G02*
X181730001Y-69480000I-249999J0D01*
G01*
X181079999Y-69480000D01*
G75*
G02*
X180830000Y-69230001I0J249999D01*
G01*
X180830000Y-67929999D01*
G75*
G02*
X181079999Y-67680000I249999J0D01*
G01*
X181730001Y-67680000D01*
G75*
G02*
X181980000Y-67929999I0J-249999D01*
G01*
G37*
G04 #@! TD.AperFunction*
G04 #@! TA.AperFunction,SMDPad,CuDef*
G36*
G01*
X184930000Y-67929999D02*
X184930000Y-69230001D01*
G75*
G02*
X184680001Y-69480000I-249999J0D01*
G01*
X184029999Y-69480000D01*
G75*
G02*
X183780000Y-69230001I0J249999D01*
G01*
X183780000Y-67929999D01*
G75*
G02*
X184029999Y-67680000I249999J0D01*
G01*
X184680001Y-67680000D01*
G75*
G02*
X184930000Y-67929999I0J-249999D01*
G01*
G37*
G04 #@! TD.AperFunction*
G04 #@! TA.AperFunction,SMDPad,CuDef*
G36*
G01*
X199560000Y-89335000D02*
X199220000Y-89335000D01*
G75*
G02*
X199080000Y-89195000I0J140000D01*
G01*
X199080000Y-88915000D01*
G75*
G02*
X199220000Y-88775000I140000J0D01*
G01*
X199560000Y-88775000D01*
G75*
G02*
X199700000Y-88915000I0J-140000D01*
G01*
X199700000Y-89195000D01*
G75*
G02*
X199560000Y-89335000I-140000J0D01*
G01*
G37*
G04 #@! TD.AperFunction*
G04 #@! TA.AperFunction,SMDPad,CuDef*
G36*
G01*
X199560000Y-90295000D02*
X199220000Y-90295000D01*
G75*
G02*
X199080000Y-90155000I0J140000D01*
G01*
X199080000Y-89875000D01*
G75*
G02*
X199220000Y-89735000I140000J0D01*
G01*
X199560000Y-89735000D01*
G75*
G02*
X199700000Y-89875000I0J-140000D01*
G01*
X199700000Y-90155000D01*
G75*
G02*
X199560000Y-90295000I-140000J0D01*
G01*
G37*
G04 #@! TD.AperFunction*
G04 #@! TA.AperFunction,SMDPad,CuDef*
G36*
G01*
X181556000Y-90594000D02*
X181556000Y-90254000D01*
G75*
G02*
X181696000Y-90114000I140000J0D01*
G01*
X181976000Y-90114000D01*
G75*
G02*
X182116000Y-90254000I0J-140000D01*
G01*
X182116000Y-90594000D01*
G75*
G02*
X181976000Y-90734000I-140000J0D01*
G01*
X181696000Y-90734000D01*
G75*
G02*
X181556000Y-90594000I0J140000D01*
G01*
G37*
G04 #@! TD.AperFunction*
G04 #@! TA.AperFunction,SMDPad,CuDef*
G36*
G01*
X180596000Y-90594000D02*
X180596000Y-90254000D01*
G75*
G02*
X180736000Y-90114000I140000J0D01*
G01*
X181016000Y-90114000D01*
G75*
G02*
X181156000Y-90254000I0J-140000D01*
G01*
X181156000Y-90594000D01*
G75*
G02*
X181016000Y-90734000I-140000J0D01*
G01*
X180736000Y-90734000D01*
G75*
G02*
X180596000Y-90594000I0J140000D01*
G01*
G37*
G04 #@! TD.AperFunction*
G04 #@! TA.AperFunction,SMDPad,CuDef*
G36*
G01*
X181556000Y-89070000D02*
X181556000Y-88730000D01*
G75*
G02*
X181696000Y-88590000I140000J0D01*
G01*
X181976000Y-88590000D01*
G75*
G02*
X182116000Y-88730000I0J-140000D01*
G01*
X182116000Y-89070000D01*
G75*
G02*
X181976000Y-89210000I-140000J0D01*
G01*
X181696000Y-89210000D01*
G75*
G02*
X181556000Y-89070000I0J140000D01*
G01*
G37*
G04 #@! TD.AperFunction*
G04 #@! TA.AperFunction,SMDPad,CuDef*
G36*
G01*
X180596000Y-89070000D02*
X180596000Y-88730000D01*
G75*
G02*
X180736000Y-88590000I140000J0D01*
G01*
X181016000Y-88590000D01*
G75*
G02*
X181156000Y-88730000I0J-140000D01*
G01*
X181156000Y-89070000D01*
G75*
G02*
X181016000Y-89210000I-140000J0D01*
G01*
X180736000Y-89210000D01*
G75*
G02*
X180596000Y-89070000I0J140000D01*
G01*
G37*
G04 #@! TD.AperFunction*
G04 #@! TA.AperFunction,SMDPad,CuDef*
G36*
G01*
X187144000Y-68242000D02*
X187144000Y-67902000D01*
G75*
G02*
X187284000Y-67762000I140000J0D01*
G01*
X187564000Y-67762000D01*
G75*
G02*
X187704000Y-67902000I0J-140000D01*
G01*
X187704000Y-68242000D01*
G75*
G02*
X187564000Y-68382000I-140000J0D01*
G01*
X187284000Y-68382000D01*
G75*
G02*
X187144000Y-68242000I0J140000D01*
G01*
G37*
G04 #@! TD.AperFunction*
G04 #@! TA.AperFunction,SMDPad,CuDef*
G36*
G01*
X186184000Y-68242000D02*
X186184000Y-67902000D01*
G75*
G02*
X186324000Y-67762000I140000J0D01*
G01*
X186604000Y-67762000D01*
G75*
G02*
X186744000Y-67902000I0J-140000D01*
G01*
X186744000Y-68242000D01*
G75*
G02*
X186604000Y-68382000I-140000J0D01*
G01*
X186324000Y-68382000D01*
G75*
G02*
X186184000Y-68242000I0J140000D01*
G01*
G37*
G04 #@! TD.AperFunction*
G04 #@! TA.AperFunction,SMDPad,CuDef*
G36*
G01*
X184574000Y-85652000D02*
X184234000Y-85652000D01*
G75*
G02*
X184094000Y-85512000I0J140000D01*
G01*
X184094000Y-85232000D01*
G75*
G02*
X184234000Y-85092000I140000J0D01*
G01*
X184574000Y-85092000D01*
G75*
G02*
X184714000Y-85232000I0J-140000D01*
G01*
X184714000Y-85512000D01*
G75*
G02*
X184574000Y-85652000I-140000J0D01*
G01*
G37*
G04 #@! TD.AperFunction*
G04 #@! TA.AperFunction,SMDPad,CuDef*
G36*
G01*
X184574000Y-86612000D02*
X184234000Y-86612000D01*
G75*
G02*
X184094000Y-86472000I0J140000D01*
G01*
X184094000Y-86192000D01*
G75*
G02*
X184234000Y-86052000I140000J0D01*
G01*
X184574000Y-86052000D01*
G75*
G02*
X184714000Y-86192000I0J-140000D01*
G01*
X184714000Y-86472000D01*
G75*
G02*
X184574000Y-86612000I-140000J0D01*
G01*
G37*
G04 #@! TD.AperFunction*
G04 #@! TA.AperFunction,SMDPad,CuDef*
G36*
G01*
X195750000Y-89335000D02*
X195410000Y-89335000D01*
G75*
G02*
X195270000Y-89195000I0J140000D01*
G01*
X195270000Y-88915000D01*
G75*
G02*
X195410000Y-88775000I140000J0D01*
G01*
X195750000Y-88775000D01*
G75*
G02*
X195890000Y-88915000I0J-140000D01*
G01*
X195890000Y-89195000D01*
G75*
G02*
X195750000Y-89335000I-140000J0D01*
G01*
G37*
G04 #@! TD.AperFunction*
G04 #@! TA.AperFunction,SMDPad,CuDef*
G36*
G01*
X195750000Y-90295000D02*
X195410000Y-90295000D01*
G75*
G02*
X195270000Y-90155000I0J140000D01*
G01*
X195270000Y-89875000D01*
G75*
G02*
X195410000Y-89735000I140000J0D01*
G01*
X195750000Y-89735000D01*
G75*
G02*
X195890000Y-89875000I0J-140000D01*
G01*
X195890000Y-90155000D01*
G75*
G02*
X195750000Y-90295000I-140000J0D01*
G01*
G37*
G04 #@! TD.AperFunction*
G04 #@! TA.AperFunction,SMDPad,CuDef*
G36*
G01*
X181156000Y-81110000D02*
X181156000Y-81450000D01*
G75*
G02*
X181016000Y-81590000I-140000J0D01*
G01*
X180736000Y-81590000D01*
G75*
G02*
X180596000Y-81450000I0J140000D01*
G01*
X180596000Y-81110000D01*
G75*
G02*
X180736000Y-80970000I140000J0D01*
G01*
X181016000Y-80970000D01*
G75*
G02*
X181156000Y-81110000I0J-140000D01*
G01*
G37*
G04 #@! TD.AperFunction*
G04 #@! TA.AperFunction,SMDPad,CuDef*
G36*
G01*
X182116000Y-81110000D02*
X182116000Y-81450000D01*
G75*
G02*
X181976000Y-81590000I-140000J0D01*
G01*
X181696000Y-81590000D01*
G75*
G02*
X181556000Y-81450000I0J140000D01*
G01*
X181556000Y-81110000D01*
G75*
G02*
X181696000Y-80970000I140000J0D01*
G01*
X181976000Y-80970000D01*
G75*
G02*
X182116000Y-81110000I0J-140000D01*
G01*
G37*
G04 #@! TD.AperFunction*
G04 #@! TA.AperFunction,SMDPad,CuDef*
G36*
G01*
X181156000Y-79586000D02*
X181156000Y-79926000D01*
G75*
G02*
X181016000Y-80066000I-140000J0D01*
G01*
X180736000Y-80066000D01*
G75*
G02*
X180596000Y-79926000I0J140000D01*
G01*
X180596000Y-79586000D01*
G75*
G02*
X180736000Y-79446000I140000J0D01*
G01*
X181016000Y-79446000D01*
G75*
G02*
X181156000Y-79586000I0J-140000D01*
G01*
G37*
G04 #@! TD.AperFunction*
G04 #@! TA.AperFunction,SMDPad,CuDef*
G36*
G01*
X182116000Y-79586000D02*
X182116000Y-79926000D01*
G75*
G02*
X181976000Y-80066000I-140000J0D01*
G01*
X181696000Y-80066000D01*
G75*
G02*
X181556000Y-79926000I0J140000D01*
G01*
X181556000Y-79586000D01*
G75*
G02*
X181696000Y-79446000I140000J0D01*
G01*
X181976000Y-79446000D01*
G75*
G02*
X182116000Y-79586000I0J-140000D01*
G01*
G37*
G04 #@! TD.AperFunction*
G04 #@! TA.AperFunction,SMDPad,CuDef*
G36*
G01*
X181156000Y-85682000D02*
X181156000Y-86022000D01*
G75*
G02*
X181016000Y-86162000I-140000J0D01*
G01*
X180736000Y-86162000D01*
G75*
G02*
X180596000Y-86022000I0J140000D01*
G01*
X180596000Y-85682000D01*
G75*
G02*
X180736000Y-85542000I140000J0D01*
G01*
X181016000Y-85542000D01*
G75*
G02*
X181156000Y-85682000I0J-140000D01*
G01*
G37*
G04 #@! TD.AperFunction*
G04 #@! TA.AperFunction,SMDPad,CuDef*
G36*
G01*
X182116000Y-85682000D02*
X182116000Y-86022000D01*
G75*
G02*
X181976000Y-86162000I-140000J0D01*
G01*
X181696000Y-86162000D01*
G75*
G02*
X181556000Y-86022000I0J140000D01*
G01*
X181556000Y-85682000D01*
G75*
G02*
X181696000Y-85542000I140000J0D01*
G01*
X181976000Y-85542000D01*
G75*
G02*
X182116000Y-85682000I0J-140000D01*
G01*
G37*
G04 #@! TD.AperFunction*
G04 #@! TA.AperFunction,SMDPad,CuDef*
G36*
G01*
X181556000Y-82974000D02*
X181556000Y-82634000D01*
G75*
G02*
X181696000Y-82494000I140000J0D01*
G01*
X181976000Y-82494000D01*
G75*
G02*
X182116000Y-82634000I0J-140000D01*
G01*
X182116000Y-82974000D01*
G75*
G02*
X181976000Y-83114000I-140000J0D01*
G01*
X181696000Y-83114000D01*
G75*
G02*
X181556000Y-82974000I0J140000D01*
G01*
G37*
G04 #@! TD.AperFunction*
G04 #@! TA.AperFunction,SMDPad,CuDef*
G36*
G01*
X180596000Y-82974000D02*
X180596000Y-82634000D01*
G75*
G02*
X180736000Y-82494000I140000J0D01*
G01*
X181016000Y-82494000D01*
G75*
G02*
X181156000Y-82634000I0J-140000D01*
G01*
X181156000Y-82974000D01*
G75*
G02*
X181016000Y-83114000I-140000J0D01*
G01*
X180736000Y-83114000D01*
G75*
G02*
X180596000Y-82974000I0J140000D01*
G01*
G37*
G04 #@! TD.AperFunction*
G04 #@! TA.AperFunction,SMDPad,CuDef*
G36*
G01*
X187144000Y-73322000D02*
X187144000Y-72982000D01*
G75*
G02*
X187284000Y-72842000I140000J0D01*
G01*
X187564000Y-72842000D01*
G75*
G02*
X187704000Y-72982000I0J-140000D01*
G01*
X187704000Y-73322000D01*
G75*
G02*
X187564000Y-73462000I-140000J0D01*
G01*
X187284000Y-73462000D01*
G75*
G02*
X187144000Y-73322000I0J140000D01*
G01*
G37*
G04 #@! TD.AperFunction*
G04 #@! TA.AperFunction,SMDPad,CuDef*
G36*
G01*
X186184000Y-73322000D02*
X186184000Y-72982000D01*
G75*
G02*
X186324000Y-72842000I140000J0D01*
G01*
X186604000Y-72842000D01*
G75*
G02*
X186744000Y-72982000I0J-140000D01*
G01*
X186744000Y-73322000D01*
G75*
G02*
X186604000Y-73462000I-140000J0D01*
G01*
X186324000Y-73462000D01*
G75*
G02*
X186184000Y-73322000I0J140000D01*
G01*
G37*
G04 #@! TD.AperFunction*
G04 #@! TA.AperFunction,SMDPad,CuDef*
G36*
G01*
X190300000Y-81110000D02*
X190300000Y-81450000D01*
G75*
G02*
X190160000Y-81590000I-140000J0D01*
G01*
X189880000Y-81590000D01*
G75*
G02*
X189740000Y-81450000I0J140000D01*
G01*
X189740000Y-81110000D01*
G75*
G02*
X189880000Y-80970000I140000J0D01*
G01*
X190160000Y-80970000D01*
G75*
G02*
X190300000Y-81110000I0J-140000D01*
G01*
G37*
G04 #@! TD.AperFunction*
G04 #@! TA.AperFunction,SMDPad,CuDef*
G36*
G01*
X191260000Y-81110000D02*
X191260000Y-81450000D01*
G75*
G02*
X191120000Y-81590000I-140000J0D01*
G01*
X190840000Y-81590000D01*
G75*
G02*
X190700000Y-81450000I0J140000D01*
G01*
X190700000Y-81110000D01*
G75*
G02*
X190840000Y-80970000I140000J0D01*
G01*
X191120000Y-80970000D01*
G75*
G02*
X191260000Y-81110000I0J-140000D01*
G01*
G37*
G04 #@! TD.AperFunction*
G04 #@! TA.AperFunction,SMDPad,CuDef*
G36*
G01*
X193845000Y-96320000D02*
X193505000Y-96320000D01*
G75*
G02*
X193365000Y-96180000I0J140000D01*
G01*
X193365000Y-95900000D01*
G75*
G02*
X193505000Y-95760000I140000J0D01*
G01*
X193845000Y-95760000D01*
G75*
G02*
X193985000Y-95900000I0J-140000D01*
G01*
X193985000Y-96180000D01*
G75*
G02*
X193845000Y-96320000I-140000J0D01*
G01*
G37*
G04 #@! TD.AperFunction*
G04 #@! TA.AperFunction,SMDPad,CuDef*
G36*
G01*
X193845000Y-97280000D02*
X193505000Y-97280000D01*
G75*
G02*
X193365000Y-97140000I0J140000D01*
G01*
X193365000Y-96860000D01*
G75*
G02*
X193505000Y-96720000I140000J0D01*
G01*
X193845000Y-96720000D01*
G75*
G02*
X193985000Y-96860000I0J-140000D01*
G01*
X193985000Y-97140000D01*
G75*
G02*
X193845000Y-97280000I-140000J0D01*
G01*
G37*
G04 #@! TD.AperFunction*
G04 #@! TA.AperFunction,SMDPad,CuDef*
G36*
G01*
X197020000Y-74730000D02*
X196680000Y-74730000D01*
G75*
G02*
X196540000Y-74590000I0J140000D01*
G01*
X196540000Y-74310000D01*
G75*
G02*
X196680000Y-74170000I140000J0D01*
G01*
X197020000Y-74170000D01*
G75*
G02*
X197160000Y-74310000I0J-140000D01*
G01*
X197160000Y-74590000D01*
G75*
G02*
X197020000Y-74730000I-140000J0D01*
G01*
G37*
G04 #@! TD.AperFunction*
G04 #@! TA.AperFunction,SMDPad,CuDef*
G36*
G01*
X197020000Y-75690000D02*
X196680000Y-75690000D01*
G75*
G02*
X196540000Y-75550000I0J140000D01*
G01*
X196540000Y-75270000D01*
G75*
G02*
X196680000Y-75130000I140000J0D01*
G01*
X197020000Y-75130000D01*
G75*
G02*
X197160000Y-75270000I0J-140000D01*
G01*
X197160000Y-75550000D01*
G75*
G02*
X197020000Y-75690000I-140000J0D01*
G01*
G37*
G04 #@! TD.AperFunction*
G04 #@! TA.AperFunction,SMDPad,CuDef*
G36*
G01*
X177600000Y-90254000D02*
X177600000Y-90594000D01*
G75*
G02*
X177460000Y-90734000I-140000J0D01*
G01*
X177180000Y-90734000D01*
G75*
G02*
X177040000Y-90594000I0J140000D01*
G01*
X177040000Y-90254000D01*
G75*
G02*
X177180000Y-90114000I140000J0D01*
G01*
X177460000Y-90114000D01*
G75*
G02*
X177600000Y-90254000I0J-140000D01*
G01*
G37*
G04 #@! TD.AperFunction*
G04 #@! TA.AperFunction,SMDPad,CuDef*
G36*
G01*
X178560000Y-90254000D02*
X178560000Y-90594000D01*
G75*
G02*
X178420000Y-90734000I-140000J0D01*
G01*
X178140000Y-90734000D01*
G75*
G02*
X178000000Y-90594000I0J140000D01*
G01*
X178000000Y-90254000D01*
G75*
G02*
X178140000Y-90114000I140000J0D01*
G01*
X178420000Y-90114000D01*
G75*
G02*
X178560000Y-90254000I0J-140000D01*
G01*
G37*
G04 #@! TD.AperFunction*
G04 #@! TA.AperFunction,SMDPad,CuDef*
G36*
G01*
X195750000Y-74730000D02*
X195410000Y-74730000D01*
G75*
G02*
X195270000Y-74590000I0J140000D01*
G01*
X195270000Y-74310000D01*
G75*
G02*
X195410000Y-74170000I140000J0D01*
G01*
X195750000Y-74170000D01*
G75*
G02*
X195890000Y-74310000I0J-140000D01*
G01*
X195890000Y-74590000D01*
G75*
G02*
X195750000Y-74730000I-140000J0D01*
G01*
G37*
G04 #@! TD.AperFunction*
G04 #@! TA.AperFunction,SMDPad,CuDef*
G36*
G01*
X195750000Y-75690000D02*
X195410000Y-75690000D01*
G75*
G02*
X195270000Y-75550000I0J140000D01*
G01*
X195270000Y-75270000D01*
G75*
G02*
X195410000Y-75130000I140000J0D01*
G01*
X195750000Y-75130000D01*
G75*
G02*
X195890000Y-75270000I0J-140000D01*
G01*
X195890000Y-75550000D01*
G75*
G02*
X195750000Y-75690000I-140000J0D01*
G01*
G37*
G04 #@! TD.AperFunction*
G04 #@! TA.AperFunction,SMDPad,CuDef*
G36*
G01*
X181156000Y-87206000D02*
X181156000Y-87546000D01*
G75*
G02*
X181016000Y-87686000I-140000J0D01*
G01*
X180736000Y-87686000D01*
G75*
G02*
X180596000Y-87546000I0J140000D01*
G01*
X180596000Y-87206000D01*
G75*
G02*
X180736000Y-87066000I140000J0D01*
G01*
X181016000Y-87066000D01*
G75*
G02*
X181156000Y-87206000I0J-140000D01*
G01*
G37*
G04 #@! TD.AperFunction*
G04 #@! TA.AperFunction,SMDPad,CuDef*
G36*
G01*
X182116000Y-87206000D02*
X182116000Y-87546000D01*
G75*
G02*
X181976000Y-87686000I-140000J0D01*
G01*
X181696000Y-87686000D01*
G75*
G02*
X181556000Y-87546000I0J140000D01*
G01*
X181556000Y-87206000D01*
G75*
G02*
X181696000Y-87066000I140000J0D01*
G01*
X181976000Y-87066000D01*
G75*
G02*
X182116000Y-87206000I0J-140000D01*
G01*
G37*
G04 #@! TD.AperFunction*
G04 #@! TA.AperFunction,SMDPad,CuDef*
G36*
G01*
X181556000Y-84498000D02*
X181556000Y-84158000D01*
G75*
G02*
X181696000Y-84018000I140000J0D01*
G01*
X181976000Y-84018000D01*
G75*
G02*
X182116000Y-84158000I0J-140000D01*
G01*
X182116000Y-84498000D01*
G75*
G02*
X181976000Y-84638000I-140000J0D01*
G01*
X181696000Y-84638000D01*
G75*
G02*
X181556000Y-84498000I0J140000D01*
G01*
G37*
G04 #@! TD.AperFunction*
G04 #@! TA.AperFunction,SMDPad,CuDef*
G36*
G01*
X180596000Y-84498000D02*
X180596000Y-84158000D01*
G75*
G02*
X180736000Y-84018000I140000J0D01*
G01*
X181016000Y-84018000D01*
G75*
G02*
X181156000Y-84158000I0J-140000D01*
G01*
X181156000Y-84498000D01*
G75*
G02*
X181016000Y-84638000I-140000J0D01*
G01*
X180736000Y-84638000D01*
G75*
G02*
X180596000Y-84498000I0J140000D01*
G01*
G37*
G04 #@! TD.AperFunction*
G04 #@! TA.AperFunction,SMDPad,CuDef*
G36*
G01*
X187144000Y-71798000D02*
X187144000Y-71458000D01*
G75*
G02*
X187284000Y-71318000I140000J0D01*
G01*
X187564000Y-71318000D01*
G75*
G02*
X187704000Y-71458000I0J-140000D01*
G01*
X187704000Y-71798000D01*
G75*
G02*
X187564000Y-71938000I-140000J0D01*
G01*
X187284000Y-71938000D01*
G75*
G02*
X187144000Y-71798000I0J140000D01*
G01*
G37*
G04 #@! TD.AperFunction*
G04 #@! TA.AperFunction,SMDPad,CuDef*
G36*
G01*
X186184000Y-71798000D02*
X186184000Y-71458000D01*
G75*
G02*
X186324000Y-71318000I140000J0D01*
G01*
X186604000Y-71318000D01*
G75*
G02*
X186744000Y-71458000I0J-140000D01*
G01*
X186744000Y-71798000D01*
G75*
G02*
X186604000Y-71938000I-140000J0D01*
G01*
X186324000Y-71938000D01*
G75*
G02*
X186184000Y-71798000I0J140000D01*
G01*
G37*
G04 #@! TD.AperFunction*
G04 #@! TA.AperFunction,SMDPad,CuDef*
G36*
G01*
X190300000Y-79840000D02*
X190300000Y-80180000D01*
G75*
G02*
X190160000Y-80320000I-140000J0D01*
G01*
X189880000Y-80320000D01*
G75*
G02*
X189740000Y-80180000I0J140000D01*
G01*
X189740000Y-79840000D01*
G75*
G02*
X189880000Y-79700000I140000J0D01*
G01*
X190160000Y-79700000D01*
G75*
G02*
X190300000Y-79840000I0J-140000D01*
G01*
G37*
G04 #@! TD.AperFunction*
G04 #@! TA.AperFunction,SMDPad,CuDef*
G36*
G01*
X191260000Y-79840000D02*
X191260000Y-80180000D01*
G75*
G02*
X191120000Y-80320000I-140000J0D01*
G01*
X190840000Y-80320000D01*
G75*
G02*
X190700000Y-80180000I0J140000D01*
G01*
X190700000Y-79840000D01*
G75*
G02*
X190840000Y-79700000I140000J0D01*
G01*
X191120000Y-79700000D01*
G75*
G02*
X191260000Y-79840000I0J-140000D01*
G01*
G37*
G04 #@! TD.AperFunction*
G04 #@! TA.AperFunction,SMDPad,CuDef*
G36*
G01*
X176192000Y-92510000D02*
X175852000Y-92510000D01*
G75*
G02*
X175712000Y-92370000I0J140000D01*
G01*
X175712000Y-92090000D01*
G75*
G02*
X175852000Y-91950000I140000J0D01*
G01*
X176192000Y-91950000D01*
G75*
G02*
X176332000Y-92090000I0J-140000D01*
G01*
X176332000Y-92370000D01*
G75*
G02*
X176192000Y-92510000I-140000J0D01*
G01*
G37*
G04 #@! TD.AperFunction*
G04 #@! TA.AperFunction,SMDPad,CuDef*
G36*
G01*
X176192000Y-93470000D02*
X175852000Y-93470000D01*
G75*
G02*
X175712000Y-93330000I0J140000D01*
G01*
X175712000Y-93050000D01*
G75*
G02*
X175852000Y-92910000I140000J0D01*
G01*
X176192000Y-92910000D01*
G75*
G02*
X176332000Y-93050000I0J-140000D01*
G01*
X176332000Y-93330000D01*
G75*
G02*
X176192000Y-93470000I-140000J0D01*
G01*
G37*
G04 #@! TD.AperFunction*
G04 #@! TA.AperFunction,SMDPad,CuDef*
G36*
G01*
X199220000Y-75130000D02*
X199560000Y-75130000D01*
G75*
G02*
X199700000Y-75270000I0J-140000D01*
G01*
X199700000Y-75550000D01*
G75*
G02*
X199560000Y-75690000I-140000J0D01*
G01*
X199220000Y-75690000D01*
G75*
G02*
X199080000Y-75550000I0J140000D01*
G01*
X199080000Y-75270000D01*
G75*
G02*
X199220000Y-75130000I140000J0D01*
G01*
G37*
G04 #@! TD.AperFunction*
G04 #@! TA.AperFunction,SMDPad,CuDef*
G36*
G01*
X199220000Y-74170000D02*
X199560000Y-74170000D01*
G75*
G02*
X199700000Y-74310000I0J-140000D01*
G01*
X199700000Y-74590000D01*
G75*
G02*
X199560000Y-74730000I-140000J0D01*
G01*
X199220000Y-74730000D01*
G75*
G02*
X199080000Y-74590000I0J140000D01*
G01*
X199080000Y-74310000D01*
G75*
G02*
X199220000Y-74170000I140000J0D01*
G01*
G37*
G04 #@! TD.AperFunction*
G04 #@! TA.AperFunction,SMDPad,CuDef*
G36*
G01*
X204905000Y-76665000D02*
X204905000Y-77005000D01*
G75*
G02*
X204765000Y-77145000I-140000J0D01*
G01*
X204485000Y-77145000D01*
G75*
G02*
X204345000Y-77005000I0J140000D01*
G01*
X204345000Y-76665000D01*
G75*
G02*
X204485000Y-76525000I140000J0D01*
G01*
X204765000Y-76525000D01*
G75*
G02*
X204905000Y-76665000I0J-140000D01*
G01*
G37*
G04 #@! TD.AperFunction*
G04 #@! TA.AperFunction,SMDPad,CuDef*
G36*
G01*
X205865000Y-76665000D02*
X205865000Y-77005000D01*
G75*
G02*
X205725000Y-77145000I-140000J0D01*
G01*
X205445000Y-77145000D01*
G75*
G02*
X205305000Y-77005000I0J140000D01*
G01*
X205305000Y-76665000D01*
G75*
G02*
X205445000Y-76525000I140000J0D01*
G01*
X205725000Y-76525000D01*
G75*
G02*
X205865000Y-76665000I0J-140000D01*
G01*
G37*
G04 #@! TD.AperFunction*
D27*
X183793139Y-90096210D03*
X175006000Y-92202000D03*
X188468000Y-71628000D03*
X179832000Y-87376000D03*
X200660000Y-76454000D03*
X203524230Y-76821540D03*
X194564000Y-74676000D03*
X179832000Y-70866000D03*
X184150000Y-74000001D03*
X204514347Y-86150347D03*
X199390000Y-87667000D03*
X189700999Y-83058000D03*
X200914000Y-87630000D03*
X188247692Y-84328000D03*
D28*
X182651674Y-77068442D03*
X179792528Y-81452585D03*
X188976000Y-77216000D03*
X198628000Y-80772000D03*
X190326121Y-96022433D03*
D27*
X201930000Y-96520000D03*
D28*
X187112169Y-97367831D03*
X196850000Y-91440000D03*
X194310000Y-89535000D03*
D27*
X195580000Y-77470000D03*
X201930000Y-81280000D03*
X187174691Y-80920096D03*
X195580000Y-91530000D03*
X187452000Y-69088000D03*
X185203000Y-81343308D03*
X186436000Y-69088000D03*
X188245399Y-81175094D03*
X199390000Y-90714990D03*
X179832000Y-68580000D03*
X182372000Y-73660000D03*
X201676000Y-86868000D03*
X186690000Y-99060000D03*
X203200000Y-89117000D03*
D28*
X194310000Y-77470000D03*
X205050981Y-76041757D03*
D27*
X187497653Y-91612653D03*
D28*
X191960846Y-82175000D03*
X188981500Y-90027716D03*
X191426153Y-84076760D03*
X189675754Y-90425226D03*
X192405000Y-91440000D03*
X192051153Y-83425000D03*
X192376154Y-81359640D03*
X195105163Y-92334347D03*
D27*
X191040021Y-88392000D03*
X201942651Y-83292657D03*
X201930000Y-82280003D03*
X190880010Y-78740000D03*
X197643359Y-87598641D03*
X201930000Y-78195000D03*
X188468000Y-70104000D03*
X201516979Y-85852000D03*
X201612500Y-91122500D03*
X179587347Y-90260000D03*
X185129000Y-84328000D03*
D28*
X179832000Y-82296000D03*
D27*
X189701000Y-78740000D03*
D28*
X194310000Y-76200000D03*
D29*
X182640000Y-91249349D02*
X183793139Y-90096210D01*
X182640000Y-92735000D02*
X182640000Y-91249349D01*
X177320000Y-90932000D02*
X176022000Y-92230000D01*
X177320000Y-90424000D02*
X177320000Y-90932000D01*
X175034000Y-92230000D02*
X175006000Y-92202000D01*
X176022000Y-92230000D02*
X175034000Y-92230000D01*
X187424000Y-71628000D02*
X188468000Y-71628000D01*
X187424000Y-71628000D02*
X187424000Y-73152000D01*
X180876000Y-87376000D02*
X179832000Y-87376000D01*
X200660000Y-75410000D02*
X200660000Y-76454000D01*
X203537690Y-76835000D02*
X203524230Y-76821540D01*
X204625000Y-76835000D02*
X203537690Y-76835000D01*
X194790000Y-74450000D02*
X194564000Y-74676000D01*
X195580000Y-74450000D02*
X194790000Y-74450000D01*
X195585000Y-74445000D02*
X195580000Y-74450000D01*
X198120000Y-74445000D02*
X195585000Y-74445000D01*
X184869591Y-74000001D02*
X184150000Y-74000001D01*
X185155000Y-74285410D02*
X184869591Y-74000001D01*
X185155000Y-75012000D02*
X185155000Y-74285410D01*
X204470000Y-86106000D02*
X204514347Y-86150347D01*
X204470000Y-84775000D02*
X204470000Y-86106000D01*
X199390000Y-89055000D02*
X199390000Y-87667000D01*
X194177694Y-93595000D02*
X194813347Y-92959347D01*
X193675000Y-93595000D02*
X194177694Y-93595000D01*
X194320010Y-94240010D02*
X193675000Y-93595000D01*
X194320010Y-95394990D02*
X194320010Y-94240010D01*
X193675000Y-96040000D02*
X194320010Y-95394990D01*
X183793139Y-88496861D02*
X185928000Y-86362000D01*
X183793139Y-90096210D02*
X183793139Y-88496861D01*
X190020000Y-81760000D02*
X190048000Y-81788000D01*
X190020000Y-80264000D02*
X190020000Y-81760000D01*
X190048000Y-82710999D02*
X189700999Y-83058000D01*
X190048000Y-81788000D02*
X190048000Y-82710999D01*
X201168000Y-87884000D02*
X200914000Y-87630000D01*
X201676000Y-87884000D02*
X201168000Y-87884000D01*
X187741692Y-83822000D02*
X188247692Y-84328000D01*
X187452000Y-83822000D02*
X187741692Y-83822000D01*
X182758116Y-76962000D02*
X182651674Y-77068442D01*
X184105000Y-76962000D02*
X182758116Y-76962000D01*
X180876000Y-87376000D02*
X180876000Y-85852000D01*
X180876000Y-84328000D02*
X180876000Y-85852000D01*
X180876000Y-82804000D02*
X180876000Y-84328000D01*
X180876000Y-81280000D02*
X180876000Y-79756000D01*
X179965113Y-81280000D02*
X179792528Y-81452585D01*
X180876000Y-81280000D02*
X179965113Y-81280000D01*
X188722000Y-76962000D02*
X188976000Y-77216000D01*
X188005000Y-76962000D02*
X188722000Y-76962000D01*
X196850000Y-82550000D02*
X198628000Y-80772000D01*
X189990000Y-83347001D02*
X189700999Y-83058000D01*
X189990000Y-84836000D02*
X189990000Y-83347001D01*
X190188688Y-95885000D02*
X190326121Y-96022433D01*
X189200000Y-95885000D02*
X190188688Y-95885000D01*
X196537653Y-92959347D02*
X196787000Y-92710000D01*
X194813347Y-92959347D02*
X196537653Y-92959347D01*
X196787000Y-94555000D02*
X197148000Y-94916000D01*
X196787000Y-92710000D02*
X196787000Y-94555000D01*
X202648000Y-93365000D02*
X201993000Y-92710000D01*
X202648000Y-94916000D02*
X202648000Y-93365000D01*
X202648000Y-95802000D02*
X201930000Y-96520000D01*
X202648000Y-94916000D02*
X202648000Y-95802000D01*
X201930000Y-96520000D02*
X201930000Y-96520000D01*
X186899338Y-97155000D02*
X187112169Y-97367831D01*
X186055000Y-97155000D02*
X186899338Y-97155000D01*
X200940000Y-75410000D02*
X200660000Y-75410000D01*
X201930000Y-74420000D02*
X200940000Y-75410000D01*
X192024000Y-68072000D02*
X188468000Y-71628000D01*
X194818000Y-68072000D02*
X192024000Y-68072000D01*
X196787000Y-91503000D02*
X196850000Y-91440000D01*
X196787000Y-92710000D02*
X196787000Y-91503000D01*
X194790000Y-89055000D02*
X194310000Y-89535000D01*
X195580000Y-89055000D02*
X194790000Y-89055000D01*
X205585000Y-78075000D02*
X205615000Y-78105000D01*
X205585000Y-76835000D02*
X205585000Y-78075000D01*
X205615000Y-79180000D02*
X204470000Y-80325000D01*
X205615000Y-78105000D02*
X205615000Y-79180000D01*
X195600000Y-77490000D02*
X195580000Y-77470000D01*
X195600000Y-79100000D02*
X195600000Y-77490000D01*
X202885000Y-80325000D02*
X204470000Y-80325000D01*
X201930000Y-81280000D02*
X202885000Y-80325000D01*
X199100000Y-75700000D02*
X199390000Y-75410000D01*
X199100000Y-79100000D02*
X199100000Y-75700000D01*
X199385000Y-75415000D02*
X199390000Y-75410000D01*
X199397626Y-75410000D02*
X199390000Y-75410000D01*
X200362626Y-74445000D02*
X199397626Y-75410000D01*
X200660000Y-74445000D02*
X200362626Y-74445000D01*
X197018000Y-72078000D02*
X199390000Y-74450000D01*
X197018000Y-68072000D02*
X197018000Y-72078000D01*
X198417374Y-75415000D02*
X198120000Y-75415000D01*
X199382374Y-74450000D02*
X198417374Y-75415000D01*
X199390000Y-74450000D02*
X199382374Y-74450000D01*
X177585000Y-93190000D02*
X178040000Y-92735000D01*
X176022000Y-93190000D02*
X177585000Y-93190000D01*
D30*
X188340000Y-99060000D02*
X190120000Y-99060000D01*
X188340000Y-97535000D02*
X185735000Y-94930000D01*
X188340000Y-99060000D02*
X188340000Y-97535000D01*
X185735000Y-94930000D02*
X185055000Y-94930000D01*
X178294000Y-94108000D02*
X178294000Y-92608000D01*
X179116000Y-94930000D02*
X178294000Y-94108000D01*
X185055000Y-94930000D02*
X179116000Y-94930000D01*
D29*
X186505000Y-73193000D02*
X186464000Y-73152000D01*
X186505000Y-75012000D02*
X186505000Y-73193000D01*
X186464000Y-73152000D02*
X186464000Y-71628000D01*
X181836000Y-84328000D02*
X181836000Y-82804000D01*
X184105000Y-77412000D02*
X183192000Y-77412000D01*
X183192000Y-77412000D02*
X182372000Y-78232000D01*
X182441010Y-79393384D02*
X182441010Y-82226990D01*
X182372000Y-79324374D02*
X182441010Y-79393384D01*
X182372000Y-78232000D02*
X182372000Y-79324374D01*
X181864000Y-82804000D02*
X181836000Y-82804000D01*
X182441010Y-82226990D02*
X181864000Y-82804000D01*
X183378410Y-77862000D02*
X182822010Y-78418400D01*
X184105000Y-77862000D02*
X183378410Y-77862000D01*
X182891020Y-79206984D02*
X182891019Y-82413391D01*
X182822010Y-79137974D02*
X182891020Y-79206984D01*
X182822010Y-78418400D02*
X182822010Y-79137974D01*
X182441010Y-85246990D02*
X181836000Y-85852000D01*
X182441010Y-82863400D02*
X182441010Y-85246990D01*
X182891019Y-82413391D02*
X182441010Y-82863400D01*
X181836000Y-85852000D02*
X181836000Y-87376000D01*
D30*
X201418000Y-95656002D02*
X200074002Y-97000000D01*
X201418000Y-94916000D02*
X201418000Y-95656002D01*
X198378000Y-94916000D02*
X198378000Y-95833000D01*
X199545000Y-97000000D02*
X193675000Y-97000000D01*
X198378000Y-95833000D02*
X199545000Y-97000000D01*
X200074002Y-97000000D02*
X199545000Y-97000000D01*
X193420000Y-97255000D02*
X193675000Y-97000000D01*
X193420000Y-99060000D02*
X193420000Y-97255000D01*
X191965000Y-97000000D02*
X191800000Y-96835000D01*
X193675000Y-97000000D02*
X191965000Y-97000000D01*
X191800000Y-96386310D02*
X190500000Y-95086310D01*
X191800000Y-96835000D02*
X191800000Y-96386310D01*
X190500000Y-93601500D02*
X191135000Y-92966500D01*
X190500000Y-95086310D02*
X190500000Y-93601500D01*
X191516500Y-92585000D02*
X193675000Y-92585000D01*
X191135000Y-92966500D02*
X191516500Y-92585000D01*
D29*
X195610000Y-90045000D02*
X195580000Y-90015000D01*
X196850000Y-90045000D02*
X195610000Y-90045000D01*
X186955000Y-79640000D02*
X186955000Y-78912000D01*
X186955000Y-80700405D02*
X186955000Y-79640000D01*
X187174691Y-80920096D02*
X186955000Y-80700405D01*
X195580000Y-90015000D02*
X195580000Y-90805000D01*
X195580000Y-91530000D02*
X195580000Y-90015000D01*
X184404000Y-80772000D02*
X184404000Y-85372000D01*
X185155000Y-80021000D02*
X184404000Y-80772000D01*
X185155000Y-78912000D02*
X185155000Y-80021000D01*
X184938000Y-86332000D02*
X185928000Y-85342000D01*
X184404000Y-86332000D02*
X184938000Y-86332000D01*
X187424000Y-69060000D02*
X187452000Y-69088000D01*
X187424000Y-68072000D02*
X187424000Y-69060000D01*
X185203000Y-80609410D02*
X185605000Y-80207410D01*
X185605000Y-80207410D02*
X185605000Y-78912000D01*
X185203000Y-81343308D02*
X185203000Y-80609410D01*
X186434000Y-69090000D02*
X186436000Y-69088000D01*
X186434000Y-70104000D02*
X186434000Y-69090000D01*
X186436000Y-68100000D02*
X186464000Y-68072000D01*
X186436000Y-69088000D02*
X186436000Y-68100000D01*
X183341029Y-82850971D02*
X182891020Y-83300980D01*
X183341029Y-79075971D02*
X183341029Y-82850971D01*
X184105000Y-78312000D02*
X183341029Y-79075971D01*
X181836000Y-88420000D02*
X181836000Y-88900000D01*
X182891020Y-87364980D02*
X181836000Y-88420000D01*
X182891020Y-83300980D02*
X182891020Y-87364980D01*
X175006000Y-86995000D02*
X176911000Y-88900000D01*
X176911000Y-88900000D02*
X180876000Y-88900000D01*
X184705000Y-78912000D02*
X184705000Y-79350039D01*
X183791039Y-80264000D02*
X183791038Y-83037372D01*
X184705000Y-79350039D02*
X183791039Y-80264000D01*
X183341030Y-88918970D02*
X181836000Y-90424000D01*
X183341030Y-83487380D02*
X183341030Y-88918970D01*
X183791038Y-83037372D02*
X183341030Y-83487380D01*
X179987000Y-89535000D02*
X180876000Y-90424000D01*
X175006000Y-89535000D02*
X179987000Y-89535000D01*
X199420000Y-90045000D02*
X199390000Y-90015000D01*
X200660000Y-90045000D02*
X199420000Y-90045000D01*
X199390000Y-90015000D02*
X199390000Y-90714990D01*
X187405000Y-79453590D02*
X187405000Y-78912000D01*
X187405000Y-80090000D02*
X187405000Y-79453590D01*
X187960000Y-80645000D02*
X187405000Y-80090000D01*
X187960000Y-80889695D02*
X187960000Y-80645000D01*
X188245399Y-81175094D02*
X187960000Y-80889695D01*
X181405000Y-68580000D02*
X179832000Y-68580000D01*
X186055000Y-74041020D02*
X186055000Y-75012000D01*
X186054990Y-74041010D02*
X186055000Y-74041020D01*
X186054990Y-73786990D02*
X186054990Y-74041010D01*
X185304010Y-73036010D02*
X186054990Y-73786990D01*
X185304010Y-69480010D02*
X185304010Y-73036010D01*
X185255010Y-69480010D02*
X185304010Y-69480010D01*
X184355000Y-68580000D02*
X185255010Y-69480010D01*
X181405000Y-72693000D02*
X182372000Y-73660000D01*
X181405000Y-71628000D02*
X181405000Y-72693000D01*
X185605000Y-74099000D02*
X185605000Y-75012000D01*
X184854000Y-73348000D02*
X185605000Y-74099000D01*
X184854000Y-73027000D02*
X184854000Y-73348000D01*
X184355000Y-72528000D02*
X184854000Y-73027000D01*
X184355000Y-71628000D02*
X184355000Y-72528000D01*
X177139490Y-76084010D02*
X178039500Y-75184000D01*
X177139490Y-77241510D02*
X177139490Y-76084010D01*
X175006000Y-79375000D02*
X177139490Y-77241510D01*
X181161500Y-75012000D02*
X180989500Y-75184000D01*
X184705000Y-75012000D02*
X181161500Y-75012000D01*
X178039500Y-78881500D02*
X178039500Y-77724000D01*
X175006000Y-81915000D02*
X178039500Y-78881500D01*
X181921989Y-76039701D02*
X180989500Y-76972190D01*
X181921989Y-76013600D02*
X181921989Y-76039701D01*
X182323589Y-75612000D02*
X181921989Y-76013600D01*
X184105000Y-75612000D02*
X182323589Y-75612000D01*
X180989500Y-76972190D02*
X180989500Y-77724000D01*
X201704000Y-86896000D02*
X201676000Y-86868000D01*
X185040000Y-98932000D02*
X185040000Y-99060000D01*
D30*
X185040000Y-99060000D02*
X186690000Y-99060000D01*
X203200000Y-88448000D02*
X202636000Y-87884000D01*
X203200000Y-89117000D02*
X203200000Y-88448000D01*
X201930000Y-86868000D02*
X201676000Y-86868000D01*
X202636000Y-87574000D02*
X201930000Y-86868000D01*
X202636000Y-87884000D02*
X202636000Y-87574000D01*
X185040000Y-97210000D02*
X185095000Y-97155000D01*
X185040000Y-99060000D02*
X185040000Y-97210000D01*
D29*
X189307500Y-91391500D02*
X189230000Y-91314000D01*
X191135000Y-91391500D02*
X189307500Y-91391500D01*
X195100000Y-78260000D02*
X194310000Y-77470000D01*
X195100000Y-79100000D02*
X195100000Y-78260000D01*
X205050981Y-75136519D02*
X205257500Y-74930000D01*
X205050981Y-76041757D02*
X205050981Y-75136519D01*
X202440000Y-74930000D02*
X201930000Y-75440000D01*
X203682500Y-74930000D02*
X202440000Y-74930000D01*
X193355000Y-94935000D02*
X193675000Y-94615000D01*
X191800000Y-94935000D02*
X193355000Y-94935000D01*
X187055000Y-92055306D02*
X187497653Y-91612653D01*
X187055000Y-93980000D02*
X187055000Y-92055306D01*
X189200000Y-96835000D02*
X188453188Y-96835000D01*
X188453188Y-96835000D02*
X187055000Y-95436812D01*
X187055000Y-95436812D02*
X187055000Y-93980000D01*
X189200000Y-92994000D02*
X189230000Y-92964000D01*
X189200000Y-94935000D02*
X189200000Y-92994000D01*
X200343000Y-94861000D02*
X200398000Y-94916000D01*
X200343000Y-92710000D02*
X200343000Y-94861000D01*
X199398000Y-93671000D02*
X199398000Y-94916000D01*
X198437000Y-92710000D02*
X199398000Y-93671000D01*
X192085846Y-82300000D02*
X191960846Y-82175000D01*
X193400000Y-82300000D02*
X192085846Y-82300000D01*
X191452912Y-84050001D02*
X191426153Y-84076760D01*
X192351154Y-84050001D02*
X191452912Y-84050001D01*
X192601155Y-83800000D02*
X192351154Y-84050001D01*
X193400000Y-83800000D02*
X192601155Y-83800000D01*
X192176153Y-83300000D02*
X192051153Y-83425000D01*
X193400000Y-83300000D02*
X192176153Y-83300000D01*
X192816514Y-81800000D02*
X192376154Y-81359640D01*
X193400000Y-81800000D02*
X192816514Y-81800000D01*
X189994000Y-87345979D02*
X191040021Y-88392000D01*
X189994000Y-86360000D02*
X189994000Y-87345979D01*
X191010000Y-88390000D02*
X191012000Y-88392000D01*
X191012000Y-88392000D02*
X191040021Y-88392000D01*
X201435308Y-83800000D02*
X201942651Y-83292657D01*
X200300000Y-83800000D02*
X201435308Y-83800000D01*
X200910003Y-83300000D02*
X201930000Y-82280003D01*
X200300000Y-83300000D02*
X200910003Y-83300000D01*
X202692000Y-85733501D02*
X205105000Y-88146501D01*
X205105000Y-88146501D02*
X205105000Y-88900000D01*
X200776022Y-84328000D02*
X202692000Y-84328000D01*
X202692000Y-84328000D02*
X202692000Y-85733501D01*
X200300000Y-84300000D02*
X200748022Y-84300000D01*
X200748022Y-84300000D02*
X200776022Y-84328000D01*
X203929999Y-90264999D02*
X205105000Y-91440000D01*
X202241989Y-85919901D02*
X203929999Y-87607910D01*
X203929999Y-87607910D02*
X203929999Y-90264999D01*
X202148000Y-84800000D02*
X202241989Y-84893989D01*
X200300000Y-84800000D02*
X202148000Y-84800000D01*
X202241989Y-84893989D02*
X202241989Y-85919901D01*
D30*
X185055000Y-92130000D02*
X185055000Y-93030000D01*
X187907285Y-89277715D02*
X185055000Y-92130000D01*
X191387715Y-89277715D02*
X187907285Y-89277715D01*
X193675000Y-91565000D02*
X191387715Y-89277715D01*
D29*
X188972000Y-86362000D02*
X188974000Y-86360000D01*
X187452000Y-86362000D02*
X188972000Y-86362000D01*
X189619010Y-85714990D02*
X188974000Y-86360000D01*
X192036988Y-85714990D02*
X189619010Y-85714990D01*
X192951978Y-84800000D02*
X192036988Y-85714990D01*
X193400000Y-84800000D02*
X192951978Y-84800000D01*
X188503002Y-78312000D02*
X188005000Y-78312000D01*
X188975999Y-78784997D02*
X188503002Y-78312000D01*
X188469998Y-85342000D02*
X188975999Y-84835999D01*
X187452000Y-85342000D02*
X188469998Y-85342000D01*
X188975999Y-84835999D02*
X188975999Y-78784997D01*
X188975999Y-84837999D02*
X188975999Y-84835999D01*
X191010000Y-78610010D02*
X190880010Y-78740000D01*
X191010000Y-77724000D02*
X191010000Y-78610010D01*
X198628000Y-86420022D02*
X198628000Y-86028000D01*
X197643359Y-87404663D02*
X198628000Y-86420022D01*
X198628000Y-86028000D02*
X198600000Y-86000000D01*
X197643359Y-87598641D02*
X197643359Y-87404663D01*
X188005000Y-76512000D02*
X189288000Y-76512000D01*
X189990000Y-77214000D02*
X189990000Y-77724000D01*
X189288000Y-76512000D02*
X189990000Y-77214000D01*
X192532000Y-76198000D02*
X191010000Y-74676000D01*
X192532000Y-79917294D02*
X192532000Y-76198000D01*
X192936696Y-80321990D02*
X192532000Y-79917294D01*
X193378010Y-80321990D02*
X192936696Y-80321990D01*
X193400000Y-80300000D02*
X193378010Y-80321990D01*
X189054000Y-75612000D02*
X189990000Y-74676000D01*
X188005000Y-75612000D02*
X189054000Y-75612000D01*
X192024000Y-77214000D02*
X191010000Y-76200000D01*
X192024000Y-80206998D02*
X192024000Y-77214000D01*
X192589002Y-80772000D02*
X192024000Y-80206998D01*
X193372000Y-80772000D02*
X192589002Y-80772000D01*
X193400000Y-80800000D02*
X193372000Y-80772000D01*
X189852000Y-76062000D02*
X189990000Y-76200000D01*
X188005000Y-76062000D02*
X189852000Y-76062000D01*
X193550000Y-77601978D02*
X194600000Y-78651978D01*
X194600000Y-78651978D02*
X194600000Y-79100000D01*
X193550000Y-74676000D02*
X193550000Y-77601978D01*
X191884990Y-74030990D02*
X192530000Y-74676000D01*
X188386010Y-74030990D02*
X191884990Y-74030990D01*
X187405000Y-75012000D02*
X188386010Y-74030990D01*
X186505000Y-80516785D02*
X185928000Y-81093785D01*
X185928000Y-81093785D02*
X185928000Y-82802000D01*
X186505000Y-78912000D02*
X186505000Y-80516785D01*
X185928000Y-82802000D02*
X187452000Y-82802000D01*
X198120000Y-89025000D02*
X196850000Y-89025000D01*
X198628000Y-87122000D02*
X198628000Y-88517000D01*
X199100000Y-86650000D02*
X198628000Y-87122000D01*
X198628000Y-88517000D02*
X198120000Y-89025000D01*
X199100000Y-86000000D02*
X199100000Y-86650000D01*
X201930000Y-89025000D02*
X200660000Y-89025000D01*
X200152000Y-88517000D02*
X200660000Y-89025000D01*
X200152000Y-87376000D02*
X200152000Y-88517000D01*
X199600000Y-86824000D02*
X200152000Y-87376000D01*
X199600000Y-86000000D02*
X199600000Y-86824000D01*
X192279568Y-84836000D02*
X191010000Y-84836000D01*
X192765577Y-84349991D02*
X192279568Y-84836000D01*
X193018010Y-84349990D02*
X192765577Y-84349991D01*
X193068000Y-84300000D02*
X193018010Y-84349990D01*
X193400000Y-84300000D02*
X193068000Y-84300000D01*
X196850000Y-75410000D02*
X195580000Y-75410000D01*
X202020000Y-78105000D02*
X201930000Y-78195000D01*
X204595000Y-78105000D02*
X202020000Y-78105000D01*
X201261511Y-80800000D02*
X201930000Y-80131511D01*
X201930000Y-80131511D02*
X201930000Y-78195000D01*
X201930000Y-90805000D02*
X201930000Y-90045000D01*
X201295000Y-91440000D02*
X201612500Y-91122500D01*
X198316998Y-91440000D02*
X201295000Y-91440000D01*
X198120000Y-91243002D02*
X198316998Y-91440000D01*
X198120000Y-90045000D02*
X198120000Y-91243002D01*
X181836000Y-79756000D02*
X181836000Y-81280000D01*
X188005000Y-77862000D02*
X188689412Y-77862000D01*
X189017706Y-78190294D02*
X189701000Y-78873588D01*
X188239412Y-77412000D02*
X189017706Y-78190294D01*
X188005000Y-77412000D02*
X188239412Y-77412000D01*
X188689412Y-77862000D02*
X189017706Y-78190294D01*
X201140000Y-81908022D02*
X201140000Y-80800000D01*
X200300000Y-82300000D02*
X200748022Y-82300000D01*
X200748022Y-82300000D02*
X201140000Y-81908022D01*
X201140000Y-80800000D02*
X201261511Y-80800000D01*
X200300000Y-80800000D02*
X201140000Y-80800000D01*
X187454000Y-70104000D02*
X188468000Y-70104000D01*
X200964979Y-85300000D02*
X201516979Y-85852000D01*
X200300000Y-85300000D02*
X200964979Y-85300000D01*
X201612500Y-91122500D02*
X201930000Y-90805000D01*
X179324000Y-90424000D02*
X179578000Y-90678000D01*
X180594000Y-91694000D02*
X179578000Y-90678000D01*
X180594000Y-92608000D02*
X180594000Y-91694000D01*
X179423347Y-90424000D02*
X179587347Y-90260000D01*
X178816000Y-90424000D02*
X179423347Y-90424000D01*
X178280000Y-90424000D02*
X178816000Y-90424000D01*
X178816000Y-90424000D02*
X179324000Y-90424000D01*
X185635000Y-83822000D02*
X185129000Y-84328000D01*
X185928000Y-83822000D02*
X185635000Y-83822000D01*
X181889510Y-76733510D02*
X181877051Y-76721050D01*
X181877051Y-76721050D02*
X182372000Y-76226101D01*
X181889510Y-79702490D02*
X181889510Y-76733510D01*
X181836000Y-79756000D02*
X181889510Y-79702490D01*
X183018000Y-76062000D02*
X184105000Y-76062000D01*
X182853899Y-76226101D02*
X183018000Y-76062000D01*
X182372000Y-76226101D02*
X182853899Y-76226101D01*
X184105000Y-76512000D02*
X183192000Y-76512000D01*
X183192000Y-76512000D02*
X182880000Y-76200000D01*
X180212990Y-81915010D02*
X179832000Y-82296000D01*
X181510990Y-81915010D02*
X180212990Y-81915010D01*
X181836000Y-81590000D02*
X181510990Y-81915010D01*
X181836000Y-81280000D02*
X181836000Y-81590000D01*
X190335990Y-79374990D02*
X189701000Y-78740000D01*
X190352616Y-79374990D02*
X190335990Y-79374990D01*
X190625010Y-79647384D02*
X190352616Y-79374990D01*
X190625010Y-79664010D02*
X190625010Y-79647384D01*
X190980000Y-80019000D02*
X190625010Y-79664010D01*
X191008000Y-80292000D02*
X190980000Y-80264000D01*
X191008000Y-82296000D02*
X191008000Y-80292000D01*
X190980000Y-80264000D02*
X190980000Y-80019000D01*
X191512000Y-82800000D02*
X191008000Y-82296000D01*
X193400000Y-82800000D02*
X191512000Y-82800000D01*
X194730003Y-75410000D02*
X194564000Y-75576003D01*
X195580000Y-75410000D02*
X194730003Y-75410000D01*
X199600000Y-79100000D02*
X199600000Y-78154990D01*
X199640010Y-78195000D02*
X201930000Y-78195000D01*
X199600000Y-78154990D02*
X199640010Y-78195000D01*
X198100000Y-76660000D02*
X196850000Y-75410000D01*
X198100000Y-79100000D02*
X198100000Y-76660000D01*
X198600000Y-79100000D02*
X198600000Y-78154990D01*
X198100000Y-77654990D02*
X198100000Y-76660000D01*
X198600000Y-78154990D02*
X198100000Y-77654990D01*
X194564000Y-75946000D02*
X194310000Y-76200000D01*
X194564000Y-75576003D02*
X194564000Y-75946000D01*
X193380000Y-81280000D02*
X193400000Y-81300000D01*
M02*
