%TF.GenerationSoftware,KiCad,Pcbnew,(5.1.8)-1*%
%TF.CreationDate,2021-03-06T05:42:10-08:00*%
%TF.ProjectId,audioboard,61756469-6f62-46f6-9172-642e6b696361,rev?*%
%TF.SameCoordinates,Original*%
%TF.FileFunction,Soldermask,Bot*%
%TF.FilePolarity,Negative*%
%FSLAX46Y46*%
G04 Gerber Fmt 4.6, Leading zero omitted, Abs format (unit mm)*
G04 Created by KiCad (PCBNEW (5.1.8)-1) date 2021-03-06 05:42:10*
%MOMM*%
%LPD*%
G01*
G04 APERTURE LIST*
%ADD10O,0.900000X1.400000*%
%ADD11R,1.050000X2.000000*%
%ADD12R,2.400000X0.740000*%
%ADD13C,1.700000*%
%ADD14R,2.200000X2.800000*%
%ADD15R,2.800000X2.600000*%
%ADD16R,2.000000X2.800000*%
%ADD17O,1.700000X1.700000*%
%ADD18R,1.700000X1.700000*%
%ADD19R,0.800000X1.200000*%
%ADD20R,0.760000X1.200000*%
%ADD21R,0.700000X1.200000*%
%ADD22O,1.100000X2.200000*%
G04 APERTURE END LIST*
D10*
%TO.C,J2*%
X113518000Y-75184000D03*
G36*
G01*
X111818000Y-75659000D02*
X111818000Y-74709000D01*
G75*
G02*
X112043000Y-74484000I225000J0D01*
G01*
X112493000Y-74484000D01*
G75*
G02*
X112718000Y-74709000I0J-225000D01*
G01*
X112718000Y-75659000D01*
G75*
G02*
X112493000Y-75884000I-225000J0D01*
G01*
X112043000Y-75884000D01*
G75*
G02*
X111818000Y-75659000I0J225000D01*
G01*
G37*
%TD*%
D11*
%TO.C,SW1*%
X63815000Y-83820000D03*
X68265000Y-83820000D03*
%TD*%
D12*
%TO.C,J6*%
X68498000Y-76708000D03*
X64598000Y-76708000D03*
X68498000Y-77978000D03*
X64598000Y-77978000D03*
X68498000Y-79248000D03*
X64598000Y-79248000D03*
%TD*%
%TO.C,J5*%
X69768000Y-66040000D03*
X65868000Y-66040000D03*
X69768000Y-67310000D03*
X65868000Y-67310000D03*
X69768000Y-68580000D03*
X65868000Y-68580000D03*
X69768000Y-69850000D03*
X65868000Y-69850000D03*
X69768000Y-71120000D03*
X65868000Y-71120000D03*
%TD*%
D13*
%TO.C,J4*%
X89722000Y-103632000D03*
X96722000Y-103632000D03*
D14*
X97822000Y-107332000D03*
X95922000Y-99932000D03*
D15*
X88422000Y-107232000D03*
D16*
X100622000Y-107332000D03*
%TD*%
D17*
%TO.C,J3*%
X83312000Y-107442000D03*
X80772000Y-107442000D03*
D18*
X78232000Y-107442000D03*
%TD*%
D19*
%TO.C,J1*%
X94278000Y-81614000D03*
X99778000Y-81614000D03*
D20*
X95508000Y-81614000D03*
X98548000Y-81614000D03*
D21*
X96528000Y-81614000D03*
X97528000Y-81614000D03*
D22*
X92708000Y-81534000D03*
X101348000Y-81534000D03*
X92708000Y-77734000D03*
X101348000Y-77734000D03*
%TD*%
M02*
