G04 #@! TF.GenerationSoftware,KiCad,Pcbnew,(5.1.8)-1*
G04 #@! TF.CreationDate,2021-01-25T23:00:58-08:00*
G04 #@! TF.ProjectId,audioboard,61756469-6f62-46f6-9172-642e6b696361,rev?*
G04 #@! TF.SameCoordinates,Original*
G04 #@! TF.FileFunction,Copper,L2,Inr*
G04 #@! TF.FilePolarity,Positive*
%FSLAX46Y46*%
G04 Gerber Fmt 4.6, Leading zero omitted, Abs format (unit mm)*
G04 Created by KiCad (PCBNEW (5.1.8)-1) date 2021-01-25 23:00:58*
%MOMM*%
%LPD*%
G01*
G04 APERTURE LIST*
G04 #@! TA.AperFunction,ComponentPad*
%ADD10O,1.100000X2.200000*%
G04 #@! TD*
G04 #@! TA.AperFunction,ComponentPad*
%ADD11C,3.000000*%
G04 #@! TD*
G04 #@! TA.AperFunction,ComponentPad*
%ADD12O,1.700000X1.700000*%
G04 #@! TD*
G04 #@! TA.AperFunction,ComponentPad*
%ADD13R,1.700000X1.700000*%
G04 #@! TD*
G04 #@! TA.AperFunction,ViaPad*
%ADD14C,0.800000*%
G04 #@! TD*
G04 #@! TA.AperFunction,ViaPad*
%ADD15C,0.600000*%
G04 #@! TD*
G04 #@! TA.AperFunction,Conductor*
%ADD16C,0.250000*%
G04 #@! TD*
G04 #@! TA.AperFunction,Conductor*
%ADD17C,0.254000*%
G04 #@! TD*
G04 #@! TA.AperFunction,Conductor*
%ADD18C,0.100000*%
G04 #@! TD*
G04 APERTURE END LIST*
D10*
X195578000Y-94996000D03*
X204218000Y-94996000D03*
X195578000Y-98796000D03*
X204218000Y-98796000D03*
D11*
X175133000Y-98679000D03*
D12*
X205105000Y-91440000D03*
D13*
X205105000Y-88900000D03*
D12*
X175006000Y-89535000D03*
X175006000Y-86995000D03*
X175006000Y-84455000D03*
X175006000Y-81915000D03*
X175006000Y-79375000D03*
D13*
X175006000Y-76835000D03*
D14*
X183793139Y-90096210D03*
X175006000Y-92202000D03*
X188468000Y-71628000D03*
X179832000Y-87376000D03*
X200660000Y-76454000D03*
X203524230Y-76821540D03*
X194564000Y-74676000D03*
X179832000Y-70866000D03*
X184150000Y-74000001D03*
X204514347Y-86150347D03*
X199390000Y-87667000D03*
X189700999Y-83058000D03*
X200914000Y-87630000D03*
X188247692Y-84328000D03*
D15*
X182651674Y-77068442D03*
X179792528Y-81452585D03*
X188976000Y-77216000D03*
X198628000Y-80772000D03*
X190326121Y-96022433D03*
D14*
X201930000Y-96520000D03*
D15*
X187112169Y-97367831D03*
X196850000Y-91440000D03*
X194310000Y-89535000D03*
D14*
X195580000Y-77470000D03*
X201930000Y-81280000D03*
X187174691Y-80920096D03*
X195580000Y-91530000D03*
X187452000Y-69088000D03*
X185203000Y-81343308D03*
X186436000Y-69088000D03*
X188245399Y-81175094D03*
X199390000Y-90714990D03*
X179832000Y-68580000D03*
X182372000Y-73660000D03*
X201676000Y-86868000D03*
X186690000Y-99060000D03*
X203200000Y-89117000D03*
D15*
X194310000Y-77470000D03*
X205050981Y-76041757D03*
D14*
X187497653Y-91612653D03*
D15*
X191960846Y-82175000D03*
X188981500Y-90027716D03*
X191426153Y-84076760D03*
X189675754Y-90425226D03*
X192405000Y-91440000D03*
X192051153Y-83425000D03*
X192376154Y-81359640D03*
X195105163Y-92334347D03*
D14*
X191040021Y-88392000D03*
X201942651Y-83292657D03*
X201930000Y-82280003D03*
X190880010Y-78740000D03*
X197643359Y-87598641D03*
X201930000Y-78195000D03*
X188468000Y-70104000D03*
X201516979Y-85852000D03*
X201612500Y-91122500D03*
X179587347Y-90260000D03*
X185129000Y-84328000D03*
D15*
X179832000Y-82296000D03*
D14*
X189701000Y-78740000D03*
D15*
X194310000Y-76200000D03*
D16*
X196850000Y-95965000D02*
X196850000Y-97028000D01*
X202800000Y-95965000D02*
X202800000Y-97174000D01*
D17*
X189103000Y-69283510D02*
X188958256Y-69186795D01*
X188769898Y-69108774D01*
X188569939Y-69069000D01*
X188487000Y-69069000D01*
X188487000Y-68986061D01*
X188447226Y-68786102D01*
X188369205Y-68597744D01*
X188255937Y-68428226D01*
X188111774Y-68284063D01*
X187942256Y-68170795D01*
X187753898Y-68092774D01*
X187553939Y-68053000D01*
X187350061Y-68053000D01*
X187150102Y-68092774D01*
X186961744Y-68170795D01*
X186944000Y-68182651D01*
X186926256Y-68170795D01*
X186737898Y-68092774D01*
X186537939Y-68053000D01*
X186334061Y-68053000D01*
X186134102Y-68092774D01*
X185945744Y-68170795D01*
X185776226Y-68284063D01*
X185632063Y-68428226D01*
X185518795Y-68597744D01*
X185440774Y-68786102D01*
X185401000Y-68986061D01*
X185401000Y-69189939D01*
X185440774Y-69389898D01*
X185518795Y-69578256D01*
X185632063Y-69747774D01*
X185776226Y-69891937D01*
X185945744Y-70005205D01*
X186134102Y-70083226D01*
X186334061Y-70123000D01*
X186537939Y-70123000D01*
X186737898Y-70083226D01*
X186926256Y-70005205D01*
X186944000Y-69993349D01*
X186961744Y-70005205D01*
X187150102Y-70083226D01*
X187350061Y-70123000D01*
X187433000Y-70123000D01*
X187433000Y-70205939D01*
X187472774Y-70405898D01*
X187550795Y-70594256D01*
X187664063Y-70763774D01*
X187808226Y-70907937D01*
X187977744Y-71021205D01*
X188166102Y-71099226D01*
X188366061Y-71139000D01*
X188569939Y-71139000D01*
X188769898Y-71099226D01*
X188958256Y-71021205D01*
X189103000Y-70924490D01*
X189103000Y-73914000D01*
X189105440Y-73938776D01*
X189112667Y-73962601D01*
X189124403Y-73984557D01*
X189140197Y-74003803D01*
X189159443Y-74019597D01*
X189181399Y-74031333D01*
X189205224Y-74038560D01*
X189230000Y-74041000D01*
X206417001Y-74041000D01*
X206417000Y-87611994D01*
X206406185Y-87598815D01*
X206309494Y-87519463D01*
X206199180Y-87460498D01*
X206079482Y-87424188D01*
X205955000Y-87411928D01*
X204255000Y-87411928D01*
X204130518Y-87424188D01*
X204010820Y-87460498D01*
X203900506Y-87519463D01*
X203803815Y-87598815D01*
X203724463Y-87695506D01*
X203665498Y-87805820D01*
X203629188Y-87925518D01*
X203616928Y-88050000D01*
X203616928Y-88169421D01*
X203501898Y-88121774D01*
X203301939Y-88082000D01*
X203098061Y-88082000D01*
X202898102Y-88121774D01*
X202709744Y-88199795D01*
X202540226Y-88313063D01*
X202396063Y-88457226D01*
X202282795Y-88626744D01*
X202204774Y-88815102D01*
X202165000Y-89015061D01*
X202165000Y-89218939D01*
X202204774Y-89418898D01*
X202282795Y-89607256D01*
X202396063Y-89776774D01*
X202540226Y-89920937D01*
X202709744Y-90034205D01*
X202898102Y-90112226D01*
X203098061Y-90152000D01*
X203301939Y-90152000D01*
X203501898Y-90112226D01*
X203687502Y-90035346D01*
X203724463Y-90104494D01*
X203803815Y-90201185D01*
X203900506Y-90280537D01*
X204010820Y-90339502D01*
X204083380Y-90361513D01*
X203951525Y-90493368D01*
X203789010Y-90736589D01*
X203677068Y-91006842D01*
X203620000Y-91293740D01*
X203620000Y-91586260D01*
X203677068Y-91873158D01*
X203789010Y-92143411D01*
X203951525Y-92386632D01*
X204158368Y-92593475D01*
X204401589Y-92755990D01*
X204671842Y-92867932D01*
X204958740Y-92925000D01*
X205251260Y-92925000D01*
X205538158Y-92867932D01*
X205808411Y-92755990D01*
X206051632Y-92593475D01*
X206258475Y-92386632D01*
X206417000Y-92149382D01*
X206417000Y-98601486D01*
X206385400Y-98902163D01*
X206303948Y-99152886D01*
X206172100Y-99381207D01*
X205995792Y-99577056D01*
X205782521Y-99731950D01*
X205541630Y-99839215D01*
X205283783Y-99894000D01*
X205273876Y-99894000D01*
X205355454Y-99701742D01*
X205403000Y-99473000D01*
X205403000Y-98923000D01*
X204345000Y-98923000D01*
X204345000Y-98943000D01*
X204091000Y-98943000D01*
X204091000Y-98923000D01*
X203033000Y-98923000D01*
X203033000Y-99473000D01*
X203080546Y-99701742D01*
X203162124Y-99894000D01*
X196633876Y-99894000D01*
X196715454Y-99701742D01*
X196763000Y-99473000D01*
X196763000Y-98923000D01*
X195705000Y-98923000D01*
X195705000Y-98943000D01*
X195451000Y-98943000D01*
X195451000Y-98923000D01*
X194393000Y-98923000D01*
X194393000Y-99473000D01*
X194440546Y-99701742D01*
X194522124Y-99894000D01*
X187304781Y-99894000D01*
X187349774Y-99863937D01*
X187493937Y-99719774D01*
X187607205Y-99550256D01*
X187685226Y-99361898D01*
X187725000Y-99161939D01*
X187725000Y-98958061D01*
X187685226Y-98758102D01*
X187607205Y-98569744D01*
X187493937Y-98400226D01*
X187349774Y-98256063D01*
X187180256Y-98142795D01*
X187122811Y-98119000D01*
X194393000Y-98119000D01*
X194393000Y-98669000D01*
X195451000Y-98669000D01*
X195451000Y-97227639D01*
X195705000Y-97227639D01*
X195705000Y-98669000D01*
X196763000Y-98669000D01*
X196763000Y-98119000D01*
X203033000Y-98119000D01*
X203033000Y-98669000D01*
X204091000Y-98669000D01*
X204091000Y-97227639D01*
X204345000Y-97227639D01*
X204345000Y-98669000D01*
X205403000Y-98669000D01*
X205403000Y-98119000D01*
X205355454Y-97890258D01*
X205264196Y-97675187D01*
X205132734Y-97482052D01*
X204966119Y-97318275D01*
X204770754Y-97190150D01*
X204554147Y-97102601D01*
X204527744Y-97102197D01*
X204345000Y-97227639D01*
X204091000Y-97227639D01*
X203908256Y-97102197D01*
X203881853Y-97102601D01*
X203665246Y-97190150D01*
X203469881Y-97318275D01*
X203303266Y-97482052D01*
X203171804Y-97675187D01*
X203080546Y-97890258D01*
X203033000Y-98119000D01*
X196763000Y-98119000D01*
X196715454Y-97890258D01*
X196624196Y-97675187D01*
X196492734Y-97482052D01*
X196326119Y-97318275D01*
X196130754Y-97190150D01*
X195914147Y-97102601D01*
X195887744Y-97102197D01*
X195705000Y-97227639D01*
X195451000Y-97227639D01*
X195268256Y-97102197D01*
X195241853Y-97102601D01*
X195025246Y-97190150D01*
X194829881Y-97318275D01*
X194663266Y-97482052D01*
X194531804Y-97675187D01*
X194440546Y-97890258D01*
X194393000Y-98119000D01*
X187122811Y-98119000D01*
X186991898Y-98064774D01*
X186791939Y-98025000D01*
X186588061Y-98025000D01*
X186388102Y-98064774D01*
X186199744Y-98142795D01*
X186030226Y-98256063D01*
X185886063Y-98400226D01*
X185772795Y-98569744D01*
X185694774Y-98758102D01*
X185655000Y-98958061D01*
X185655000Y-99161939D01*
X185694774Y-99361898D01*
X185772795Y-99550256D01*
X185886063Y-99719774D01*
X186030226Y-99863937D01*
X186075219Y-99894000D01*
X176888906Y-99894000D01*
X177025012Y-99690302D01*
X177185953Y-99301756D01*
X177268000Y-98889279D01*
X177268000Y-98468721D01*
X177185953Y-98056244D01*
X177025012Y-97667698D01*
X176791363Y-97318017D01*
X176493983Y-97020637D01*
X176144302Y-96786988D01*
X175755756Y-96626047D01*
X175343279Y-96544000D01*
X174922721Y-96544000D01*
X174510244Y-96626047D01*
X174121698Y-96786988D01*
X173887000Y-96943808D01*
X173887000Y-95123000D01*
X194393000Y-95123000D01*
X194393000Y-95673000D01*
X194440546Y-95901742D01*
X194531804Y-96116813D01*
X194663266Y-96309948D01*
X194829881Y-96473725D01*
X195025246Y-96601850D01*
X195241853Y-96689399D01*
X195268256Y-96689803D01*
X195451000Y-96564361D01*
X195451000Y-95123000D01*
X195705000Y-95123000D01*
X195705000Y-96564361D01*
X195887744Y-96689803D01*
X195914147Y-96689399D01*
X196130754Y-96601850D01*
X196326119Y-96473725D01*
X196492734Y-96309948D01*
X196624196Y-96116813D01*
X196715454Y-95901742D01*
X196763000Y-95673000D01*
X196763000Y-95123000D01*
X203033000Y-95123000D01*
X203033000Y-95673000D01*
X203080546Y-95901742D01*
X203171804Y-96116813D01*
X203303266Y-96309948D01*
X203469881Y-96473725D01*
X203665246Y-96601850D01*
X203881853Y-96689399D01*
X203908256Y-96689803D01*
X204091000Y-96564361D01*
X204091000Y-95123000D01*
X204345000Y-95123000D01*
X204345000Y-96564361D01*
X204527744Y-96689803D01*
X204554147Y-96689399D01*
X204770754Y-96601850D01*
X204966119Y-96473725D01*
X205132734Y-96309948D01*
X205264196Y-96116813D01*
X205355454Y-95901742D01*
X205403000Y-95673000D01*
X205403000Y-95123000D01*
X204345000Y-95123000D01*
X204091000Y-95123000D01*
X203033000Y-95123000D01*
X196763000Y-95123000D01*
X195705000Y-95123000D01*
X195451000Y-95123000D01*
X194393000Y-95123000D01*
X173887000Y-95123000D01*
X173887000Y-94319000D01*
X194393000Y-94319000D01*
X194393000Y-94869000D01*
X195451000Y-94869000D01*
X195451000Y-93427639D01*
X195705000Y-93427639D01*
X195705000Y-94869000D01*
X196763000Y-94869000D01*
X196763000Y-94319000D01*
X203033000Y-94319000D01*
X203033000Y-94869000D01*
X204091000Y-94869000D01*
X204091000Y-93427639D01*
X204345000Y-93427639D01*
X204345000Y-94869000D01*
X205403000Y-94869000D01*
X205403000Y-94319000D01*
X205355454Y-94090258D01*
X205264196Y-93875187D01*
X205132734Y-93682052D01*
X204966119Y-93518275D01*
X204770754Y-93390150D01*
X204554147Y-93302601D01*
X204527744Y-93302197D01*
X204345000Y-93427639D01*
X204091000Y-93427639D01*
X203908256Y-93302197D01*
X203881853Y-93302601D01*
X203665246Y-93390150D01*
X203469881Y-93518275D01*
X203303266Y-93682052D01*
X203171804Y-93875187D01*
X203080546Y-94090258D01*
X203033000Y-94319000D01*
X196763000Y-94319000D01*
X196715454Y-94090258D01*
X196624196Y-93875187D01*
X196492734Y-93682052D01*
X196326119Y-93518275D01*
X196130754Y-93390150D01*
X195914147Y-93302601D01*
X195887744Y-93302197D01*
X195705000Y-93427639D01*
X195451000Y-93427639D01*
X195268256Y-93302197D01*
X195241853Y-93302601D01*
X195025246Y-93390150D01*
X194829881Y-93518275D01*
X194663266Y-93682052D01*
X194531804Y-93875187D01*
X194440546Y-94090258D01*
X194393000Y-94319000D01*
X173887000Y-94319000D01*
X173887000Y-91510714D01*
X186462653Y-91510714D01*
X186462653Y-91714592D01*
X186502427Y-91914551D01*
X186580448Y-92102909D01*
X186693716Y-92272427D01*
X186837879Y-92416590D01*
X187007397Y-92529858D01*
X187195755Y-92607879D01*
X187395714Y-92647653D01*
X187599592Y-92647653D01*
X187799551Y-92607879D01*
X187987909Y-92529858D01*
X188157427Y-92416590D01*
X188301590Y-92272427D01*
X188414858Y-92102909D01*
X188492879Y-91914551D01*
X188532653Y-91714592D01*
X188532653Y-91510714D01*
X188492879Y-91310755D01*
X188414858Y-91122397D01*
X188301590Y-90952879D01*
X188157427Y-90808716D01*
X187987909Y-90695448D01*
X187799551Y-90617427D01*
X187599592Y-90577653D01*
X187395714Y-90577653D01*
X187195755Y-90617427D01*
X187007397Y-90695448D01*
X186837879Y-90808716D01*
X186693716Y-90952879D01*
X186580448Y-91122397D01*
X186502427Y-91310755D01*
X186462653Y-91510714D01*
X173887000Y-91510714D01*
X173887000Y-90516107D01*
X174059368Y-90688475D01*
X174302589Y-90850990D01*
X174572842Y-90962932D01*
X174859740Y-91020000D01*
X175152260Y-91020000D01*
X175439158Y-90962932D01*
X175709411Y-90850990D01*
X175952632Y-90688475D01*
X176159475Y-90481632D01*
X176321990Y-90238411D01*
X176355271Y-90158061D01*
X178552347Y-90158061D01*
X178552347Y-90361939D01*
X178592121Y-90561898D01*
X178670142Y-90750256D01*
X178783410Y-90919774D01*
X178927573Y-91063937D01*
X179097091Y-91177205D01*
X179285449Y-91255226D01*
X179485408Y-91295000D01*
X179689286Y-91295000D01*
X179889245Y-91255226D01*
X180077603Y-91177205D01*
X180247121Y-91063937D01*
X180391284Y-90919774D01*
X180504552Y-90750256D01*
X180582573Y-90561898D01*
X180622347Y-90361939D01*
X180622347Y-90158061D01*
X180582573Y-89958102D01*
X180573264Y-89935627D01*
X188046500Y-89935627D01*
X188046500Y-90119805D01*
X188082432Y-90300445D01*
X188152914Y-90470605D01*
X188255238Y-90623744D01*
X188385472Y-90753978D01*
X188538611Y-90856302D01*
X188708771Y-90926784D01*
X188889411Y-90962716D01*
X188910378Y-90962716D01*
X188949492Y-91021254D01*
X189079726Y-91151488D01*
X189232865Y-91253812D01*
X189403025Y-91324294D01*
X189583665Y-91360226D01*
X189767843Y-91360226D01*
X189829753Y-91347911D01*
X191470000Y-91347911D01*
X191470000Y-91532089D01*
X191505932Y-91712729D01*
X191576414Y-91882889D01*
X191678738Y-92036028D01*
X191808972Y-92166262D01*
X191962111Y-92268586D01*
X192132271Y-92339068D01*
X192312911Y-92375000D01*
X192497089Y-92375000D01*
X192677729Y-92339068D01*
X192847889Y-92268586D01*
X192887291Y-92242258D01*
X194170163Y-92242258D01*
X194170163Y-92426436D01*
X194206095Y-92607076D01*
X194276577Y-92777236D01*
X194378901Y-92930375D01*
X194509135Y-93060609D01*
X194662274Y-93162933D01*
X194832434Y-93233415D01*
X195013074Y-93269347D01*
X195197252Y-93269347D01*
X195377892Y-93233415D01*
X195548052Y-93162933D01*
X195701191Y-93060609D01*
X195831425Y-92930375D01*
X195933749Y-92777236D01*
X196004231Y-92607076D01*
X196032959Y-92462654D01*
X196070256Y-92447205D01*
X196239774Y-92333937D01*
X196383937Y-92189774D01*
X196497205Y-92020256D01*
X196575226Y-91831898D01*
X196615000Y-91631939D01*
X196615000Y-91428061D01*
X196575226Y-91228102D01*
X196497205Y-91039744D01*
X196383937Y-90870226D01*
X196239774Y-90726063D01*
X196070640Y-90613051D01*
X198355000Y-90613051D01*
X198355000Y-90816929D01*
X198394774Y-91016888D01*
X198472795Y-91205246D01*
X198586063Y-91374764D01*
X198730226Y-91518927D01*
X198899744Y-91632195D01*
X199088102Y-91710216D01*
X199288061Y-91749990D01*
X199491939Y-91749990D01*
X199691898Y-91710216D01*
X199880256Y-91632195D01*
X200049774Y-91518927D01*
X200193937Y-91374764D01*
X200307205Y-91205246D01*
X200383704Y-91020561D01*
X200577500Y-91020561D01*
X200577500Y-91224439D01*
X200617274Y-91424398D01*
X200695295Y-91612756D01*
X200808563Y-91782274D01*
X200952726Y-91926437D01*
X201122244Y-92039705D01*
X201310602Y-92117726D01*
X201510561Y-92157500D01*
X201714439Y-92157500D01*
X201914398Y-92117726D01*
X202102756Y-92039705D01*
X202272274Y-91926437D01*
X202416437Y-91782274D01*
X202529705Y-91612756D01*
X202607726Y-91424398D01*
X202647500Y-91224439D01*
X202647500Y-91020561D01*
X202607726Y-90820602D01*
X202529705Y-90632244D01*
X202416437Y-90462726D01*
X202272274Y-90318563D01*
X202102756Y-90205295D01*
X201914398Y-90127274D01*
X201714439Y-90087500D01*
X201510561Y-90087500D01*
X201310602Y-90127274D01*
X201122244Y-90205295D01*
X200952726Y-90318563D01*
X200808563Y-90462726D01*
X200695295Y-90632244D01*
X200617274Y-90820602D01*
X200577500Y-91020561D01*
X200383704Y-91020561D01*
X200385226Y-91016888D01*
X200425000Y-90816929D01*
X200425000Y-90613051D01*
X200385226Y-90413092D01*
X200307205Y-90224734D01*
X200193937Y-90055216D01*
X200049774Y-89911053D01*
X199880256Y-89797785D01*
X199691898Y-89719764D01*
X199491939Y-89679990D01*
X199288061Y-89679990D01*
X199088102Y-89719764D01*
X198899744Y-89797785D01*
X198730226Y-89911053D01*
X198586063Y-90055216D01*
X198472795Y-90224734D01*
X198394774Y-90413092D01*
X198355000Y-90613051D01*
X196070640Y-90613051D01*
X196070256Y-90612795D01*
X195881898Y-90534774D01*
X195681939Y-90495000D01*
X195478061Y-90495000D01*
X195278102Y-90534774D01*
X195089744Y-90612795D01*
X194920226Y-90726063D01*
X194776063Y-90870226D01*
X194662795Y-91039744D01*
X194584774Y-91228102D01*
X194545000Y-91428061D01*
X194545000Y-91584121D01*
X194509135Y-91608085D01*
X194378901Y-91738319D01*
X194276577Y-91891458D01*
X194206095Y-92061618D01*
X194170163Y-92242258D01*
X192887291Y-92242258D01*
X193001028Y-92166262D01*
X193131262Y-92036028D01*
X193233586Y-91882889D01*
X193304068Y-91712729D01*
X193340000Y-91532089D01*
X193340000Y-91347911D01*
X193304068Y-91167271D01*
X193233586Y-90997111D01*
X193131262Y-90843972D01*
X193001028Y-90713738D01*
X192847889Y-90611414D01*
X192677729Y-90540932D01*
X192497089Y-90505000D01*
X192312911Y-90505000D01*
X192132271Y-90540932D01*
X191962111Y-90611414D01*
X191808972Y-90713738D01*
X191678738Y-90843972D01*
X191576414Y-90997111D01*
X191505932Y-91167271D01*
X191470000Y-91347911D01*
X189829753Y-91347911D01*
X189948483Y-91324294D01*
X190118643Y-91253812D01*
X190271782Y-91151488D01*
X190402016Y-91021254D01*
X190504340Y-90868115D01*
X190574822Y-90697955D01*
X190610754Y-90517315D01*
X190610754Y-90333137D01*
X190574822Y-90152497D01*
X190504340Y-89982337D01*
X190402016Y-89829198D01*
X190271782Y-89698964D01*
X190118643Y-89596640D01*
X189948483Y-89526158D01*
X189767843Y-89490226D01*
X189746876Y-89490226D01*
X189707762Y-89431688D01*
X189577528Y-89301454D01*
X189424389Y-89199130D01*
X189254229Y-89128648D01*
X189073589Y-89092716D01*
X188889411Y-89092716D01*
X188708771Y-89128648D01*
X188538611Y-89199130D01*
X188385472Y-89301454D01*
X188255238Y-89431688D01*
X188152914Y-89584827D01*
X188082432Y-89754987D01*
X188046500Y-89935627D01*
X180573264Y-89935627D01*
X180504552Y-89769744D01*
X180391284Y-89600226D01*
X180247121Y-89456063D01*
X180077603Y-89342795D01*
X179889245Y-89264774D01*
X179689286Y-89225000D01*
X179485408Y-89225000D01*
X179285449Y-89264774D01*
X179097091Y-89342795D01*
X178927573Y-89456063D01*
X178783410Y-89600226D01*
X178670142Y-89769744D01*
X178592121Y-89958102D01*
X178552347Y-90158061D01*
X176355271Y-90158061D01*
X176433932Y-89968158D01*
X176491000Y-89681260D01*
X176491000Y-89388740D01*
X176433932Y-89101842D01*
X176321990Y-88831589D01*
X176159475Y-88588368D01*
X175952632Y-88381525D01*
X175815747Y-88290061D01*
X190005021Y-88290061D01*
X190005021Y-88493939D01*
X190044795Y-88693898D01*
X190122816Y-88882256D01*
X190236084Y-89051774D01*
X190380247Y-89195937D01*
X190549765Y-89309205D01*
X190738123Y-89387226D01*
X190938082Y-89427000D01*
X191141960Y-89427000D01*
X191341919Y-89387226D01*
X191530277Y-89309205D01*
X191699795Y-89195937D01*
X191843958Y-89051774D01*
X191957226Y-88882256D01*
X192035247Y-88693898D01*
X192075021Y-88493939D01*
X192075021Y-88290061D01*
X192035247Y-88090102D01*
X191957226Y-87901744D01*
X191843958Y-87732226D01*
X191699795Y-87588063D01*
X191563064Y-87496702D01*
X196608359Y-87496702D01*
X196608359Y-87700580D01*
X196648133Y-87900539D01*
X196726154Y-88088897D01*
X196839422Y-88258415D01*
X196983585Y-88402578D01*
X197153103Y-88515846D01*
X197341461Y-88593867D01*
X197541420Y-88633641D01*
X197745298Y-88633641D01*
X197945257Y-88593867D01*
X198133615Y-88515846D01*
X198303133Y-88402578D01*
X198447296Y-88258415D01*
X198560564Y-88088897D01*
X198638585Y-87900539D01*
X198678359Y-87700580D01*
X198678359Y-87496702D01*
X198638585Y-87296743D01*
X198560564Y-87108385D01*
X198447296Y-86938867D01*
X198303133Y-86794704D01*
X198133615Y-86681436D01*
X197945257Y-86603415D01*
X197745298Y-86563641D01*
X197541420Y-86563641D01*
X197341461Y-86603415D01*
X197153103Y-86681436D01*
X196983585Y-86794704D01*
X196839422Y-86938867D01*
X196726154Y-87108385D01*
X196648133Y-87296743D01*
X196608359Y-87496702D01*
X191563064Y-87496702D01*
X191530277Y-87474795D01*
X191341919Y-87396774D01*
X191141960Y-87357000D01*
X190938082Y-87357000D01*
X190738123Y-87396774D01*
X190549765Y-87474795D01*
X190380247Y-87588063D01*
X190236084Y-87732226D01*
X190122816Y-87901744D01*
X190044795Y-88090102D01*
X190005021Y-88290061D01*
X175815747Y-88290061D01*
X175778240Y-88265000D01*
X175952632Y-88148475D01*
X176159475Y-87941632D01*
X176321990Y-87698411D01*
X176433932Y-87428158D01*
X176491000Y-87141260D01*
X176491000Y-86848740D01*
X176433932Y-86561842D01*
X176321990Y-86291589D01*
X176159475Y-86048368D01*
X175952632Y-85841525D01*
X175815748Y-85750061D01*
X200481979Y-85750061D01*
X200481979Y-85953939D01*
X200521753Y-86153898D01*
X200599774Y-86342256D01*
X200707014Y-86502753D01*
X200680774Y-86566102D01*
X200641000Y-86766061D01*
X200641000Y-86969939D01*
X200680774Y-87169898D01*
X200758795Y-87358256D01*
X200872063Y-87527774D01*
X201016226Y-87671937D01*
X201185744Y-87785205D01*
X201374102Y-87863226D01*
X201574061Y-87903000D01*
X201777939Y-87903000D01*
X201977898Y-87863226D01*
X202166256Y-87785205D01*
X202335774Y-87671937D01*
X202479937Y-87527774D01*
X202593205Y-87358256D01*
X202671226Y-87169898D01*
X202711000Y-86969939D01*
X202711000Y-86766061D01*
X202671226Y-86566102D01*
X202593205Y-86377744D01*
X202485965Y-86217247D01*
X202512205Y-86153898D01*
X202551979Y-85953939D01*
X202551979Y-85750061D01*
X202512205Y-85550102D01*
X202434184Y-85361744D01*
X202320916Y-85192226D01*
X202176753Y-85048063D01*
X202007235Y-84934795D01*
X201818877Y-84856774D01*
X201618918Y-84817000D01*
X201415040Y-84817000D01*
X201215081Y-84856774D01*
X201026723Y-84934795D01*
X200857205Y-85048063D01*
X200713042Y-85192226D01*
X200599774Y-85361744D01*
X200521753Y-85550102D01*
X200481979Y-85750061D01*
X175815748Y-85750061D01*
X175770466Y-85719805D01*
X175887355Y-85650178D01*
X176103588Y-85455269D01*
X176277641Y-85221920D01*
X176402825Y-84959099D01*
X176447476Y-84811890D01*
X176326155Y-84582000D01*
X175133000Y-84582000D01*
X175133000Y-84602000D01*
X174879000Y-84602000D01*
X174879000Y-84582000D01*
X174859000Y-84582000D01*
X174859000Y-84328000D01*
X174879000Y-84328000D01*
X174879000Y-84308000D01*
X175133000Y-84308000D01*
X175133000Y-84328000D01*
X176326155Y-84328000D01*
X176379951Y-84226061D01*
X184094000Y-84226061D01*
X184094000Y-84429939D01*
X184133774Y-84629898D01*
X184211795Y-84818256D01*
X184325063Y-84987774D01*
X184469226Y-85131937D01*
X184638744Y-85245205D01*
X184827102Y-85323226D01*
X185027061Y-85363000D01*
X185230939Y-85363000D01*
X185430898Y-85323226D01*
X185619256Y-85245205D01*
X185788774Y-85131937D01*
X185932937Y-84987774D01*
X186046205Y-84818256D01*
X186124226Y-84629898D01*
X186164000Y-84429939D01*
X186164000Y-84226061D01*
X186124226Y-84026102D01*
X186107065Y-83984671D01*
X190491153Y-83984671D01*
X190491153Y-84168849D01*
X190527085Y-84349489D01*
X190597567Y-84519649D01*
X190699891Y-84672788D01*
X190830125Y-84803022D01*
X190983264Y-84905346D01*
X191153424Y-84975828D01*
X191334064Y-85011760D01*
X191518242Y-85011760D01*
X191698882Y-84975828D01*
X191869042Y-84905346D01*
X192022181Y-84803022D01*
X192152415Y-84672788D01*
X192254739Y-84519649D01*
X192325221Y-84349489D01*
X192330852Y-84321181D01*
X192494042Y-84253586D01*
X192647181Y-84151262D01*
X192777415Y-84021028D01*
X192879739Y-83867889D01*
X192950221Y-83697729D01*
X192986153Y-83517089D01*
X192986153Y-83332911D01*
X192950221Y-83152271D01*
X192879739Y-82982111D01*
X192777415Y-82828972D01*
X192700071Y-82751628D01*
X192789432Y-82617889D01*
X192859914Y-82447729D01*
X192895846Y-82267089D01*
X192895846Y-82136908D01*
X192972182Y-82085902D01*
X193102416Y-81955668D01*
X193204740Y-81802529D01*
X193275222Y-81632369D01*
X193311154Y-81451729D01*
X193311154Y-81267551D01*
X193293354Y-81178061D01*
X200895000Y-81178061D01*
X200895000Y-81381939D01*
X200934774Y-81581898D01*
X201012795Y-81770256D01*
X201019307Y-81780001D01*
X201012795Y-81789747D01*
X200934774Y-81978105D01*
X200895000Y-82178064D01*
X200895000Y-82381942D01*
X200934774Y-82581901D01*
X201012795Y-82770259D01*
X201029859Y-82795797D01*
X201025446Y-82802401D01*
X200947425Y-82990759D01*
X200907651Y-83190718D01*
X200907651Y-83394596D01*
X200947425Y-83594555D01*
X201025446Y-83782913D01*
X201138714Y-83952431D01*
X201282877Y-84096594D01*
X201452395Y-84209862D01*
X201640753Y-84287883D01*
X201840712Y-84327657D01*
X202044590Y-84327657D01*
X202244549Y-84287883D01*
X202432907Y-84209862D01*
X202602425Y-84096594D01*
X202746588Y-83952431D01*
X202859856Y-83782913D01*
X202937877Y-83594555D01*
X202977651Y-83394596D01*
X202977651Y-83190718D01*
X202937877Y-82990759D01*
X202859856Y-82802401D01*
X202842792Y-82776863D01*
X202847205Y-82770259D01*
X202925226Y-82581901D01*
X202965000Y-82381942D01*
X202965000Y-82178064D01*
X202925226Y-81978105D01*
X202847205Y-81789747D01*
X202840693Y-81780001D01*
X202847205Y-81770256D01*
X202925226Y-81581898D01*
X202965000Y-81381939D01*
X202965000Y-81178061D01*
X202925226Y-80978102D01*
X202847205Y-80789744D01*
X202733937Y-80620226D01*
X202589774Y-80476063D01*
X202420256Y-80362795D01*
X202231898Y-80284774D01*
X202031939Y-80245000D01*
X201828061Y-80245000D01*
X201628102Y-80284774D01*
X201439744Y-80362795D01*
X201270226Y-80476063D01*
X201126063Y-80620226D01*
X201012795Y-80789744D01*
X200934774Y-80978102D01*
X200895000Y-81178061D01*
X193293354Y-81178061D01*
X193275222Y-81086911D01*
X193204740Y-80916751D01*
X193102416Y-80763612D01*
X192972182Y-80633378D01*
X192819043Y-80531054D01*
X192648883Y-80460572D01*
X192468243Y-80424640D01*
X192284065Y-80424640D01*
X192103425Y-80460572D01*
X191933265Y-80531054D01*
X191780126Y-80633378D01*
X191649892Y-80763612D01*
X191547568Y-80916751D01*
X191477086Y-81086911D01*
X191441154Y-81267551D01*
X191441154Y-81397732D01*
X191364818Y-81448738D01*
X191234584Y-81578972D01*
X191132260Y-81732111D01*
X191061778Y-81902271D01*
X191025846Y-82082911D01*
X191025846Y-82267089D01*
X191061778Y-82447729D01*
X191132260Y-82617889D01*
X191234584Y-82771028D01*
X191311928Y-82848372D01*
X191222567Y-82982111D01*
X191152085Y-83152271D01*
X191146454Y-83180579D01*
X190983264Y-83248174D01*
X190830125Y-83350498D01*
X190699891Y-83480732D01*
X190597567Y-83633871D01*
X190527085Y-83804031D01*
X190491153Y-83984671D01*
X186107065Y-83984671D01*
X186046205Y-83837744D01*
X185932937Y-83668226D01*
X185788774Y-83524063D01*
X185619256Y-83410795D01*
X185430898Y-83332774D01*
X185230939Y-83293000D01*
X185027061Y-83293000D01*
X184827102Y-83332774D01*
X184638744Y-83410795D01*
X184469226Y-83524063D01*
X184325063Y-83668226D01*
X184211795Y-83837744D01*
X184133774Y-84026102D01*
X184094000Y-84226061D01*
X176379951Y-84226061D01*
X176447476Y-84098110D01*
X176402825Y-83950901D01*
X176277641Y-83688080D01*
X176103588Y-83454731D01*
X175887355Y-83259822D01*
X175770466Y-83190195D01*
X175952632Y-83068475D01*
X176159475Y-82861632D01*
X176321990Y-82618411D01*
X176433932Y-82348158D01*
X176462624Y-82203911D01*
X178897000Y-82203911D01*
X178897000Y-82388089D01*
X178932932Y-82568729D01*
X179003414Y-82738889D01*
X179105738Y-82892028D01*
X179235972Y-83022262D01*
X179389111Y-83124586D01*
X179559271Y-83195068D01*
X179739911Y-83231000D01*
X179924089Y-83231000D01*
X180104729Y-83195068D01*
X180274889Y-83124586D01*
X180428028Y-83022262D01*
X180558262Y-82892028D01*
X180660586Y-82738889D01*
X180731068Y-82568729D01*
X180767000Y-82388089D01*
X180767000Y-82203911D01*
X180731068Y-82023271D01*
X180660586Y-81853111D01*
X180558262Y-81699972D01*
X180428028Y-81569738D01*
X180274889Y-81467414D01*
X180104729Y-81396932D01*
X179924089Y-81361000D01*
X179739911Y-81361000D01*
X179559271Y-81396932D01*
X179389111Y-81467414D01*
X179235972Y-81569738D01*
X179105738Y-81699972D01*
X179003414Y-81853111D01*
X178932932Y-82023271D01*
X178897000Y-82203911D01*
X176462624Y-82203911D01*
X176491000Y-82061260D01*
X176491000Y-81768740D01*
X176433932Y-81481842D01*
X176321990Y-81211589D01*
X176159475Y-80968368D01*
X175952632Y-80761525D01*
X175778240Y-80645000D01*
X175952632Y-80528475D01*
X176159475Y-80321632D01*
X176321990Y-80078411D01*
X176433932Y-79808158D01*
X176434810Y-79803740D01*
X177585000Y-79803740D01*
X177585000Y-80096260D01*
X177642068Y-80383158D01*
X177754010Y-80653411D01*
X177916525Y-80896632D01*
X178123368Y-81103475D01*
X178366589Y-81265990D01*
X178636842Y-81377932D01*
X178923740Y-81435000D01*
X179216260Y-81435000D01*
X179503158Y-81377932D01*
X179773411Y-81265990D01*
X179810258Y-81241369D01*
X184168000Y-81241369D01*
X184168000Y-81445247D01*
X184207774Y-81645206D01*
X184285795Y-81833564D01*
X184399063Y-82003082D01*
X184543226Y-82147245D01*
X184712744Y-82260513D01*
X184901102Y-82338534D01*
X185101061Y-82378308D01*
X185304939Y-82378308D01*
X185504898Y-82338534D01*
X185693256Y-82260513D01*
X185862774Y-82147245D01*
X186006937Y-82003082D01*
X186120205Y-81833564D01*
X186198226Y-81645206D01*
X186238000Y-81445247D01*
X186238000Y-81363309D01*
X186257486Y-81410352D01*
X186370754Y-81579870D01*
X186514917Y-81724033D01*
X186684435Y-81837301D01*
X186872793Y-81915322D01*
X187072752Y-81955096D01*
X187276630Y-81955096D01*
X187476589Y-81915322D01*
X187508640Y-81902046D01*
X187585625Y-81979031D01*
X187755143Y-82092299D01*
X187943501Y-82170320D01*
X188143460Y-82210094D01*
X188347338Y-82210094D01*
X188547297Y-82170320D01*
X188735655Y-82092299D01*
X188905173Y-81979031D01*
X189049336Y-81834868D01*
X189162604Y-81665350D01*
X189240625Y-81476992D01*
X189280399Y-81277033D01*
X189280399Y-81073155D01*
X189240625Y-80873196D01*
X189162604Y-80684838D01*
X189049336Y-80515320D01*
X188905173Y-80371157D01*
X188735655Y-80257889D01*
X188547297Y-80179868D01*
X188347338Y-80140094D01*
X188143460Y-80140094D01*
X187943501Y-80179868D01*
X187911450Y-80193144D01*
X187834465Y-80116159D01*
X187664947Y-80002891D01*
X187476589Y-79924870D01*
X187276630Y-79885096D01*
X187072752Y-79885096D01*
X186872793Y-79924870D01*
X186684435Y-80002891D01*
X186514917Y-80116159D01*
X186370754Y-80260322D01*
X186257486Y-80429840D01*
X186179465Y-80618198D01*
X186139691Y-80818157D01*
X186139691Y-80900095D01*
X186120205Y-80853052D01*
X186006937Y-80683534D01*
X185862774Y-80539371D01*
X185693256Y-80426103D01*
X185504898Y-80348082D01*
X185304939Y-80308308D01*
X185101061Y-80308308D01*
X184901102Y-80348082D01*
X184712744Y-80426103D01*
X184543226Y-80539371D01*
X184399063Y-80683534D01*
X184285795Y-80853052D01*
X184207774Y-81041410D01*
X184168000Y-81241369D01*
X179810258Y-81241369D01*
X180016632Y-81103475D01*
X180223475Y-80896632D01*
X180385990Y-80653411D01*
X180497932Y-80383158D01*
X180555000Y-80096260D01*
X180555000Y-79803740D01*
X180497932Y-79516842D01*
X180385990Y-79246589D01*
X180223475Y-79003368D01*
X180016632Y-78796525D01*
X179779474Y-78638061D01*
X188666000Y-78638061D01*
X188666000Y-78841939D01*
X188705774Y-79041898D01*
X188783795Y-79230256D01*
X188897063Y-79399774D01*
X189041226Y-79543937D01*
X189210744Y-79657205D01*
X189399102Y-79735226D01*
X189599061Y-79775000D01*
X189802939Y-79775000D01*
X190002898Y-79735226D01*
X190191256Y-79657205D01*
X190290505Y-79590889D01*
X190389754Y-79657205D01*
X190578112Y-79735226D01*
X190778071Y-79775000D01*
X190981949Y-79775000D01*
X191181908Y-79735226D01*
X191370266Y-79657205D01*
X191539784Y-79543937D01*
X191683947Y-79399774D01*
X191797215Y-79230256D01*
X191875236Y-79041898D01*
X191915010Y-78841939D01*
X191915010Y-78638061D01*
X191875236Y-78438102D01*
X191797215Y-78249744D01*
X191683947Y-78080226D01*
X191539784Y-77936063D01*
X191370266Y-77822795D01*
X191181908Y-77744774D01*
X190981949Y-77705000D01*
X190778071Y-77705000D01*
X190578112Y-77744774D01*
X190389754Y-77822795D01*
X190290505Y-77889111D01*
X190191256Y-77822795D01*
X190002898Y-77744774D01*
X189802939Y-77705000D01*
X189599061Y-77705000D01*
X189399102Y-77744774D01*
X189210744Y-77822795D01*
X189041226Y-77936063D01*
X188897063Y-78080226D01*
X188783795Y-78249744D01*
X188705774Y-78438102D01*
X188666000Y-78638061D01*
X179779474Y-78638061D01*
X179773411Y-78634010D01*
X179503158Y-78522068D01*
X179216260Y-78465000D01*
X178923740Y-78465000D01*
X178636842Y-78522068D01*
X178366589Y-78634010D01*
X178123368Y-78796525D01*
X177916525Y-79003368D01*
X177754010Y-79246589D01*
X177642068Y-79516842D01*
X177585000Y-79803740D01*
X176434810Y-79803740D01*
X176491000Y-79521260D01*
X176491000Y-79228740D01*
X176433932Y-78941842D01*
X176321990Y-78671589D01*
X176159475Y-78428368D01*
X176027620Y-78296513D01*
X176100180Y-78274502D01*
X176210494Y-78215537D01*
X176307185Y-78136185D01*
X176386537Y-78039494D01*
X176445502Y-77929180D01*
X176481812Y-77809482D01*
X176494072Y-77685000D01*
X176491000Y-77120750D01*
X176332250Y-76962000D01*
X175133000Y-76962000D01*
X175133000Y-76982000D01*
X174879000Y-76982000D01*
X174879000Y-76962000D01*
X174859000Y-76962000D01*
X174859000Y-76708000D01*
X174879000Y-76708000D01*
X174879000Y-75508750D01*
X175133000Y-75508750D01*
X175133000Y-76708000D01*
X176332250Y-76708000D01*
X176491000Y-76549250D01*
X176493402Y-76107911D01*
X193375000Y-76107911D01*
X193375000Y-76292089D01*
X193410932Y-76472729D01*
X193481414Y-76642889D01*
X193583738Y-76796028D01*
X193622710Y-76835000D01*
X193583738Y-76873972D01*
X193481414Y-77027111D01*
X193410932Y-77197271D01*
X193375000Y-77377911D01*
X193375000Y-77562089D01*
X193410932Y-77742729D01*
X193481414Y-77912889D01*
X193583738Y-78066028D01*
X193713972Y-78196262D01*
X193867111Y-78298586D01*
X194037271Y-78369068D01*
X194217911Y-78405000D01*
X194402089Y-78405000D01*
X194582729Y-78369068D01*
X194752889Y-78298586D01*
X194867976Y-78221687D01*
X194920226Y-78273937D01*
X195089744Y-78387205D01*
X195278102Y-78465226D01*
X195478061Y-78505000D01*
X195681939Y-78505000D01*
X195881898Y-78465226D01*
X196070256Y-78387205D01*
X196239774Y-78273937D01*
X196383937Y-78129774D01*
X196408467Y-78093061D01*
X200895000Y-78093061D01*
X200895000Y-78296939D01*
X200934774Y-78496898D01*
X201012795Y-78685256D01*
X201126063Y-78854774D01*
X201270226Y-78998937D01*
X201439744Y-79112205D01*
X201628102Y-79190226D01*
X201828061Y-79230000D01*
X202031939Y-79230000D01*
X202231898Y-79190226D01*
X202420256Y-79112205D01*
X202589774Y-78998937D01*
X202733937Y-78854774D01*
X202847205Y-78685256D01*
X202925226Y-78496898D01*
X202965000Y-78296939D01*
X202965000Y-78093061D01*
X202925226Y-77893102D01*
X202847205Y-77704744D01*
X202733937Y-77535226D01*
X202589774Y-77391063D01*
X202420256Y-77277795D01*
X202231898Y-77199774D01*
X202031939Y-77160000D01*
X201828061Y-77160000D01*
X201628102Y-77199774D01*
X201439744Y-77277795D01*
X201270226Y-77391063D01*
X201126063Y-77535226D01*
X201012795Y-77704744D01*
X200934774Y-77893102D01*
X200895000Y-78093061D01*
X196408467Y-78093061D01*
X196497205Y-77960256D01*
X196575226Y-77771898D01*
X196615000Y-77571939D01*
X196615000Y-77368061D01*
X196575226Y-77168102D01*
X196497205Y-76979744D01*
X196383937Y-76810226D01*
X196239774Y-76666063D01*
X196070256Y-76552795D01*
X195881898Y-76474774D01*
X195681939Y-76435000D01*
X195478061Y-76435000D01*
X195278102Y-76474774D01*
X195193748Y-76509715D01*
X195209068Y-76472729D01*
X195245000Y-76292089D01*
X195245000Y-76107911D01*
X195213524Y-75949668D01*
X204115981Y-75949668D01*
X204115981Y-76133846D01*
X204151913Y-76314486D01*
X204222395Y-76484646D01*
X204324719Y-76637785D01*
X204454953Y-76768019D01*
X204608092Y-76870343D01*
X204778252Y-76940825D01*
X204958892Y-76976757D01*
X205143070Y-76976757D01*
X205323710Y-76940825D01*
X205493870Y-76870343D01*
X205647009Y-76768019D01*
X205777243Y-76637785D01*
X205879567Y-76484646D01*
X205950049Y-76314486D01*
X205985981Y-76133846D01*
X205985981Y-75949668D01*
X205950049Y-75769028D01*
X205879567Y-75598868D01*
X205777243Y-75445729D01*
X205647009Y-75315495D01*
X205493870Y-75213171D01*
X205323710Y-75142689D01*
X205143070Y-75106757D01*
X204958892Y-75106757D01*
X204778252Y-75142689D01*
X204608092Y-75213171D01*
X204454953Y-75315495D01*
X204324719Y-75445729D01*
X204222395Y-75598868D01*
X204151913Y-75769028D01*
X204115981Y-75949668D01*
X195213524Y-75949668D01*
X195209068Y-75927271D01*
X195138586Y-75757111D01*
X195036262Y-75603972D01*
X194906028Y-75473738D01*
X194752889Y-75371414D01*
X194582729Y-75300932D01*
X194402089Y-75265000D01*
X194217911Y-75265000D01*
X194037271Y-75300932D01*
X193867111Y-75371414D01*
X193713972Y-75473738D01*
X193583738Y-75603972D01*
X193481414Y-75757111D01*
X193410932Y-75927271D01*
X193375000Y-76107911D01*
X176493402Y-76107911D01*
X176494072Y-75985000D01*
X176481812Y-75860518D01*
X176445502Y-75740820D01*
X176386537Y-75630506D01*
X176307185Y-75533815D01*
X176210494Y-75454463D01*
X176100180Y-75395498D01*
X175980482Y-75359188D01*
X175856000Y-75346928D01*
X175291750Y-75350000D01*
X175133000Y-75508750D01*
X174879000Y-75508750D01*
X174720250Y-75350000D01*
X174156000Y-75346928D01*
X174031518Y-75359188D01*
X173911820Y-75395498D01*
X173887000Y-75408765D01*
X173887000Y-72803740D01*
X177585000Y-72803740D01*
X177585000Y-73096260D01*
X177642068Y-73383158D01*
X177754010Y-73653411D01*
X177916525Y-73896632D01*
X178123368Y-74103475D01*
X178366589Y-74265990D01*
X178636842Y-74377932D01*
X178923740Y-74435000D01*
X179216260Y-74435000D01*
X179503158Y-74377932D01*
X179773411Y-74265990D01*
X180016632Y-74103475D01*
X180223475Y-73896632D01*
X180385990Y-73653411D01*
X180425485Y-73558061D01*
X181337000Y-73558061D01*
X181337000Y-73761939D01*
X181376774Y-73961898D01*
X181454795Y-74150256D01*
X181568063Y-74319774D01*
X181712226Y-74463937D01*
X181881744Y-74577205D01*
X182070102Y-74655226D01*
X182270061Y-74695000D01*
X182473939Y-74695000D01*
X182673898Y-74655226D01*
X182862256Y-74577205D01*
X183031774Y-74463937D01*
X183175937Y-74319774D01*
X183289205Y-74150256D01*
X183367226Y-73961898D01*
X183407000Y-73761939D01*
X183407000Y-73558061D01*
X183367226Y-73358102D01*
X183289205Y-73169744D01*
X183175937Y-73000226D01*
X183031774Y-72856063D01*
X182862256Y-72742795D01*
X182673898Y-72664774D01*
X182473939Y-72625000D01*
X182270061Y-72625000D01*
X182070102Y-72664774D01*
X181881744Y-72742795D01*
X181712226Y-72856063D01*
X181568063Y-73000226D01*
X181454795Y-73169744D01*
X181376774Y-73358102D01*
X181337000Y-73558061D01*
X180425485Y-73558061D01*
X180497932Y-73383158D01*
X180555000Y-73096260D01*
X180555000Y-72803740D01*
X180497932Y-72516842D01*
X180385990Y-72246589D01*
X180223475Y-72003368D01*
X180016632Y-71796525D01*
X179773411Y-71634010D01*
X179503158Y-71522068D01*
X179216260Y-71465000D01*
X178923740Y-71465000D01*
X178636842Y-71522068D01*
X178366589Y-71634010D01*
X178123368Y-71796525D01*
X177916525Y-72003368D01*
X177754010Y-72246589D01*
X177642068Y-72516842D01*
X177585000Y-72803740D01*
X173887000Y-72803740D01*
X173887000Y-68678514D01*
X173908066Y-68478061D01*
X178797000Y-68478061D01*
X178797000Y-68681939D01*
X178836774Y-68881898D01*
X178914795Y-69070256D01*
X179028063Y-69239774D01*
X179172226Y-69383937D01*
X179341744Y-69497205D01*
X179530102Y-69575226D01*
X179730061Y-69615000D01*
X179933939Y-69615000D01*
X180133898Y-69575226D01*
X180322256Y-69497205D01*
X180491774Y-69383937D01*
X180635937Y-69239774D01*
X180749205Y-69070256D01*
X180827226Y-68881898D01*
X180867000Y-68681939D01*
X180867000Y-68478061D01*
X180827226Y-68278102D01*
X180749205Y-68089744D01*
X180635937Y-67920226D01*
X180491774Y-67776063D01*
X180322256Y-67662795D01*
X180133898Y-67584774D01*
X179933939Y-67545000D01*
X179730061Y-67545000D01*
X179530102Y-67584774D01*
X179341744Y-67662795D01*
X179172226Y-67776063D01*
X179028063Y-67920226D01*
X178914795Y-68089744D01*
X178836774Y-68278102D01*
X178797000Y-68478061D01*
X173908066Y-68478061D01*
X173918600Y-68377837D01*
X174000052Y-68127115D01*
X174131902Y-67898791D01*
X174308204Y-67702948D01*
X174521483Y-67548048D01*
X174762369Y-67440785D01*
X175020217Y-67386000D01*
X189103000Y-67386000D01*
X189103000Y-69283510D01*
G04 #@! TA.AperFunction,Conductor*
D18*
G36*
X189103000Y-69283510D02*
G01*
X188958256Y-69186795D01*
X188769898Y-69108774D01*
X188569939Y-69069000D01*
X188487000Y-69069000D01*
X188487000Y-68986061D01*
X188447226Y-68786102D01*
X188369205Y-68597744D01*
X188255937Y-68428226D01*
X188111774Y-68284063D01*
X187942256Y-68170795D01*
X187753898Y-68092774D01*
X187553939Y-68053000D01*
X187350061Y-68053000D01*
X187150102Y-68092774D01*
X186961744Y-68170795D01*
X186944000Y-68182651D01*
X186926256Y-68170795D01*
X186737898Y-68092774D01*
X186537939Y-68053000D01*
X186334061Y-68053000D01*
X186134102Y-68092774D01*
X185945744Y-68170795D01*
X185776226Y-68284063D01*
X185632063Y-68428226D01*
X185518795Y-68597744D01*
X185440774Y-68786102D01*
X185401000Y-68986061D01*
X185401000Y-69189939D01*
X185440774Y-69389898D01*
X185518795Y-69578256D01*
X185632063Y-69747774D01*
X185776226Y-69891937D01*
X185945744Y-70005205D01*
X186134102Y-70083226D01*
X186334061Y-70123000D01*
X186537939Y-70123000D01*
X186737898Y-70083226D01*
X186926256Y-70005205D01*
X186944000Y-69993349D01*
X186961744Y-70005205D01*
X187150102Y-70083226D01*
X187350061Y-70123000D01*
X187433000Y-70123000D01*
X187433000Y-70205939D01*
X187472774Y-70405898D01*
X187550795Y-70594256D01*
X187664063Y-70763774D01*
X187808226Y-70907937D01*
X187977744Y-71021205D01*
X188166102Y-71099226D01*
X188366061Y-71139000D01*
X188569939Y-71139000D01*
X188769898Y-71099226D01*
X188958256Y-71021205D01*
X189103000Y-70924490D01*
X189103000Y-73914000D01*
X189105440Y-73938776D01*
X189112667Y-73962601D01*
X189124403Y-73984557D01*
X189140197Y-74003803D01*
X189159443Y-74019597D01*
X189181399Y-74031333D01*
X189205224Y-74038560D01*
X189230000Y-74041000D01*
X206417001Y-74041000D01*
X206417000Y-87611994D01*
X206406185Y-87598815D01*
X206309494Y-87519463D01*
X206199180Y-87460498D01*
X206079482Y-87424188D01*
X205955000Y-87411928D01*
X204255000Y-87411928D01*
X204130518Y-87424188D01*
X204010820Y-87460498D01*
X203900506Y-87519463D01*
X203803815Y-87598815D01*
X203724463Y-87695506D01*
X203665498Y-87805820D01*
X203629188Y-87925518D01*
X203616928Y-88050000D01*
X203616928Y-88169421D01*
X203501898Y-88121774D01*
X203301939Y-88082000D01*
X203098061Y-88082000D01*
X202898102Y-88121774D01*
X202709744Y-88199795D01*
X202540226Y-88313063D01*
X202396063Y-88457226D01*
X202282795Y-88626744D01*
X202204774Y-88815102D01*
X202165000Y-89015061D01*
X202165000Y-89218939D01*
X202204774Y-89418898D01*
X202282795Y-89607256D01*
X202396063Y-89776774D01*
X202540226Y-89920937D01*
X202709744Y-90034205D01*
X202898102Y-90112226D01*
X203098061Y-90152000D01*
X203301939Y-90152000D01*
X203501898Y-90112226D01*
X203687502Y-90035346D01*
X203724463Y-90104494D01*
X203803815Y-90201185D01*
X203900506Y-90280537D01*
X204010820Y-90339502D01*
X204083380Y-90361513D01*
X203951525Y-90493368D01*
X203789010Y-90736589D01*
X203677068Y-91006842D01*
X203620000Y-91293740D01*
X203620000Y-91586260D01*
X203677068Y-91873158D01*
X203789010Y-92143411D01*
X203951525Y-92386632D01*
X204158368Y-92593475D01*
X204401589Y-92755990D01*
X204671842Y-92867932D01*
X204958740Y-92925000D01*
X205251260Y-92925000D01*
X205538158Y-92867932D01*
X205808411Y-92755990D01*
X206051632Y-92593475D01*
X206258475Y-92386632D01*
X206417000Y-92149382D01*
X206417000Y-98601486D01*
X206385400Y-98902163D01*
X206303948Y-99152886D01*
X206172100Y-99381207D01*
X205995792Y-99577056D01*
X205782521Y-99731950D01*
X205541630Y-99839215D01*
X205283783Y-99894000D01*
X205273876Y-99894000D01*
X205355454Y-99701742D01*
X205403000Y-99473000D01*
X205403000Y-98923000D01*
X204345000Y-98923000D01*
X204345000Y-98943000D01*
X204091000Y-98943000D01*
X204091000Y-98923000D01*
X203033000Y-98923000D01*
X203033000Y-99473000D01*
X203080546Y-99701742D01*
X203162124Y-99894000D01*
X196633876Y-99894000D01*
X196715454Y-99701742D01*
X196763000Y-99473000D01*
X196763000Y-98923000D01*
X195705000Y-98923000D01*
X195705000Y-98943000D01*
X195451000Y-98943000D01*
X195451000Y-98923000D01*
X194393000Y-98923000D01*
X194393000Y-99473000D01*
X194440546Y-99701742D01*
X194522124Y-99894000D01*
X187304781Y-99894000D01*
X187349774Y-99863937D01*
X187493937Y-99719774D01*
X187607205Y-99550256D01*
X187685226Y-99361898D01*
X187725000Y-99161939D01*
X187725000Y-98958061D01*
X187685226Y-98758102D01*
X187607205Y-98569744D01*
X187493937Y-98400226D01*
X187349774Y-98256063D01*
X187180256Y-98142795D01*
X187122811Y-98119000D01*
X194393000Y-98119000D01*
X194393000Y-98669000D01*
X195451000Y-98669000D01*
X195451000Y-97227639D01*
X195705000Y-97227639D01*
X195705000Y-98669000D01*
X196763000Y-98669000D01*
X196763000Y-98119000D01*
X203033000Y-98119000D01*
X203033000Y-98669000D01*
X204091000Y-98669000D01*
X204091000Y-97227639D01*
X204345000Y-97227639D01*
X204345000Y-98669000D01*
X205403000Y-98669000D01*
X205403000Y-98119000D01*
X205355454Y-97890258D01*
X205264196Y-97675187D01*
X205132734Y-97482052D01*
X204966119Y-97318275D01*
X204770754Y-97190150D01*
X204554147Y-97102601D01*
X204527744Y-97102197D01*
X204345000Y-97227639D01*
X204091000Y-97227639D01*
X203908256Y-97102197D01*
X203881853Y-97102601D01*
X203665246Y-97190150D01*
X203469881Y-97318275D01*
X203303266Y-97482052D01*
X203171804Y-97675187D01*
X203080546Y-97890258D01*
X203033000Y-98119000D01*
X196763000Y-98119000D01*
X196715454Y-97890258D01*
X196624196Y-97675187D01*
X196492734Y-97482052D01*
X196326119Y-97318275D01*
X196130754Y-97190150D01*
X195914147Y-97102601D01*
X195887744Y-97102197D01*
X195705000Y-97227639D01*
X195451000Y-97227639D01*
X195268256Y-97102197D01*
X195241853Y-97102601D01*
X195025246Y-97190150D01*
X194829881Y-97318275D01*
X194663266Y-97482052D01*
X194531804Y-97675187D01*
X194440546Y-97890258D01*
X194393000Y-98119000D01*
X187122811Y-98119000D01*
X186991898Y-98064774D01*
X186791939Y-98025000D01*
X186588061Y-98025000D01*
X186388102Y-98064774D01*
X186199744Y-98142795D01*
X186030226Y-98256063D01*
X185886063Y-98400226D01*
X185772795Y-98569744D01*
X185694774Y-98758102D01*
X185655000Y-98958061D01*
X185655000Y-99161939D01*
X185694774Y-99361898D01*
X185772795Y-99550256D01*
X185886063Y-99719774D01*
X186030226Y-99863937D01*
X186075219Y-99894000D01*
X176888906Y-99894000D01*
X177025012Y-99690302D01*
X177185953Y-99301756D01*
X177268000Y-98889279D01*
X177268000Y-98468721D01*
X177185953Y-98056244D01*
X177025012Y-97667698D01*
X176791363Y-97318017D01*
X176493983Y-97020637D01*
X176144302Y-96786988D01*
X175755756Y-96626047D01*
X175343279Y-96544000D01*
X174922721Y-96544000D01*
X174510244Y-96626047D01*
X174121698Y-96786988D01*
X173887000Y-96943808D01*
X173887000Y-95123000D01*
X194393000Y-95123000D01*
X194393000Y-95673000D01*
X194440546Y-95901742D01*
X194531804Y-96116813D01*
X194663266Y-96309948D01*
X194829881Y-96473725D01*
X195025246Y-96601850D01*
X195241853Y-96689399D01*
X195268256Y-96689803D01*
X195451000Y-96564361D01*
X195451000Y-95123000D01*
X195705000Y-95123000D01*
X195705000Y-96564361D01*
X195887744Y-96689803D01*
X195914147Y-96689399D01*
X196130754Y-96601850D01*
X196326119Y-96473725D01*
X196492734Y-96309948D01*
X196624196Y-96116813D01*
X196715454Y-95901742D01*
X196763000Y-95673000D01*
X196763000Y-95123000D01*
X203033000Y-95123000D01*
X203033000Y-95673000D01*
X203080546Y-95901742D01*
X203171804Y-96116813D01*
X203303266Y-96309948D01*
X203469881Y-96473725D01*
X203665246Y-96601850D01*
X203881853Y-96689399D01*
X203908256Y-96689803D01*
X204091000Y-96564361D01*
X204091000Y-95123000D01*
X204345000Y-95123000D01*
X204345000Y-96564361D01*
X204527744Y-96689803D01*
X204554147Y-96689399D01*
X204770754Y-96601850D01*
X204966119Y-96473725D01*
X205132734Y-96309948D01*
X205264196Y-96116813D01*
X205355454Y-95901742D01*
X205403000Y-95673000D01*
X205403000Y-95123000D01*
X204345000Y-95123000D01*
X204091000Y-95123000D01*
X203033000Y-95123000D01*
X196763000Y-95123000D01*
X195705000Y-95123000D01*
X195451000Y-95123000D01*
X194393000Y-95123000D01*
X173887000Y-95123000D01*
X173887000Y-94319000D01*
X194393000Y-94319000D01*
X194393000Y-94869000D01*
X195451000Y-94869000D01*
X195451000Y-93427639D01*
X195705000Y-93427639D01*
X195705000Y-94869000D01*
X196763000Y-94869000D01*
X196763000Y-94319000D01*
X203033000Y-94319000D01*
X203033000Y-94869000D01*
X204091000Y-94869000D01*
X204091000Y-93427639D01*
X204345000Y-93427639D01*
X204345000Y-94869000D01*
X205403000Y-94869000D01*
X205403000Y-94319000D01*
X205355454Y-94090258D01*
X205264196Y-93875187D01*
X205132734Y-93682052D01*
X204966119Y-93518275D01*
X204770754Y-93390150D01*
X204554147Y-93302601D01*
X204527744Y-93302197D01*
X204345000Y-93427639D01*
X204091000Y-93427639D01*
X203908256Y-93302197D01*
X203881853Y-93302601D01*
X203665246Y-93390150D01*
X203469881Y-93518275D01*
X203303266Y-93682052D01*
X203171804Y-93875187D01*
X203080546Y-94090258D01*
X203033000Y-94319000D01*
X196763000Y-94319000D01*
X196715454Y-94090258D01*
X196624196Y-93875187D01*
X196492734Y-93682052D01*
X196326119Y-93518275D01*
X196130754Y-93390150D01*
X195914147Y-93302601D01*
X195887744Y-93302197D01*
X195705000Y-93427639D01*
X195451000Y-93427639D01*
X195268256Y-93302197D01*
X195241853Y-93302601D01*
X195025246Y-93390150D01*
X194829881Y-93518275D01*
X194663266Y-93682052D01*
X194531804Y-93875187D01*
X194440546Y-94090258D01*
X194393000Y-94319000D01*
X173887000Y-94319000D01*
X173887000Y-91510714D01*
X186462653Y-91510714D01*
X186462653Y-91714592D01*
X186502427Y-91914551D01*
X186580448Y-92102909D01*
X186693716Y-92272427D01*
X186837879Y-92416590D01*
X187007397Y-92529858D01*
X187195755Y-92607879D01*
X187395714Y-92647653D01*
X187599592Y-92647653D01*
X187799551Y-92607879D01*
X187987909Y-92529858D01*
X188157427Y-92416590D01*
X188301590Y-92272427D01*
X188414858Y-92102909D01*
X188492879Y-91914551D01*
X188532653Y-91714592D01*
X188532653Y-91510714D01*
X188492879Y-91310755D01*
X188414858Y-91122397D01*
X188301590Y-90952879D01*
X188157427Y-90808716D01*
X187987909Y-90695448D01*
X187799551Y-90617427D01*
X187599592Y-90577653D01*
X187395714Y-90577653D01*
X187195755Y-90617427D01*
X187007397Y-90695448D01*
X186837879Y-90808716D01*
X186693716Y-90952879D01*
X186580448Y-91122397D01*
X186502427Y-91310755D01*
X186462653Y-91510714D01*
X173887000Y-91510714D01*
X173887000Y-90516107D01*
X174059368Y-90688475D01*
X174302589Y-90850990D01*
X174572842Y-90962932D01*
X174859740Y-91020000D01*
X175152260Y-91020000D01*
X175439158Y-90962932D01*
X175709411Y-90850990D01*
X175952632Y-90688475D01*
X176159475Y-90481632D01*
X176321990Y-90238411D01*
X176355271Y-90158061D01*
X178552347Y-90158061D01*
X178552347Y-90361939D01*
X178592121Y-90561898D01*
X178670142Y-90750256D01*
X178783410Y-90919774D01*
X178927573Y-91063937D01*
X179097091Y-91177205D01*
X179285449Y-91255226D01*
X179485408Y-91295000D01*
X179689286Y-91295000D01*
X179889245Y-91255226D01*
X180077603Y-91177205D01*
X180247121Y-91063937D01*
X180391284Y-90919774D01*
X180504552Y-90750256D01*
X180582573Y-90561898D01*
X180622347Y-90361939D01*
X180622347Y-90158061D01*
X180582573Y-89958102D01*
X180573264Y-89935627D01*
X188046500Y-89935627D01*
X188046500Y-90119805D01*
X188082432Y-90300445D01*
X188152914Y-90470605D01*
X188255238Y-90623744D01*
X188385472Y-90753978D01*
X188538611Y-90856302D01*
X188708771Y-90926784D01*
X188889411Y-90962716D01*
X188910378Y-90962716D01*
X188949492Y-91021254D01*
X189079726Y-91151488D01*
X189232865Y-91253812D01*
X189403025Y-91324294D01*
X189583665Y-91360226D01*
X189767843Y-91360226D01*
X189829753Y-91347911D01*
X191470000Y-91347911D01*
X191470000Y-91532089D01*
X191505932Y-91712729D01*
X191576414Y-91882889D01*
X191678738Y-92036028D01*
X191808972Y-92166262D01*
X191962111Y-92268586D01*
X192132271Y-92339068D01*
X192312911Y-92375000D01*
X192497089Y-92375000D01*
X192677729Y-92339068D01*
X192847889Y-92268586D01*
X192887291Y-92242258D01*
X194170163Y-92242258D01*
X194170163Y-92426436D01*
X194206095Y-92607076D01*
X194276577Y-92777236D01*
X194378901Y-92930375D01*
X194509135Y-93060609D01*
X194662274Y-93162933D01*
X194832434Y-93233415D01*
X195013074Y-93269347D01*
X195197252Y-93269347D01*
X195377892Y-93233415D01*
X195548052Y-93162933D01*
X195701191Y-93060609D01*
X195831425Y-92930375D01*
X195933749Y-92777236D01*
X196004231Y-92607076D01*
X196032959Y-92462654D01*
X196070256Y-92447205D01*
X196239774Y-92333937D01*
X196383937Y-92189774D01*
X196497205Y-92020256D01*
X196575226Y-91831898D01*
X196615000Y-91631939D01*
X196615000Y-91428061D01*
X196575226Y-91228102D01*
X196497205Y-91039744D01*
X196383937Y-90870226D01*
X196239774Y-90726063D01*
X196070640Y-90613051D01*
X198355000Y-90613051D01*
X198355000Y-90816929D01*
X198394774Y-91016888D01*
X198472795Y-91205246D01*
X198586063Y-91374764D01*
X198730226Y-91518927D01*
X198899744Y-91632195D01*
X199088102Y-91710216D01*
X199288061Y-91749990D01*
X199491939Y-91749990D01*
X199691898Y-91710216D01*
X199880256Y-91632195D01*
X200049774Y-91518927D01*
X200193937Y-91374764D01*
X200307205Y-91205246D01*
X200383704Y-91020561D01*
X200577500Y-91020561D01*
X200577500Y-91224439D01*
X200617274Y-91424398D01*
X200695295Y-91612756D01*
X200808563Y-91782274D01*
X200952726Y-91926437D01*
X201122244Y-92039705D01*
X201310602Y-92117726D01*
X201510561Y-92157500D01*
X201714439Y-92157500D01*
X201914398Y-92117726D01*
X202102756Y-92039705D01*
X202272274Y-91926437D01*
X202416437Y-91782274D01*
X202529705Y-91612756D01*
X202607726Y-91424398D01*
X202647500Y-91224439D01*
X202647500Y-91020561D01*
X202607726Y-90820602D01*
X202529705Y-90632244D01*
X202416437Y-90462726D01*
X202272274Y-90318563D01*
X202102756Y-90205295D01*
X201914398Y-90127274D01*
X201714439Y-90087500D01*
X201510561Y-90087500D01*
X201310602Y-90127274D01*
X201122244Y-90205295D01*
X200952726Y-90318563D01*
X200808563Y-90462726D01*
X200695295Y-90632244D01*
X200617274Y-90820602D01*
X200577500Y-91020561D01*
X200383704Y-91020561D01*
X200385226Y-91016888D01*
X200425000Y-90816929D01*
X200425000Y-90613051D01*
X200385226Y-90413092D01*
X200307205Y-90224734D01*
X200193937Y-90055216D01*
X200049774Y-89911053D01*
X199880256Y-89797785D01*
X199691898Y-89719764D01*
X199491939Y-89679990D01*
X199288061Y-89679990D01*
X199088102Y-89719764D01*
X198899744Y-89797785D01*
X198730226Y-89911053D01*
X198586063Y-90055216D01*
X198472795Y-90224734D01*
X198394774Y-90413092D01*
X198355000Y-90613051D01*
X196070640Y-90613051D01*
X196070256Y-90612795D01*
X195881898Y-90534774D01*
X195681939Y-90495000D01*
X195478061Y-90495000D01*
X195278102Y-90534774D01*
X195089744Y-90612795D01*
X194920226Y-90726063D01*
X194776063Y-90870226D01*
X194662795Y-91039744D01*
X194584774Y-91228102D01*
X194545000Y-91428061D01*
X194545000Y-91584121D01*
X194509135Y-91608085D01*
X194378901Y-91738319D01*
X194276577Y-91891458D01*
X194206095Y-92061618D01*
X194170163Y-92242258D01*
X192887291Y-92242258D01*
X193001028Y-92166262D01*
X193131262Y-92036028D01*
X193233586Y-91882889D01*
X193304068Y-91712729D01*
X193340000Y-91532089D01*
X193340000Y-91347911D01*
X193304068Y-91167271D01*
X193233586Y-90997111D01*
X193131262Y-90843972D01*
X193001028Y-90713738D01*
X192847889Y-90611414D01*
X192677729Y-90540932D01*
X192497089Y-90505000D01*
X192312911Y-90505000D01*
X192132271Y-90540932D01*
X191962111Y-90611414D01*
X191808972Y-90713738D01*
X191678738Y-90843972D01*
X191576414Y-90997111D01*
X191505932Y-91167271D01*
X191470000Y-91347911D01*
X189829753Y-91347911D01*
X189948483Y-91324294D01*
X190118643Y-91253812D01*
X190271782Y-91151488D01*
X190402016Y-91021254D01*
X190504340Y-90868115D01*
X190574822Y-90697955D01*
X190610754Y-90517315D01*
X190610754Y-90333137D01*
X190574822Y-90152497D01*
X190504340Y-89982337D01*
X190402016Y-89829198D01*
X190271782Y-89698964D01*
X190118643Y-89596640D01*
X189948483Y-89526158D01*
X189767843Y-89490226D01*
X189746876Y-89490226D01*
X189707762Y-89431688D01*
X189577528Y-89301454D01*
X189424389Y-89199130D01*
X189254229Y-89128648D01*
X189073589Y-89092716D01*
X188889411Y-89092716D01*
X188708771Y-89128648D01*
X188538611Y-89199130D01*
X188385472Y-89301454D01*
X188255238Y-89431688D01*
X188152914Y-89584827D01*
X188082432Y-89754987D01*
X188046500Y-89935627D01*
X180573264Y-89935627D01*
X180504552Y-89769744D01*
X180391284Y-89600226D01*
X180247121Y-89456063D01*
X180077603Y-89342795D01*
X179889245Y-89264774D01*
X179689286Y-89225000D01*
X179485408Y-89225000D01*
X179285449Y-89264774D01*
X179097091Y-89342795D01*
X178927573Y-89456063D01*
X178783410Y-89600226D01*
X178670142Y-89769744D01*
X178592121Y-89958102D01*
X178552347Y-90158061D01*
X176355271Y-90158061D01*
X176433932Y-89968158D01*
X176491000Y-89681260D01*
X176491000Y-89388740D01*
X176433932Y-89101842D01*
X176321990Y-88831589D01*
X176159475Y-88588368D01*
X175952632Y-88381525D01*
X175815747Y-88290061D01*
X190005021Y-88290061D01*
X190005021Y-88493939D01*
X190044795Y-88693898D01*
X190122816Y-88882256D01*
X190236084Y-89051774D01*
X190380247Y-89195937D01*
X190549765Y-89309205D01*
X190738123Y-89387226D01*
X190938082Y-89427000D01*
X191141960Y-89427000D01*
X191341919Y-89387226D01*
X191530277Y-89309205D01*
X191699795Y-89195937D01*
X191843958Y-89051774D01*
X191957226Y-88882256D01*
X192035247Y-88693898D01*
X192075021Y-88493939D01*
X192075021Y-88290061D01*
X192035247Y-88090102D01*
X191957226Y-87901744D01*
X191843958Y-87732226D01*
X191699795Y-87588063D01*
X191563064Y-87496702D01*
X196608359Y-87496702D01*
X196608359Y-87700580D01*
X196648133Y-87900539D01*
X196726154Y-88088897D01*
X196839422Y-88258415D01*
X196983585Y-88402578D01*
X197153103Y-88515846D01*
X197341461Y-88593867D01*
X197541420Y-88633641D01*
X197745298Y-88633641D01*
X197945257Y-88593867D01*
X198133615Y-88515846D01*
X198303133Y-88402578D01*
X198447296Y-88258415D01*
X198560564Y-88088897D01*
X198638585Y-87900539D01*
X198678359Y-87700580D01*
X198678359Y-87496702D01*
X198638585Y-87296743D01*
X198560564Y-87108385D01*
X198447296Y-86938867D01*
X198303133Y-86794704D01*
X198133615Y-86681436D01*
X197945257Y-86603415D01*
X197745298Y-86563641D01*
X197541420Y-86563641D01*
X197341461Y-86603415D01*
X197153103Y-86681436D01*
X196983585Y-86794704D01*
X196839422Y-86938867D01*
X196726154Y-87108385D01*
X196648133Y-87296743D01*
X196608359Y-87496702D01*
X191563064Y-87496702D01*
X191530277Y-87474795D01*
X191341919Y-87396774D01*
X191141960Y-87357000D01*
X190938082Y-87357000D01*
X190738123Y-87396774D01*
X190549765Y-87474795D01*
X190380247Y-87588063D01*
X190236084Y-87732226D01*
X190122816Y-87901744D01*
X190044795Y-88090102D01*
X190005021Y-88290061D01*
X175815747Y-88290061D01*
X175778240Y-88265000D01*
X175952632Y-88148475D01*
X176159475Y-87941632D01*
X176321990Y-87698411D01*
X176433932Y-87428158D01*
X176491000Y-87141260D01*
X176491000Y-86848740D01*
X176433932Y-86561842D01*
X176321990Y-86291589D01*
X176159475Y-86048368D01*
X175952632Y-85841525D01*
X175815748Y-85750061D01*
X200481979Y-85750061D01*
X200481979Y-85953939D01*
X200521753Y-86153898D01*
X200599774Y-86342256D01*
X200707014Y-86502753D01*
X200680774Y-86566102D01*
X200641000Y-86766061D01*
X200641000Y-86969939D01*
X200680774Y-87169898D01*
X200758795Y-87358256D01*
X200872063Y-87527774D01*
X201016226Y-87671937D01*
X201185744Y-87785205D01*
X201374102Y-87863226D01*
X201574061Y-87903000D01*
X201777939Y-87903000D01*
X201977898Y-87863226D01*
X202166256Y-87785205D01*
X202335774Y-87671937D01*
X202479937Y-87527774D01*
X202593205Y-87358256D01*
X202671226Y-87169898D01*
X202711000Y-86969939D01*
X202711000Y-86766061D01*
X202671226Y-86566102D01*
X202593205Y-86377744D01*
X202485965Y-86217247D01*
X202512205Y-86153898D01*
X202551979Y-85953939D01*
X202551979Y-85750061D01*
X202512205Y-85550102D01*
X202434184Y-85361744D01*
X202320916Y-85192226D01*
X202176753Y-85048063D01*
X202007235Y-84934795D01*
X201818877Y-84856774D01*
X201618918Y-84817000D01*
X201415040Y-84817000D01*
X201215081Y-84856774D01*
X201026723Y-84934795D01*
X200857205Y-85048063D01*
X200713042Y-85192226D01*
X200599774Y-85361744D01*
X200521753Y-85550102D01*
X200481979Y-85750061D01*
X175815748Y-85750061D01*
X175770466Y-85719805D01*
X175887355Y-85650178D01*
X176103588Y-85455269D01*
X176277641Y-85221920D01*
X176402825Y-84959099D01*
X176447476Y-84811890D01*
X176326155Y-84582000D01*
X175133000Y-84582000D01*
X175133000Y-84602000D01*
X174879000Y-84602000D01*
X174879000Y-84582000D01*
X174859000Y-84582000D01*
X174859000Y-84328000D01*
X174879000Y-84328000D01*
X174879000Y-84308000D01*
X175133000Y-84308000D01*
X175133000Y-84328000D01*
X176326155Y-84328000D01*
X176379951Y-84226061D01*
X184094000Y-84226061D01*
X184094000Y-84429939D01*
X184133774Y-84629898D01*
X184211795Y-84818256D01*
X184325063Y-84987774D01*
X184469226Y-85131937D01*
X184638744Y-85245205D01*
X184827102Y-85323226D01*
X185027061Y-85363000D01*
X185230939Y-85363000D01*
X185430898Y-85323226D01*
X185619256Y-85245205D01*
X185788774Y-85131937D01*
X185932937Y-84987774D01*
X186046205Y-84818256D01*
X186124226Y-84629898D01*
X186164000Y-84429939D01*
X186164000Y-84226061D01*
X186124226Y-84026102D01*
X186107065Y-83984671D01*
X190491153Y-83984671D01*
X190491153Y-84168849D01*
X190527085Y-84349489D01*
X190597567Y-84519649D01*
X190699891Y-84672788D01*
X190830125Y-84803022D01*
X190983264Y-84905346D01*
X191153424Y-84975828D01*
X191334064Y-85011760D01*
X191518242Y-85011760D01*
X191698882Y-84975828D01*
X191869042Y-84905346D01*
X192022181Y-84803022D01*
X192152415Y-84672788D01*
X192254739Y-84519649D01*
X192325221Y-84349489D01*
X192330852Y-84321181D01*
X192494042Y-84253586D01*
X192647181Y-84151262D01*
X192777415Y-84021028D01*
X192879739Y-83867889D01*
X192950221Y-83697729D01*
X192986153Y-83517089D01*
X192986153Y-83332911D01*
X192950221Y-83152271D01*
X192879739Y-82982111D01*
X192777415Y-82828972D01*
X192700071Y-82751628D01*
X192789432Y-82617889D01*
X192859914Y-82447729D01*
X192895846Y-82267089D01*
X192895846Y-82136908D01*
X192972182Y-82085902D01*
X193102416Y-81955668D01*
X193204740Y-81802529D01*
X193275222Y-81632369D01*
X193311154Y-81451729D01*
X193311154Y-81267551D01*
X193293354Y-81178061D01*
X200895000Y-81178061D01*
X200895000Y-81381939D01*
X200934774Y-81581898D01*
X201012795Y-81770256D01*
X201019307Y-81780001D01*
X201012795Y-81789747D01*
X200934774Y-81978105D01*
X200895000Y-82178064D01*
X200895000Y-82381942D01*
X200934774Y-82581901D01*
X201012795Y-82770259D01*
X201029859Y-82795797D01*
X201025446Y-82802401D01*
X200947425Y-82990759D01*
X200907651Y-83190718D01*
X200907651Y-83394596D01*
X200947425Y-83594555D01*
X201025446Y-83782913D01*
X201138714Y-83952431D01*
X201282877Y-84096594D01*
X201452395Y-84209862D01*
X201640753Y-84287883D01*
X201840712Y-84327657D01*
X202044590Y-84327657D01*
X202244549Y-84287883D01*
X202432907Y-84209862D01*
X202602425Y-84096594D01*
X202746588Y-83952431D01*
X202859856Y-83782913D01*
X202937877Y-83594555D01*
X202977651Y-83394596D01*
X202977651Y-83190718D01*
X202937877Y-82990759D01*
X202859856Y-82802401D01*
X202842792Y-82776863D01*
X202847205Y-82770259D01*
X202925226Y-82581901D01*
X202965000Y-82381942D01*
X202965000Y-82178064D01*
X202925226Y-81978105D01*
X202847205Y-81789747D01*
X202840693Y-81780001D01*
X202847205Y-81770256D01*
X202925226Y-81581898D01*
X202965000Y-81381939D01*
X202965000Y-81178061D01*
X202925226Y-80978102D01*
X202847205Y-80789744D01*
X202733937Y-80620226D01*
X202589774Y-80476063D01*
X202420256Y-80362795D01*
X202231898Y-80284774D01*
X202031939Y-80245000D01*
X201828061Y-80245000D01*
X201628102Y-80284774D01*
X201439744Y-80362795D01*
X201270226Y-80476063D01*
X201126063Y-80620226D01*
X201012795Y-80789744D01*
X200934774Y-80978102D01*
X200895000Y-81178061D01*
X193293354Y-81178061D01*
X193275222Y-81086911D01*
X193204740Y-80916751D01*
X193102416Y-80763612D01*
X192972182Y-80633378D01*
X192819043Y-80531054D01*
X192648883Y-80460572D01*
X192468243Y-80424640D01*
X192284065Y-80424640D01*
X192103425Y-80460572D01*
X191933265Y-80531054D01*
X191780126Y-80633378D01*
X191649892Y-80763612D01*
X191547568Y-80916751D01*
X191477086Y-81086911D01*
X191441154Y-81267551D01*
X191441154Y-81397732D01*
X191364818Y-81448738D01*
X191234584Y-81578972D01*
X191132260Y-81732111D01*
X191061778Y-81902271D01*
X191025846Y-82082911D01*
X191025846Y-82267089D01*
X191061778Y-82447729D01*
X191132260Y-82617889D01*
X191234584Y-82771028D01*
X191311928Y-82848372D01*
X191222567Y-82982111D01*
X191152085Y-83152271D01*
X191146454Y-83180579D01*
X190983264Y-83248174D01*
X190830125Y-83350498D01*
X190699891Y-83480732D01*
X190597567Y-83633871D01*
X190527085Y-83804031D01*
X190491153Y-83984671D01*
X186107065Y-83984671D01*
X186046205Y-83837744D01*
X185932937Y-83668226D01*
X185788774Y-83524063D01*
X185619256Y-83410795D01*
X185430898Y-83332774D01*
X185230939Y-83293000D01*
X185027061Y-83293000D01*
X184827102Y-83332774D01*
X184638744Y-83410795D01*
X184469226Y-83524063D01*
X184325063Y-83668226D01*
X184211795Y-83837744D01*
X184133774Y-84026102D01*
X184094000Y-84226061D01*
X176379951Y-84226061D01*
X176447476Y-84098110D01*
X176402825Y-83950901D01*
X176277641Y-83688080D01*
X176103588Y-83454731D01*
X175887355Y-83259822D01*
X175770466Y-83190195D01*
X175952632Y-83068475D01*
X176159475Y-82861632D01*
X176321990Y-82618411D01*
X176433932Y-82348158D01*
X176462624Y-82203911D01*
X178897000Y-82203911D01*
X178897000Y-82388089D01*
X178932932Y-82568729D01*
X179003414Y-82738889D01*
X179105738Y-82892028D01*
X179235972Y-83022262D01*
X179389111Y-83124586D01*
X179559271Y-83195068D01*
X179739911Y-83231000D01*
X179924089Y-83231000D01*
X180104729Y-83195068D01*
X180274889Y-83124586D01*
X180428028Y-83022262D01*
X180558262Y-82892028D01*
X180660586Y-82738889D01*
X180731068Y-82568729D01*
X180767000Y-82388089D01*
X180767000Y-82203911D01*
X180731068Y-82023271D01*
X180660586Y-81853111D01*
X180558262Y-81699972D01*
X180428028Y-81569738D01*
X180274889Y-81467414D01*
X180104729Y-81396932D01*
X179924089Y-81361000D01*
X179739911Y-81361000D01*
X179559271Y-81396932D01*
X179389111Y-81467414D01*
X179235972Y-81569738D01*
X179105738Y-81699972D01*
X179003414Y-81853111D01*
X178932932Y-82023271D01*
X178897000Y-82203911D01*
X176462624Y-82203911D01*
X176491000Y-82061260D01*
X176491000Y-81768740D01*
X176433932Y-81481842D01*
X176321990Y-81211589D01*
X176159475Y-80968368D01*
X175952632Y-80761525D01*
X175778240Y-80645000D01*
X175952632Y-80528475D01*
X176159475Y-80321632D01*
X176321990Y-80078411D01*
X176433932Y-79808158D01*
X176434810Y-79803740D01*
X177585000Y-79803740D01*
X177585000Y-80096260D01*
X177642068Y-80383158D01*
X177754010Y-80653411D01*
X177916525Y-80896632D01*
X178123368Y-81103475D01*
X178366589Y-81265990D01*
X178636842Y-81377932D01*
X178923740Y-81435000D01*
X179216260Y-81435000D01*
X179503158Y-81377932D01*
X179773411Y-81265990D01*
X179810258Y-81241369D01*
X184168000Y-81241369D01*
X184168000Y-81445247D01*
X184207774Y-81645206D01*
X184285795Y-81833564D01*
X184399063Y-82003082D01*
X184543226Y-82147245D01*
X184712744Y-82260513D01*
X184901102Y-82338534D01*
X185101061Y-82378308D01*
X185304939Y-82378308D01*
X185504898Y-82338534D01*
X185693256Y-82260513D01*
X185862774Y-82147245D01*
X186006937Y-82003082D01*
X186120205Y-81833564D01*
X186198226Y-81645206D01*
X186238000Y-81445247D01*
X186238000Y-81363309D01*
X186257486Y-81410352D01*
X186370754Y-81579870D01*
X186514917Y-81724033D01*
X186684435Y-81837301D01*
X186872793Y-81915322D01*
X187072752Y-81955096D01*
X187276630Y-81955096D01*
X187476589Y-81915322D01*
X187508640Y-81902046D01*
X187585625Y-81979031D01*
X187755143Y-82092299D01*
X187943501Y-82170320D01*
X188143460Y-82210094D01*
X188347338Y-82210094D01*
X188547297Y-82170320D01*
X188735655Y-82092299D01*
X188905173Y-81979031D01*
X189049336Y-81834868D01*
X189162604Y-81665350D01*
X189240625Y-81476992D01*
X189280399Y-81277033D01*
X189280399Y-81073155D01*
X189240625Y-80873196D01*
X189162604Y-80684838D01*
X189049336Y-80515320D01*
X188905173Y-80371157D01*
X188735655Y-80257889D01*
X188547297Y-80179868D01*
X188347338Y-80140094D01*
X188143460Y-80140094D01*
X187943501Y-80179868D01*
X187911450Y-80193144D01*
X187834465Y-80116159D01*
X187664947Y-80002891D01*
X187476589Y-79924870D01*
X187276630Y-79885096D01*
X187072752Y-79885096D01*
X186872793Y-79924870D01*
X186684435Y-80002891D01*
X186514917Y-80116159D01*
X186370754Y-80260322D01*
X186257486Y-80429840D01*
X186179465Y-80618198D01*
X186139691Y-80818157D01*
X186139691Y-80900095D01*
X186120205Y-80853052D01*
X186006937Y-80683534D01*
X185862774Y-80539371D01*
X185693256Y-80426103D01*
X185504898Y-80348082D01*
X185304939Y-80308308D01*
X185101061Y-80308308D01*
X184901102Y-80348082D01*
X184712744Y-80426103D01*
X184543226Y-80539371D01*
X184399063Y-80683534D01*
X184285795Y-80853052D01*
X184207774Y-81041410D01*
X184168000Y-81241369D01*
X179810258Y-81241369D01*
X180016632Y-81103475D01*
X180223475Y-80896632D01*
X180385990Y-80653411D01*
X180497932Y-80383158D01*
X180555000Y-80096260D01*
X180555000Y-79803740D01*
X180497932Y-79516842D01*
X180385990Y-79246589D01*
X180223475Y-79003368D01*
X180016632Y-78796525D01*
X179779474Y-78638061D01*
X188666000Y-78638061D01*
X188666000Y-78841939D01*
X188705774Y-79041898D01*
X188783795Y-79230256D01*
X188897063Y-79399774D01*
X189041226Y-79543937D01*
X189210744Y-79657205D01*
X189399102Y-79735226D01*
X189599061Y-79775000D01*
X189802939Y-79775000D01*
X190002898Y-79735226D01*
X190191256Y-79657205D01*
X190290505Y-79590889D01*
X190389754Y-79657205D01*
X190578112Y-79735226D01*
X190778071Y-79775000D01*
X190981949Y-79775000D01*
X191181908Y-79735226D01*
X191370266Y-79657205D01*
X191539784Y-79543937D01*
X191683947Y-79399774D01*
X191797215Y-79230256D01*
X191875236Y-79041898D01*
X191915010Y-78841939D01*
X191915010Y-78638061D01*
X191875236Y-78438102D01*
X191797215Y-78249744D01*
X191683947Y-78080226D01*
X191539784Y-77936063D01*
X191370266Y-77822795D01*
X191181908Y-77744774D01*
X190981949Y-77705000D01*
X190778071Y-77705000D01*
X190578112Y-77744774D01*
X190389754Y-77822795D01*
X190290505Y-77889111D01*
X190191256Y-77822795D01*
X190002898Y-77744774D01*
X189802939Y-77705000D01*
X189599061Y-77705000D01*
X189399102Y-77744774D01*
X189210744Y-77822795D01*
X189041226Y-77936063D01*
X188897063Y-78080226D01*
X188783795Y-78249744D01*
X188705774Y-78438102D01*
X188666000Y-78638061D01*
X179779474Y-78638061D01*
X179773411Y-78634010D01*
X179503158Y-78522068D01*
X179216260Y-78465000D01*
X178923740Y-78465000D01*
X178636842Y-78522068D01*
X178366589Y-78634010D01*
X178123368Y-78796525D01*
X177916525Y-79003368D01*
X177754010Y-79246589D01*
X177642068Y-79516842D01*
X177585000Y-79803740D01*
X176434810Y-79803740D01*
X176491000Y-79521260D01*
X176491000Y-79228740D01*
X176433932Y-78941842D01*
X176321990Y-78671589D01*
X176159475Y-78428368D01*
X176027620Y-78296513D01*
X176100180Y-78274502D01*
X176210494Y-78215537D01*
X176307185Y-78136185D01*
X176386537Y-78039494D01*
X176445502Y-77929180D01*
X176481812Y-77809482D01*
X176494072Y-77685000D01*
X176491000Y-77120750D01*
X176332250Y-76962000D01*
X175133000Y-76962000D01*
X175133000Y-76982000D01*
X174879000Y-76982000D01*
X174879000Y-76962000D01*
X174859000Y-76962000D01*
X174859000Y-76708000D01*
X174879000Y-76708000D01*
X174879000Y-75508750D01*
X175133000Y-75508750D01*
X175133000Y-76708000D01*
X176332250Y-76708000D01*
X176491000Y-76549250D01*
X176493402Y-76107911D01*
X193375000Y-76107911D01*
X193375000Y-76292089D01*
X193410932Y-76472729D01*
X193481414Y-76642889D01*
X193583738Y-76796028D01*
X193622710Y-76835000D01*
X193583738Y-76873972D01*
X193481414Y-77027111D01*
X193410932Y-77197271D01*
X193375000Y-77377911D01*
X193375000Y-77562089D01*
X193410932Y-77742729D01*
X193481414Y-77912889D01*
X193583738Y-78066028D01*
X193713972Y-78196262D01*
X193867111Y-78298586D01*
X194037271Y-78369068D01*
X194217911Y-78405000D01*
X194402089Y-78405000D01*
X194582729Y-78369068D01*
X194752889Y-78298586D01*
X194867976Y-78221687D01*
X194920226Y-78273937D01*
X195089744Y-78387205D01*
X195278102Y-78465226D01*
X195478061Y-78505000D01*
X195681939Y-78505000D01*
X195881898Y-78465226D01*
X196070256Y-78387205D01*
X196239774Y-78273937D01*
X196383937Y-78129774D01*
X196408467Y-78093061D01*
X200895000Y-78093061D01*
X200895000Y-78296939D01*
X200934774Y-78496898D01*
X201012795Y-78685256D01*
X201126063Y-78854774D01*
X201270226Y-78998937D01*
X201439744Y-79112205D01*
X201628102Y-79190226D01*
X201828061Y-79230000D01*
X202031939Y-79230000D01*
X202231898Y-79190226D01*
X202420256Y-79112205D01*
X202589774Y-78998937D01*
X202733937Y-78854774D01*
X202847205Y-78685256D01*
X202925226Y-78496898D01*
X202965000Y-78296939D01*
X202965000Y-78093061D01*
X202925226Y-77893102D01*
X202847205Y-77704744D01*
X202733937Y-77535226D01*
X202589774Y-77391063D01*
X202420256Y-77277795D01*
X202231898Y-77199774D01*
X202031939Y-77160000D01*
X201828061Y-77160000D01*
X201628102Y-77199774D01*
X201439744Y-77277795D01*
X201270226Y-77391063D01*
X201126063Y-77535226D01*
X201012795Y-77704744D01*
X200934774Y-77893102D01*
X200895000Y-78093061D01*
X196408467Y-78093061D01*
X196497205Y-77960256D01*
X196575226Y-77771898D01*
X196615000Y-77571939D01*
X196615000Y-77368061D01*
X196575226Y-77168102D01*
X196497205Y-76979744D01*
X196383937Y-76810226D01*
X196239774Y-76666063D01*
X196070256Y-76552795D01*
X195881898Y-76474774D01*
X195681939Y-76435000D01*
X195478061Y-76435000D01*
X195278102Y-76474774D01*
X195193748Y-76509715D01*
X195209068Y-76472729D01*
X195245000Y-76292089D01*
X195245000Y-76107911D01*
X195213524Y-75949668D01*
X204115981Y-75949668D01*
X204115981Y-76133846D01*
X204151913Y-76314486D01*
X204222395Y-76484646D01*
X204324719Y-76637785D01*
X204454953Y-76768019D01*
X204608092Y-76870343D01*
X204778252Y-76940825D01*
X204958892Y-76976757D01*
X205143070Y-76976757D01*
X205323710Y-76940825D01*
X205493870Y-76870343D01*
X205647009Y-76768019D01*
X205777243Y-76637785D01*
X205879567Y-76484646D01*
X205950049Y-76314486D01*
X205985981Y-76133846D01*
X205985981Y-75949668D01*
X205950049Y-75769028D01*
X205879567Y-75598868D01*
X205777243Y-75445729D01*
X205647009Y-75315495D01*
X205493870Y-75213171D01*
X205323710Y-75142689D01*
X205143070Y-75106757D01*
X204958892Y-75106757D01*
X204778252Y-75142689D01*
X204608092Y-75213171D01*
X204454953Y-75315495D01*
X204324719Y-75445729D01*
X204222395Y-75598868D01*
X204151913Y-75769028D01*
X204115981Y-75949668D01*
X195213524Y-75949668D01*
X195209068Y-75927271D01*
X195138586Y-75757111D01*
X195036262Y-75603972D01*
X194906028Y-75473738D01*
X194752889Y-75371414D01*
X194582729Y-75300932D01*
X194402089Y-75265000D01*
X194217911Y-75265000D01*
X194037271Y-75300932D01*
X193867111Y-75371414D01*
X193713972Y-75473738D01*
X193583738Y-75603972D01*
X193481414Y-75757111D01*
X193410932Y-75927271D01*
X193375000Y-76107911D01*
X176493402Y-76107911D01*
X176494072Y-75985000D01*
X176481812Y-75860518D01*
X176445502Y-75740820D01*
X176386537Y-75630506D01*
X176307185Y-75533815D01*
X176210494Y-75454463D01*
X176100180Y-75395498D01*
X175980482Y-75359188D01*
X175856000Y-75346928D01*
X175291750Y-75350000D01*
X175133000Y-75508750D01*
X174879000Y-75508750D01*
X174720250Y-75350000D01*
X174156000Y-75346928D01*
X174031518Y-75359188D01*
X173911820Y-75395498D01*
X173887000Y-75408765D01*
X173887000Y-72803740D01*
X177585000Y-72803740D01*
X177585000Y-73096260D01*
X177642068Y-73383158D01*
X177754010Y-73653411D01*
X177916525Y-73896632D01*
X178123368Y-74103475D01*
X178366589Y-74265990D01*
X178636842Y-74377932D01*
X178923740Y-74435000D01*
X179216260Y-74435000D01*
X179503158Y-74377932D01*
X179773411Y-74265990D01*
X180016632Y-74103475D01*
X180223475Y-73896632D01*
X180385990Y-73653411D01*
X180425485Y-73558061D01*
X181337000Y-73558061D01*
X181337000Y-73761939D01*
X181376774Y-73961898D01*
X181454795Y-74150256D01*
X181568063Y-74319774D01*
X181712226Y-74463937D01*
X181881744Y-74577205D01*
X182070102Y-74655226D01*
X182270061Y-74695000D01*
X182473939Y-74695000D01*
X182673898Y-74655226D01*
X182862256Y-74577205D01*
X183031774Y-74463937D01*
X183175937Y-74319774D01*
X183289205Y-74150256D01*
X183367226Y-73961898D01*
X183407000Y-73761939D01*
X183407000Y-73558061D01*
X183367226Y-73358102D01*
X183289205Y-73169744D01*
X183175937Y-73000226D01*
X183031774Y-72856063D01*
X182862256Y-72742795D01*
X182673898Y-72664774D01*
X182473939Y-72625000D01*
X182270061Y-72625000D01*
X182070102Y-72664774D01*
X181881744Y-72742795D01*
X181712226Y-72856063D01*
X181568063Y-73000226D01*
X181454795Y-73169744D01*
X181376774Y-73358102D01*
X181337000Y-73558061D01*
X180425485Y-73558061D01*
X180497932Y-73383158D01*
X180555000Y-73096260D01*
X180555000Y-72803740D01*
X180497932Y-72516842D01*
X180385990Y-72246589D01*
X180223475Y-72003368D01*
X180016632Y-71796525D01*
X179773411Y-71634010D01*
X179503158Y-71522068D01*
X179216260Y-71465000D01*
X178923740Y-71465000D01*
X178636842Y-71522068D01*
X178366589Y-71634010D01*
X178123368Y-71796525D01*
X177916525Y-72003368D01*
X177754010Y-72246589D01*
X177642068Y-72516842D01*
X177585000Y-72803740D01*
X173887000Y-72803740D01*
X173887000Y-68678514D01*
X173908066Y-68478061D01*
X178797000Y-68478061D01*
X178797000Y-68681939D01*
X178836774Y-68881898D01*
X178914795Y-69070256D01*
X179028063Y-69239774D01*
X179172226Y-69383937D01*
X179341744Y-69497205D01*
X179530102Y-69575226D01*
X179730061Y-69615000D01*
X179933939Y-69615000D01*
X180133898Y-69575226D01*
X180322256Y-69497205D01*
X180491774Y-69383937D01*
X180635937Y-69239774D01*
X180749205Y-69070256D01*
X180827226Y-68881898D01*
X180867000Y-68681939D01*
X180867000Y-68478061D01*
X180827226Y-68278102D01*
X180749205Y-68089744D01*
X180635937Y-67920226D01*
X180491774Y-67776063D01*
X180322256Y-67662795D01*
X180133898Y-67584774D01*
X179933939Y-67545000D01*
X179730061Y-67545000D01*
X179530102Y-67584774D01*
X179341744Y-67662795D01*
X179172226Y-67776063D01*
X179028063Y-67920226D01*
X178914795Y-68089744D01*
X178836774Y-68278102D01*
X178797000Y-68478061D01*
X173908066Y-68478061D01*
X173918600Y-68377837D01*
X174000052Y-68127115D01*
X174131902Y-67898791D01*
X174308204Y-67702948D01*
X174521483Y-67548048D01*
X174762369Y-67440785D01*
X175020217Y-67386000D01*
X189103000Y-67386000D01*
X189103000Y-69283510D01*
G37*
G04 #@! TD.AperFunction*
M02*
